<?xml version="1.0" encoding="UTF-8"?>
<svg xmlns="http://www.w3.org/2000/svg" viewBox="0 0 382.27 751.2">
  <g style="fill: none; isolation: isolate;">
    <g id="Layer_1" data-name="Layer 1">
      <g>
        <g>
          <rect x="241.55" y="171.42" width="19.12" height="573.57" style="fill: #fff; stroke: #010101; stroke-miterlimit: 10;"/>
          <path d="m242.42,5.52l-120.61,208.91c-3.86,6.69.97,15.05,8.69,15.05h241.23c7.72,0,12.55-8.36,8.69-15.05L259.8,5.52c-3.86-6.69-13.52-6.69-17.38,0Z" style="fill: #f8993a; stroke: #0c1a39; stroke-miterlimit: 10;"/>
          <g>
            <g>
              <path d="m265.48,151.32c-1.49,0-2.98-.57-4.11-1.7-2.74-2.74-6.38-4.24-10.26-4.24s-7.52,1.51-10.26,4.24c-2.27,2.27-5.96,2.27-8.23,0-2.27-2.27-2.27-5.96,0-8.23,4.94-4.93,11.5-7.65,18.49-7.65s13.55,2.72,18.49,7.65c2.27,2.27,2.27,5.96,0,8.23-1.14,1.14-2.63,1.7-4.11,1.7Z" style="fill: #0c1a39;"/>
              <path d="m281.33,135.47c-1.49,0-2.98-.57-4.12-1.71-6.97-6.97-16.24-10.81-26.1-10.81s-19.14,3.84-26.1,10.81c-2.27,2.27-5.96,2.27-8.23,0-2.27-2.27-2.28-5.96,0-8.23,9.17-9.17,21.36-14.23,34.34-14.23s25.17,5.05,34.34,14.23c2.27,2.27,2.27,5.96,0,8.23-1.14,1.13-2.62,1.7-4.11,1.7Z" style="fill: #0c1a39;"/>
              <path d="m300.16,116.65c-1.49,0-2.98-.57-4.12-1.71-12-12-27.95-18.61-44.93-18.61s-32.93,6.61-44.93,18.61c-2.27,2.27-5.96,2.27-8.23,0-2.27-2.27-2.27-5.96,0-8.23,14.19-14.2,33.07-22.02,53.16-22.02s38.97,7.82,53.16,22.02c2.27,2.27,2.27,5.96,0,8.23-1.14,1.14-2.62,1.7-4.11,1.7Z" style="fill: #0c1a39;"/>
            </g>
            <path d="m244.46,164.35c-.91,0-1.83-.21-2.69-.66-2.85-1.49-3.95-5-2.47-7.85l39.9-76.48c1.49-2.85,5-3.95,7.85-2.47,2.85,1.49,3.95,5,2.47,7.85l-39.9,76.48c-1.04,1.99-3.07,3.13-5.16,3.13Z" style="fill: #ed1c25;"/>
          </g>
          <g>
            <path d="m170.98,207.73h-5.26l-8.27-17.31-.11.04v17.27h-5.3v-27.07h5.3l8.27,17.29.11-.04v-17.25h5.26v27.07Z" style="fill: #0c1a39;"/>
            <path d="m193.34,198.01c0,3.17-.86,5.65-2.58,7.44-1.72,1.78-4.02,2.68-6.88,2.68s-5.15-.89-6.86-2.68c-1.71-1.78-2.57-4.26-2.57-7.44v-7.58c0-3.16.85-5.64,2.57-7.45,1.71-1.8,3.99-2.7,6.84-2.7s5.14.9,6.88,2.7c1.73,1.8,2.6,4.29,2.6,7.45v7.58Zm-5.26-7.64c0-1.94-.36-3.4-1.08-4.39-.72-.99-1.77-1.48-3.14-1.48s-2.43.49-3.12,1.47c-.69.98-1.04,2.45-1.04,4.4v7.64c0,1.96.35,3.44,1.06,4.42.71.98,1.75,1.47,3.12,1.47s2.4-.49,3.12-1.47c.72-.98,1.08-2.45,1.08-4.42v-7.64Z" style="fill: #0c1a39;"/>
            <path d="m210.67,207.73h-5.26v-27.07h5.26v27.07Z" style="fill: #0c1a39;"/>
            <path d="m234,207.73h-5.26l-8.27-17.31-.11.04v17.27h-5.3v-27.07h5.3l8.27,17.29.11-.04v-17.25h5.26v27.07Z" style="fill: #0c1a39;"/>
            <path d="m253.52,184.88h-6.1v22.85h-5.28v-22.85h-6.06v-4.22h17.44v4.22Z" style="fill: #0c1a39;"/>
            <path d="m270.45,195.85h-9.09v7.66h10.69v4.22h-15.99v-27.07h15.95v4.22h-10.65v6.75h9.09v4.22Z" style="fill: #0c1a39;"/>
            <path d="m280.1,196.97v10.76h-5.28v-27.05h8.83c2.66,0,4.76.7,6.27,2.11,1.52,1.41,2.28,3.36,2.28,5.87,0,1.41-.32,2.63-.95,3.65-.63,1.02-1.56,1.84-2.77,2.44,1.39.47,2.39,1.25,3,2.34.61,1.09.92,2.45.92,4.09v1.91c0,.74.09,1.54.26,2.39.17.85.48,1.47.91,1.85v.39h-5.46c-.43-.4-.71-1.04-.82-1.93-.11-.89-.17-1.8-.17-2.73v-1.84c0-1.35-.28-2.4-.83-3.14-.55-.74-1.34-1.12-2.37-1.12h-3.83Zm0-4.22h3.53c1.08,0,1.9-.33,2.45-.99.56-.66.84-1.59.84-2.81s-.28-2.22-.84-2.96c-.56-.73-1.37-1.1-2.43-1.1h-3.55v7.85Z" style="fill: #0c1a39;"/>
            <path d="m315.35,207.73h-5.26l-8.27-17.31-.11.04v17.27h-5.3v-27.07h5.3l8.27,17.29.11-.04v-17.25h5.26v27.07Z" style="fill: #0c1a39;"/>
            <path d="m333.87,195.85h-9.09v7.66h10.69v4.22h-15.99v-27.07h15.95v4.22h-10.65v6.75h9.09v4.22Z" style="fill: #0c1a39;"/>
            <path d="m354.52,184.88h-6.1v22.85h-5.28v-22.85h-6.06v-4.22h17.44v4.22Z" style="fill: #0c1a39;"/>
          </g>
          <polygon points="241.55 229.47 241.55 286.43 260.67 275.5 260.67 229.47 241.55 229.47" style="fill: #8696b5; mix-blend-mode: multiply;"/>
        </g>
        <g>
          <path d="m145.39,220.74c1.52-2.79,5.68-3.41,8.33-1.65,2.65,1.77,3.76,5.28,3.29,8.43-.43,2.89-2.11,5.63-4.66,7.05-2.55,1.42-5.94,1.34-8.26-.44l1.3-13.38Z" style="fill: #f6a472;"/>
          <path d="m92.45,219.23c-1.52-2.79-5.68-3.41-8.33-1.65-2.65,1.77-3.76,5.28-3.29,8.42.43,2.89,2.11,5.63,4.66,7.05,2.55,1.42,5.94,1.34,8.26-.44l-1.3-13.38Z" style="fill: #f6a472;"/>
          <path d="m82.78,193.06c3.46,9.75,5.92,23.69,9.7,33.32.26-9.69,1.68-23.62,1.95-33.31h-11.65Z" style="fill: #6b4018;"/>
          <path d="m124.36,259.23c-11.59-1.86-9.25,6.89-20.84,5.03-15.88-2.55-44.58-6.58-55.34,5.39-4.75,5.29-6.94,12.39-8.28,19.37-3.29,17.26-6.3,27.3-12.47,43.75-5.77,15.41-20.69,29.59-17.5,45.73,1.93,9.77,12.58,18.43,22.05,21.52,9.47,3.1,27.87-10.89,36.31-16.18-1.27,19.94,10.36,21.77,12.2,22.5,35.23,14.01,84.16-4.37,85.43-6.1,1.52-2.06,11.44-10.3,7.25-22.88,5.72,7.25,23.17,16.31,29.71,14.82,6.54-1.49,12.85-5.77,14.87-12.16,1.21-3.83,4.45-7.84,3.86-11.82-4.45-30.05-20.99-58.22-33.72-85.8-3.32-7.2-6.91-14.73-13.33-19.38-11.08-8.03-26.39-4.93-39.63-1.49l-10.58-2.3Z" style="fill: #00a29a;"/>
          <g>
            <g>
              <path d="m147.8,675.05c3.83,13.86,6.69,27.99,8.56,42.25,6.36-1.23,12.7-2.6,19-4.1-.86-20.37-1.35-40.75-1.48-61.13l-26.08,22.98Z" style="fill: #f2e7d1;"/>
              <path d="m153.85,682.54c1.87,9.08,3.82,18.15,5.85,27.2.58,2.57,1.16,5.14,1.76,7.7.15.65,1.15.37,1-.28-2.09-9.04-4.09-18.09-6-27.16-.54-2.58-1.08-5.15-1.61-7.73-.13-.65-1.13-.38-1,.28h0Z" style="fill: #887a5c;"/>
              <path d="m159.94,680.58c1.99,9.53,3.58,19.15,4.73,28.82.33,2.75.62,5.51.88,8.27.06.66,1.1.66,1.04,0-.92-9.79-2.27-19.53-4.04-29.2-.5-2.73-1.04-5.44-1.6-8.16-.14-.65-1.14-.38-1,.28h0Z" style="fill: #887a5c;"/>
              <path d="m167.31,683.96c.46,8.83.92,17.65,1.38,26.48.13,2.52.26,5.04.4,7.57.03.66,1.07.67,1.04,0-.46-8.83-.92-17.65-1.38-26.48-.13-2.52-.26-5.04-.4-7.57-.03-.66-1.07-.67-1.04,0h0Z" style="fill: #887a5c;"/>
              <path d="m154.44,717.25c-3.33,6.33-4.21,12.33-6.15,19.22-.48,1.71-.92,3.55-.41,5.25.51,1.67,1.85,2.94,3.21,4.04,1.89,1.53,3.93,2.89,6.07,4.05,1.29.7,2.67,1.34,4.14,1.39,1.49.05,2.92-.52,4.29-1.11,3.39-1.48,6.66-3.23,9.77-5.23.7-.45,1.42-.94,1.79-1.69.42-.85.3-1.86.16-2.8-1.41-9.9-.39-29.1-1.8-39-6.68.02-15.78.79-22.46,1.03l1.39,14.86Z" style="fill: #094e4a;"/>
              <path d="m148.18,739.36c1.5,1.63,3.11,3.15,4.84,4.53,1.71,1.36,3.52,2.7,5.47,3.69,2.09,1.06,4.21,1.25,6.39.35,2.08-.87,3.99-2.23,5.81-3.55,2.12-1.53,4.13-3.2,6.02-4.99.72-.69-.37-1.78-1.09-1.09-3.07,2.91-6.49,5.64-10.21,7.67-.9.49-1.87.92-2.9,1.03-1.06.11-2.1-.18-3.05-.64-1.81-.88-3.51-2.1-5.09-3.34-1.83-1.43-3.54-3.02-5.11-4.73-.67-.73-1.76.36-1.09,1.09h0Z" style="fill: #fff;"/>
              <path d="m159.27,702.72c.77,5.62,1.02,11.32,1.25,16.98.26,6.41.38,12.82.44,19.24.03,2.97.04,5.93.04,8.9,0,.99,1.54,1,1.54,0,0-5.72-.05-11.45-.16-17.17-.13-6.47-.32-12.94-.76-19.4-.2-3-.46-5.99-.86-8.97-.06-.42-.59-.64-.95-.54-.45.12-.6.54-.54.95h0Z" style="fill: #fff;"/>
              <path d="m164.22,701.66c-.21,1.36-.14,2.8-.16,4.18-.05,2.92-.08,5.85-.1,8.78-.05,7.43-.07,14.87,0,22.3.03,3.12.06,6.25.18,9.37.04.99,1.58,1,1.54,0-.25-6.3-.22-12.61-.23-18.91,0-6.83.02-13.66.12-20.49.02-1.14.04-2.27.07-3.41.01-.34.02-.69.04-1.03,0-.11.01-.23.02-.34,0-.12.05-.35,0-.02.15-.97-1.34-1.39-1.49-.41h0Z" style="fill: #fff;"/>
              <path d="m158.21,738.37c2.89-1.9,6.52-2.36,9.79-1.26.94.32,1.35-1.17.41-1.49-3.64-1.23-7.78-.7-10.98,1.41-.83.54-.05,1.88.78,1.33h0Z" style="fill: #fff;"/>
              <path d="m157.98,732.71c2.96-1.68,6.54-1.97,9.75-.84.94.33,1.34-1.16.41-1.49-3.59-1.26-7.64-.88-10.94,1-.86.49-.09,1.83.78,1.33h0Z" style="fill: #fff;"/>
              <path d="m157.3,727.67c3.29-1.25,6.87-1.35,10.22-.28.95.3,1.36-1.19.41-1.49-3.59-1.14-7.52-1.05-11.04.28-.92.35-.52,1.84.41,1.49h0Z" style="fill: #fff;"/>
            </g>
            <g>
              <path d="m59.26,665.54c1.63,15.84,2.48,31.77,2.54,47.7,6.05,1.99,12.09,3.97,18.14,5.96,4.27-20.54,3.24-41.76,2.19-62.71l-22.87,9.05Z" style="fill: #f2e7d1;"/>
              <path d="m61.9,672.8c3.08,10.29,5.16,20.87,6.22,31.56.3,3.04.52,6.09.65,9.15.03.71,1.13.6,1.1-.11-.48-10.83-2.01-21.6-4.55-32.14-.72-2.97-1.51-5.92-2.39-8.85-.2-.68-1.23-.28-1.03.4h0Z" style="fill: #887a5c;"/>
              <path d="m70.01,673.32c1.84,11.1,2.86,22.34,3.04,33.59.05,3.15.03,6.29-.05,9.44-.02.71,1.08.59,1.1-.11.29-11.25-.25-22.52-1.63-33.69-.39-3.12-.84-6.24-1.35-9.34-.12-.7-1.22-.59-1.1.11h0Z" style="fill: #887a5c;"/>
              <path d="m79.14,673.98c-.43,11.38-.86,22.75-1.29,34.13-.12,3.18-.24,6.36-.36,9.54-.01.3.13.58.45.64.26.05.63-.16.64-.45.43-11.38.86-22.75,1.29-34.13.12-3.18.24-6.36.36-9.54.01-.3-.13-.58-.45-.64-.26-.05-.63.16-.64.45h0Z" style="fill: #887a5c;"/>
              <path d="m82.18,739c1.38.46-45.85.07-60.22.26-.69,0-.78-.78-.22-1.18,16.4-11.87,37.46-21.54,37.79-22.46.43-1.17-.33-12.64-.63-17.13,8.67.81,17.4,1.04,26.12.69l-2.85,39.81Z" style="fill: #094e4a;"/>
              <path d="m25.64,736.61h56.21c.99,0,1-1.54,0-1.54H25.64c-.99,0-1,1.54,0,1.54h0Z" style="fill: #fff;"/>
              <path d="m63.17,699.82c.22,2.13.44,4.26.66,6.39.19,1.88.45,3.77.51,5.67.05,1.73-.09,3.53-.94,5.07-.81,1.46-2.13,2.52-3.49,3.44-3.07,2.08-6.3,4.07-9.65,5.66-2.95,1.4-5.92,2.73-8.83,4.21-2.92,1.49-5.81,3.03-8.75,4.5-.89.45-.11,1.78.78,1.33,5.64-2.82,11.17-5.82,16.93-8.41,3.54-1.59,6.9-3.69,10.13-5.84,1.42-.95,2.79-2.01,3.78-3.42,1.04-1.46,1.47-3.24,1.57-5,.13-2.15-.2-4.31-.42-6.44-.25-2.39-.49-4.77-.74-7.16-.1-.98-1.65-.99-1.54,0h0Z" style="fill: #fff;"/>
              <path d="m44.09,724.31c2.62-.02,5.1,1.49,6.3,3.82.46.88,1.79.1,1.33-.78-1.44-2.79-4.49-4.61-7.63-4.59-.99,0-1,1.55,0,1.54h0Z" style="fill: #fff;"/>
              <path d="m46.98,721.49c2.86.16,5.44,2.02,6.62,4.61.17.38.72.47,1.06.28.39-.23.45-.68.28-1.06-1.4-3.09-4.58-5.18-7.95-5.37-.99-.06-.99,1.49,0,1.54h0Z" style="fill: #fff;"/>
              <path d="m51.95,718.75c2.74.45,5.12,2.2,6.36,4.7.19.37.71.48,1.06.28.38-.22.46-.68.28-1.06-1.39-2.81-4.19-4.9-7.28-5.41-.41-.07-.83.11-.95.54-.1.37.13.88.54.95h0Z" style="fill: #fff;"/>
              <path d="m83.12,719.54c-3.95.83-7.44,3.61-9.08,7.31-.43.98-.76,2.01-1.33,2.92-.51.81-1.25,1.39-2.03,1.91-1.53,1.02-3.1,1.94-3.82,3.72-.37.92,1.13,1.32,1.49.41.61-1.54,2.42-2.28,3.68-3.19.74-.54,1.4-1.14,1.91-1.9.56-.83.9-1.78,1.28-2.7,1.47-3.56,4.53-6.19,8.32-6.99.97-.2.56-1.69-.41-1.49h0Z" style="fill: #fff;"/>
              <polygon points="76.51 705.5 71.84 705.5 69.51 709.55 71.84 713.6 76.51 713.6 78.85 709.55 76.51 705.5" style="fill: #fff;"/>
            </g>
            <path d="m184.19,517.79l.03-65.71s-17.8-50.86-18.12-51.82c-.35-1.03-81.12,3.96-81.12,3.96,0,0-7.67.39-7.52,9.89l-17.2,52.34-14.63,87.11,5.74,93.83,4.14,42.89,10.03,1.75c7.8,1.36,15.82.86,23.39-1.45l4.34-1.32,7.35-120.43,17.47-86.35,29.12,208.66,13.56,2.45c6.2,1.12,12.59.52,18.47-1.73l7.25-2.78-2.32-171.3Z" style="fill: #662f90;"/>
            <path d="m191.3,675.04c-6.99,4.35-15.44,5.89-23.67,5.77-8.23-.12-16.35-1.81-24.41-3.49.05,4.88.1,9.76.14,14.64,0,.5.02,1.03.33,1.42.27.34.72.5,1.14.63,14.11,4.48,29.81,7.1,43.44,1.33,1.02-.43,2.08-.97,2.59-1.94.39-.74.4-1.62.39-2.46-.02-5.07-.05-10.14-.07-15.21l.11-.68Z" style="fill: #91288d;"/>
            <path d="m97.3,676.9c-14.92,3.35-30.73,2.66-45.3-1.99-.59,3.22-1.17,6.44-1.76,9.66-.34,1.87-.67,3.87.08,5.62,1.1,2.58,4.1,3.7,6.82,4.39,12.57,3.21,25.95,3.16,38.49-.14.02-5.73.71-11.45,2.07-17.01l-.41-.53Z" style="fill: #91288d;"/>
            <path d="m110.29,417.19c0,8.39.52,16.77,1.31,25.12.39,4.14.83,8.27,1.3,12.4.46,4.05.87,8.12,1.43,12.17.26,1.87.73,3.81,2.04,5.25,1.2,1.31,3.03,2.06,4.79,1.58.33-.09.56-.4.57-.74.31-14.24.08-28.49-.7-42.71-.22-4-.48-8-.79-12-.08-.98-1.62-.99-1.54,0,1.08,14.2,1.63,28.44,1.62,42.68,0,4.01-.05,8.02-.13,12.02.19-.25.38-.5.57-.74-1.48.41-2.97-.55-3.74-1.78-.9-1.44-1.1-3.2-1.3-4.85-.46-3.87-.91-7.75-1.35-11.63-.89-7.83-1.68-15.68-2.13-23.56-.25-4.4-.39-8.8-.39-13.21,0-.99-1.54-1-1.54,0h0Z" style="fill: #010101; opacity: .5;"/>
            <path d="m105.02,473.72c9.78.49,19.57.58,29.36.25.99-.03,1-1.58,0-1.54-9.78.32-19.58.24-29.36-.25-.99-.05-.99,1.49,0,1.54h0Z" style="fill: #010101; opacity: .5;"/>
            <path d="m116.88,474.59c-.88,3.13-.87,6.47.03,9.6.27.95,1.76.55,1.49-.41-.82-2.87-.83-5.9-.03-8.77.27-.96-1.22-1.37-1.49-.41h0Z" style="fill: #010101; opacity: .5;"/>
            <path d="m165.48,418.24c4.04,8.42,8.08,16.84,12.12,25.26,1.15,2.4,2.3,4.79,3.45,7.19.43.9,1.76.11,1.33-.78-4.04-8.42-8.08-16.84-12.12-25.26-1.15-2.4-2.3-4.79-3.45-7.19-.43-.9-1.76-.11-1.33.78h0Z" style="fill: #010101; opacity: .5;"/>
            <path d="m84.22,416.74c-5.46,8.86-10.92,17.73-16.38,26.59-.52.85.81,1.63,1.33.78,5.46-8.86,10.92-17.73,16.38-26.59.52-.85-.81-1.63-1.33-.78h0Z" style="fill: #010101; opacity: .5;"/>
            <path d="m138.81,568.34c7.07,6.92,13.35,14.64,18.67,22.99,1.5,2.35,2.92,4.76,4.27,7.2.48.87,1.81.09,1.33-.78-4.82-8.75-10.64-16.94-17.31-24.38-1.89-2.11-3.85-4.15-5.87-6.13-.71-.7-1.8.4-1.09,1.09h0Z" style="fill: #010101; opacity: .5;"/>
            <path d="m151.2,570.08c5.22,6.37,10.09,13.02,14.59,19.93.54.83,1.88.06,1.33-.78-4.57-7.01-9.52-13.77-14.83-20.24-.63-.77-1.72.33-1.09,1.09h0Z" style="fill: #010101; opacity: .5;"/>
            <path d="m86.23,569.76c4.17-.63,8.44-.61,12.61.04.97.15,1.39-1.34.41-1.49-4.46-.7-8.96-.72-13.43-.04-.98.15-.56,1.64.41,1.49h0Z" style="fill: #010101; opacity: .5;"/>
            <path d="m92.01,572.88l4.89.52c.4.04.79-.39.77-.77-.02-.46-.34-.73-.77-.77-1.63-.17-3.26-.35-4.89-.52-.4-.04-.79.39-.77.77.02.46.34.73.77.77h0Z" style="fill: #010101; opacity: .5;"/>
            <path d="m53.34,563.12c1.74,4.45,3.85,8.74,6.34,12.82.52.85,1.85.07,1.33-.78-2.42-3.96-4.5-8.12-6.18-12.45-.36-.92-1.85-.52-1.49.41h0Z" style="fill: #010101; opacity: .5;"/>
            <path d="m59.86,564.42c1.42,3.28,2.84,6.55,4.25,9.83.17.38.73.47,1.06.28.4-.23.44-.67.28-1.06-1.42-3.28-2.84-6.55-4.25-9.83-.17-.38-.73-.47-1.06-.28-.4.23-.44.67-.28,1.06h0Z" style="fill: #010101; opacity: .5;"/>
            <path d="m65.75,658.28c.31,1.46.61,2.92.92,4.38.08.4.57.66.95.54.42-.14.63-.53.54-.95-.31-1.46-.61-2.92-.92-4.38-.08-.4-.57-.66-.95-.54-.42.14-.63.53-.54.95h0Z" style="fill: #010101; opacity: .5;"/>
            <path d="m73.15,661.59c.36,1.63.71,3.26,1.07,4.9.09.4.57.66.95.54.42-.13.63-.53.54-.95-.36-1.63-.71-3.26-1.07-4.9-.09-.4-.57-.66-.95-.54-.42.13-.63.53-.54.95h0Z" style="fill: #010101; opacity: .5;"/>
            <path d="m76.03,497.81c.4,1.8.8,3.61,1.2,5.41.09.41.56.65.95.54.42-.12.63-.54.54-.95l-1.2-5.41c-.09-.41-.56-.65-.95-.54-.42.12-.63.54-.54.95h0Z" style="fill: #010101; opacity: .5;"/>
            <path d="m81.39,500c.39,1.81.78,3.61,1.17,5.42.09.41.56.65.95.54.42-.12.63-.54.54-.95-.39-1.81-.78-3.61-1.17-5.42-.09-.41-.56-.65-.95-.54-.42.12-.63.54-.54.95h0Z" style="fill: #010101; opacity: .5;"/>
            <path d="m167.37,470.23c-.55,1.63-.75,3.38-.58,5.09.04.4.33.79.77.77.38-.02.82-.34.77-.77-.17-1.64,0-3.13.52-4.68.13-.38-.15-.86-.54-.95-.43-.1-.81.13-.95.54h0Z" style="fill: #010101; opacity: .5;"/>
            <path d="m171.67,475.86v3.26c0,.4.36.79.77.77.42-.02.77-.34.77-.77v-3.26c0-.4-.36-.79-.77-.77-.42.02-.77.34-.77.77h0Z" style="fill: #010101; opacity: .5;"/>
            <path d="m78.99,415.03c11.31-.37,22.62-.87,33.92-1.49,11.26-.62,22.52-1.37,33.77-2.25,6.34-.5,12.69-1.03,19.02-1.61.79-.07.8-1.32,0-1.24-11.27,1.02-22.55,1.92-33.84,2.69-11.26.77-22.52,1.41-33.79,1.92-6.36.29-12.72.54-19.08.74-.8.03-.8,1.27,0,1.24h0Z" style="fill: #010101; opacity: .5;"/>
          </g>
          <path d="m195.18,342.62c7.54.86,14.62,5.2,18.8,11.54,4.18,6.34,5.38,14.55,3.2,21.82-.97,3.22-2.62,6.32-5.17,8.52-3.14,2.71-7.38,3.84-11.52,4.02-8,.35-16.23-2.8-21.47-8.86-5.24-6.06-7.14-15.01-4.22-22.47,2.92-7.46,10.82-12.84,18.81-12.23l1.56-2.33Z" style="fill: #094e4a;"/>
          <path d="m12.42,369.69c.14-7.23,5.76-13.69,12.61-16s14.58-.93,20.96,2.5c4.76,2.56,9.09,6.51,10.6,11.7,2.31,7.98-2.51,16.14-7.44,22.82-3.3,4.47-7.38,9.2-12.91,9.71-3.44.32-6.79-1.1-9.86-2.69-7.24-3.75-14.55-9.76-14.97-17.9-.22-4.2,1.48-8.3,1.41-12.51l-.4,2.37Z" style="fill: #094e4a;"/>
          <path d="m136.65,266.27c2.69,2.2,4.95,4.93,6.61,7.98.7,1.27,1.3,2.67,1.21,4.12-.12,1.82-1.32,3.38-2.58,4.71-10.39,10.91-28.99,12.68-41.26,3.94-4.03-2.87-7.61-7.85-5.8-12.45,1.32-3.35,4.96-5.07,8.35-6.29,8.04-2.89,16.46-4.7,24.97-5.38l8.5,3.37Z" style="fill: #094e4a;"/>
          <path d="m134.94,250.82c-.88,7.57.85,26.35.09,26.99-11.76,9.94-32.3-1.49-32.31-2.16-.11-10.67.37-21.35,1.41-31.99,5.03.12,10.04.72,14.89,1.8l15.91,5.36Z" style="fill: #f6a472;"/>
          <path d="m211.18,377.03c-2.4,6.77-21.2,2.9-22.65,2.52-5.62-1.5-33.96-39.03-45.04-55.6-.84-1.25-1.7-2.54-2.94-3.4-1.1-.76-2.42-1.13-3.67-1.61-6.05-2.35-10.74-7.91-12.03-14.27-2.13,2.52-5.09,4.32-8.3,5.08-.28.07-.54-.15-.55-.44-.05-3.19,1.44-6.39,3.94-8.38-2.02,1.72-4.3,3.15-6.73,4.23-.34.15-.71-.16-.62-.53.88-3.63,2.95-6.96,5.82-9.35-2,2.22-4.35,4.11-6.94,5.58-.33.19-.74-.09-.68-.46.58-3.48,2.69-6.69,5.68-8.57-1.58,2.29-3.89,4.07-6.51,5.04-.43.16-.78-.36-.49-.72,2.59-3.13,4.34-7.38,8.23-8.19,1.8-.37,3.66.14,5.43.65,8.01,2.3,26.54,16.25,30.6,23.53,1.62,2.9,52.16,38.86,52.16,38.86,6.83,4.35,5.3,26.04,5.3,26.04Z" style="fill: #f6a472;"/>
          <g style="fill: none; opacity: .4;">
            <path d="m133.54,253.98c-2.55,1.23-5.09,2.45-7.64,3.68-3.3,1.59-6.85,3.22-10.46,2.68-2.53-.37-4.79-1.78-6.84-3.31-2.48-1.85-4.77-3.94-6.85-6.22,1.42,5.71,13.03,16.31,14.91,16.43,2.78.18,15.4-8.97,16.93-13.33l-.05.06Z" style="fill: #7f4a24;"/>
          </g>
          <path d="m90.73,230.66c-.07,3.13-.12,6.34,1.26,9.27,1.04,2.19,2.82,4.09,4.58,5.96,2.54,2.7,5.09,5.4,7.63,8.1,2.59,2.75,5.48,5.67,9.63,6.56,6.29,1.36,12.34-2.43,17.16-5.95,4.42-3.23,8.97-6.6,11.36-11,1.89-3.47,2.29-7.32,2.6-11.1.76-9.43,1.06-18.89.89-28.34l-1.11-18.32-54.69-.38s.96,34.27.71,45.2Z" style="fill: #f6a472;"/>
          <path d="m146.33,313.75c-2.84.43-5.29-1.72-6.68-3.99-.78-1.28-1.12-2.68-1.72-4.04-.31-.71-.74-1.36-1.35-1.85-.62-.5-1.35-.85-2.05-1.23-1.91-1.03-3.81-2.05-5.72-3.08-.7-.38-1.33.69-.63,1.07,1.76.95,3.51,1.89,5.27,2.84.75.4,1.56.76,2.24,1.28.66.5,1.03,1.23,1.31,2,.53,1.46,1.02,2.87,1.91,4.17.82,1.2,1.85,2.28,3.09,3.05,1.41.88,3.01,1.23,4.65.98.79-.12.45-1.32-.33-1.2h0Z" style="fill: #7f4a24;"/>
          <g>
            <path d="m128.25,274.59l-22.47,1.62c-2.44.18-4.27,2.41-4.09,4.98l3.27,45.32c.19,2.57,2.32,4.52,4.76,4.34l22.47-1.62c2.44-.18,4.27-2.41,4.09-4.98l-3.27-45.32c-.19-2.57-2.32-4.52-4.76-4.34Z" style="fill: #662f90;"/>
            <path d="m106.06,284.63c.61,1.78,2.55,2.72,4.33,2.11s2.72-2.55,2.11-4.33c-.61-1.78-2.55-2.72-4.33-2.11s-2.72,2.55-2.11,4.33Z" style="fill: #91288d;"/>
          </g>
          <path d="m21.9,360c-2.92.97-5.06,3.5-5.5,6.55-.72,4.99-.92,10.06-.59,15.09.11,1.7.3,3.46,1.19,4.91,1.2,1.97,3.44,3.01,5.55,3.95,3.49,1.55,7.08,3.12,10.89,3.39,8.73.61,16.3-5.59,22.84-11.42,12.17-10.84,24.33-21.68,36.5-32.52,1-.89,2.03-1.8,3.26-2.34,1.89-.82,4.06-.68,6.06-1.18,6.38-1.62,9.62-9.32,15.88-11.35,2.32-.75,4.84-.64,7.19-1.29,3.4-.98,2.78-5.96-.69-6.06-2.24-.06-4.49.35-6.55,1.25,3.33.58,6.83-.07,9.77-1.72,1.93-1.08,1.51-3.93-.64-4.42-3.42-.79-7.16-.27-10.16,1.58,3.98.08,7.97-.68,11.64-2.21.74-.31,1.33-.94,1.49-1.73.36-1.79-1.65-2.66-3.28-2.95-5.22-.91-10.64-.67-15.75.7,4.44-.38,8.86-.99,13.23-1.82,1.47-.28,1.59-2.37.15-2.79-7-2.05-15.24.6-21.45,4.92-7.49,5.2-13.34,12.51-20.88,17.64-3.96,2.69-8.31,4.73-12.67,6.7-10.84,4.89-36.91,13.64-47.49,17.14Z" style="fill: #f6a472;"/>
          <path d="m126.01,327.6c-5.05,1.87-10.09,3.74-15.14,5.6-.74.28-.42,1.48.33,1.2,5.05-1.87,10.09-3.74,15.14-5.6.74-.28.42-1.48-.33-1.2h0Z" style="fill: #7f4a24;"/>
          <path d="m127.62,323c-5.88,1.14-11.67,3.11-17.11,5.57-.73.33-.1,1.4.63,1.07,5.35-2.42,11.05-4.33,16.82-5.45.78-.15.45-1.35-.33-1.2h0Z" style="fill: #7f4a24;"/>
          <path d="m124.69,317.21c-4.84.49-9.61,1.53-14.21,3.14-.75.26-.43,1.46.33,1.2,4.49-1.57,9.15-2.62,13.88-3.1.79-.08.8-1.32,0-1.24h0Z" style="fill: #7f4a24;"/>
          <path d="m109.04,320.88c2.25,5.06,1.23,10.85.27,16.09-.14.78,1.05,1.12,1.2.33,1.03-5.62,2.01-11.63-.4-17.05-.32-.73-1.4-.1-1.07.63h0Z" style="fill: #7f4a24;"/>
          <path d="m92.41,347.48c-.62-.55-1.24-1.1-1.86-1.65-.12-.11-.27-.18-.44-.18-.15,0-.33.07-.44.18-.22.24-.26.65,0,.88.62.55,1.24,1.1,1.86,1.65.12.11.27.18.44.18.15,0,.33-.07.44-.18.22-.24.26-.65,0-.88h0Z" style="fill: #7f4a24;"/>
          <path d="m114.88,216.52c-1.04,7.82-2.01,15.64-2.91,23.48-.05.45.58.8.94.54,1.89-1.41,3.75-2.86,5.58-4.35.62-.51-.26-1.38-.88-.88-1.75,1.42-3.53,2.81-5.33,4.16.31.18.62.36.94.54.9-7.84,1.87-15.66,2.91-23.48.04-.34-.32-.62-.62-.62-.37,0-.58.29-.62.62h0Z" style="fill: #7f4a24;"/>
          <path d="m128.68,224.75c0,1.81,1.1,3.27,2.45,3.27s2.45-1.46,2.45-3.27-1.1-3.27-2.45-3.27-2.45,1.46-2.45,3.27Z" style="fill: #010101;"/>
          <path d="m101.72,225.56c0,1.81,1.1,3.27,2.45,3.27s2.45-1.46,2.45-3.27-1.1-3.27-2.45-3.27-2.45,1.46-2.45,3.27Z" style="fill: #010101;"/>
          <path d="m146.79,230.15c-1.87-12.3-3.11-24.64-4.98-36.93-.13-.88-.29-1.8-.86-2.47-.76-.89-2.03-1.1-3.19-1.14-6.6-.23-12.69,3.2-18.89,5.5-6.65,2.46-13.76,3.67-20.85,3.53-7.07-.14-14.55-1.84-19.47-6.92-2.71-2.79-4.46-7.13-2.66-10.57,2.15-4.11,8.38-4.48,12.14-1.76-2.86-1.89-6.09-4.6-5.47-7.97.58-3.16,4.52-4.72,7.63-3.92,3.11.79,5.52,3.18,7.76,5.48-1.04-1.53-2.11-3.11-2.49-4.92s.07-3.93,1.58-5c3-2.13,6.76,1.07,9.6,3.41,4.44,3.67,10.27,5.63,16.02,5.38,5.12-.22,10.14-2.09,15.24-1.58,5.09.51,10.46,4.98,9.14,9.92,2.14-.96,4.76.09,6.29,1.87s2.21,4.12,2.78,6.39c.83,3.31,1.53,6.71,1.35,10.12-.58,10.9-11.35,20.19-10.68,31.08v.51Z" style="fill: #6b4018;"/>
          <path d="m124.64,208.09c-.27,1.51-.4,3.04-.38,4.57,0,.49.04,1,.29,1.42.46.74,1.45.91,2.32,1.01,3.43.39,6.85.77,10.28,1.16-2.19-4.58-6.99-7.79-12.06-8.07l-.45-.09Z" style="fill: #6b4018;"/>
          <path d="m109.99,202.8c.27,1.51.4,3.04.38,4.57,0,.49-.04,1-.29,1.42-.46.74-1.45.91-2.32,1.01-3.43.39-6.85.77-10.28,1.16,2.19-4.58,6.99-7.79,12.06-8.07l.45-.09Z" style="fill: #6b4018;"/>
          <path d="m122.45,237.43c-1.28,1.22-3.18,1.67-4.88,1.18-.77-.22-1.1.98-.33,1.2,2.12.61,4.49.02,6.09-1.5.58-.55-.3-1.43-.88-.88h0Z" style="fill: #7f4a24;"/>
          <path d="m90.93,228.21c-1.23-2.5-3.18-4.61-5.56-6.06-.69-.42-1.31.66-.63,1.07,2.21,1.34,3.97,3.3,5.11,5.61.15.3.58.38.85.22.31-.18.37-.55.22-.85h0Z" style="fill: #7f4a24;"/>
          <path d="m86.43,225.29c-.4,1.15-.8,2.3-1.2,3.45-.11.31.12.69.43.76.35.08.65-.1.76-.43.4-1.15.8-2.3,1.2-3.45.11-.31-.12-.69-.43-.76-.35-.08-.65.1-.76.43h0Z" style="fill: #7f4a24;"/>
          <path d="m152.53,223.37c-1.95,1.29-3.72,2.84-5.25,4.61-.22.25-.25.63,0,.88.22.22.66.26.88,0,1.46-1.69,3.14-3.18,5-4.42.28-.19.4-.55.22-.85-.16-.28-.57-.41-.85-.22h0Z" style="fill: #7f4a24;"/>
          <path d="m150.43,226.71c.06.18.11.37.13.56.01.27.01.37,0,.46,0,.1-.01.19-.02.29-.08.37-.14.56-.21.75-.12.25-.17.33-.22.42s-.1.16-.16.24c-.24.29-.38.42-.53.54-.24.16-.33.21-.42.26-.3.16-.39.57-.22.85.18.3.55.38.85.22,1.71-.9,2.59-3.08,1.99-4.91-.1-.32-.43-.53-.76-.43-.31.09-.54.44-.43.76h0Z" style="fill: #7f4a24;"/>
          <path d="m117.06,252.47c-.09,1.06.22,2.19.87,3.04.1.13.2.24.37.29.15.04.35.02.48-.06.25-.16.43-.57.22-.85-.15-.19-.28-.4-.38-.61-.13-.3-.17-.41-.2-.53-.03-.12-.06-.23-.08-.35-.05-.43-.05-.68-.03-.92.03-.32-.31-.64-.62-.62-.36.02-.59.27-.62.62h0Z" style="fill: #7f4a24;"/>
          <path d="m65.55,280.15c-1.05,7.87-1.96,15.76-2.75,23.66-.78,7.87-1.43,15.75-1.96,23.63-.3,4.47-.55,8.95-.76,13.43-.03.67.59,1.24,1.24,1.24.7,0,1.21-.57,1.24-1.24.38-7.93.88-15.85,1.52-23.77.64-7.88,1.4-15.75,2.3-23.6.51-4.45,1.06-8.9,1.65-13.35.09-.67-.63-1.24-1.24-1.24-.75,0-1.15.57-1.24,1.24h0Z" style="fill: #094e4a;"/>
          <path d="m58.11,287.15c.1,5.08.8,10.16,2.1,15.07.41,1.55,2.8.89,2.4-.66-1.24-4.71-1.91-9.54-2.01-14.41-.03-1.6-2.52-1.6-2.49,0h0Z" style="fill: #094e4a;"/>
          <path d="m42.22,344.5c-6.81,1.9-13.04,5.8-17.7,11.11-.44.5-.5,1.26,0,1.76.45.45,1.31.51,1.76,0,4.4-5.01,10.18-8.68,16.6-10.48,1.54-.43.88-2.83-.66-2.4h0Z" style="fill: #094e4a;"/>
          <path d="m34.89,341.4c-2.36,1.79-4.71,3.58-7.07,5.38-.52.39-.84,1.09-.45,1.7.33.51,1.15.87,1.7.45,2.36-1.79,4.71-3.58,7.07-5.38.52-.39.84-1.09.45-1.7-.33-.51-1.15-.87-1.7-.45h0Z" style="fill: #094e4a;"/>
          <path d="m209.27,343.19c-4.07-3.58-9.12-5.98-14.5-6.76-.66-.1-1.34.16-1.53.87-.16.58.2,1.43.87,1.53,4.95.72,9.64,2.81,13.4,6.12.5.44,1.26.5,1.76,0,.45-.45.51-1.31,0-1.76h0Z" style="fill: #094e4a;"/>
          <path d="m150.44,354.25c-10.29-4-21.36-6-32.4-5.9-3.12.03-6.23.23-9.32.6-.67.08-1.24.51-1.24,1.24,0,.61.57,1.32,1.24,1.24,10.79-1.28,21.78-.5,32.28,2.33,2.98.8,5.91,1.77,8.78,2.88.63.24,1.36-.27,1.53-.87.19-.7-.24-1.28-.87-1.53h0Z" style="fill: #094e4a;"/>
          <path d="m144.2,362.73c-7.22-1.75-14.69-2.55-22.12-2.32-2.11.06-4.22.21-6.32.44-.67.07-1.24.52-1.24,1.24,0,.62.57,1.32,1.24,1.24,7.2-.78,14.52-.62,21.67.55,2.05.34,4.09.75,6.11,1.24,1.55.38,2.22-2.02.66-2.4h0Z" style="fill: #094e4a;"/>
          <path d="m95.8,395.43v3.9c0,.65.57,1.27,1.24,1.24.67-.03,1.24-.55,1.24-1.24v-3.9c0-.65-.57-1.27-1.24-1.24-.67.03-1.24.55-1.24,1.24h0Z" style="fill: #094e4a;"/>
          <path d="m89.86,396.46c.41,1.33.83,2.66,1.24,3.99.19.62.88,1.08,1.53.87.62-.2,1.08-.86.87-1.53-.41-1.33-.83-2.66-1.24-3.99-.19-.62-.88-1.08-1.53-.87-.62.2-1.08.86-.87,1.53h0Z" style="fill: #094e4a;"/>
          <path d="m149.6,395.1c-.52,1.3-1.04,2.6-1.56,3.9-.11.28-.02.71.13.96.15.26.45.5.74.57.32.07.68.06.96-.13.29-.19.44-.43.57-.74.52-1.3,1.04-2.6,1.56-3.9.11-.28.02-.71-.13-.96-.15-.26-.45-.5-.74-.57-.32-.07-.68-.06-.96.13-.29.19-.44.43-.57.74h0Z" style="fill: #094e4a;"/>
          <path d="m167.67,272.81c-1.45,9.94-2.36,19.95-2.71,29.99-.1,2.83-.15,5.66-.16,8.5,0,1.6,2.48,1.6,2.49,0,.04-9.9.61-19.79,1.73-29.62.31-2.74.66-5.47,1.06-8.2.1-.66-.16-1.34-.87-1.53-.58-.16-1.43.2-1.53.87h0Z" style="fill: #094e4a;"/>
          <path d="m161.04,275.05c.78,4.41,1.56,8.83,2.34,13.24.12.66.93,1.03,1.53.87.7-.19.99-.87.87-1.53-.78-4.41-1.56-8.83-2.34-13.24-.12-.66-.93-1.03-1.53-.87-.7.19-.99.87-.87,1.53h0Z" style="fill: #094e4a;"/>
          <path d="m139.31,183.55c-9.63-2.61-19.1,2.22-27.91,5.49-4.49,1.67-9.18,3.16-14.02,3.19-1.16,0-2.33-.07-3.48-.25-1.21-.19-2.51-.45-3.52-1.18-2.27-1.63-.81-4.64.8-6.16,3.35-3.15,9.31-3.07,12.42.36.04-.33.08-.65.13-.98-3.26,1.66-7.49-1.13-7.58-4.68-.05-1.92.9-3.76,2.33-5.01,1.49-1.3,3.51-1.79,5.44-1.43,2.23.42,4.23,1.77,5.43,3.69.42.68,1.5.05,1.07-.63-2.5-4-8.24-5.95-12.26-2.97-1.84,1.36-3.09,3.49-3.25,5.78-.15,2.24.94,4.29,2.72,5.6,1.93,1.42,4.55,1.82,6.72.72.37-.19.38-.7.13-.98-3.03-3.35-8.37-3.85-12.25-1.75-2.08,1.12-3.91,3.17-4.22,5.57-.18,1.36.27,2.72,1.33,3.61.99.83,2.25,1.25,3.51,1.49,5.01.99,10.11.08,14.92-1.44,5-1.58,9.78-3.76,14.75-5.43,4.67-1.56,9.67-2.71,14.6-1.86.63.11,1.25.25,1.87.42.77.21,1.1-.99.33-1.2h0Z" style="fill: #432612;"/>
          <path d="m149.9,191.43c1.72,3.63.88,8.23-1.95,11.06-.57.57.31,1.44.88.88,3.25-3.25,4.11-8.42,2.15-12.56-.34-.72-1.41-.09-1.07.63h0Z" style="fill: #432612;"/>
          <path d="m144.89,192.37c1.03,2,1,4.46-.06,6.44-.38.7.69,1.33,1.07.63,1.28-2.38,1.3-5.29.06-7.69-.37-.71-1.44-.08-1.07.63h0Z" style="fill: #432612;"/>
          <path d="m125.56,394.79c-.77,1.56-1.54,3.13-2.31,4.69-.29.58-.18,1.37.45,1.7.56.3,1.39.18,1.7-.45.77-1.56,1.54-3.13,2.31-4.69.29-.58.18-1.37-.45-1.7-.56-.3-1.39-.18-1.7.45h0Z" style="fill: #094e4a;"/>
          <path d="m120,394.75c-.71,1.59-1.43,3.17-2.14,4.76-.14.31-.22.61-.13.96.08.29.3.6.57.74.54.29,1.42.19,1.7-.45.72-1.59,1.43-3.17,2.15-4.76.14-.31.22-.61.13-.96-.08-.29-.3-.6-.57-.74-.54-.29-1.42-.19-1.7.45h0Z" style="fill: #094e4a;"/>
          <path d="m90.02,330.21c4.19-6.7,7.18-14.16,8.77-21.9.09-.43.2-.9.55-1.17.91-.69,1.99.64,2.29,1.74,1.69,6.07,1.05,12.76-1.74,18.41l-9.87,2.92Z" style="fill: #f6a472;"/>
          <path d="m101.63,318.71c-3.36.99-6.3,3.05-8.41,5.85-.2.27-.04.69.22.85.32.19.65.04.85-.22,1.91-2.52,4.64-4.38,7.67-5.27.77-.23.44-1.43-.33-1.2h0Z" style="fill: #7f4a24;"/>
        </g>
        <g>
          <g>
            <path d="m13.02,180.27h40.52c7.19,0,13.02,5.83,13.02,13.02v17.27c0,7.19-5.83,13.02-13.02,13.02h-2.61l.36,15.73-9.06-15.73H13.02c-7.19,0-13.02-5.83-13.02-13.02v-17.27c0-7.19,5.83-13.02,13.02-13.02Z" style="fill: #e6dac1;"/>
            <g>
              <path d="m14.52,175.03v18.07c0,.9,1.4.9,1.4,0v-18.07c0-.9-1.4-.9-1.4,0h0Z" style="fill: #1f2e44;"/>
              <path d="m11.68,174.27c0,1.95,1.58,3.54,3.54,3.54s3.54-1.58,3.54-3.54-1.58-3.54-3.54-3.54-3.54,1.58-3.54,3.54Z" style="fill: #91288d;"/>
            </g>
            <path d="m58.78,216.02c-1.11-1.74-2.89-3.02-4.91-3.48-.36-.08-.77.11-.86.49-.08.35.11.78.49.86.22.05.44.11.66.18.11.04.22.07.32.11.33.13.01,0,.21.09.41.19.8.4,1.16.66.08.06.17.12.25.18.35.3.52.45.68.62.16.16.31.34.45.52.19.26.26.37.33.47.2.32.62.45.96.25.32-.19.45-.64.25-.96h0Z" style="fill: #1f2e44;"/>
            <path d="m48.64,212.55c-1.44-.25-2.94.02-4.15.84-.3.21-.47.62-.25.96.19.3.63.47.96.25.25-.17.51-.32.79-.44-.15.07.09-.03.11-.04.08-.03.15-.05.23-.08.13-.04.27-.08.41-.11.08-.02.16-.03.24-.05.21-.03.37-.04.53-.04.14,0,.28,0,.42,0,.08,0,.16.01.24.02-.17-.02.08.01.11.02.36.06.77-.1.86-.49.08-.34-.1-.79-.49-.86h0Z" style="fill: #1f2e44;"/>
            <path d="m38.45,214.98c-.11.07-.23.13-.35.19-.07.03-.14.07-.2.1-.29.13-.56.21-.82.28-.13.03-.26.06-.39.09-.8.1-.94.1-1.08.1-.37,0-.72.32-.7.7.02.38.31.7.7.7,1.24,0,2.47-.33,3.55-.95.32-.18.45-.64.25-.96-.21-.32-.62-.45-.96-.25h0Z" style="fill: #1f2e44;"/>
            <path d="m28.77,214.98c-.15-.02-.22-.03-.29-.05-.14-.03-.27-.07-.4-.13-.13-.06-.19-.09-.25-.13-.13-.07-.24-.16-.37-.24-.1-.09-.16-.14-.21-.19-.05-.05-.1-.11-.15-.16-.13-.17-.21-.28-.28-.41-.03-.06-.06-.12-.09-.18-.16-.43-.52-.7-.9-.58-.34.11-.62.49-.49.86.54,1.46,1.88,2.48,3.43,2.6.37.03.72-.34.7-.7-.02-.4-.31-.67-.7-.7h0Z" style="fill: #1f2e44;"/>
            <path d="m24.65,210.39c0-.12.01-.25.03-.37,0-.01.05-.2.11-.39.08-.2.12-.29.17-.38.05-.09.1-.17.16-.25-.06.09.04-.05.07-.09.06-.08.13-.15.2-.22.15-.13.29-.25.11-.11.15-.12.27-.23.32-.42.05-.17.03-.39-.07-.54-.1-.15-.24-.28-.42-.32-.17-.04-.39-.04-.54.07-.47.36-.87.79-1.13,1.32-.27.53-.42,1.1-.42,1.7,0,.37.33.72.7.7.38-.02.69-.31.7-.7h0Z" style="fill: #1f2e44;"/>
            <path d="m29.39,203.12c.88-1.65,1.16-3.52.84-5.36-.06-.37-.52-.58-.86-.49-.39.11-.55.49-.49.86.06.32.09.67.09,1.05,0,.19,0,.39-.02.58-.01.2-.03.37-.06.51-.13.77-.36,1.48-.71,2.14-.18.33-.08.76.25.96.32.19.78.08.96-.25h0Z" style="fill: #1f2e44;"/>
            <path d="m26.57,194.8c-.67-.14-1.34-.28-2.01-.42-.18-.04-.37-.03-.54.07-.15.08-.28.25-.32.42-.08.35.11.78.49.86.67.14,1.34.28,2.01.42.18.04.37.03.54-.07.15-.08.28-.25.32-.42.08-.35-.11-.78-.49-.86h0Z" style="fill: #1f2e44;"/>
            <path d="m20.85,197.43c-.95.51-1.9,1.03-2.85,1.54-.32.17-.45.65-.25.96.21.33.61.44.96.25.95-.51,1.9-1.03,2.85-1.54.32-.17.45-.65.25-.96-.21-.33-.61-.44-.96-.25h0Z" style="fill: #1f2e44;"/>
            <path d="m14.74,199.33c-.87-.31-.94-.38-1.01-.46-.18-.26-.23-.35-.27-.44-.35-1.14.04-2.19.36-3.11.12-.36-.14-.76-.49-.86-.38-.11-.74.13-.86.49-.41,1.21-.84,2.61-.35,3.86.41,1.07,1.41,2.03,2.63,1.93.38-.03.7-.3.7-.7,0-.35-.32-.73-.7-.7h0Z" style="fill: #1f2e44;"/>
          </g>
          <path d="m50.56,208.86c-2.87,1.7-6.92,3.76-9.79,5.46-.24-.16,11.17,1.81,11.17,1.81-1.72-1.43-2.8-5.53-1.27-7.16l-.1-.12Z" style="fill: #91288d;"/>
        </g>
      </g>
    </g>
  </g>
</svg>