<svg width="340" height="466" viewBox="0 0 340 466" fill="none" xmlns="http://www.w3.org/2000/svg">
<g clip-path="url(#clip0_65_1630)" filter="url(#filter0_d_65_1630)">
<path d="M188.201 42.5174C190.162 38.5506 192.872 34.9625 196.146 31.997C198.241 30.1035 200.586 28.4475 203.201 27.3948C208.019 25.4499 213.67 25.7002 218.303 28.0559C222.935 30.4116 226.466 34.8405 227.741 39.8857C228.625 43.3903 228.458 47.0747 227.939 50.6499C215.093 45.8423 201.695 40.9576 188.047 42.2606L188.207 42.5174H188.201Z" fill="url(#paint0_linear_65_1630)"/>
<path d="M191.097 35.1037C203.156 34.2629 215.727 33.621 226.869 38.204C227.279 38.3709 227.702 38.5634 227.965 38.91C228.273 39.3144 228.298 39.8536 228.311 40.3607C228.349 41.7921 228.394 43.217 228.433 44.6484C215.612 40.4826 201.804 40.5917 188.297 40.7458C189.348 38.9678 190.399 37.1962 191.45 35.4182L191.097 35.1037Z" fill="url(#paint1_linear_65_1630)"/>
<path d="M179.154 363.198C179.404 367.011 177.206 370.49 175.194 373.738C173.182 376.986 171.202 380.683 171.939 384.431C172.631 387.942 175.63 390.619 178.923 391.999C184.709 394.425 192.212 393.129 195.928 388.064C199.901 382.66 198.703 375.073 201.035 368.782C201.913 366.414 203.316 364.103 203.143 361.587C202.995 359.469 201.708 357.556 200.08 356.195C198.453 354.834 196.498 353.936 194.563 353.057L179.147 363.198H179.154Z" fill="#6DA8C6"/>
<path d="M198.453 344.366C198.92 328.781 200.016 303.735 195.018 289.062C194.019 286.128 192.769 283.24 192.359 280.165C191.853 276.385 192.648 272.572 193.282 268.817C195.185 257.488 195.64 245.908 194.628 234.464C194.551 233.584 194.455 232.673 193.98 231.935C193.346 230.933 192.161 230.452 191.039 230.073C182.761 227.281 173.579 227.243 165.282 229.964L158.759 234.566C161.117 243.533 163.469 252.494 165.827 261.455C168.627 272.11 171.734 282.694 173.951 293.484C185.958 351.875 180.692 362.948 175.45 372.069C174.227 374.193 172.855 376.28 172.202 378.648C171.683 380.535 171.709 382.679 172.58 384.386C172.996 385.195 174.047 385.471 174.79 384.951C175.495 384.451 176.053 383.745 176.379 382.949C176.367 384.316 177.988 384.861 178.878 384.175C178.833 384.656 178.853 385.144 179.013 385.632C179.205 386.222 179.666 386.716 180.269 386.864C181.14 387.076 181.672 386.517 182.076 385.946C182.236 385.722 182.377 385.49 182.511 385.247C182.524 385.324 182.524 385.401 182.537 385.478C182.729 386.71 184.286 387.172 185.145 386.274C186.067 385.304 186.804 384.149 187.298 382.904C187.105 383.899 186.958 384.906 186.849 385.914C186.715 387.146 188.041 388.019 189.124 387.41C191.763 385.92 193.91 383.546 195.063 380.741C196.024 378.411 196.319 375.862 196.601 373.353C197.639 364.18 199.926 363.558 200.958 354.385L198.459 344.372L198.453 344.366Z" fill="#F6A472"/>
<path d="M176.578 367.614C179.98 361.927 187.579 359.167 193.833 361.343C194.89 361.715 196.012 362.312 196.358 363.384C196.556 363.988 196.473 364.642 196.383 365.271C196.082 367.447 195.781 369.63 195.486 371.806C190.104 369.129 183.709 368.558 177.936 370.24C176.437 370.676 174.944 371.279 173.797 372.338C171.433 374.508 171.023 378.032 170.754 381.228C177.353 376.838 186.157 375.991 193.468 379.04C194.019 379.271 194.602 379.56 194.845 380.105C195.211 380.914 194.66 381.832 194.083 382.512C191.103 386.062 186.772 388.642 182.146 388.783C177.52 388.924 172.727 386.299 170.997 381.999C172.054 385.645 173.112 389.29 174.175 392.936C174.4 393.706 174.643 394.515 175.213 395.08C175.79 395.658 176.616 395.889 177.405 396.101C180.429 396.916 183.517 397.744 186.644 397.564C191.821 397.269 196.729 394.002 199.004 389.335C201.483 384.252 200.939 377.974 203.918 373.166C204.674 371.953 205.655 370.824 205.962 369.431C206.206 368.34 206.007 367.21 205.808 366.112C205.225 362.845 204.636 359.578 204.053 356.311C203.925 355.611 203.777 354.867 203.277 354.36C202.816 353.897 202.143 353.724 201.509 353.589C193.596 351.895 186.952 352.145 179.436 355.155L176.572 367.621L176.578 367.614Z" fill="black"/>
<path d="M187.112 385.516C186.208 383.988 186.272 382.018 187.259 380.548C187.579 380.067 186.804 379.617 186.484 380.092C185.324 381.825 185.279 384.181 186.336 385.972C186.631 386.466 187.406 386.017 187.112 385.516Z" fill="#7F4924"/>
<path d="M182.62 386.087C182.812 384.053 183.319 382.044 184.113 380.163C184.209 379.938 184.177 379.681 183.953 379.547C183.767 379.431 183.434 379.482 183.338 379.707C182.473 381.742 181.928 383.879 181.723 386.081C181.672 386.659 182.569 386.652 182.62 386.081V386.087Z" fill="#7F4924"/>
<path d="M179.365 384.842C179.34 383.019 179.865 381.241 180.865 379.72C181.185 379.239 180.41 378.783 180.089 379.264C179.006 380.914 178.443 382.872 178.468 384.842C178.475 385.42 179.372 385.42 179.365 384.842Z" fill="#7F4924"/>
<path d="M177.289 383.513C177.046 381.928 177.443 380.291 178.334 378.963C178.654 378.481 177.879 378.032 177.558 378.507C176.527 380.041 176.142 381.922 176.424 383.745C176.463 383.982 176.764 384.117 176.975 384.059C177.232 383.988 177.328 383.745 177.289 383.507V383.513Z" fill="#7F4924"/>
<path d="M32.0733 13.6523C34.995 13.7229 37.1735 14.506 39.9992 15.2698C40.5182 15.411 41.0628 15.5779 41.428 15.9695C41.9855 16.56 41.979 17.4714 41.9278 18.2866C41.6971 21.8426 41.1589 25.3729 40.3195 28.8326C40.1465 29.5515 39.9415 30.2961 39.461 30.861C38.3333 32.1832 36.2701 31.9586 34.5658 31.6184C28.325 30.3731 22.0907 29.1279 15.8499 27.8762C13.9533 27.4975 11.8517 26.9905 10.7881 25.3665C10.0641 24.2561 9.99359 22.8439 10 21.5088C10.0192 18.6397 10.3011 15.7705 10.8394 12.9462C10.9355 12.4456 11.0508 11.9256 11.4032 11.5534C11.9991 10.9243 12.9986 10.9949 13.8572 11.1105C20.1749 11.9577 25.7557 12.805 32.0733 13.6523Z" fill="#01A299"/>
<path d="M202.15 86.0429C195.377 83.2508 188.137 81.7231 181.364 78.9438C174.592 76.1645 168.031 71.8125 164.833 65.2141C163.751 62.9803 163.084 60.4449 163.584 58.0122C163.936 56.2792 164.859 54.713 165.891 53.2816C170.824 46.4521 178.622 42.0424 186.804 40.0654C194.986 38.0884 203.566 38.3773 211.895 39.5776C218.841 40.5789 225.774 42.2349 232.014 45.4379C238.262 48.6409 243.817 53.4999 246.963 59.7838C248.257 62.3641 249.141 65.2526 248.789 68.1218C248.078 73.8216 242.817 77.7756 237.672 80.311C228.17 84.9838 217.463 87.1855 206.885 86.6399L202.143 86.0429H202.15Z" fill="#01A299"/>
<path d="M215.938 51.5485C223.435 54.0519 220.917 55.9005 223.435 56.5552C225.953 57.2099 227.267 59.848 229.118 61.6773C231.604 64.1293 230.989 68.2758 232.36 71.4852C234.738 77.0438 241.997 78.2056 246.738 81.9542C251.525 85.7412 253.549 92.6799 251.544 98.4504C250.743 100.768 249.346 102.956 249.308 105.408C249.269 107.86 251.538 110.563 253.825 109.696C253.556 113.027 249.314 115.293 246.399 113.669C243.387 111.981 242.811 107.732 240.1 105.601C237.832 103.816 234.526 103.945 231.88 105.081C229.227 106.217 227.055 108.207 224.819 110.023C220.981 113.143 216.739 115.916 211.979 117.232C207.218 118.554 201.855 118.284 197.658 115.665C194.634 113.778 192.065 110.665 188.509 110.402C185.35 110.171 182.582 112.283 179.756 113.714C174.784 116.224 168.729 116.68 163.584 114.561C158.432 112.437 154.37 107.648 153.492 102.141C159.81 102.943 167.8 101.634 169.818 95.5812C170.549 93.3924 170.299 90.9918 170.85 88.758C171.721 85.2341 174.726 82.3329 178.276 81.5883C179.327 81.3701 180.467 81.3059 181.332 80.6704C183.107 79.3674 182.691 76.6523 182.108 74.5212C180.813 69.8163 179.75 64.2769 182.774 60.4513C183.998 58.9044 185.798 57.8068 186.644 56.0288C187.24 54.7836 187.298 53.3265 187.958 52.1198C189.502 49.2891 193.391 49.0324 196.607 49.1351C199.606 49.2314 202.669 49.3405 205.462 50.4317C208.256 51.5229 210.78 53.8015 211.319 56.7541L215.913 51.5614L215.938 51.5485Z" fill="#DC4345"/>
<path d="M116.394 109.998C128.504 126.629 134.559 137.682 144.561 151.116C145.028 151.745 145.547 152.387 146.278 152.663C147.489 153.119 148.809 152.406 149.853 151.63C153.928 148.6 156.978 144.216 158.4 139.344C146.656 130.217 131.003 111.615 131.003 111.615C130.061 109.324 129.888 99.5415 128.356 97.6031C126.825 95.6582 124.448 94.1819 121.988 94.445C120.45 94.6119 119.04 95.44 117.912 96.5055C113.825 100.37 113.671 107.642 117.598 111.673L116.4 109.998H116.394Z" fill="#F6A472"/>
<path d="M195.967 231.511C197.415 243.944 198.856 256.384 200.305 268.817C200.971 274.523 201.688 280.409 204.572 285.377C208.256 291.713 214.913 295.641 221.391 299.056C227.459 302.252 252.685 310.648 258.938 313.453C259.694 313.793 260.489 314.133 261.309 314.056C262.238 313.973 263.026 313.369 263.731 312.766C267.87 309.229 271.17 304.717 273.284 299.697C267.453 291.353 240.197 279.299 230.842 275.306C229.753 274.844 228.586 274.356 227.927 273.374C227.369 272.54 227.273 271.481 227.209 270.479C226.158 255.216 226.107 239.888 227.049 224.617C216.4 222.833 205.04 225.779 196.601 232.525L195.96 231.511H195.967Z" fill="#F6A472"/>
<path d="M236.865 188.968C238.998 196.843 241.555 204.597 244.534 212.191C245.034 213.462 249.346 225.554 250.365 226.453C252.024 227.923 259.816 225.182 262.026 225.343C266.467 225.657 261.719 218.86 265.679 220.901C266.672 221.408 267.678 221.986 268.786 222.075C269.895 222.165 271.157 221.607 271.458 220.529C271.791 219.335 270.856 218.186 269.939 217.345C266.39 214.091 262.046 211.716 257.394 210.47C256.638 210.271 255.811 210.053 255.356 209.418C255.023 208.956 254.965 208.352 254.914 207.787C254.357 201.285 253.799 194.789 253.242 188.287C252.941 184.77 252.608 181.143 250.986 178.011C247.494 178.223 243.9 178.864 240.991 180.809C238.082 182.761 236 186.265 236.576 189.725L236.865 188.968Z" fill="#F6A472"/>
<path d="M313.291 426.59C314.925 427.116 315.893 428.965 315.752 430.678C315.611 432.392 314.554 433.92 313.234 435.018C312.1 435.955 310.709 436.648 309.242 436.686C306.724 436.751 304.392 434.677 303.956 432.193C303.527 429.709 304.904 427.071 307.096 425.832C309.287 424.593 312.132 424.722 314.317 425.974L313.298 426.596L313.291 426.59Z" fill="#87C3A9"/>
<path d="M271.381 435.704C272.227 434.209 274.232 433.637 275.873 434.119C277.513 434.6 278.794 435.948 279.602 437.469C280.294 438.772 280.684 440.274 280.428 441.725C279.98 444.209 277.481 446.077 274.969 446C272.451 445.917 270.151 444.036 269.382 441.629C268.613 439.228 269.318 436.462 270.984 434.575L271.381 435.704Z" fill="#87C3A9"/>
<path d="M243.323 411.031C244.169 409.535 246.175 408.964 247.815 409.445C249.455 409.927 250.737 411.275 251.544 412.796C252.236 414.099 252.627 415.601 252.37 417.051C251.922 419.535 249.423 421.403 246.911 421.326C244.393 421.243 242.093 419.362 241.324 416.955C240.555 414.555 241.26 411.794 242.926 409.901L243.323 411.031Z" fill="#87C3A9"/>
<path d="M317.604 419.568C317.482 423.445 316.015 427.27 313.503 430.223C312.933 430.89 312.273 431.545 311.421 431.77C310.568 431.994 309.511 431.635 309.236 430.794C308.992 430.043 309.428 429.26 309.729 428.535C310.799 425.961 310.133 422.758 308.121 420.832C311.536 419.953 314.957 419.067 318.373 418.188L317.597 419.568H317.604Z" fill="black"/>
<path d="M279.236 429.966C276.122 430.858 274.354 434.851 275.77 437.765C275.956 438.143 276.187 438.516 276.206 438.933C276.263 440.082 274.796 440.672 273.656 440.544C270.478 440.185 268.293 437.142 267.171 434.145C265.864 430.646 265.435 426.827 265.941 423.124C270.535 424.016 275.02 425.473 279.256 427.456L279.23 429.966H279.236Z" fill="black"/>
<path d="M251.179 405.292C248.065 406.185 246.296 410.177 247.712 413.091C247.898 413.47 248.129 413.842 248.148 414.259C248.206 415.408 246.738 415.999 245.598 415.87C242.42 415.511 240.235 412.468 239.114 409.471C237.807 405.973 237.377 402.154 237.883 398.45C242.478 399.342 246.963 400.799 251.198 402.783L251.172 405.292H251.179Z" fill="black"/>
<path d="M232.963 293.908C233.174 291.809 233.834 289.768 234.859 287.932C236.66 284.703 239.94 282.572 243.567 281.898L274.912 276.051C276.699 275.717 278.544 275.762 280.313 276.186C282.306 276.661 284.164 277.604 285.721 278.933L313.516 302.612C315.137 303.992 316.393 305.75 317.181 307.734L319.077 312.516C319.712 314.114 320.019 315.828 319.994 317.548L318.257 419.42L308.166 421.699L301.701 429.459L280.941 433.252L278.224 429.144L275.636 429.767C272.528 430.518 269.247 429.696 266.857 427.572L266.531 431.795L236.397 400.157L232.963 293.908Z" fill="#01A299"/>
<path d="M299.33 429.671C299.868 396.357 302.162 362.755 302.7 329.448C302.854 319.859 303.027 306.02 294.941 300.891L267.889 276.988L259.085 278.272L280.979 298.78C287.752 304.094 292.468 311.611 294.313 320.032C294.967 323.004 295.248 326.04 295.159 329.082L292.205 430.922L299.324 429.671H299.33Z" fill="#0B4E4A"/>
<path d="M279.698 302.939C275.52 303.639 271.035 301.007 269.6 297.014C269.356 296.328 269.19 295.609 268.863 294.954C268.318 293.869 267.37 293.054 266.447 292.271C264.711 290.795 262.936 289.293 260.854 288.368C259.348 287.701 257.676 287.329 256.394 286.295C255.113 285.262 254.421 283.195 255.516 281.969C256.253 281.141 257.535 281.006 258.586 281.346C259.636 281.686 260.508 282.412 261.354 283.124C268.235 288.901 275.219 294.813 280.018 302.413L279.698 302.952V302.939Z" fill="black"/>
<path d="M283.248 358.442C283.927 356.336 283.504 354.116 284.1 351.985C284.696 349.854 287.284 347.838 289.001 349.231C289.892 349.956 290.084 351.214 290.219 352.357C291.34 362.094 292.461 371.921 291.545 381.678C291.129 386.094 290.302 390.452 289.475 394.81C289.136 396.582 288.252 398.816 286.451 398.694C284.683 398.572 284.081 396.293 283.952 394.522C283.786 392.249 283.626 389.977 283.459 387.705C283.421 387.198 283.408 386.62 283.76 386.254C284.196 385.799 284.946 385.908 285.541 385.702C286.605 385.336 287.021 384.085 287.252 382.981C288.713 376.113 288.617 368.917 286.977 362.088C286.528 360.233 285.484 358.018 283.581 358.05L283.248 358.442Z" fill="black"/>
<path opacity="0.8" d="M269.658 302.656C267.236 304.563 262.603 308.915 261.43 311.771C261.149 312.458 260.873 313.215 260.252 313.62C259.258 314.274 257.932 313.722 256.907 313.125C251.397 309.903 246.726 305.263 243.451 299.774C242.689 298.497 241.984 297.111 241.92 295.628C241.792 292.656 244.163 290.236 246.354 288.227C248.327 286.417 250.781 284.466 253.389 285.076C254.549 285.345 255.529 286.103 256.452 286.86C260.047 289.819 263.34 293.15 266.255 296.783C267.979 298.934 270.497 302.002 269.664 302.656H269.658Z" fill="#0B4E4A"/>
<path d="M284.087 347.568C284.202 341.259 284.318 334.949 284.433 328.64C284.535 322.908 284.945 316.868 282.645 311.469C281.556 308.915 279.871 306.61 277.564 305.038C277.084 304.71 276.635 305.487 277.109 305.814C281.428 308.754 283.081 314.127 283.472 319.101C283.702 322.048 283.593 325.013 283.542 327.972C283.485 331.027 283.433 334.083 283.376 337.138C283.312 340.617 283.247 344.096 283.183 347.568C283.171 348.146 284.068 348.146 284.08 347.568H284.087Z" fill="black"/>
<path d="M282.325 405.093C282.318 410.235 282.306 415.383 282.299 420.524C282.299 421.987 282.299 423.457 282.293 424.921C282.293 425.499 283.19 425.499 283.19 424.921C283.196 419.779 283.209 414.632 283.216 409.49C283.216 408.027 283.216 406.557 283.222 405.093C283.222 404.516 282.325 404.516 282.325 405.093Z" fill="black"/>
<path d="M268.805 339.776C268.908 350.033 268.882 360.29 268.729 370.548C268.575 380.805 268.299 391.062 267.889 401.306C267.658 407.057 267.396 412.809 267.088 418.56C267.056 419.138 267.953 419.138 267.985 418.56C268.53 408.316 268.953 398.065 269.248 387.814C269.542 377.563 269.709 367.306 269.754 357.043C269.779 351.285 269.76 345.527 269.702 339.77C269.702 339.192 268.799 339.192 268.805 339.77V339.776Z" fill="black"/>
<path d="M279.345 314.3C275.399 315.815 272.259 319.031 270.715 322.959C270.273 324.089 269.991 325.257 269.837 326.457C269.766 327.028 270.663 327.022 270.734 326.457C271.221 322.58 273.476 318.967 276.661 316.733C277.564 316.097 278.545 315.565 279.576 315.167C280.108 314.961 279.877 314.095 279.339 314.3H279.345Z" fill="black"/>
<path d="M278.583 311.29C274.745 311.559 271.176 314.018 269.626 317.561C269.395 318.087 270.17 318.543 270.401 318.017C271.823 314.769 275.04 312.439 278.583 312.188C279.153 312.15 279.16 311.251 278.583 311.29Z" fill="black"/>
<path d="M275.514 309.223C272.144 309.268 268.914 311.367 267.543 314.467C267.312 314.993 268.081 315.449 268.318 314.923C269.561 312.105 272.426 310.166 275.514 310.121C276.091 310.115 276.091 309.216 275.514 309.223Z" fill="black"/>
<path d="M272.957 305.141C269.222 306.174 266.133 308.96 264.66 312.541C264.442 313.074 265.307 313.305 265.525 312.779C266.877 309.499 269.786 306.951 273.194 306.007C273.752 305.853 273.515 304.986 272.957 305.141Z" fill="black"/>
<path d="M244.573 285.551C241.959 286.584 239.927 288.837 239.21 291.565C239.062 292.123 239.927 292.361 240.075 291.802C240.709 289.395 242.497 287.335 244.816 286.417C245.041 286.327 245.201 286.115 245.13 285.865C245.073 285.653 244.803 285.461 244.579 285.551H244.573Z" fill="black"/>
<path d="M242.144 285.024C239.992 285.814 238.153 287.296 236.942 289.241C236.634 289.736 237.409 290.185 237.717 289.697C238.8 287.958 240.459 286.597 242.388 285.891C242.612 285.807 242.766 285.589 242.702 285.339C242.644 285.12 242.382 284.941 242.151 285.024H242.144Z" fill="black"/>
<path d="M315.444 312.355C312.484 311.835 309.357 312.894 307.371 315.167C306.993 315.597 307.621 316.239 308.005 315.802C309.774 313.787 312.555 312.753 315.207 313.222C315.771 313.318 316.015 312.458 315.444 312.355Z" fill="black"/>
<path d="M314.989 309.659C311.843 309.184 308.544 310.378 306.5 312.849C306.134 313.292 306.762 313.928 307.134 313.485C308.96 311.283 311.907 310.096 314.752 310.526C315.316 310.609 315.56 309.749 314.989 309.659Z" fill="black"/>
<path d="M313.074 306.803C310.28 306.225 307.294 307.13 305.321 309.204C304.924 309.621 305.558 310.256 305.955 309.839C307.698 308.003 310.351 307.15 312.837 307.67C313.4 307.785 313.637 306.919 313.074 306.803Z" fill="black"/>
<path d="M310.998 303.343C307.916 302.38 304.334 303.452 302.316 305.981C301.957 306.431 302.591 307.066 302.95 306.617C304.783 304.319 307.954 303.33 310.761 304.21C311.312 304.383 311.549 303.517 310.998 303.343Z" fill="black"/>
<path d="M292.269 343.724L292.339 334.134C292.352 332.638 291.218 331.387 289.732 331.252L289.565 331.239C287.874 331.085 286.419 332.427 286.438 334.128L286.541 343.736C286.554 345.187 287.643 346.394 289.085 346.561C290.776 346.753 292.263 345.437 292.275 343.73L292.269 343.724Z" fill="black"/>
<path d="M257.548 215.047C261.879 215.4 265.813 218.706 266.915 222.916C267.473 225.047 267.357 227.294 267.229 229.502C265.89 253.508 264.551 277.508 263.212 301.514C263.045 304.479 261.187 307.207 258.406 308.215C258.406 308.215 270.234 210.83 256.016 220.901C248.994 220.862 249.148 302.22 249.148 302.22L244.188 297.477L248.078 218.879C248.193 215.792 251.083 213.564 254.088 214.257L257.548 215.053V215.047Z" fill="#0B4E4A"/>
<path d="M265.717 300.545C263.955 301.488 262.372 302.785 261.117 304.345C260.501 305.108 260.015 305.943 259.476 306.765C258.925 307.605 258.201 308.209 257.138 308.125C256.157 308.048 255.241 307.528 254.44 307.002C253.575 306.437 252.742 305.834 251.941 305.185C250.371 303.927 248.911 302.522 247.591 301.007C246.104 299.299 244.797 297.438 243.682 295.467C243.4 294.967 242.625 295.416 242.907 295.923C244.989 299.608 247.751 302.907 251.019 305.59C251.826 306.251 252.665 306.88 253.524 307.471C254.402 308.068 255.331 308.645 256.375 308.902C257.355 309.146 258.381 309.043 259.194 308.414C260.002 307.792 260.444 306.848 260.995 306.014C262.289 304.037 264.09 302.425 266.172 301.315C266.678 301.045 266.23 300.269 265.717 300.538V300.545Z" fill="#87C3A9"/>
<path d="M250.186 228.462C248.77 226.601 248.116 224.168 248.411 221.844C248.456 221.504 248.526 221.145 248.75 220.888C249.474 220.066 250.781 220.952 251.435 221.825C252.435 223.16 253.319 224.579 254.088 226.062C253.248 224.823 252.37 223.443 252.518 221.947C252.665 220.452 254.453 219.123 255.677 219.989C256.125 220.304 256.381 220.817 256.619 221.312C257.214 222.55 257.81 223.789 258.406 225.028C257.701 224.181 256.965 223.25 256.913 222.153C256.862 221.055 257.894 219.861 258.938 220.208C259.393 220.362 259.726 220.753 260.008 221.145C260.918 222.396 261.591 223.815 261.994 225.304C261.424 224.405 260.835 223.314 261.251 222.332C261.629 221.44 262.77 221.055 263.711 221.292C264.653 221.523 265.403 222.242 265.967 223.025C266.851 224.251 267.396 225.715 267.53 227.223C267.607 228.103 267.517 229.059 266.941 229.727C266.364 230.394 265.172 230.548 264.641 229.849C264.621 230.972 263.442 231.806 262.321 231.781C261.2 231.761 260.194 231.1 259.38 230.33C259.841 231.299 258.637 232.423 257.58 232.217C256.522 232.012 255.818 230.991 255.478 229.971C255.433 231.376 253.434 231.973 252.236 231.241C251.038 230.51 250.519 229.066 250.121 227.718L250.179 228.456L250.186 228.462Z" fill="#F6A472"/>
<path d="M195.794 93.6042C188.438 93.4309 180.32 93.5143 174.797 98.3862C170.92 101.801 169.094 106.981 167.973 112.026C166.852 117.078 166.249 122.309 164.148 127.033C162.04 131.757 158.612 133.529 153.48 134.139C151.884 138.202 143.51 150.006 143.484 151.655C143.426 155.969 150.897 161.367 155.139 162.092C159.387 162.818 163.686 161.521 167.8 160.231C163.622 186.265 148.764 209.764 145.419 235.914C150.846 233.79 156.574 237.647 161.412 240.895C167.999 245.311 175.7 249.06 183.556 248.001C190.097 247.115 196.332 242.956 202.803 244.259C207.442 245.196 211.639 248.887 216.291 248.033C218.347 247.654 220.129 246.409 221.839 245.202C225.101 242.891 237.525 246.698 240.786 244.387C238.178 238.777 237.717 232.442 237.403 226.26C236.698 212.486 227.343 192.568 227.67 178.781C228.779 183.993 232.354 186.753 236.749 189.757C239.082 182.536 245.841 181.214 253.402 181.695C255.901 169.179 251.691 168.909 250.628 163.447C250 160.212 249.372 156.951 249.41 153.658C249.468 148.664 251.038 143.824 251.653 138.869C252.838 129.299 250.416 119.664 247.462 110.492C244.957 102.725 241.222 94.214 233.565 91.4026C229.349 89.8556 224.691 91.0559 220.231 91.5951C212.087 92.5772 203.95 92.8789 195.806 93.8609L195.774 93.6106L195.794 93.6042Z" fill="url(#paint2_linear_65_1630)"/>
<path d="M135.039 109.69C123.717 101.551 53.8518 51.4523 29.1771 36.978L28.4019 39.0384C53.1406 54.0006 125.447 106.025 133.508 111.833C133.95 112.154 134.539 112.167 134.994 111.866C135.77 111.358 135.795 110.229 135.039 109.69Z" fill="#92278F"/>
<path d="M26.7616 34.6929C26.4477 33.4605 26.5502 32.119 27.0436 30.9444C28.5172 31.7403 30.2729 31.9842 31.9067 31.6247C32.0989 30.8545 31.1763 30.2896 30.401 30.142C29.6257 29.9944 28.6774 29.8917 28.3314 29.1792C28.1584 28.8197 28.1969 28.3961 28.2417 27.9981L29.2797 18.5112C29.3822 17.5613 28.985 16.1556 28.0751 16.4444C27.774 16.5407 27.569 16.8231 27.4152 17.0991C26.7104 18.3572 26.5694 19.8463 26.4477 21.2777C26.2619 23.3895 26.076 25.5013 25.8966 27.6066C25.8646 27.9532 25.8262 28.3255 25.6211 28.6015C24.8202 29.667 23.0454 28.21 21.8152 28.7299C22.2124 24.6604 22.6161 20.5845 23.0133 16.515C23.0518 16.1363 23.0774 15.7191 22.8467 15.4238C22.5136 14.9809 21.7767 15.0515 21.3666 15.4238C20.9566 15.7961 20.7836 16.361 20.649 16.9001C19.5406 21.1686 19.1497 25.6232 19.4893 30.0201C19.5085 30.2511 19.5277 30.4886 19.6559 30.6876C19.8673 31.0278 20.3094 31.1369 20.7067 31.2075C22.2445 31.4835 23.795 31.6761 25.352 31.7724C24.9227 32.395 24.628 33.1011 24.487 33.8456C25.0829 34.2308 25.8326 34.372 26.531 34.2308C26.5886 33.8585 26.4541 33.4669 26.1786 33.2102L26.768 34.6993L26.7616 34.6929Z" fill="#662D91"/>
<path d="M121.866 91.1394C122.808 91.0817 123.769 91.0624 124.679 91.3127C127.575 92.1151 129.004 95.318 129.862 98.2C130.279 99.5993 130.496 101.454 129.253 102.212C128.081 102.931 126.543 102.006 125.793 100.857C125.037 99.7084 124.659 98.3027 123.673 97.3399C122.949 96.6275 119.444 96.9676 118.502 96.6018C116.33 95.7545 115.676 95.2282 113.504 94.3745C113.799 93.6812 115.522 92.1407 116.272 92.1215L121.866 91.1458V91.1394Z" fill="#F6A472"/>
<path d="M111.409 96.5312C110.993 97.5325 110.031 98.1808 109.32 98.9959C108.609 99.8111 108.154 101.121 108.865 101.936C109.147 102.263 109.596 102.475 109.711 102.892C109.865 103.444 109.359 103.926 109.038 104.401C108.128 105.748 108.942 107.899 110.518 108.297C109.788 109.009 109.628 110.242 110.16 111.115C110.691 111.988 111.851 112.418 112.819 112.09C112.191 112.495 112.46 113.573 113.113 113.932C113.767 114.292 114.574 114.163 115.305 114.016C117.464 113.579 119.675 113.04 121.456 111.744C123.237 110.447 124.512 108.213 124.057 106.05C122.423 106.564 120.95 107.578 119.873 108.913C120.712 108.072 121.956 107.758 122.808 106.936C123.66 106.114 122.173 104.304 121.007 104.092C120.687 104.035 121.879 104.105 121.571 104.208C120.418 104.574 119.296 105.036 118.226 105.588C119.63 105.081 121.353 103.996 120.905 102.565C120.597 101.589 119.335 101.204 118.355 101.506C117.381 101.807 116.637 102.584 115.939 103.335C116.958 103.226 117.868 102.411 118.092 101.409C118.316 100.408 117.842 99.2848 116.964 98.7456C115.311 97.7379 112.53 98.5852 111.717 96.8264L111.409 96.5183V96.5312Z" fill="#F6A472"/>
<path d="M186.92 50.1814C187.016 57.0559 187.49 63.9239 188.348 70.7471C188.726 73.7703 189.252 76.9412 191.148 79.3161C193.051 81.691 200.945 81.5819 200.945 81.5819L203.444 91.5952C203.444 91.5952 197.267 92.9752 195.076 93.7904C193.231 104.709 192.603 115.839 193.199 126.898C200.727 113.823 210.223 101.929 221.212 91.5952C219.373 84.9132 217.905 78.058 216.906 71.2028C219.411 72.8973 223.409 71.3312 224.095 68.3785C224.787 65.4259 221.904 62.2486 218.905 62.6466C217.726 60.2588 219.571 57.0751 218.13 54.835C217.534 53.9107 216.496 53.3779 215.503 52.9029C207.743 49.1865 199.1 46.0926 190.674 47.8385C189.047 48.1787 187.176 49.0003 186.945 50.65L186.92 50.1878V50.1814Z" fill="#F6A472"/>
<path d="M193.352 70.9974C195.448 71.1386 197.549 71.2798 199.644 71.421C200.458 71.4788 201.342 71.5173 202.028 71.0744C201.304 72.801 199.478 74.0013 197.613 73.9757C195.742 73.95 193.948 72.7048 193.269 70.9589L193.346 70.9974H193.352Z" fill="white"/>
<path d="M193.353 71.4467C194.935 71.5558 196.524 71.6585 198.107 71.7677C199.446 71.8575 201.041 72.1913 202.259 71.4596L201.644 70.8434C200.964 72.4095 199.395 73.5264 197.665 73.5264C195.973 73.5264 194.333 72.4095 193.699 70.8434C193.487 70.317 192.616 70.5481 192.834 71.0808C193.602 73.0001 195.467 74.3737 197.556 74.425C199.606 74.4764 201.599 73.1798 202.412 71.2991C202.579 70.914 202.22 70.4326 201.797 70.6829C201.253 71.0102 200.625 71.0231 200.01 70.991C199.273 70.9589 198.542 70.8947 197.812 70.8434C196.326 70.7407 194.833 70.6444 193.346 70.5417C192.769 70.5032 192.769 71.4018 193.346 71.4403L193.353 71.4467Z" fill="#9B643E"/>
<path d="M217.713 68.4427C218.655 67.634 219.751 67.0178 220.923 66.6327C221.154 66.5556 221.301 66.3246 221.237 66.0806C221.173 65.856 220.917 65.6891 220.686 65.7661C219.36 66.2026 218.143 66.8958 217.079 67.8073C216.893 67.9678 216.919 68.2823 217.079 68.4427C217.258 68.6225 217.527 68.6032 217.713 68.4427Z" fill="#9B643E"/>
<path d="M218.309 67.5184C218.399 67.6725 218.476 67.833 218.546 67.9934C218.501 67.8971 218.565 68.0448 218.572 68.064C218.642 68.263 218.674 68.3529 218.7 68.4427C218.751 68.6096 218.796 68.7829 218.828 68.9627C218.835 69.0076 218.841 69.0525 218.854 69.091C218.873 69.2387 218.886 69.3285 218.892 69.4248C218.911 69.6559 219.084 69.887 219.341 69.8741C219.571 69.8613 219.808 69.6751 219.789 69.4248C219.732 68.5968 219.494 67.7945 219.091 67.0691C218.975 66.8637 218.681 66.7803 218.476 66.9087C218.271 67.0435 218.194 67.3066 218.315 67.5249L218.309 67.5184Z" fill="#9B643E"/>
<path d="M195.589 67.2745C194.736 66.7931 193.878 66.3117 193.026 65.8367V66.6134C195.364 65.4195 196.684 62.7493 196.325 60.1689C196.293 59.925 195.986 59.7967 195.774 59.8544C195.518 59.925 195.428 60.1689 195.46 60.4064C195.762 62.6016 194.519 64.8418 192.571 65.8367C192.27 65.9907 192.289 66.4529 192.571 66.6134L195.134 68.0512C195.64 68.3336 196.088 67.5569 195.589 67.2745Z" fill="#9B643E"/>
<path d="M203.963 61.5618C204.341 60.92 205.059 60.522 205.808 60.5605C206.539 60.599 207.18 61.074 207.5 61.7159C207.609 61.9341 207.916 61.9919 208.115 61.8764C208.333 61.748 208.384 61.4784 208.275 61.2602C207.814 60.3359 206.84 59.7132 205.808 59.6619C204.751 59.6105 203.72 60.2075 203.188 61.1125C202.893 61.6132 203.668 62.0625 203.963 61.5683V61.5618Z" fill="black"/>
<path d="M189.002 61.5875C189.38 60.9456 190.098 60.5476 190.847 60.5861C191.578 60.6247 192.218 61.0996 192.539 61.7415C192.648 61.9598 192.955 62.0175 193.154 61.902C193.372 61.7736 193.423 61.504 193.314 61.2858C192.853 60.3615 191.879 59.7389 190.847 59.6875C189.79 59.6362 188.758 60.2331 188.227 61.1382C187.932 61.6388 188.707 62.0881 189.002 61.5939V61.5875Z" fill="black"/>
<path d="M202.24 82.2109C205.635 81.5754 209.038 80.94 212.434 80.3045C212.997 80.2018 212.76 79.3353 212.197 79.438C208.801 80.0735 205.398 80.7089 202.002 81.3444C201.439 81.4471 201.676 82.3136 202.24 82.2109Z" fill="#9B643E"/>
<path d="M113.812 94.6312C114.356 95.0485 114.914 95.4721 115.542 95.7673C116.234 96.0883 116.939 96.2038 117.695 96.1846C119.303 96.1461 120.911 96.0305 122.519 95.9471C122.378 95.7545 122.231 95.5684 122.09 95.3758C121.597 98.3541 122.987 101.467 125.576 103.04C126.069 103.341 126.524 102.565 126.031 102.263C123.814 100.909 122.532 98.1872 122.955 95.6133C123 95.3437 122.84 95.0292 122.526 95.042C121.014 95.1191 119.495 95.2025 117.983 95.2667C117.272 95.2988 116.599 95.2667 115.945 94.9522C115.337 94.6633 114.799 94.2525 114.267 93.8417C113.805 93.4887 113.363 94.2718 113.812 94.6184V94.6312Z" fill="#9B643E"/>
<path d="M110.627 99.0666C111.825 98.7071 113.068 98.5531 114.318 98.6173C115.337 98.6686 116.695 98.7906 117.342 99.7021C118.79 101.743 114.497 102.674 113.344 102.918L113.69 103.739C114.978 103.123 116.285 102.494 117.701 102.25C118.496 102.116 120.161 101.994 120.475 103.021C120.655 103.611 120.11 104.15 119.713 104.503C119.232 104.927 118.707 105.293 118.169 105.639C117.009 106.384 115.76 106.968 114.446 107.385L114.792 108.207C115.849 107.584 116.919 106.955 118.06 106.506C119.098 106.095 120.328 105.729 121.456 105.89C121.885 105.948 122.391 106.159 122.308 106.686C122.218 107.244 121.661 107.571 121.219 107.835C120.065 108.521 118.906 109.195 117.752 109.876C117.246 110.177 117.688 110.884 118.207 110.652C118.976 110.306 120.008 109.818 120.86 110.184C121.379 110.409 121.866 111.07 121.533 111.622C121.231 112.116 122.007 112.565 122.308 112.077C122.872 111.153 122.334 110.023 121.481 109.503C120.315 108.785 118.886 109.382 117.765 109.882C117.919 110.139 118.066 110.402 118.22 110.659C119.322 110.011 120.424 109.362 121.526 108.714C122.385 108.207 123.378 107.494 123.211 106.352C123.064 105.351 122.032 104.998 121.148 104.978C120.02 104.953 118.886 105.235 117.842 105.652C116.625 106.134 115.484 106.782 114.356 107.443C113.927 107.693 114.209 108.419 114.702 108.265C115.901 107.886 117.06 107.372 118.143 106.731C119.149 106.134 120.296 105.428 120.994 104.465C121.654 103.553 121.501 102.398 120.552 101.769C119.636 101.159 118.444 101.223 117.413 101.409C115.945 101.679 114.581 102.334 113.248 102.976C112.767 103.207 113.12 103.9 113.594 103.797C114.651 103.573 115.74 103.284 116.714 102.809C117.47 102.436 118.239 101.84 118.457 100.986C118.694 100.036 118.194 99.1051 117.425 98.5531C116.554 97.9241 115.375 97.7957 114.331 97.7379C113.004 97.6673 111.672 97.8406 110.403 98.2193C109.852 98.3862 110.089 99.2527 110.64 99.0859L110.627 99.0666Z" fill="#9B643E"/>
<path d="M201.842 48.0889C200.407 49.8412 201.772 52.6077 203.713 53.7759C205.655 54.9441 208.019 55.2201 209.992 56.3305C212.6 57.794 215.964 58.5643 215.932 61.5618C215.919 62.5567 215.932 64.0651 214.753 66.6134C214.74 66.6005 216.951 63.7057 217.835 63.6479C219.482 63.5388 221.128 63.4233 222.769 63.3141C221.269 60.8879 221.41 57.7298 219.994 55.2458C218.956 53.4357 217.188 52.1648 215.381 51.1185C207.775 46.7088 198.491 45.2967 189.918 47.2352C188.957 47.4534 187.97 47.7294 187.227 48.3713C186.016 49.424 185.734 51.1955 185.811 52.7938C185.882 54.3985 186.228 56.0096 185.946 57.5886C185.664 59.1676 184.498 60.7595 182.902 60.8301C185.734 62.3642 189.117 60.0149 191.123 57.4923C193.128 54.9698 195.102 51.8759 198.286 51.3753C199.414 51.1955 200.932 51.1121 201.15 49.9888L201.836 48.0889H201.842Z" fill="#DC4345"/>
<path d="M219.693 54.1802C221.596 56.7413 224.979 56.8954 227.753 57.9095C229.125 58.4102 230.336 59.1997 231.169 60.4193C231.976 61.6003 232.424 62.9739 232.796 64.3411C233.546 67.114 233.969 70.1565 235.852 72.4416C238.178 75.2594 242.093 75.4712 245.156 77.0502C248.392 78.7191 251.339 81.7231 251.582 85.5358C251.621 86.1071 252.518 86.1135 252.479 85.5358C252.255 82.089 250.077 79.2134 247.315 77.3006C245.886 76.3057 244.31 75.6253 242.663 75.0797C240.953 74.5148 239.165 74.0206 237.685 72.9487C235.186 71.1257 234.603 67.8586 233.898 65.0472C233.2 62.255 232.251 59.3152 229.612 57.7876C228.099 56.9082 226.357 56.5552 224.684 56.0866C223.127 55.6501 221.468 55.0789 220.455 53.7309C220.116 53.2752 219.334 53.7181 219.68 54.1867L219.693 54.1802Z" fill="#DC4345"/>
<path d="M186.785 49.6037C185.766 50.5023 184.978 51.6256 184.466 52.8901C183.947 54.1546 183.934 55.6052 183.235 56.7927C182.191 58.5707 180.237 59.5912 178.75 60.9456C178.007 61.626 177.353 62.4091 176.975 63.3526C176.501 64.5401 176.623 65.8238 176.95 67.0306C177.309 68.3528 177.911 69.6302 178.045 71.0038C178.18 72.326 177.789 73.6034 177.071 74.7074C175.303 77.4546 172.023 78.5073 169.005 79.2134C168.441 79.3417 168.678 80.2083 169.242 80.0799C171.997 79.438 174.88 78.5137 176.873 76.3955C177.763 75.4455 178.468 74.2902 178.782 73.0128C179.115 71.6649 178.91 70.3362 178.513 69.0268C178.109 67.7045 177.514 66.3759 177.546 64.9701C177.571 63.9111 178.052 62.9803 178.75 62.2037C180.147 60.6632 182.076 59.7068 183.402 58.0957C183.767 57.6528 184.081 57.1778 184.305 56.645C184.645 55.8491 184.76 54.9954 184.978 54.161C185.382 52.6333 186.234 51.279 187.413 50.2391C187.849 49.854 187.208 49.225 186.779 49.6037H186.785Z" fill="#DC4345"/>
<path d="M203.239 55.4383C203.239 55.9968 203.252 56.5488 203.258 57.1072C205.494 56.767 207.66 57.9095 209.64 59.0072C208.986 57.7876 208.224 56.5295 207 55.9005C205.821 55.2971 204.418 55.3806 203.098 55.5154L203.245 55.4319L203.239 55.4383Z" fill="#8C2A2F"/>
<path d="M194.775 52.935C194.775 53.4935 194.762 54.0455 194.756 54.6039C192.52 54.2637 190.354 55.4062 188.374 56.5039C189.028 55.2843 189.79 54.0262 191.014 53.3972C192.193 52.7938 193.596 52.8773 194.916 53.0121L194.769 52.9286L194.775 52.935Z" fill="#8C2A2F"/>
<path d="M205.885 50.3739C207.481 52.3702 209.505 54.0069 211.793 55.1431C212.305 55.3998 212.76 54.6231 212.248 54.3664C210.024 53.2624 208.077 51.6834 206.526 49.7385C206.372 49.5459 206.052 49.5844 205.892 49.7385C205.706 49.9246 205.744 50.1878 205.892 50.3739H205.885Z" fill="#8C2A2F"/>
<path d="M213.273 53.4421C213.798 54.2316 214.567 54.8221 215.464 55.1302C215.688 55.2072 215.964 55.0404 216.015 54.8157C216.073 54.5654 215.938 54.3471 215.701 54.2637C215.656 54.2444 215.605 54.2316 215.56 54.2123C215.407 54.1481 215.317 54.1032 215.227 54.0583C215.144 54.0134 215.061 53.962 214.984 53.9107C214.939 53.885 214.9 53.8529 214.855 53.8272C214.657 53.6732 214.618 53.6411 214.58 53.6026C214.503 53.5319 214.433 53.4678 214.362 53.3907C214.292 53.3201 214.228 53.2431 214.164 53.1661C214.099 53.0826 214.067 53.0377 214.035 52.9864C213.907 52.7938 213.632 52.6911 213.42 52.8259C213.228 52.9543 213.119 53.2303 213.26 53.4421H213.273Z" fill="#8C2A2F"/>
<path d="M227.645 69.7457C228.779 73.5584 231.072 77.0117 234.186 79.483C237.422 82.0569 241.715 83.7386 243.829 87.4936C244.9 89.3935 245.188 91.8519 243.996 93.7647C243.689 94.2589 244.464 94.7082 244.771 94.2204C245.835 92.5194 245.893 90.3692 245.258 88.5013C244.598 86.5628 243.227 84.9581 241.683 83.6551C239.979 82.2238 238.044 81.1197 236.218 79.8681C234.475 78.6678 232.892 77.2621 231.604 75.5739C230.214 73.7574 229.169 71.697 228.516 69.5018C228.349 68.9498 227.484 69.1873 227.651 69.7393L227.645 69.7457Z" fill="#8C2A2F"/>
<path d="M229.464 79.207C232.117 80.8694 233.597 84.1879 233.04 87.2818C232.937 87.8466 233.802 88.0905 233.905 87.5193C234.539 84.021 232.931 80.3238 229.919 78.4303C229.426 78.1222 228.977 78.8989 229.464 79.207Z" fill="#8C2A2F"/>
<path d="M186.862 78.456C186.804 79.5664 186.746 80.7603 186.221 81.7616C185.689 82.7694 184.735 83.2764 183.677 83.5781C182.607 83.8862 181.492 84.0274 180.442 84.3997C179.314 84.7977 178.225 85.401 177.424 86.2997C176.54 87.2882 175.995 88.6104 176.136 89.9519C176.194 90.5232 177.097 90.5296 177.033 89.9519C176.751 87.3267 179.141 85.6578 181.39 85.048C183.44 84.4896 185.881 84.3355 186.996 82.2173C187.605 81.0684 187.695 79.7333 187.759 78.4624C187.791 77.8847 186.894 77.8847 186.862 78.4624V78.456Z" fill="#8C2A2F"/>
<path d="M189.181 84.8105C188.047 85.8825 186.791 86.8004 185.427 87.5513C184.92 87.8274 185.375 88.604 185.882 88.328C187.31 87.5385 188.637 86.5693 189.816 85.446C190.239 85.048 189.604 84.4126 189.181 84.8105Z" fill="#8C2A2F"/>
<path d="M195.505 83.4048C195.633 84.7142 195.255 86.0493 194.397 87.0571C194.243 87.2432 194.217 87.5128 194.397 87.6925C194.557 87.853 194.871 87.8787 195.031 87.6925C196.031 86.5115 196.55 84.9517 196.402 83.4048C196.377 83.1609 196.217 82.9555 195.954 82.9555C195.73 82.9555 195.48 83.1609 195.505 83.4048Z" fill="#8C2A2F"/>
<path d="M29.9012 37.2155C29.1131 35.3926 27.4343 33.9869 25.5057 33.5247C23.5771 33.0626 21.4435 33.5632 19.9249 34.8342C20.7771 36.6571 22.1098 38.2553 23.7437 39.4236C24.8394 40.2066 26.1849 40.8164 27.5048 40.5597C28.8247 40.3029 29.9588 38.8715 29.4783 37.6071L29.9012 37.2155Z" fill="#92278F"/>
<path d="M21.2577 12.5098C24.7048 13.5624 28.2545 14.2813 31.8426 14.6536C32.3616 14.0374 32.1245 13.0425 31.5415 12.4777C30.9648 11.9192 30.1511 11.6817 29.3758 11.4699C27.9662 11.0848 26.5566 10.6932 25.1405 10.3081C24.3204 10.0835 23.4426 9.85881 22.6225 10.1027C21.8087 10.3531 21.1359 11.2774 21.4755 12.0604L21.2449 12.5033L21.2577 12.5098Z" fill="#662D91"/>
<path d="M37.7438 17.4458C38.4294 17.9079 38.3525 18.967 38.3012 19.6859C38.2115 20.9119 38.0898 22.1379 37.9424 23.3574C37.795 24.6155 37.622 25.8671 37.4234 27.1124C37.3337 27.6708 37.2696 28.2357 37.1287 28.7813C37.0197 29.1985 36.8211 29.59 36.4111 29.7826C35.5845 30.1677 34.476 29.7377 33.7007 29.4039C33.1753 29.1728 32.7204 29.9495 33.2458 30.1805C34.1813 30.5913 35.2257 30.9572 36.2637 30.7647C37.417 30.5528 37.9104 29.5643 38.0962 28.5053C38.6024 25.6361 38.9548 22.7348 39.1854 19.8335C39.2751 18.691 39.2495 17.3751 38.1987 16.6755C37.7181 16.3546 37.2696 17.1312 37.7438 17.4522V17.4458Z" fill="#1F2D44"/>
<path d="M14.3955 14.2043C13.7291 14.5766 13.3447 15.3853 13.4151 16.1427C13.4536 16.5535 13.5945 16.9322 13.8636 17.2532C14.1328 17.5677 14.5108 17.7346 14.9145 17.7859C15.6321 17.8758 16.4522 17.4842 16.7918 16.836C16.9712 16.4893 17.0353 16.0721 16.9135 15.6998C16.7918 15.334 16.5483 15.0451 16.2344 14.8333C15.9204 14.6215 15.5167 14.5059 15.1387 14.5252C14.6774 14.5509 14.2993 14.7563 14.0174 15.1221C13.8765 15.3083 13.979 15.6356 14.1776 15.7383C14.4147 15.8603 14.6389 15.7769 14.7927 15.5779C15.1579 15.4238 15.2156 15.4174 15.2797 15.4238C15.427 15.4495 15.4847 15.4623 15.5488 15.4816C15.6897 15.5458 15.741 15.5715 15.7858 15.6036C15.914 15.7127 15.946 15.7512 15.9845 15.7961C15.8884 16.5664 15.8435 16.6049 15.7987 16.6498C15.6449 16.7525 15.5872 16.7846 15.536 16.8103C15.3566 16.868 15.2925 16.8745 15.2348 16.8937C14.5813 16.7012 14.5364 16.6498 14.4916 16.6113C14.357 16.3417 14.3378 16.2711 14.325 16.2005C14.3058 15.9951 14.3122 15.9181 14.3186 15.841C14.3634 15.6228 14.389 15.5586 14.4147 15.488C14.6133 15.1799 14.6646 15.1286 14.7222 15.0772C14.7863 15.0323 14.8247 15.0066 14.8632 14.9874C15.0682 14.8718 15.1515 14.5766 15.0234 14.3712C14.8888 14.1658 14.6261 14.0887 14.4083 14.2107L14.3955 14.2043Z" fill="#1F2D44"/>
<path d="M122.135 107.238C124.365 107.899 126.184 109.696 126.87 111.917C127.036 112.469 127.901 112.231 127.735 111.679C126.96 109.157 124.909 107.116 122.378 106.371C121.821 106.204 121.584 107.071 122.141 107.238H122.135Z" fill="#9B643E"/>
<path d="M252.345 222.788C253.421 225.137 254.126 227.666 254.421 230.234C254.485 230.799 255.382 230.805 255.318 230.234C255.004 227.493 254.267 224.842 253.12 222.332C252.877 221.806 252.108 222.262 252.345 222.788Z" fill="#9B643E"/>
<path d="M255.741 221.511C257.311 224.258 258.368 227.268 258.868 230.394C258.957 230.965 259.822 230.722 259.733 230.157C259.22 226.96 258.124 223.873 256.516 221.061C256.228 220.561 255.452 221.01 255.741 221.517V221.511Z" fill="#9B643E"/>
<path d="M261.405 223.045C262.251 225.375 262.827 227.795 263.103 230.259C263.167 230.831 264.064 230.837 264 230.259C263.718 227.711 263.148 225.214 262.27 222.801C262.071 222.262 261.206 222.493 261.405 223.038V223.045Z" fill="#9B643E"/>
<path d="M248.545 211.176C249.775 209.88 251.698 209.379 253.402 209.912C253.953 210.085 254.19 209.219 253.639 209.045C251.64 208.423 249.353 209.02 247.911 210.541C247.514 210.958 248.148 211.594 248.545 211.176Z" fill="#9B643E"/>
<path d="M177.757 286.59C176.335 289.35 177.392 293.041 180.096 294.595C180.595 294.883 181.05 294.107 180.551 293.818C178.282 292.515 177.334 289.376 178.539 287.046C178.801 286.533 178.032 286.077 177.763 286.59H177.757Z" fill="#7F4924"/>
<path d="M206.321 280.172C205.238 282.752 206.955 286.045 209.659 286.687C210.223 286.821 210.46 285.955 209.896 285.82C207.622 285.281 206.282 282.559 207.186 280.409C207.282 280.184 207.083 279.915 206.872 279.857C206.616 279.78 206.417 279.947 206.321 280.172Z" fill="#7F4924"/>
<path d="M167.3 160.674C174.547 163.049 181.954 164.936 189.457 166.322C196.947 167.709 204.533 168.594 212.145 168.973C216.451 169.185 220.763 169.236 225.075 169.127C225.652 169.114 225.652 168.216 225.075 168.229C217.476 168.428 209.864 168.113 202.304 167.298C194.736 166.483 187.227 165.148 179.833 163.331C175.694 162.311 171.593 161.129 167.537 159.807C166.986 159.628 166.749 160.494 167.3 160.674Z" fill="#351D09"/>
<path d="M232.162 97.3977C229.701 102.128 227.747 107.116 226.344 112.257C224.941 117.399 224.082 122.694 223.794 128.015C223.48 133.779 223.909 139.543 224.255 145.294C224.614 151.168 224.973 157.041 225.332 162.907C225.671 168.453 225.793 174.115 227.215 179.513C227.388 180.167 227.581 180.822 227.798 181.464C227.978 182.01 228.843 181.779 228.663 181.227C226.921 175.963 226.683 170.385 226.35 164.897C225.998 159.108 225.645 153.318 225.293 147.528C224.947 141.803 224.473 136.064 224.601 130.326C224.723 125.011 225.421 119.716 226.677 114.549C227.933 109.394 229.727 104.375 232.053 99.6122C232.341 99.0217 232.636 98.4311 232.943 97.847C233.213 97.3335 232.437 96.8778 232.168 97.3913L232.162 97.3977Z" fill="#351D09"/>
<path d="M234.737 184.969C237.928 182.003 241.869 179.885 246.091 178.832C247.283 178.537 248.5 178.325 249.724 178.21C250.295 178.152 250.301 177.253 249.724 177.311C245.213 177.748 240.844 179.333 237.108 181.913C236.051 182.645 235.045 183.454 234.097 184.333C233.674 184.725 234.308 185.36 234.731 184.969H234.737Z" fill="#351D09"/>
<path d="M167.646 160.051C169.126 156.63 170.28 153.074 171.061 149.428C171.446 147.657 171.849 145.808 171.734 143.985C171.676 143.093 171.484 142.246 171.132 141.424C170.792 140.628 170.344 139.877 170.023 139.068C169.319 137.284 169.639 135.39 170.011 133.567C170.401 131.642 170.792 129.723 171.19 127.797C171.978 123.92 172.772 120.043 173.56 116.166C174.457 111.776 175.354 107.385 176.245 102.995C176.36 102.43 175.495 102.193 175.38 102.757C173.797 110.511 172.215 118.265 170.632 126.025L169.44 131.879C169.075 133.664 168.575 135.512 168.716 137.354C168.787 138.253 169.03 139.081 169.402 139.896C169.761 140.686 170.216 141.437 170.491 142.258C171.093 144.017 170.831 145.904 170.491 147.682C169.729 151.771 168.511 155.776 166.858 159.602C166.634 160.128 167.403 160.584 167.633 160.058L167.646 160.051Z" fill="#351D09"/>
<path d="M191.347 96.1653C189.95 100.793 189.252 105.607 189.092 110.434C188.931 115.3 189.322 120.165 190.059 124.973C190.469 127.681 191.001 130.377 191.61 133.047C191.699 133.445 192.231 133.465 192.43 133.157C195.762 128.022 199.266 122.996 202.938 118.092C206.616 113.188 210.46 108.406 214.458 103.759C216.714 101.14 219.014 98.5659 221.365 96.0369C221.756 95.6133 221.128 94.9779 220.731 95.4015C216.534 99.9203 212.485 104.58 208.602 109.375C204.738 114.144 201.035 119.042 197.498 124.061C195.499 126.905 193.551 129.78 191.655 132.701C191.93 132.739 192.199 132.771 192.475 132.81C191.405 128.111 190.585 123.355 190.2 118.554C189.822 113.81 189.848 109.016 190.501 104.298C190.866 101.628 191.437 98.9896 192.212 96.4028C192.379 95.8508 191.514 95.6133 191.347 96.1653Z" fill="#351D09"/>
<path d="M237.537 148.882C240.651 148.735 243.765 149.088 246.764 149.935C247.321 150.096 247.559 149.229 247.001 149.069C243.926 148.196 240.722 147.83 237.537 147.984C236.961 148.01 236.961 148.908 237.537 148.882Z" fill="#351D09"/>
<path d="M236.705 152.65C240.011 152.458 243.33 152.554 246.623 152.926C247.193 152.99 247.193 152.092 246.623 152.028C243.33 151.649 240.011 151.559 236.705 151.752C236.134 151.784 236.128 152.682 236.705 152.65Z" fill="#351D09"/>
<path d="M155.318 134.999C153.262 139.8 151.186 144.633 148.392 149.069C147.598 150.333 146.745 151.559 145.823 152.734C145.47 153.183 146.098 153.825 146.457 153.369C149.731 149.197 152.134 144.454 154.28 139.627C154.896 138.24 155.491 136.847 156.094 135.454C156.318 134.928 155.549 134.472 155.318 134.999Z" fill="#351D09"/>
<path d="M159.791 135.621C160.925 138.985 161.579 142.489 161.726 146.033C161.752 146.61 162.649 146.61 162.623 146.033C162.476 142.412 161.816 138.818 160.656 135.384C160.47 134.838 159.605 135.076 159.791 135.621Z" fill="#351D09"/>
<path d="M162.533 136.154C163.936 138.022 164.897 140.172 165.34 142.47C165.449 143.035 166.314 142.798 166.205 142.233C165.75 139.871 164.757 137.624 163.308 135.705C163.161 135.512 162.924 135.416 162.693 135.544C162.501 135.653 162.386 135.968 162.533 136.161V136.154Z" fill="#351D09"/>
<path d="M181.428 164.127C180.019 171.682 177.789 179.051 175.431 186.355C173.067 193.666 170.568 200.939 168.62 208.378C167.531 212.524 166.621 216.722 166.006 220.965C165.923 221.53 166.788 221.774 166.871 221.203C167.979 213.609 170.023 206.196 172.317 198.878C174.617 191.542 177.167 184.275 179.282 176.881C180.461 172.754 181.505 168.582 182.293 164.365C182.396 163.8 181.537 163.556 181.428 164.127Z" fill="#351D09"/>
<path d="M183.6 165.674C182.844 172.035 181.922 178.383 180.839 184.699C179.756 191.009 178.513 197.286 177.11 203.532C176.322 207.043 175.482 210.547 174.592 214.039C174.451 214.598 175.316 214.842 175.457 214.277C177.046 208.051 178.475 201.786 179.743 195.489C181.018 189.167 182.127 182.812 183.069 176.432C183.6 172.857 184.075 169.268 184.504 165.674C184.574 165.103 183.677 165.109 183.607 165.674H183.6Z" fill="#351D09"/>
<path d="M204.476 175C203.848 184.487 202.983 193.961 201.874 203.403C201.56 206.061 201.233 208.712 200.881 211.363C200.849 211.607 201.112 211.812 201.33 211.812C201.599 211.812 201.746 211.6 201.778 211.363C203.021 201.933 204.027 192.479 204.79 182.998C205.001 180.334 205.2 177.664 205.373 174.994C205.411 174.416 204.514 174.416 204.476 174.994V175Z" fill="#351D09"/>
<path d="M207.686 181.817C207.961 189 207.788 196.195 207.173 203.352C207 205.361 206.789 207.37 206.552 209.373C206.481 209.944 207.378 209.938 207.449 209.373C208.314 202.242 208.736 195.053 208.711 187.864C208.704 185.848 208.66 183.826 208.583 181.811C208.563 181.233 207.666 181.233 207.686 181.811V181.817Z" fill="#351D09"/>
<path d="M214.497 198.846C215.163 205.021 215.259 211.247 214.785 217.441C214.65 219.193 214.465 220.946 214.24 222.692C214.163 223.263 215.061 223.257 215.137 222.692C215.938 216.536 216.169 210.31 215.823 204.109C215.727 202.351 215.58 200.598 215.394 198.852C215.33 198.281 214.433 198.275 214.497 198.852V198.846Z" fill="#351D09"/>
<path d="M164.103 233.148C166.544 236.332 169.805 238.803 173.496 240.369C177.174 241.935 181.23 242.635 185.215 242.269C187.278 242.083 189.277 241.608 191.212 240.882C193.538 240.009 195.819 238.893 198.325 238.642C200.631 238.411 202.97 238.796 205.116 239.676C206.206 240.125 207.231 240.716 208.192 241.39C209.147 242.057 210.082 242.776 211.165 243.238C213.35 244.162 215.817 243.841 217.944 242.911C220.129 241.948 221.936 240.285 223.569 238.585C223.992 238.148 224.402 237.699 224.813 237.256C225.203 236.832 224.569 236.197 224.178 236.62C222.583 238.347 220.955 240.106 218.95 241.364C217.053 242.545 214.689 243.264 212.466 242.731C211.312 242.455 210.332 241.82 209.377 241.146C208.442 240.484 207.513 239.836 206.488 239.329C204.456 238.321 202.214 237.737 199.939 237.692C197.524 237.641 195.281 238.321 193.058 239.207C191.039 240.009 189.047 240.786 186.894 241.158C183.056 241.826 179.058 241.422 175.393 240.151C171.734 238.886 168.377 236.717 165.794 233.809C165.474 233.45 165.167 233.077 164.872 232.699C164.724 232.506 164.487 232.41 164.257 232.538C164.064 232.647 163.949 232.962 164.097 233.154L164.103 233.148Z" fill="#351D09"/>
<path d="M175.457 145.718C179.698 145.763 183.94 145.878 188.182 146.071C192.276 146.251 196.409 146.405 200.477 146.918C202.726 147.201 204.963 147.65 207.128 148.35C207.679 148.529 207.916 147.663 207.365 147.483C203.495 146.225 199.414 145.821 195.371 145.558C191.155 145.282 186.932 145.095 182.71 144.967C180.294 144.896 177.879 144.845 175.457 144.819C174.88 144.819 174.88 145.712 175.457 145.718Z" fill="#351D09"/>
<path d="M183.114 149.133C186.804 149.171 190.488 149.319 194.173 149.569C194.749 149.608 194.743 148.709 194.173 148.671C190.495 148.42 186.804 148.273 183.114 148.234C182.537 148.234 182.537 149.126 183.114 149.133Z" fill="#351D09"/>
</g>
<defs>
<filter id="filter0_d_65_1630" x="0" y="0" width="340" height="466" filterUnits="userSpaceOnUse" color-interpolation-filters="sRGB">
<feFlood flood-opacity="0" result="BackgroundImageFix"/>
<feColorMatrix in="SourceAlpha" type="matrix" values="0 0 0 0 0 0 0 0 0 0 0 0 0 0 0 0 0 0 127 0" result="hardAlpha"/>
<feOffset dx="5" dy="5"/>
<feGaussianBlur stdDeviation="7.5"/>
<feComposite in2="hardAlpha" operator="out"/>
<feColorMatrix type="matrix" values="0 0 0 0 0 0 0 0 0 0 0 0 0 0 0 0 0 0 0.25 0"/>
<feBlend mode="normal" in2="BackgroundImageFix" result="effect1_dropShadow_65_1630"/>
<feBlend mode="normal" in="SourceGraphic" in2="effect1_dropShadow_65_1630" result="shape"/>
</filter>
<linearGradient id="paint0_linear_65_1630" x1="188.041" y1="38.3773" x2="228.362" y2="38.3773" gradientUnits="userSpaceOnUse">
<stop stop-color="#01A299"/>
<stop offset="1" stop-color="#0B4E4A"/>
</linearGradient>
<linearGradient id="paint1_linear_65_1630" x1="228.433" y1="39.5776" x2="188.291" y2="39.5776" gradientUnits="userSpaceOnUse">
<stop stop-color="#92278F"/>
<stop offset="1" stop-color="#662D91"/>
</linearGradient>
<linearGradient id="paint2_linear_65_1630" x1="198.844" y1="90.6323" x2="198.844" y2="248.181" gradientUnits="userSpaceOnUse">
<stop stop-color="#92278F"/>
<stop offset="1" stop-color="#662D91"/>
</linearGradient>
<clipPath id="clip0_65_1630">
<rect width="310" height="436" fill="white" transform="translate(10 10)"/>
</clipPath>
</defs>
</svg>
