<svg width="173" height="173" viewBox="0 0 173 173" fill="none" xmlns="http://www.w3.org/2000/svg">
<path d="M86.16 0C38.5636 0 0 38.5636 0 86.16C0 133.756 38.5636 172.32 86.16 172.32C133.756 172.32 172.32 133.756 172.32 86.16C172.32 38.5636 133.756 0 86.16 0ZM86.16 155.644C47.7702 155.644 16.6761 124.55 16.6761 86.16C16.6761 47.7702 47.7702 16.6761 86.16 16.6761C124.55 16.6761 155.644 47.7702 155.644 86.16C155.644 124.55 124.55 155.644 86.16 155.644ZM107.631 119.373L78.1346 97.9375C77.0576 97.1385 76.4323 95.8878 76.4323 94.5676V37.5213C76.4323 35.2283 78.3083 33.3523 80.6013 33.3523H91.7187C94.0117 33.3523 95.8877 35.2283 95.8877 37.5213V86.7506L119.095 103.635C120.971 104.99 121.354 107.596 119.999 109.472L113.467 118.47C112.112 120.311 109.507 120.728 107.631 119.373Z" fill="black"/>
</svg>
