<svg width="27" height="30" viewBox="0 0 27 30" fill="none" xmlns="http://www.w3.org/2000/svg">
<path d="M1.875 27.1875C1.875 27.9334 2.17132 28.6488 2.69876 29.1762C3.22621 29.7037 3.94158 30 4.6875 30H21.5625C22.3084 30 23.0238 29.7037 23.5512 29.1762C24.0787 28.6488 24.375 27.9334 24.375 27.1875V7.50001H1.875V27.1875ZM17.8125 12.1875C17.8125 11.9389 17.9113 11.7004 18.0871 11.5246C18.2629 11.3488 18.5014 11.25 18.75 11.25C18.9986 11.25 19.2371 11.3488 19.4129 11.5246C19.5887 11.7004 19.6875 11.9389 19.6875 12.1875V25.3125C19.6875 25.5611 19.5887 25.7996 19.4129 25.9754C19.2371 26.1512 18.9986 26.25 18.75 26.25C18.5014 26.25 18.2629 26.1512 18.0871 25.9754C17.9113 25.7996 17.8125 25.5611 17.8125 25.3125V12.1875ZM12.1875 12.1875C12.1875 11.9389 12.2863 11.7004 12.4621 11.5246C12.6379 11.3488 12.8764 11.25 13.125 11.25C13.3736 11.25 13.6121 11.3488 13.7879 11.5246C13.9637 11.7004 14.0625 11.9389 14.0625 12.1875V25.3125C14.0625 25.5611 13.9637 25.7996 13.7879 25.9754C13.6121 26.1512 13.3736 26.25 13.125 26.25C12.8764 26.25 12.6379 26.1512 12.4621 25.9754C12.2863 25.7996 12.1875 25.5611 12.1875 25.3125V12.1875ZM6.5625 12.1875C6.5625 11.9389 6.66127 11.7004 6.83708 11.5246C7.0129 11.3488 7.25136 11.25 7.5 11.25C7.74864 11.25 7.98709 11.3488 8.16291 11.5246C8.33872 11.7004 8.4375 11.9389 8.4375 12.1875V25.3125C8.4375 25.5611 8.33872 25.7996 8.16291 25.9754C7.98709 26.1512 7.74864 26.25 7.5 26.25C7.25136 26.25 7.0129 26.1512 6.83708 25.9754C6.66127 25.7996 6.5625 25.5611 6.5625 25.3125V12.1875ZM25.3125 1.87501H18.2812L17.7305 0.779307C17.6138 0.545057 17.4341 0.348012 17.2115 0.210337C16.989 0.0726631 16.7324 -0.00017742 16.4707 1.02731e-05H9.77343C9.51233 -0.000993469 9.25622 0.0715755 9.03445 0.209403C8.81269 0.34723 8.63423 0.544741 8.51953 0.779307L7.96875 1.87501H0.9375C0.688859 1.87501 0.450403 1.97378 0.274587 2.1496C0.098772 2.32541 0 2.56387 0 2.81251L0 4.68751C0 4.93615 0.098772 5.17461 0.274587 5.35042C0.450403 5.52624 0.688859 5.62501 0.9375 5.62501H25.3125C25.5611 5.62501 25.7996 5.52624 25.9754 5.35042C26.1512 5.17461 26.25 4.93615 26.25 4.68751V2.81251C26.25 2.56387 26.1512 2.32541 25.9754 2.1496C25.7996 1.97378 25.5611 1.87501 25.3125 1.87501Z" fill="url(#paint0_linear_146_1709)"/>
<defs>
<linearGradient id="paint0_linear_146_1709" x1="13.125" y1="0" x2="13.125" y2="30" gradientUnits="userSpaceOnUse">
<stop stop-color="#A20000"/>
<stop offset="1" stop-color="#4E0B0B"/>
</linearGradient>
</defs>
</svg>
