<svg width="500" height="194" viewBox="0 0 500 194" fill="none" xmlns="http://www.w3.org/2000/svg">
<g clip-path="url(#clip0_223_369)">
<path d="M499.94 1.35083C380.54 51.2695 385.011 42.3363 327.762 60.7277C309.324 54.8393 292.046 54.2363 276.006 49.5077C267.468 46.0458 259.471 46.1074 250.622 52.9234C242.284 61.3923 217.319 70.155 222.314 82.6735C224.403 88.4848 231.239 95.2536 233.822 103.104" stroke="#181818" stroke-width="3" stroke-miterlimit="10"/>
<path d="M238.712 110.09C250.637 115.87 260.166 94.7276 251.118 77.3101" stroke="#181818" stroke-width="3" stroke-miterlimit="10"/>
<path d="M499.94 86.8772C429.714 108.421 398.716 106.335 364.376 119.749L334.059 139.021M315.915 150.566L310.672 153.889" stroke="#181818" stroke-width="3" stroke-miterlimit="10"/>
<path d="M0.0517578 0.145874C110.882 39.0603 149.925 36.3873 181.511 50.9603C199.083 54.8394 200.676 46.54 245.086 57.3428" stroke="#181818" stroke-width="3" stroke-miterlimit="10"/>
<path d="M0.0517578 86.8772C81.3841 100.987 115.801 99.8898 148.13 110.801C161.974 116.581 171.626 122.933 178.819 127.77" stroke="#181818" stroke-width="3" stroke-miterlimit="10"/>
<path d="M178.818 127.77C187.558 121.681 195.106 119.672 200.567 124.803C206.228 132.84 201.82 138.542 191.935 148.619C176.142 161.122 166.01 132.84 178.818 127.77Z" stroke="#181818" stroke-width="3" stroke-miterlimit="10"/>
<path d="M223.212 122.408C234.535 117.061 245.271 126.287 236.329 138.79C227.62 149.361 218.076 159.437 207.419 168.849C200.567 176.144 194.116 176.313 188.053 170.054C182.5 163.841 182.685 157.32 191.038 150.396C200.567 139.841 210.822 130.027 223.212 122.408Z" stroke="#181818" stroke-width="3" stroke-miterlimit="10"/>
<path d="M240.8 135.513C249.447 129.857 259.873 134.925 255.696 147.119C248.612 157.211 237.645 171.878 228.72 181.057C223.058 188.058 217.305 188.661 211.442 183.453C206.028 178.26 205.734 172.402 212.757 165.618C220.584 155.495 230.839 145.265 240.801 135.513H240.8Z" stroke="#181818" stroke-width="3" stroke-miterlimit="10"/>
<path d="M253.917 84.9449C256.825 81.298 261.357 83.1215 261.65 69.1196" stroke="#181818" stroke-width="3" stroke-miterlimit="10"/>
<path d="M258.898 80.7566C265.673 80.0457 269.695 85.2078 281.62 64.9622" stroke="#181818" stroke-width="3" stroke-miterlimit="10"/>
<path d="M264.822 80.8501C286.215 88.191 291.396 101.127 306.864 115.221C315.681 123.242 325.118 129.857 334.012 139.052C341.514 146.825 335.28 156.438 331.088 157.551C325.72 159.034 321.39 156.546 315.759 150.658C305.456 141.772 294.381 134.802 283.709 126.873" stroke="#181818" stroke-width="3" stroke-miterlimit="10"/>
<path d="M279.826 118.543C283.106 130.459 292.866 137.166 301.281 145.033C306.478 149.839 314.986 156.654 314.398 161.121C313.841 168.076 304.266 177.487 297.243 172.527C287.56 165.403 278.572 156.006 269.694 145.342" stroke="#181818" stroke-width="3" stroke-miterlimit="10"/>
<path d="M295.387 171.12C298.605 180.471 284.297 190.284 276.547 183.747C270.205 177.595 263.228 169.173 256.376 164.413" stroke="#181818" stroke-width="3" stroke-miterlimit="10"/>
<path d="M247.451 158.463C257.691 156.361 259.671 166.917 250.931 182.557L250.034 189.095" stroke="#181818" stroke-width="3" stroke-miterlimit="10"/>
<path d="M232.231 177.287C231.195 179.172 230.066 184.937 231.565 188.213C236.268 195.199 243.476 196.543 254.211 187.316" stroke="#181818" stroke-width="3" stroke-miterlimit="10"/>
<path d="M250.823 183.314C254.752 188.661 260.63 191.799 268.209 192.974C271.365 192.989 277.754 190.284 277.831 184.644" stroke="#181818" stroke-width="3" stroke-miterlimit="10"/>
<path d="M299.626 108.019C299.626 108.019 310.825 107.231 324.823 100.09" stroke="#181818" stroke-width="3" stroke-miterlimit="10"/>
<path d="M238.417 110.214C244.187 107.958 251.226 100.385 244.976 90.8651C239.903 89.6755 233.902 96.2583 233.051 100.091C232.741 101.05 235.726 108.715 238.418 110.214H238.417Z" stroke="#181818" stroke-width="3" stroke-miterlimit="10"/>
<path d="M220.83 131C222.439 128.295 225.749 124.107 228.596 123.18C232.942 123.845 236.779 127.307 237.056 131.155C235.804 135.157 229.864 139.161 226.987 138.898C226.987 138.898 220.289 138.836 220.83 131Z" stroke="#181818" stroke-width="3" stroke-miterlimit="10"/>
<path d="M238.96 144.399C240.382 141.988 243.321 138.263 245.858 137.429C249.74 138.032 253.159 141.107 253.406 144.537C252.277 148.107 247.003 151.677 244.435 151.446C244.435 151.446 238.465 151.384 238.96 144.399Z" stroke="#181818" stroke-width="3" stroke-miterlimit="10"/>
<path d="M186.553 131.402C187.652 129.223 190.033 125.915 192.354 125.328C196.097 126.178 199.685 129.331 200.289 132.592C199.624 135.884 194.983 138.867 192.524 138.465C192.524 138.465 186.846 137.971 186.553 131.403V131.402Z" stroke="#181818" stroke-width="3" stroke-miterlimit="10"/>
<path d="M241.774 168.957C242.284 166.607 243.677 162.806 245.517 161.462C248.812 160.905 252.416 162.497 253.53 165.218C253.576 168.401 250.25 172.713 248.1 173.208C248.1 173.208 243.243 174.753 241.774 168.958V168.957Z" stroke="#181818" stroke-width="3" stroke-miterlimit="10"/>
</g>
<defs>
<clipPath id="clip0_223_369">
<rect width="500" height="194" fill="white"/>
</clipPath>
</defs>
</svg>
