<svg width="30" height="30" viewBox="0 0 30 30" fill="none" xmlns="http://www.w3.org/2000/svg">
<g id="&#240;&#159;&#166;&#134; icon &#34;plus&#34;">
<path id="Vector" d="M27.8571 11.7857H18.2143V2.14286C18.2143 0.959598 17.2547 0 16.0714 0H13.9286C12.7453 0 11.7857 0.959598 11.7857 2.14286V11.7857H2.14286C0.959598 11.7857 0 12.7453 0 13.9286V16.0714C0 17.2547 0.959598 18.2143 2.14286 18.2143H11.7857V27.8571C11.7857 29.0404 12.7453 30 13.9286 30H16.0714C17.2547 30 18.2143 29.0404 18.2143 27.8571V18.2143H27.8571C29.0404 18.2143 30 17.2547 30 16.0714V13.9286C30 12.7453 29.0404 11.7857 27.8571 11.7857Z" fill="url(#paint0_linear_146_1230)"/>
</g>
<defs>
<linearGradient id="paint0_linear_146_1230" x1="3.28125" y1="3.75" x2="22.9687" y2="24.8437" gradientUnits="userSpaceOnUse">
<stop stop-color="#662D91"/>
<stop offset="1" stop-color="#92278F"/>
</linearGradient>
</defs>
</svg>
