<svg width="334" height="453" viewBox="0 0 334 453" fill="none" xmlns="http://www.w3.org/2000/svg">
<g clip-path="url(#clip0_65_1873)" filter="url(#filter0_d_65_1873)">
<path d="M233.586 89.0171C233.616 92.282 234.206 96.0242 236.983 97.7437C238.798 98.8649 241.075 98.8043 243.208 98.6982C244.865 98.6224 246.514 98.5391 248.171 98.4634C248.988 98.4255 249.949 98.4482 250.44 99.1148C250.97 99.8421 250.546 100.94 249.797 101.433C249.048 101.925 248.103 101.986 247.21 102.024C244.215 102.16 241.204 102.296 238.208 102.099C235.742 101.94 233.094 101.448 231.407 99.6451C230.863 99.0694 230.454 98.38 230.068 97.6907C228.608 95.0621 227.511 92.2441 226.8 89.3277C226.77 89.2065 226.74 89.0777 226.793 88.9641C226.876 88.7671 227.118 88.7216 227.33 88.6989C229.41 88.5095 231.521 88.6535 233.556 89.1231L233.609 89.0171H233.586Z" fill="black"/>
<path d="M55.9941 405.441C53.8533 412.214 52.5143 419.243 51.9999 426.326C51.9394 427.167 51.9016 428.061 52.3101 428.803C53.0363 430.121 54.7838 430.371 56.2816 430.477C67.1901 431.22 78.1061 431.955 89.0146 432.697C92.9029 432.962 96.8896 433.212 100.733 432.712C103.259 432.386 103.736 428.94 101.391 427.955C96.7912 426.023 91.3824 425.387 86.9872 422.864C85.6558 422.099 84.3849 421.114 83.7041 419.743C82.9703 418.266 83.0233 416.531 83.0989 414.88C83.4847 407.055 84.2563 399.245 85.4213 391.503L55.9941 405.441Z" fill="#662D91"/>
<path d="M53.6037 419.91C57.144 420.811 59.9732 424.016 60.3515 427.675C60.4196 428.349 61.4786 428.356 61.4106 427.675C60.9794 423.546 57.9156 419.918 53.8836 418.887C53.2254 418.721 52.938 419.743 53.6037 419.91Z" fill="white"/>
<path d="M53.1346 426.152C59.2546 428.091 65.5788 429.281 71.9559 429.993C78.3406 430.705 84.7707 430.924 91.2008 430.977C94.8244 431.008 98.4479 430.977 102.071 430.947C102.752 430.947 102.752 429.879 102.071 429.887C95.6943 429.94 89.3096 429.993 82.9325 429.735C76.5478 429.478 70.163 428.925 63.8767 427.743C60.3439 427.084 56.849 426.22 53.4221 425.137C52.7715 424.932 52.4916 425.955 53.1422 426.16L53.1346 426.152Z" fill="white"/>
<path d="M93.5838 425.978C92.0179 426.44 90.52 427.228 89.355 428.387C88.8709 428.871 89.6198 429.614 90.104 429.137C91.1403 428.106 92.4717 427.409 93.8637 427C94.5142 426.811 94.2419 425.788 93.5838 425.978Z" fill="white"/>
<path d="M80.6403 425.273C82.8644 423.789 85.0809 422.311 87.3049 420.827C87.8723 420.448 87.3428 419.531 86.7678 419.91C84.5438 421.395 82.3273 422.872 80.1032 424.357C79.5359 424.735 80.0654 425.652 80.6403 425.273Z" fill="white"/>
<path d="M78.4617 422.554C80.5572 421.304 82.7585 420.236 85.0355 419.365C85.3003 419.266 85.4894 419.009 85.4062 418.713C85.3381 418.456 85.0204 418.243 84.7556 418.342C82.3878 419.243 80.1033 420.342 77.9322 421.637C77.3497 421.986 77.8792 422.902 78.4693 422.554H78.4617Z" fill="white"/>
<path d="M77.4934 420.289C79.377 418.653 81.5481 417.357 83.8857 416.486C84.5211 416.251 84.2412 415.229 83.6058 415.463C81.0867 416.403 78.7718 417.774 76.752 419.539C76.2376 419.986 76.9865 420.736 77.5009 420.289H77.4934Z" fill="white"/>
<path d="M69.8832 414.736C69.8832 416.766 68.2416 418.41 66.2142 418.41C64.1869 418.41 62.5453 416.766 62.5453 414.736C62.5453 412.706 64.1869 411.062 66.2142 411.062C68.2416 411.062 69.8832 412.706 69.8832 414.736Z" fill="white"/>
<path d="M126.536 384.344C124.395 391.117 123.056 398.146 122.542 405.229C122.481 406.07 122.444 406.964 122.852 407.706C123.578 409.024 125.326 409.274 126.824 409.38C137.732 410.123 148.648 410.858 159.557 411.6C163.445 411.865 167.432 412.115 171.275 411.615C173.801 411.289 174.278 407.843 171.933 406.858C167.333 404.926 161.924 404.29 157.529 401.767C156.198 401.002 154.927 400.017 154.246 398.646C153.512 397.169 153.565 395.434 153.641 393.783C154.027 385.958 154.798 378.148 155.963 370.406L126.536 384.344Z" fill="#662D91"/>
<path d="M124.146 398.813C127.686 399.714 130.515 402.919 130.893 406.578C130.962 407.252 132.021 407.259 131.953 406.578C131.521 402.449 128.458 398.821 124.426 397.79C123.767 397.624 123.48 398.646 124.146 398.813Z" fill="white"/>
<path d="M123.677 405.055C129.797 406.994 136.121 408.184 142.498 408.896C148.883 409.608 155.313 409.827 161.743 409.88C165.366 409.911 168.99 409.88 172.613 409.85C173.294 409.85 173.294 408.782 172.613 408.79C166.236 408.843 159.852 408.896 153.474 408.638C147.09 408.38 140.705 407.828 134.419 406.646C130.886 405.987 127.391 405.123 123.964 404.04C123.313 403.835 123.034 404.858 123.684 405.063L123.677 405.055Z" fill="white"/>
<path d="M164.126 404.881C162.56 405.343 161.062 406.131 159.897 407.29C159.413 407.775 160.162 408.517 160.646 408.04C161.682 407.009 163.014 406.312 164.406 405.903C165.056 405.714 164.784 404.691 164.126 404.881Z" fill="white"/>
<path d="M151.19 404.176C153.414 402.692 155.63 401.214 157.854 399.73C158.422 399.351 157.892 398.434 157.317 398.813C155.093 400.298 152.877 401.775 150.653 403.26C150.085 403.638 150.615 404.555 151.19 404.176Z" fill="white"/>
<path d="M149.004 401.457C151.099 400.207 153.301 399.139 155.578 398.268C155.842 398.169 156.031 397.912 155.948 397.616C155.88 397.359 155.562 397.146 155.298 397.245C152.93 398.146 150.645 399.245 148.474 400.54C147.892 400.889 148.421 401.805 149.011 401.457H149.004Z" fill="white"/>
<path d="M148.035 399.192C149.919 397.556 152.09 396.26 154.428 395.389C155.063 395.154 154.783 394.132 154.148 394.366C151.629 395.306 149.314 396.677 147.294 398.442C146.78 398.889 147.529 399.639 148.043 399.192H148.035Z" fill="white"/>
<path d="M140.433 393.639C140.433 395.669 138.791 397.313 136.764 397.313C134.736 397.313 133.095 395.669 133.095 393.639C133.095 391.609 134.736 389.965 136.764 389.965C138.791 389.965 140.433 391.609 140.433 393.639Z" fill="white"/>
<path d="M56.7204 183.366C47.4232 195.941 49.3901 213.334 52.3857 228.696C57.4542 254.672 64.3155 280.458 75.4736 304.449C76.3965 306.426 77.3572 308.456 77.4329 310.638C77.5236 313.38 76.1847 315.948 74.8987 318.372C66.7665 333.628 58.8688 349.233 54.8746 366.058C51.8259 378.898 46.7424 406.79 47.3097 407.57C47.9906 408.502 79.1274 408.767 88.1825 409.843C96.3449 388.571 98.3874 370.459 108.35 349.968C111.482 343.522 114.743 337.007 116.036 329.947C116.914 325.144 116.853 320.22 116.709 315.334C116.021 292.101 113.525 268.921 109.266 246.066C118.85 260.293 128.442 274.511 138.027 288.738C139.548 290.995 141.114 293.366 141.424 296.07C141.673 298.199 141.114 300.335 140.561 302.403C133.692 328.144 118.971 383.481 119.675 385.269C120.174 386.534 149.73 392.586 159.035 390.511C168.634 365.823 168.339 345.347 177.947 320.66C180.186 314.895 182.44 309.085 183.446 302.979C186.147 286.579 179.581 270.087 171.501 255.566C166.199 246.036 160.192 236.893 153.543 228.257C144.616 216.659 134.267 205.456 130.334 191.358C112.473 187.093 94.6126 182.829 76.752 178.556C75.5568 178.268 73.6126 178.98 74.3389 179.973L56.7355 183.359L56.7204 183.366Z" fill="#01A299"/>
<path d="M144.23 76.2983C129.706 73.6621 114.644 80.6616 104.56 91.4487C97.7747 98.7058 92.8878 107.493 88.069 116.189C75.7988 138.332 63.4758 160.603 55.0788 184.488C60.9188 183.73 66.5925 186.76 71.2221 190.404C75.8518 194.047 79.9746 198.433 85.1792 201.183C90.6183 204.054 97.0863 204.933 103.093 203.615C109.326 202.251 115.091 198.623 121.468 198.547C125.129 198.502 129.396 199.449 131.99 196.858C132.815 196.032 133.329 194.949 133.821 193.888C138.012 184.919 142.195 175.958 146.386 166.989C147.71 164.163 149.049 161.3 151.001 158.868C153.24 156.088 156.183 153.975 158.868 151.626C165.306 145.983 170.359 138.764 173.453 130.779C178.915 132.9 183.756 136.597 187.244 141.316C194.151 133.082 201.019 124.81 207.858 116.515C197.419 108.319 191.109 95.7363 180.662 87.5551C172.265 80.9798 144.23 76.3134 144.23 76.3134V76.2983Z" fill="#0B4E4A"/>
<path d="M205.604 73.7379C205.808 71.0184 207.518 68.458 209.953 67.2308C210.891 66.7611 211.913 66.4732 212.942 66.2763C216.036 65.6854 219.273 65.8445 222.299 66.7384C223.131 66.9884 223.979 67.3065 224.606 67.9125C225.234 68.5185 225.59 69.4806 225.265 70.2911C224.977 71.0184 224.243 71.4502 223.729 72.0486C222.617 73.3364 222.647 75.2226 222.768 76.9119C223.124 81.8206 223.752 86.7066 224.659 91.5472C224.75 92.0169 224.841 92.5168 224.682 92.9713C224.402 93.8046 223.457 94.1682 222.617 94.4182C219.901 95.2212 217.148 95.8954 214.371 96.4408C213.07 96.6908 211.716 96.918 210.445 96.5468C208.66 96.0242 207.366 94.3879 206.761 92.6229C206.156 90.8579 206.133 88.9565 206.118 87.093C206.073 82.3963 206.02 77.6921 205.974 72.9955L205.604 73.7455V73.7379Z" fill="black"/>
<path d="M222.14 72.2001C243.541 70.0412 268.861 68.6549 290.254 66.496C289.974 64.587 290.239 63.6022 292.145 63.3674C298.076 62.6477 305.868 62.4962 311.821 62.9356V93.8046L292.743 95.2136C291.396 95.3121 290.254 94.244 290.254 92.8956L271.41 92.2138L221.686 90.1685L217.148 77.8891L222.14 72.2077V72.2001Z" fill="#606060"/>
<path d="M306.238 63.2462C306.609 70.9956 306.889 78.7451 307.078 86.4945C307.131 88.6686 307.177 90.8427 307.214 93.0168C307.229 93.6985 308.289 93.6985 308.273 93.0168C308.137 85.2598 307.91 77.5103 307.593 69.7609C307.502 67.5868 307.403 65.4203 307.305 63.2462C307.275 62.5644 306.216 62.5644 306.246 63.2462H306.238Z" fill="#6DA8C6"/>
<path d="M288.249 67.8519C288.212 67.7837 288.189 67.6474 288.189 67.6549C288.189 67.708 288.196 67.7686 288.204 67.8216C288.219 67.9958 288.227 68.17 288.234 68.3443C288.264 68.9654 288.295 69.5942 288.325 70.2154C288.408 72.2152 288.491 74.2151 288.567 76.2149C288.733 80.654 288.892 85.0931 289.051 89.5322C289.089 90.5775 289.104 91.6229 289.165 92.6683C289.203 93.3501 290.262 93.3501 290.224 92.6683C290.057 89.8124 290.02 86.9414 289.914 84.0856C289.755 79.6011 289.596 75.1165 289.399 70.632C289.369 69.8896 289.339 69.1548 289.301 68.42C289.286 68.1019 289.331 67.6095 289.172 67.3216C288.832 66.7308 287.916 67.261 288.257 67.8595L288.249 67.8519Z" fill="#6DA8C6"/>
<path d="M266.743 68.6321V70.9804C266.75 71.1774 266.765 71.3971 266.924 71.5107C267.045 71.594 267.212 71.5789 267.363 71.5562C268.551 71.3895 269.746 71.2153 270.933 71.0486C270.805 70.0411 270.676 69.0412 270.555 68.0337C269.247 68.3215 267.908 68.5109 266.569 68.5943L266.743 68.6246V68.6321Z" fill="black"/>
<path d="M270.601 72.2985C270.366 75.6619 270.525 79.0405 271.047 82.3736C271.153 83.0478 272.174 82.7599 272.068 82.0933C271.561 78.8587 271.433 75.571 271.66 72.2985C271.705 71.6168 270.646 71.6243 270.601 72.2985Z" fill="black"/>
<path d="M267.083 73.5106C267.022 75.6544 267.151 77.7982 267.454 79.9192C267.491 80.1995 267.855 80.3586 268.104 80.2904C268.407 80.2071 268.513 79.9192 268.475 79.6389C268.187 77.6088 268.081 75.5559 268.142 73.5106C268.165 72.8288 267.106 72.8288 267.083 73.5106Z" fill="black"/>
<path d="M282.455 70.8896C281.698 77.2603 281.94 83.722 283.136 90.017C283.264 90.6836 284.285 90.4033 284.157 89.7367C282.977 83.5326 282.772 77.1619 283.514 70.8896C283.597 70.2154 282.538 70.223 282.455 70.8896Z" fill="#6DA8C6"/>
<path d="M245.803 70.0184C245.697 70.8517 245.652 71.7001 245.682 72.541C245.682 72.7455 245.705 72.9652 245.811 73.147C246.03 73.5182 246.545 73.5712 246.976 73.5788C247.664 73.5939 248.489 73.5333 248.829 72.9349C248.98 72.6622 248.995 72.344 249.003 72.0335C249.026 71.2456 249.048 70.4578 249.064 69.67C247.876 69.7609 246.696 69.8594 245.508 69.9503L245.796 70.0184H245.803Z" fill="black"/>
<path d="M232.837 71.594C232.837 72.5485 232.822 73.5106 232.814 74.465C232.814 74.859 232.837 75.3059 233.147 75.5407C233.495 75.8059 234.04 75.6165 234.297 75.2604C234.554 74.9044 234.6 74.4347 234.622 73.9954C234.66 73.2151 234.653 72.4273 234.592 71.6471C234.063 71.5713 233.533 71.4956 233.003 71.4122L232.837 71.594Z" fill="black"/>
<path d="M75.64 149.02C92.7441 142.937 109.061 134.65 124.078 124.439C124.66 124.045 125.296 123.628 125.991 123.666C126.642 123.704 127.202 124.128 127.709 124.53C130.508 126.749 133.314 128.961 136.113 131.181L78.6357 154.732L75.6324 149.02H75.64Z" fill="#92278F"/>
<path d="M39.4121 170.625C33.3829 169.473 27.3462 168.322 21.317 167.171C16.9521 166.337 11.861 164.906 10.3934 160.709C9.61421 158.489 10.1135 156.043 10.7262 153.77C12.8898 145.755 16.3847 138.18 19.8721 130.643C24.6682 120.265 29.5551 109.743 36.9232 101.001C39.7449 97.6528 42.907 94.6 46.054 91.5548C54.1862 83.6993 62.3183 75.8362 70.4505 67.9807C72.7578 65.7536 75.1105 63.4886 77.9927 62.0872C80.8748 60.6858 84.4228 60.2616 87.2444 61.7766C89.2567 62.8599 90.7696 64.837 92.9483 65.5415C98.2966 67.2686 103.153 60.4964 108.744 61.0191C112.057 61.3221 114.538 64.0946 116.513 66.7687C117.012 67.4429 117.519 68.1474 118.253 68.564C120.151 69.6397 122.648 68.3595 124.675 69.17C126.967 70.0866 127.459 73.3364 126.339 75.5332C125.22 77.73 123.034 79.139 120.999 80.548C106.83 90.3655 96.2314 104.501 87.1385 119.151C78.0456 133.802 70.3597 151.164 60.238 165.118C58.3846 167.671 56.1984 168.314 53.5053 169.951C50.8122 171.587 47.2341 172.132 44.5183 170.526L39.4196 170.625H39.4121Z" fill="#662D91"/>
<path opacity="0.3" d="M89.4533 63.2916C90.2401 64.3976 91.458 65.193 92.7818 65.4733C85.0733 77.9572 77.8716 90.7518 71.1994 103.811C69.9815 102.918 68.7635 102.016 67.5456 101.122C74.2783 88.5095 81.3211 76.0634 88.6741 63.7992L89.4458 63.2916H89.4533Z" fill="black"/>
<path d="M150.214 50.785C148.693 51.1183 148.345 60.0343 148.414 61.5948C148.489 63.1477 148.86 64.8294 148.081 66.1778C147.355 67.4353 145.751 68.011 144.321 67.7762C142.891 67.5414 141.643 66.6248 140.735 65.496C141.174 69.4352 145.017 72.4198 148.966 72.7077C152.907 72.9955 156.758 71.026 159.594 68.2686L150.214 50.7774V50.785Z" fill="black"/>
<path d="M193.341 45.452C193.001 51.7546 192.517 66.7611 192.517 66.7611L199.264 72.2758L192.274 75.0483C192.274 75.0483 190.746 82.8205 190.353 85.2219C189.967 87.6232 188.81 90.123 186.608 91.1457C182.417 93.0925 169.693 85.6082 169.731 85.4567C168.642 86.9566 167.522 88.4337 166.365 89.8806C163.127 93.9258 157.075 94.1833 153.512 90.426C149.836 86.5551 146.333 82.8054 143.519 77.6921C147.491 73.7681 151.054 69.4275 154.133 64.7612C150.91 63.4128 148.588 59.4889 149.889 56.2467C152.431 49.9138 158.361 53.9362 158.361 53.9362L160.911 38.8918L193.334 45.452H193.341Z" fill="#FED5B7"/>
<path d="M158.399 53.815C154.836 52.3379 150.259 54.1862 148.709 57.7238C147.498 52.7924 147.604 47.6488 147.71 42.5658C147.755 40.369 147.824 38.0889 148.807 36.1269C149.79 34.1649 151.984 32.6196 154.117 33.1195C153.709 31.6348 154.662 30.044 155.963 29.2259C157.264 28.4077 158.845 28.1805 160.374 27.976C164.133 27.4684 167.885 26.9685 171.645 26.4609C176.298 25.8397 180.95 25.211 185.625 24.8171C187.062 24.6959 188.553 24.605 189.907 25.0974C191.261 25.5898 192.448 26.8321 192.418 28.2714C192.388 29.7107 190.709 30.9985 189.445 30.3091C193.114 30.4682 184.853 40.263 192.653 35.5209C194.446 34.43 205.407 31.8848 204.915 33.9301C204.734 34.6952 204.076 35.2406 203.425 35.6875C201.33 37.1344 198.909 38.1116 196.397 38.5207C198.947 38.5282 201.496 38.8161 203.985 39.3767C205.21 39.6494 206.534 40.0736 207.207 41.1341C208.478 43.134 206.572 45.6792 204.552 46.9291C198.697 50.5577 191.193 50.3683 184.528 48.626C177.863 46.8837 171.645 43.74 165.064 41.725C163.99 49.3532 162.908 56.9815 161.834 64.6021C160.396 64.3673 158.967 64.1325 157.529 63.8976C157.839 58.3374 158.399 53.8074 158.399 53.8074V53.815Z" fill="black"/>
<path d="M147.566 94.2667L168.778 123.802C178.96 117.447 196.942 96.8423 196.98 92.4335C196.995 90.6003 197.161 81.8736 197.562 80.0783C198.251 77.0104 200.808 74.7757 203.228 72.7682C205.747 70.6775 208.569 68.4655 211.92 68.7761C212.503 68.8291 213.063 69.117 213.373 69.6169C213.925 70.4957 213.373 71.2986 212.866 71.9804C211.05 74.4045 209.235 76.821 207.419 79.245C210.347 76.7983 213.569 74.7075 216.996 73.0334C219.447 71.8289 221.853 74.7757 220.196 76.9422C219.727 77.5558 219.167 78.1088 218.54 78.5708C219.636 76.5483 222.859 76.1847 224.38 77.9042C225.9 79.6238 225.151 82.7827 223.01 83.6311C224.992 83.169 226.339 86.5627 224.576 87.5929C226.853 87.4869 227.814 90.873 226.543 92.7668C225.272 94.6682 222.92 95.4333 220.832 96.3575C209.923 101.19 203.675 112.553 198.114 123.121C193.576 131.756 188.946 140.43 182.773 147.983C180.504 150.755 177.788 153.512 174.263 154.187C169.625 155.073 165.207 152.126 161.433 149.285C145.842 137.559 130.477 124.772 120.409 108.054C120.068 107.485 119.72 106.849 119.819 106.19C119.909 105.63 120.303 105.183 120.696 104.774C125.598 99.6148 131.809 95.7211 138.572 93.5471L147.566 94.2743V94.2667Z" fill="#FED5B7"/>
<path d="M141.431 84.7371C149.223 93.0547 156.516 101.842 163.271 111.023C156.009 122.227 148.746 133.438 141.484 144.642C134.88 134.544 124.176 127.795 116.989 118.113C115.416 115.992 113.994 113.682 113.426 111.099C112.67 107.675 113.494 104.069 114.856 100.834C118.041 93.2516 124.252 86.9945 131.809 83.775L141.431 84.7371Z" fill="#01A299"/>
<path d="M111.611 80.1844C120.537 81.3434 130.788 82.2145 139.048 85.7976C147.309 89.3807 154.806 95.7363 157.658 104.289C156.833 97.9482 154.617 91.7896 151.22 86.3733C149.336 83.3735 147.044 80.548 144.064 78.6239C141.212 76.7831 137.868 75.8589 134.555 75.1393C130.591 74.2757 119.13 68.6549 117.322 72.291C117.05 72.8364 113.184 79.5783 111.611 80.1844Z" fill="#92278F"/>
<path d="M76.3132 150.369C76.3889 147.975 74.3388 145.945 72.0769 145.157C69.8151 144.369 67.3565 144.513 64.966 144.49C57.265 144.43 49.5943 142.581 42.7103 139.12C41.2351 138.377 39.4574 137.559 38.0201 138.385C37.1274 138.9 36.666 139.907 36.2651 140.854C33.9956 146.278 31.9909 151.808 30.2586 157.429C29.8879 158.641 29.5248 159.921 29.7896 161.156C30.077 162.489 31.0453 163.557 32.0061 164.527C37.0518 169.633 42.8465 173.988 49.1555 177.405C50.6685 178.223 52.3176 179.011 54.0273 178.829C56.3345 178.579 58.0669 176.67 59.5572 174.89C64.7769 168.663 70.4656 164.353 75.6854 158.126C77.864 157.156 78.7189 154.505 77.516 152.437L76.2981 150.354L76.3132 150.369Z" fill="#92278F"/>
<path opacity="0.3" d="M117.814 69.4352C115.537 74.0788 112.518 78.2906 109.129 82.1843C105.748 86.0703 102.049 89.6534 98.3874 93.2744C94.4688 97.1605 90.6637 101.145 87.1007 105.364C83.3561 109.796 79.8233 114.409 76.4267 119.113C73.0225 123.833 69.747 128.651 66.5092 133.491C66.1007 134.105 65.6922 134.718 65.2837 135.332C64.9055 135.9 65.8208 136.43 66.1991 135.87C69.4217 131.022 72.6745 126.196 76.0485 121.454C79.4224 116.712 82.9249 112.053 86.6392 107.569C90.2022 103.266 93.9846 99.1755 97.9335 95.2288C101.587 91.5851 105.317 88.0172 108.774 84.1841C112.208 80.3738 115.355 76.2832 117.799 71.7608C118.116 71.1699 118.419 70.579 118.714 69.973C119.017 69.3594 118.101 68.8216 117.799 69.4352H117.814Z" fill="black"/>
<path opacity="0.3" d="M48.5654 91.0472C50.1919 92.0471 49.7758 94.3576 49.3219 95.8878C48.9966 96.9786 48.5125 98.024 48.0737 99.0769C47.5518 100.327 47.0222 101.577 46.4851 102.827C44.367 107.781 42.1883 112.697 39.9415 117.591C35.4253 127.423 30.6368 137.135 25.5835 146.71C22.7316 152.119 19.7964 157.482 16.7856 162.792C16.4452 163.383 17.3605 163.921 17.701 163.33C23.1779 153.672 28.3901 143.862 33.3148 133.915C38.247 123.969 42.8994 113.879 47.2643 103.668C47.8543 102.281 48.4444 100.903 49.0269 99.5163C49.5337 98.3043 50.1011 97.0998 50.4415 95.8272C50.9711 93.85 51.0694 91.3502 49.1025 90.1382C48.5201 89.7821 47.9905 90.6987 48.5654 91.0548V91.0472Z" fill="black"/>
<path d="M112.118 56.5876C112.329 55.8301 112.14 54.9892 111.565 54.4514C110.733 53.6787 109.81 54.0953 109.031 54.5347C106.421 56.0346 104.099 58.0496 102.245 60.4206C100.263 62.9583 98.0545 66.2839 94.8622 65.8672C97.8049 60.6025 101.595 55.8225 106.043 51.7546C109.069 48.9896 113.124 46.4217 117.02 47.6791C120.757 48.8912 122.655 53.3757 122.073 57.2694C121.483 61.1554 118.994 64.481 116.286 67.3217C113.214 70.5411 109.75 73.3894 105.998 75.7832C105.415 76.1544 104.538 76.4422 103.531 76.6695C100.385 77.374 98.1302 73.6621 100.18 71.1623L112.118 56.58V56.5876Z" fill="#92278F"/>
<path opacity="0.3" d="M37.5435 139.362C38.4437 143.437 39.5936 147.452 40.9779 151.384C41.6588 153.323 42.4001 155.247 43.1944 157.141C43.845 158.694 44.5485 160.27 45.6908 161.535C46.9542 162.921 48.6638 163.55 50.4869 163.792C52.3781 164.042 54.3147 164.012 56.2059 163.792C59.9808 163.36 63.5968 162.178 67.0615 160.633C71.0859 158.845 74.8759 156.58 78.6281 154.293C79.2106 153.937 78.681 153.02 78.091 153.376C71.7516 157.232 65.1324 161.209 57.7189 162.504C55.9336 162.815 54.118 162.944 52.3101 162.875C50.5399 162.807 48.6109 162.603 47.166 161.466C45.8951 160.466 45.131 158.959 44.488 157.512C43.6937 155.717 42.9902 153.884 42.3245 152.043C40.7888 147.808 39.5331 143.475 38.5572 139.074C38.4059 138.407 37.3922 138.688 37.5359 139.354L37.5435 139.362Z" fill="black"/>
<path opacity="0.3" d="M26.9376 119.272C28.5338 121.106 30.7049 122.409 33.0651 122.977C33.7308 123.136 34.0107 122.113 33.345 121.954C31.1437 121.424 29.1768 120.227 27.6865 118.523C27.2402 118.007 26.4913 118.757 26.9376 119.272Z" fill="black"/>
<path opacity="0.3" d="M65.4124 105.955C60.9037 114.515 56.6901 123.227 52.7791 132.082C51.6822 134.574 50.608 137.074 49.5565 139.582C49.443 139.847 49.6775 140.165 49.9272 140.233C50.2298 140.324 50.4718 140.127 50.5777 139.862C54.2845 131.006 58.3014 122.28 62.6134 113.697C63.8238 111.281 65.0644 108.879 66.3277 106.486C66.6454 105.88 65.7301 105.349 65.4124 105.948V105.955Z" fill="black"/>
<path opacity="0.3" d="M67.7272 109.341C63.5136 117.038 59.7463 124.969 56.4556 133.105C55.5251 135.408 54.6325 137.718 53.7777 140.051C53.5431 140.695 54.5644 140.968 54.7989 140.332C57.8021 132.158 61.282 124.158 65.2157 116.394C66.3277 114.205 67.47 112.038 68.6501 109.887C68.9754 109.288 68.0676 108.75 67.7348 109.349L67.7272 109.341Z" fill="black"/>
<path opacity="0.3" d="M55.6008 87.593C57.6584 90.4791 60.3288 92.888 63.4304 94.6152C64.028 94.9485 64.5575 94.0319 63.9675 93.6986C61.0323 92.0699 58.4679 89.7973 56.5161 87.0627C56.1228 86.5097 55.2074 87.04 55.6008 87.6005V87.593Z" fill="black"/>
<path opacity="0.55" d="M169.731 85.4643L152.529 75.6923L166.365 89.8882L169.731 85.4643Z" fill="#995834"/>
<path d="M152.287 57.3148C153.505 58.239 154.284 59.7389 154.375 61.2388C154.39 61.5266 154.602 61.769 154.904 61.769C155.177 61.769 155.449 61.5266 155.434 61.2388C155.313 59.3147 154.352 57.5648 152.816 56.3982C152.589 56.224 152.226 56.3603 152.09 56.5876C151.931 56.8603 152.052 57.1406 152.279 57.3148H152.287Z" fill="#995834"/>
<path d="M152.12 60.9585C152.446 60.8297 152.771 60.6858 153.066 60.4964C153.308 60.3449 153.558 60.2085 153.822 60.0949C153.747 60.1252 153.792 60.11 153.845 60.0873C153.981 60.0343 154.087 59.9737 154.163 59.8449C154.231 59.7313 154.254 59.5646 154.216 59.4359C154.178 59.3071 154.095 59.1859 153.974 59.1177C153.853 59.0571 153.694 59.0116 153.565 59.0647C153.24 59.1934 152.915 59.3374 152.62 59.5268C152.378 59.6783 152.128 59.8146 151.863 59.9282C151.939 59.8979 151.893 59.9131 151.84 59.9358C151.704 59.9888 151.598 60.0494 151.523 60.1782C151.455 60.2919 151.432 60.4585 151.47 60.5873C151.508 60.7161 151.591 60.8373 151.712 60.9054C151.833 60.966 151.992 61.0115 152.12 60.9585Z" fill="#995834"/>
<path opacity="0.3" d="M76.1695 149.452C77.4706 151.066 78.5297 152.884 79.2938 154.815C79.3997 155.081 79.6493 155.27 79.9443 155.187C80.194 155.118 80.4209 154.8 80.315 154.535C79.4829 152.422 78.3406 150.475 76.9184 148.702C76.7368 148.483 76.3586 148.513 76.1695 148.702C75.9501 148.922 75.9879 149.225 76.1695 149.452Z" fill="black"/>
<path d="M92.1767 141.324C90.5957 142.278 89.7938 144.225 90.399 146.005C90.5805 146.536 90.868 147.036 91.1176 147.536C91.4202 148.134 91.7077 148.77 92.1767 149.263C93.0315 150.164 94.1133 149.975 95.1724 149.604C96.3828 149.179 97.6007 148.748 98.8111 148.316C100.021 147.884 101.239 147.46 102.45 147.028C103.615 146.619 104.87 146.293 105.983 145.748C106.966 145.263 107.261 144.346 107.185 143.309C107.102 142.112 106.89 140.907 106.603 139.741C106.376 138.801 106.111 137.9 105.43 137.18C104.855 136.567 104.061 136.142 103.229 136.006C102.132 135.824 101.156 136.135 100.218 136.68C99.3709 137.173 98.5236 137.658 97.6763 138.15C95.8381 139.21 93.9998 140.279 92.1616 141.339C91.5715 141.68 92.1011 142.597 92.6987 142.256C95.4901 140.642 98.2588 138.991 101.065 137.415C102.17 136.794 103.577 136.9 104.523 137.779C105.15 138.37 105.355 139.135 105.551 139.945C105.816 141.029 106.02 142.134 106.111 143.248C106.141 143.65 106.194 144.142 105.937 144.49C105.672 144.846 105.12 144.975 104.727 145.119C103.653 145.498 102.578 145.877 101.497 146.255C99.2877 147.036 97.0863 147.816 94.8774 148.589C94.3705 148.763 93.7502 149.058 93.2282 148.786C92.8122 148.558 92.5625 148.081 92.3507 147.68C92.1086 147.225 91.8817 146.755 91.6472 146.293C90.9134 144.839 91.2387 143.134 92.6911 142.263C93.2736 141.915 92.7441 140.998 92.154 141.347L92.1767 141.324Z" fill="white"/>
<path d="M95.6338 140.938C97.0106 143.044 98.3874 145.149 99.7642 147.255C100.135 147.823 101.05 147.293 100.68 146.717C99.3027 144.612 97.9259 142.506 96.5492 140.4C96.1785 139.832 95.2631 140.362 95.6338 140.938Z" fill="white"/>
<path d="M169.27 122.977C165.109 127.31 162.166 132.772 160.858 138.642C160.706 139.309 161.728 139.589 161.879 138.923C163.15 133.226 165.972 127.939 170.019 123.727C170.488 123.234 169.746 122.484 169.27 122.977Z" fill="#995834"/>
<path d="M219.689 76.7149C218.123 78.0179 216.558 79.3284 214.992 80.6313C214.772 80.8131 214.802 81.1919 214.992 81.3813C215.211 81.6009 215.521 81.5631 215.741 81.3813C217.306 80.0783 218.872 78.7678 220.438 77.4649C220.658 77.2831 220.627 76.9043 220.438 76.7149C220.219 76.4952 219.909 76.5331 219.689 76.7149Z" fill="#995834"/>
<path d="M223.313 82.5706C221.929 83.6917 220.544 84.8053 219.167 85.9264C218.948 86.1082 218.978 86.487 219.167 86.6763C219.387 86.896 219.689 86.8581 219.916 86.6763C221.301 85.5552 222.685 84.4416 224.062 83.3205C224.281 83.1387 224.251 82.7599 224.062 82.5706C223.842 82.3509 223.54 82.3888 223.313 82.5706Z" fill="#995834"/>
<path d="M224.743 87.9338C223.502 88.5626 222.36 89.3807 221.361 90.3503C221.164 90.5397 221.149 90.9109 221.361 91.1003C221.573 91.2972 221.898 91.3048 222.11 91.1003C222.587 90.6382 223.071 90.2291 223.57 89.8731C224.107 89.4867 224.682 89.1459 225.272 88.8504C225.522 88.7216 225.613 88.358 225.461 88.1232C225.295 87.8732 225 87.7975 224.735 87.9338H224.743Z" fill="#995834"/>
<path d="M213.365 79.3587C216.89 83.222 219.72 87.7141 221.671 92.5623C221.921 93.1834 222.95 92.9107 222.693 92.282C220.665 87.2521 217.768 82.616 214.114 78.6087C213.653 78.1012 212.904 78.8587 213.365 79.3587Z" fill="#995834"/>
<path d="M197.842 93.7819C199.31 95.2591 200.906 96.6074 202.593 97.8346C202.827 98.0013 203.183 97.8725 203.319 97.6453C203.478 97.3801 203.364 97.0847 203.13 96.918C201.519 95.7514 200.006 94.4485 198.599 93.0319C198.114 92.5471 197.366 93.2971 197.85 93.7819H197.842Z" fill="#995834"/>
<path d="M206.489 118.568L189.907 137.892C198.288 144.415 218.093 162.269 224.047 164.246C226.8 165.163 229.993 165.595 232.481 164.103C234.229 163.065 235.348 161.247 236.37 159.489C243.609 146.975 249.185 133.491 252.891 119.507C253.648 116.667 254.351 113.743 256.023 111.326C257.173 109.667 258.724 108.334 260.229 106.993C265.086 102.66 269.927 97.4861 270.661 91.0169C271.365 84.8507 267.612 78.5026 262.015 75.9346C261.213 75.5635 260.328 76.268 260.494 77.1391C260.918 79.4192 261.841 81.6085 263.179 83.5023C261.288 80.101 259.087 76.8664 256.621 73.859C256.205 73.3515 255.577 73.0182 254.919 73.0258C252.899 73.0333 252.634 75.8513 253.459 77.5254C256.886 84.4719 257.286 84.7976 258.701 86.9793C258.678 87.2141 251.991 73.6697 249.699 75.1392C249.525 75.2529 249.419 75.4574 249.396 75.6695C248.98 79.9192 252.77 87.6232 253.247 88.5625C253.247 88.5777 250.841 82.5402 248.95 79.9192C248.299 79.0178 246.877 79.5556 246.983 80.6616C247.339 84.4265 247.694 88.1838 248.05 91.9486C248.171 93.244 248.262 94.6757 247.49 95.7211C246.824 96.6226 245.682 97.0089 244.812 97.721C243.284 98.9633 243.239 106.054 242.573 107.91C240.856 112.705 227.254 131.923 222.821 137.695C220.173 135.302 206.489 119.394 206.489 118.583V118.568Z" fill="#FED5B7"/>
<path d="M222.867 137.976C222.844 140.975 223.389 143.968 224.478 146.763C224.728 147.392 225.749 147.119 225.499 146.483C224.432 143.771 223.895 140.892 223.918 137.976C223.918 137.294 222.867 137.294 222.859 137.976H222.867Z" fill="#995834"/>
<path d="M248.852 80.0934C250.327 83.5326 251.689 87.0172 252.937 90.5472C253.164 91.1835 254.185 90.9108 253.958 90.2669C252.679 86.6536 251.28 83.0856 249.767 79.5556C249.502 78.9344 248.587 79.4723 248.852 80.0934Z" fill="#995834"/>
<path d="M251.704 76.1392C253.413 80.2904 255.123 84.4416 256.833 88.5928C257.09 89.214 258.111 88.9413 257.854 88.3125C256.144 84.1613 254.435 80.0101 252.725 75.8589C252.468 75.2377 251.446 75.5104 251.704 76.1392Z" fill="#995834"/>
<path d="M259.987 78.6769C261.372 81.0858 262.574 83.5856 263.58 86.1764C263.823 86.8051 264.851 86.5324 264.602 85.8961C263.565 83.222 262.332 80.6313 260.903 78.1466C260.562 77.5558 259.647 78.086 259.987 78.6845V78.6769Z" fill="#995834"/>
<path d="M252.748 92.4183C257.302 90.3352 261.863 88.252 266.417 86.1688C267.038 85.8885 266.5 84.9719 265.88 85.2522C261.326 87.3354 256.765 89.4185 252.21 91.5017C251.59 91.782 252.127 92.6986 252.748 92.4183Z" fill="#995834"/>
<path d="M247.664 110.478C249.26 110.856 250.834 111.303 252.392 111.818C252.664 111.909 252.967 111.712 253.043 111.447C253.118 111.159 252.944 110.887 252.672 110.796C251.114 110.288 249.533 109.841 247.944 109.455C247.278 109.296 246.998 110.319 247.664 110.478Z" fill="#995834"/>
<path d="M294.748 92.3577H303.356C304.037 92.3577 304.037 91.2972 303.356 91.2972H294.748C294.067 91.2972 294.067 92.3577 294.748 92.3577Z" fill="black"/>
<path d="M292.803 89.2973H301.684C302.365 89.2973 302.365 88.2368 301.684 88.2368H292.803C292.123 88.2368 292.123 89.2973 292.803 89.2973Z" fill="black"/>
<path d="M293.076 85.1234H303.629C304.309 85.1234 304.309 84.0629 303.629 84.0629H293.076C292.395 84.0629 292.395 85.1234 293.076 85.1234Z" fill="black"/>
<path d="M292.803 79.5632H303.356C304.037 79.5632 304.037 78.5027 303.356 78.5027H292.803C292.123 78.5027 292.123 79.5632 292.803 79.5632Z" fill="black"/>
<path d="M292.803 74.5636H301.964C302.645 74.5636 302.645 73.5031 301.964 73.5031H292.803C292.123 73.5031 292.123 74.5636 292.803 74.5636Z" fill="black"/>
<path d="M293.076 68.4428H302.517C303.197 68.4428 303.197 67.3823 302.517 67.3823H293.076C292.395 67.3823 292.395 68.4428 293.076 68.4428Z" fill="black"/>
<path d="M295.852 65.1097H301.125C301.806 65.1097 301.806 64.0491 301.125 64.0491H295.852C295.171 64.0491 295.171 65.1097 295.852 65.1097Z" fill="black"/>
<path d="M311.405 62.0796V94.3273L314.008 94.4712L313.735 61.5342L311.405 62.072V62.0796Z" fill="black"/>
<path d="M186.646 64.8673C186.646 66.1854 185.701 67.2459 184.543 67.2459C183.386 67.2459 182.44 66.1778 182.44 64.8673C182.44 63.5568 183.386 62.4886 184.543 62.4886C185.701 62.4886 186.646 63.5568 186.646 64.8673Z" fill="black"/>
<path d="M188.878 56.2694C188.727 56.9739 188.575 57.6784 188.416 58.3905C188.363 58.6253 188.28 58.898 188.053 58.9813C187.902 59.0344 187.736 58.9813 187.584 58.9207C186.276 58.4208 184.982 57.8375 183.605 57.5648C182.228 57.2996 180.715 57.3905 179.543 58.1632C180.897 56.8527 182.591 55.8831 184.407 55.3907C185.89 54.9892 187.841 55.1104 188.484 56.5042L188.87 56.2694H188.878Z" fill="black"/>
<path d="M182.38 74.3212C184.044 76.5028 187.07 77.4649 189.665 76.5028C190.3 76.268 190.02 75.2453 189.385 75.4802C187.274 76.268 184.679 75.6089 183.295 73.7909C183.121 73.5636 182.841 73.4424 182.569 73.6015C182.342 73.7303 182.206 74.1015 182.38 74.3287V74.3212Z" fill="#995834"/>
<path d="M106.512 204.138C106.58 208.046 107.102 211.91 107.972 215.72C108.736 219.061 109.636 222.841 107.564 225.901C106.686 227.204 105.309 228.189 103.698 228.197C103.864 228.325 104.038 228.454 104.205 228.583C103.153 221.295 102.102 214.016 101.05 206.728C100.952 206.054 99.9307 206.342 100.029 207.009C101.081 214.296 102.132 221.576 103.184 228.863C103.214 229.09 103.486 229.257 103.69 229.249C106.89 229.227 109.235 226.235 109.742 223.273C110.083 221.288 109.81 219.273 109.402 217.326C108.986 215.303 108.479 213.311 108.161 211.273C107.791 208.91 107.601 206.524 107.556 204.13C107.541 203.448 106.489 203.448 106.497 204.13L106.512 204.138Z" fill="#0B4E4A"/>
<path d="M103.69 228.78C105.809 233.931 107.934 239.09 110.052 244.241C110.31 244.862 111.331 244.589 111.074 243.961C108.955 238.809 106.83 233.651 104.712 228.5C104.454 227.878 103.433 228.151 103.69 228.78Z" fill="#0B4E4A"/>
<path d="M95.5354 233.529C101.368 231.492 107.079 229.106 112.624 226.378C114.19 225.606 115.749 224.81 117.292 223.985C117.89 223.667 117.36 222.75 116.755 223.068C111.361 225.947 105.793 228.507 100.097 230.719C98.4933 231.34 96.882 231.939 95.2555 232.507C94.6201 232.734 94.8924 233.757 95.5354 233.529Z" fill="#0B4E4A"/>
<path d="M77.2588 200.979C73.7488 205.001 69.0132 207.849 63.8237 209.099C62.341 209.455 60.8356 209.675 59.3151 209.751C58.6342 209.789 58.6342 210.849 59.3151 210.811C64.8752 210.516 70.2462 208.44 74.6036 204.978C75.8291 204.001 76.9638 202.91 78.0002 201.729C78.4465 201.214 77.6976 200.464 77.2513 200.979H77.2588Z" fill="#0B4E4A"/>
<path d="M50.3962 398.798C59.0503 400.73 67.886 401.836 76.7444 402.078C79.2635 402.146 81.7826 402.146 84.3017 402.078C84.9825 402.063 84.9825 401.002 84.3017 401.017C75.5038 401.252 66.6908 400.654 58.0064 399.207C55.5478 398.798 53.1044 398.321 50.6761 397.775C50.0104 397.624 49.7305 398.646 50.3962 398.798Z" fill="#0B4E4A"/>
<path d="M78.439 319.084C82.8795 317.137 87.8194 316.448 92.623 317.039C93.2963 317.122 93.2887 316.061 92.623 315.978C87.6151 315.357 82.5164 316.145 77.9019 318.167C77.2816 318.44 77.8187 319.357 78.439 319.084Z" fill="#0B4E4A"/>
<path d="M79.5964 321.963C83.5528 319.682 88.069 318.516 92.6306 318.592C93.3114 318.599 93.3114 317.546 92.6306 317.531C87.8875 317.455 83.1746 318.675 79.0593 321.046C78.4693 321.387 78.9988 322.303 79.5964 321.963Z" fill="#0B4E4A"/>
<path d="M109.334 228.863C118.389 235.575 126.914 243.006 134.797 251.059C138.693 255.043 142.43 259.172 146.008 263.452C149.533 267.671 153.081 272.012 155.487 276.988C158.097 282.397 158.535 288.215 158.346 294.139C158.18 299.373 157.764 304.593 157.181 309.797C155.956 320.743 153.966 331.598 151.417 342.31C148.92 352.794 145.887 363.157 142.218 373.285C141.779 374.489 141.333 375.694 140.879 376.898C140.637 377.534 141.658 377.815 141.9 377.178C145.766 367.012 148.958 356.589 151.598 346.037C154.291 335.265 156.417 324.341 157.817 313.327C158.49 308.032 158.997 302.714 159.269 297.381C159.564 291.578 159.746 285.586 157.862 280.011C156.122 274.867 152.937 270.383 149.586 266.171C146.038 261.724 142.294 257.429 138.398 253.286C130.636 245.044 122.224 237.423 113.26 230.515C112.14 229.651 111.013 228.795 109.871 227.954C109.326 227.545 108.797 228.469 109.334 228.871V228.863Z" fill="#0B4E4A"/>
<path d="M126.249 377.004C133.897 378.383 141.552 379.686 149.208 381.019C151.394 381.398 153.58 381.776 155.767 382.155C156.432 382.269 156.72 381.246 156.047 381.132C148.391 379.807 140.743 378.481 133.087 377.14C130.901 376.754 128.715 376.368 126.529 375.974C125.863 375.853 125.575 376.875 126.249 376.996V377.004Z" fill="#0B4E4A"/>
<path d="M146.598 289.631C151.334 287.685 156.372 286.556 161.486 286.344C162.166 286.314 162.166 285.253 161.486 285.283C156.281 285.503 151.137 286.624 146.318 288.609C145.698 288.866 145.97 289.889 146.598 289.631Z" fill="#0B4E4A"/>
<path d="M149.942 292.442C153.27 291.184 156.818 290.631 160.374 290.836C161.054 290.874 161.054 289.813 160.374 289.775C156.735 289.571 153.066 290.124 149.662 291.419C149.034 291.662 149.306 292.684 149.942 292.442Z" fill="#0B4E4A"/>
<path d="M67.1523 338.257C74.2178 339.552 81.3287 340.59 88.4775 341.363C90.4973 341.582 92.5171 341.779 94.5445 341.954C94.3705 341.779 94.1889 341.597 94.0149 341.423C92.7441 352.589 91.2008 363.725 89.3928 374.815C88.8784 377.974 88.3413 381.125 87.7815 384.276C87.948 384.147 88.1219 384.019 88.2884 383.89C79.9595 383.958 71.6306 383.693 63.3245 383.095C60.9642 382.928 58.604 382.731 56.2513 382.504C56.4253 382.678 56.6069 382.86 56.7809 383.034C57.3709 376.951 57.9686 370.868 58.9444 364.831C59.9052 358.854 61.2366 352.915 63.2791 347.211C64.4289 344.014 65.8057 340.908 67.4473 337.931H66.5319C69.5352 341.893 70.4808 347.218 74.4372 350.483C76.1771 351.923 78.3558 352.869 80.6479 352.529C83.1216 352.165 85.3078 350.407 87.1839 348.87C89.4307 347.029 91.4202 344.9 93.1374 342.552C93.5384 341.999 92.623 341.469 92.2221 342.014C90.7848 343.976 89.1281 345.779 87.3049 347.385C86.3896 348.188 85.4289 348.938 84.4227 349.635C83.4771 350.294 82.4786 350.93 81.3666 351.279C79.2257 351.953 77.0546 351.21 75.3374 349.862C73.5521 348.453 72.3493 346.552 71.328 344.544C70.1025 342.12 69.0889 339.567 67.4397 337.386C67.2128 337.083 66.7362 337.007 66.5244 337.386C63.5741 342.734 61.4786 348.514 59.9732 354.43C58.4527 360.407 57.5222 366.52 56.796 372.641C56.3875 376.095 56.0471 379.557 55.7142 383.019C55.684 383.322 55.979 383.526 56.2438 383.549C64.5348 384.329 72.8561 384.791 81.185 384.913C83.5528 384.95 85.9206 384.95 88.2884 384.935C88.5002 384.935 88.7574 384.776 88.7952 384.549C90.7696 373.391 92.4793 362.179 93.9166 350.938C94.3251 347.764 94.7033 344.59 95.0665 341.408C95.1043 341.105 94.7941 340.901 94.5369 340.878C87.4714 340.264 80.4361 339.393 73.4386 338.257C71.4339 337.931 69.4293 337.583 67.4322 337.219C66.7665 337.098 66.479 338.12 67.1523 338.242V338.257Z" fill="#0B4E4A"/>
<path d="M58.7175 238.673C65.1022 237.726 71.381 236.105 77.4177 233.825C79.1274 233.181 80.8219 232.477 82.4937 231.727C82.2365 231.621 81.9717 231.514 81.7145 231.408C84.2639 239.143 86.7527 246.9 89.1886 254.672C90.3989 258.528 91.5866 262.391 92.7667 266.262C93.3492 268.179 93.9317 270.103 94.5066 272.027C94.8092 273.027 95.1118 274.034 95.4069 275.034C95.6414 275.822 96.065 276.769 95.9061 277.61C95.7473 278.45 94.8319 278.897 94.1738 279.314C93.4249 279.791 92.6608 280.253 91.8892 280.693C90.3006 281.602 88.659 282.435 86.9872 283.185C85.3078 283.935 83.5906 284.602 81.8431 285.185C80.9959 285.465 80.1486 285.723 79.2862 285.965C78.8323 286.094 78.3784 286.215 77.917 286.329C77.5236 286.427 76.9638 286.662 76.5629 286.556C76.23 286.465 76.109 286.117 75.988 285.821C75.7913 285.329 75.6097 284.836 75.4206 284.336C75.0575 283.374 74.6868 282.412 74.3237 281.458C73.5899 279.534 72.8561 277.617 72.1223 275.693C70.6623 271.875 69.2099 268.065 67.7574 264.247C64.8223 256.558 61.8871 248.877 58.9595 241.188C58.604 240.256 58.2484 239.325 57.8929 238.385C57.6357 238.582 57.3709 238.787 57.1137 238.984C59.3983 240.264 61.0777 242.317 62.9538 244.097C64.8223 245.877 66.948 247.324 69.5654 247.642C72.0542 247.945 74.6414 247.263 76.752 245.923C79.0063 244.491 80.6328 242.317 81.5481 239.817C82.6223 236.893 82.6904 233.643 81.9717 230.628C81.8129 229.962 80.7916 230.249 80.9505 230.908C82.1155 235.779 80.9656 241.643 76.6915 244.68C74.77 246.044 72.4174 246.794 70.0571 246.627C67.6061 246.453 65.5939 245.12 63.8464 243.476C61.8417 241.597 60.0716 239.415 57.6508 238.059C57.2801 237.855 56.6977 238.203 56.8716 238.658C59.8976 246.589 62.9235 254.52 65.957 262.452C68.9678 270.345 71.9105 278.276 74.997 286.139C75.2996 286.912 75.7383 287.556 76.6385 287.601C77.0622 287.624 77.4858 287.503 77.8943 287.404C78.4011 287.276 78.908 287.147 79.4148 287.01C81.2304 286.511 83.0232 285.912 84.7783 285.23C88.2884 283.867 91.6623 282.162 94.8319 280.132C95.5052 279.7 96.2617 279.253 96.6702 278.534C97.1089 277.754 97.003 276.837 96.7837 276.004C96.2617 274.004 95.6035 272.034 95.0059 270.057C93.7956 266.05 92.57 262.043 91.3294 258.043C88.8482 250.043 86.2988 242.059 83.6965 234.098C83.3712 233.105 83.0459 232.105 82.7131 231.113C82.5996 230.765 82.2592 230.651 81.9339 230.795C76.109 233.401 70.0042 235.37 63.7632 236.681C61.993 237.052 60.2077 237.37 58.4149 237.635C57.7416 237.734 58.0291 238.756 58.6948 238.658L58.7175 238.673Z" fill="#0B4E4A"/>
<path d="M57.0305 194.017C56.7052 199.827 56.9397 205.66 57.7189 211.433C58.4981 217.205 59.8219 222.901 61.6829 228.424C62.7268 231.522 63.9372 234.56 65.2989 237.522C65.5863 238.143 66.4941 237.605 66.2142 236.984C63.8086 231.757 61.9174 226.303 60.5481 220.712C59.1865 215.152 58.3468 209.463 58.0593 203.751C57.8929 200.509 57.908 197.252 58.0896 194.01C58.1274 193.328 57.0683 193.328 57.0305 194.01V194.017Z" fill="#0B4E4A"/>
<path d="M81.8431 291.972C82.8871 301.699 82.3046 311.592 80.1108 321.129C79.4905 323.818 78.7415 326.477 77.8716 329.098C77.6598 329.75 78.681 330.023 78.8928 329.379C82.002 320.008 83.5376 310.115 83.409 300.237C83.3712 297.479 83.2048 294.722 82.9097 291.972C82.8341 291.298 81.775 291.29 81.8507 291.972H81.8431Z" fill="#0B4E4A"/>
<path d="M121.105 200.691C125.56 204.638 131.007 207.403 136.832 208.63C137.498 208.774 137.777 207.751 137.112 207.607C131.468 206.41 126.173 203.766 121.853 199.941C121.347 199.494 120.59 200.236 121.105 200.691Z" fill="#0B4E4A"/>
<path d="M146.031 51.55C145.91 43.0658 145.789 34.5816 145.668 26.0973C145.637 24.196 145.683 22.1052 146.938 20.6811C149.601 17.6585 154.617 20.219 158.528 19.2645C162.885 18.1964 164.912 13.0074 168.884 10.9015C173.604 8.39406 176.759 11.6211 181.056 14.8103C185.383 18.0146 191.662 23.9763 194.846 28.3169C182.365 41.8841 164.852 46.4595 147.43 52.4364L146.038 51.5576L146.031 51.55Z" fill="#B7772F"/>
<path d="M138.806 55.1786C140.894 57.1557 144.208 57.5723 147.112 56.9663C150.017 56.3603 152.635 54.8831 155.207 53.459C166.441 47.2473 178.06 41.6644 189.975 36.7556C193.137 35.4527 196.42 34.127 198.765 31.7257C201.11 29.3243 202.222 25.5064 200.384 22.7794C187.274 28.9304 174.164 35.0739 161.054 41.225C153.21 44.9066 145.183 48.7093 139.147 54.724L138.806 55.1786Z" fill="#F59F18"/>
<path d="M151.432 24.105C154.307 24.4459 157.242 24.2565 160.048 23.5369C162.34 22.9536 164.625 21.9915 166.372 20.3477C167.311 19.4614 168.022 18.3857 168.438 17.1661C168.657 16.5222 167.636 16.242 167.416 16.8859C166.531 19.522 163.959 21.128 161.463 22.0067C158.263 23.1354 154.798 23.446 151.439 23.0445C150.766 22.9612 150.774 24.0217 151.439 24.105H151.432Z" fill="#84511E"/>
<path d="M148.308 53.3226C153.686 51.0652 159.035 48.7396 164.353 46.3459C169.656 43.9597 174.928 41.5053 180.163 38.9828C183.129 37.5511 186.086 36.1042 189.037 34.6346C189.649 34.3316 189.112 33.415 188.5 33.718C183.325 36.3011 178.113 38.8237 172.871 41.2705C167.628 43.7249 162.356 46.111 157.06 48.4291C154.057 49.7396 151.046 51.0349 148.028 52.3C147.763 52.4136 147.581 52.6485 147.657 52.9515C147.725 53.2014 148.043 53.4287 148.308 53.3226Z" fill="#84511E"/>
</g>
<defs>
<filter id="filter0_d_65_1873" x="0" y="0" width="334" height="453" filterUnits="userSpaceOnUse" color-interpolation-filters="sRGB">
<feFlood flood-opacity="0" result="BackgroundImageFix"/>
<feColorMatrix in="SourceAlpha" type="matrix" values="0 0 0 0 0 0 0 0 0 0 0 0 0 0 0 0 0 0 127 0" result="hardAlpha"/>
<feOffset dx="5" dy="5"/>
<feGaussianBlur stdDeviation="7.5"/>
<feComposite in2="hardAlpha" operator="out"/>
<feColorMatrix type="matrix" values="0 0 0 0 0 0 0 0 0 0 0 0 0 0 0 0 0 0 0.25 0"/>
<feBlend mode="normal" in2="BackgroundImageFix" result="effect1_dropShadow_65_1873"/>
<feBlend mode="normal" in="SourceGraphic" in2="effect1_dropShadow_65_1873" result="shape"/>
</filter>
<clipPath id="clip0_65_1873">
<rect width="304" height="423" fill="white" transform="translate(10 10)"/>
</clipPath>
</defs>
</svg>
