<svg width="292" height="461" viewBox="0 0 292 461" fill="none" xmlns="http://www.w3.org/2000/svg">
<g clipPath="url(#clip0_223_144)">
<path d="M239.302 184.943C245.781 183.162 251.227 182.481 257.707 180.701C263.137 189.985 267.628 194.583 266.326 205.268C266.31 205.402 264.092 212.027 264.005 212.13C263.871 212.296 263.634 212.32 263.421 212.32C254.14 212.573 244.826 211.41 235.892 208.901L239.302 184.943Z" fill="#577293"/>
<path d="M134.923 19.9371C138.277 18.283 141.632 16.6288 144.986 14.9746C149.303 12.8456 154.338 10.6532 158.671 12.2045C163.194 13.827 164.986 18.9082 169.255 20.9819C171.718 22.177 175.017 22.4065 176.524 24.5514C177.842 26.4351 177.179 29.0232 176.327 31.2473C174.693 35.5529 172.523 39.716 169.871 43.6338C163.462 31.9596 151.237 23.3484 137.093 20.5466L134.923 19.9371Z" fill="#F59F18"/>
<path d="M120.014 54.8727C103.108 42.6603 105.192 31.8488 108.144 27.7015C113.25 20.515 123.7 18.3543 132.737 18.6155C146.762 19.027 160.282 23.6571 170.716 31.6431C173.32 33.6297 186.729 46.6731 185.277 58.3394C184.543 64.2042 178.048 61.4182 174.03 66.3174C170.021 71.2166 160.645 73.6306 154.37 72.5542C163.518 66.08 158.829 62.8824 162.728 49.2216C165.499 39.5103 154.094 38.3785 144.189 34.2707C138.111 31.7539 135.033 29.0233 129.28 32.8144C123.921 36.3444 126.336 35.0147 125.278 40.832C123.984 47.979 119.856 52.712 121.687 59.5582L120.006 54.8727H120.014Z" fill="#B77115"/>
<path d="M172.744 65.1697L185.609 48.0106C186.343 47.0292 187.092 46.0319 188.111 45.3513C191.181 43.2776 195.332 44.726 198.576 46.5068C210.549 53.084 220.257 63.7371 225.711 76.2899C227.502 80.4134 228.907 84.8378 231.851 88.2332C236.658 93.7893 244.961 95.9104 248.52 102.337C250.659 106.192 250.619 110.901 249.901 115.254C249.183 119.607 247.833 123.865 247.541 128.274C247.241 132.674 248.173 137.447 251.33 140.526C254.479 143.604 260.24 144.143 263.105 140.787C260.075 149.074 252.758 155.643 244.211 157.748C239.049 159.022 232.988 158.492 229.294 154.661C227.534 152.833 226.484 150.451 225.206 148.25C223.73 145.718 221.922 143.375 219.831 141.317C217.984 139.497 215.821 137.85 213.288 137.296C210.044 136.592 206.737 137.755 203.469 138.333C197.037 139.473 190.131 138.215 184.741 134.518C179.35 130.822 175.609 124.657 175.222 118.111C175.12 116.402 175.222 114.605 174.433 113.085C173.154 110.616 170.108 109.824 167.677 108.479C163.999 106.453 161.355 102.654 160.724 98.4906C160.092 94.3354 161.489 89.9111 164.394 86.8797C166.406 84.7823 169.019 83.3814 171.252 81.5136C173.486 79.6536 175.419 77.018 175.246 74.1133C175.112 71.8972 173.778 69.9581 173.154 67.829C172.531 65.7 173.028 62.827 175.143 62.1779L172.744 65.1539V65.1697Z" fill="#663B14"/>
<path d="M152.034 81.0862C150.526 82.1547 150.313 84.3233 150.637 86.1437C150.976 88.0511 152.042 90.1248 153.936 90.5047C152.728 91.2724 151.489 92.056 150.092 92.3646C147.922 92.8316 145.515 91.9847 144.118 90.2514C142.721 88.5181 142.389 85.9854 143.305 83.9513L152.034 81.0862Z" fill="black"/>
<path d="M215.458 385.747C216.074 390.797 216.689 395.838 217.305 400.888C217.692 404.07 218.102 407.307 219.476 410.196C220.383 412.103 221.693 413.813 222.483 415.767C223.272 417.73 223.453 420.136 222.175 421.822C219.862 424.862 215.174 423.445 211.37 423.484C204.764 423.54 198.371 428.882 192.12 426.737C192.807 422.242 197.369 419.424 199.255 415.293C200.778 411.953 200.415 408.082 199.949 404.434C198.734 394.841 197.069 385.296 194.969 375.854L215.458 385.747Z" fill="#FED5B7"/>
<path d="M197.984 415.593C199.515 420.991 202.286 422.527 207.795 423.484C212.207 424.252 219.728 421.909 224.03 420.675C224.748 422.725 223.193 430.497 223.193 430.497C223.193 430.497 212.333 432.99 211.062 432.531C209.657 432.024 206.926 428.281 206.358 428.969C202.396 433.75 195.932 435.562 189.8 436.48C183.051 437.485 176.185 437.723 169.39 437.177C168.719 437.121 168.103 436.718 167.843 436.1C167.456 435.182 168.111 434.533 168.719 434.019C172.373 430.869 176.753 428.843 181.299 427.133C187.716 424.711 193.43 420.722 197.992 415.593H197.984Z" fill="#685434"/>
<path d="M250.769 377.864C253.926 392.949 262.805 401.727 271.116 438.38C275.97 438.728 280.911 437.944 285.418 436.1C286.207 435.776 287.051 435.356 287.375 434.565C287.627 433.948 287.501 433.243 287.359 432.586C283.2 413.14 274.479 390.583 270.359 371.129L250.761 377.864H250.769Z" fill="#FED5B7"/>
<path d="M268.18 432.428C273.547 428.645 280.288 426.864 286.823 427.489C287.62 430.845 288.409 434.193 289.206 437.549C289.877 440.374 290.548 443.263 290.295 446.16C289.893 450.711 287.225 454.755 284.202 458.175C283.192 459.322 282.048 460.47 280.58 460.858C278.622 461.372 276.578 460.422 274.929 459.251C272.521 457.541 269.254 450.861 269.396 447.909C269.933 436.876 268.196 432.428 268.196 432.428H268.18Z" fill="#685434"/>
<path d="M169.808 215.399C166.169 224.493 162.081 234.529 161.679 247.857C161.41 256.832 163.257 265.72 165.104 274.514C172.483 309.75 179.863 344.986 187.242 380.223C187.503 381.465 187.787 382.755 188.584 383.745C189.413 384.766 190.668 385.312 191.875 385.818C199.089 388.85 207.171 391.92 214.495 389.174C215.371 388.85 216.263 388.398 216.745 387.599C217.242 386.768 217.203 385.731 217.147 384.758C215.537 357.579 213.919 330.399 212.309 303.22C219.586 320.633 226.855 338.045 234.132 355.45C238.149 365.058 242.174 374.706 244.811 384.789C245.316 386.728 245.797 388.747 246.981 390.361C247.944 391.675 249.317 392.641 250.762 393.385C260.043 398.189 272.987 393.092 276.531 383.246C268.133 360.578 265.442 335.623 253.271 314.744C251.772 312.172 250.106 309.608 249.459 306.703C248.986 304.558 249.088 302.334 249.144 300.142C249.838 273.105 242.893 246.519 236.003 220.369C235.663 219.087 235.308 217.773 234.527 216.697C233.43 215.193 231.654 214.378 229.957 213.626C220.249 209.32 210.352 204.959 199.807 203.748C189.263 202.537 177.771 204.928 170.313 212.502L169.8 215.383L169.808 215.399Z" fill="#01A299"/>
<path d="M234.369 234.703C236.689 244.921 238.339 255.273 239.673 265.657C240.999 275.97 242.04 286.314 243.201 296.643C244.306 306.529 245.513 316.398 247.17 326.205C248.788 335.758 250.825 345.247 253.587 354.539C256.31 363.689 259.735 372.648 264.108 381.133C264.66 382.209 265.229 383.27 265.813 384.33C266.152 384.955 267.107 384.394 266.768 383.768C262.127 375.323 258.465 366.38 255.56 357.191C252.672 348.041 250.517 338.67 248.82 329.236C247.052 319.438 245.781 309.56 244.653 299.675C243.477 289.346 242.443 279.001 241.164 268.681C239.901 258.478 238.402 248.292 236.271 238.233C236.003 236.958 235.718 235.684 235.434 234.41C235.276 233.713 234.211 234.006 234.369 234.703Z" fill="#0B4E4A"/>
<path d="M249.12 387.385C256.152 387.623 263.208 385.992 269.451 382.747C271.219 381.829 272.924 380.769 274.534 379.597C275.102 379.186 274.55 378.22 273.973 378.64C268.393 382.692 261.779 385.28 254.929 386.048C252.995 386.261 251.054 386.341 249.112 386.277C248.402 386.253 248.402 387.362 249.112 387.385H249.12Z" fill="#0B4E4A"/>
<path d="M188.371 378.181C194.559 381.481 201.733 382.684 208.671 381.687C210.62 381.41 212.538 380.943 214.401 380.31C215.071 380.08 214.779 379.012 214.109 379.241C207.708 381.418 200.683 381.473 194.235 379.447C192.404 378.869 190.628 378.125 188.931 377.223C188.308 376.89 187.748 377.84 188.371 378.181Z" fill="#0B4E4A"/>
<path d="M173.06 435.095C180.471 434.953 187.874 434.082 195.119 432.499C197.195 432.048 199.255 431.534 201.299 430.972C201.986 430.782 201.694 429.713 201.007 429.903C193.927 431.866 186.658 433.148 179.334 433.694C177.25 433.853 175.159 433.948 173.067 433.987C172.357 434.003 172.357 435.111 173.067 435.095H173.06Z" fill="#C2B38C"/>
<path d="M212.057 431.098L222.348 429.389C223.051 429.27 222.751 428.202 222.056 428.32C218.623 428.89 215.19 429.46 211.765 430.03C211.062 430.149 211.362 431.217 212.057 431.098Z" fill="#C2B38C"/>
<path d="M271.314 449.263C272.679 452.064 274.265 455.048 277.375 456.164C278.78 456.663 280.327 456.631 281.653 455.935C282.979 455.238 283.926 454.019 284.794 452.84C286.057 451.13 287.32 449.421 288.575 447.711C289.001 447.141 288.038 446.587 287.62 447.149C286.617 448.511 285.615 449.872 284.613 451.233C283.776 452.365 282.971 453.6 281.858 454.486C279.498 456.362 276.507 455.048 274.771 452.99C273.705 451.724 272.979 450.197 272.253 448.716C271.945 448.075 270.99 448.637 271.298 449.278L271.314 449.263Z" fill="#C2B38C"/>
<path d="M209.247 405.106C207.479 407.038 207.51 410.243 209.341 412.127C209.839 412.641 210.62 411.858 210.123 411.343C208.718 409.903 208.663 407.378 210.028 405.89C210.51 405.368 209.728 404.584 209.247 405.106Z" fill="#89563D"/>
<path d="M279.672 414.105C279.83 414.177 279.98 414.256 280.13 414.343C280.209 414.39 280.28 414.438 280.351 414.493C280.603 414.691 280.73 414.81 280.848 414.936C280.903 415 280.958 415.055 281.006 415.118C281.211 415.396 281.298 415.53 281.369 415.673C281.408 415.752 281.456 415.831 281.487 415.91C281.606 416.211 281.653 416.369 281.692 416.543C281.708 416.622 281.724 416.701 281.74 416.781C281.787 417.263 282 417.54 282.316 417.525C282.592 417.509 282.892 417.279 282.868 416.971C282.734 415.34 281.724 413.813 280.217 413.14C279.956 413.021 279.609 413.053 279.459 413.338C279.333 413.575 279.372 413.971 279.656 414.098L279.672 414.105Z" fill="#89563D"/>
<path d="M75.2631 423.706C75.7367 426.08 74.537 428.51 72.8559 430.251C71.1748 431.993 69.0517 433.212 67.1102 434.636C63.5822 437.232 60.6146 440.58 58.452 444.395C57.2603 446.5 56.2974 449.001 57.063 451.297C58.2547 454.898 62.7614 455.919 66.5261 456.362C68.9886 456.655 71.4589 456.948 73.9214 457.241C77.7256 457.692 82.0823 457.969 84.8605 455.325C86.5337 453.734 87.2677 451.376 88.862 449.706C91.7191 446.706 96.3836 446.706 100.488 446.128C101.845 445.938 103.297 445.598 104.197 444.561C105.531 443.018 105.089 440.675 104.568 438.704C102.974 432.61 101.372 426.516 99.7774 420.421C99.6905 420.097 99.5958 419.757 99.3669 419.519C99.0433 419.187 98.5382 419.131 98.0805 419.1C90.9772 418.569 83.8344 418.617 76.7391 419.242L75.2631 423.706Z" fill="#01A299"/>
<path d="M116.186 424.268C115.286 428.154 114.379 432.04 113.479 435.934C113.266 436.852 113.061 437.834 113.408 438.704C113.929 440.002 115.42 440.533 116.683 441.142C119.469 442.48 121.734 444.862 122.926 447.719C123.644 449.429 124.008 451.336 125.136 452.808C127.101 455.381 130.732 455.895 133.96 455.848C137.085 455.8 140.195 455.412 143.257 454.779C146.872 454.035 151.126 452.12 151.339 448.424C151.545 444.902 147.969 442.559 145.594 439.963C140.085 433.956 140.432 424.79 137.946 417.018C137.741 416.369 137.496 415.696 137.014 415.213C136.383 414.564 135.444 414.343 134.56 414.153C130.353 413.227 126.154 412.301 121.948 411.367L116.178 424.276L116.186 424.268Z" fill="#01A299"/>
<path d="M54.64 230.817C56.1632 250.983 52.0907 256.326 49.2967 276.358C48.5153 281.985 52.9746 302.579 52.5169 308.238C51.8144 317 52.7221 325.801 53.6297 334.547C54.5373 343.308 55.445 352.078 56.3605 360.839C57.1498 368.477 57.9469 376.131 59.4228 383.657C62.5009 399.376 68.5624 393.765 68.1362 409.776C68.0494 412.91 67.7494 416.211 69.0991 419.036C71.2064 423.461 76.5023 425.17 81.2299 426.429C86.6836 427.885 92.7135 429.286 97.7569 426.745C105.113 423.041 106.454 413.187 106.178 404.94C105.87 395.767 101.048 391.129 101.009 387.29C100.969 383.175 101.995 379.138 102.492 375.054C103.132 369.838 102.919 364.559 102.808 359.312C102.39 339.533 99.1775 301.812 101.664 282.183C108.988 298.812 109.888 335.813 109.714 353.985C109.493 377.167 114.678 379.423 111.719 402.415C110.961 408.304 109.675 414.287 110.827 420.105C111.103 421.49 111.545 422.914 112.547 423.912C113.234 424.6 114.126 425.028 115.018 425.408C124.047 429.286 134.654 429.278 143.676 425.392C144.804 424.909 145.925 424.347 146.777 423.461C148.995 421.165 148.735 417.532 148.577 414.343C147.59 394.057 156.73 395.371 156.288 375.07C156.217 371.738 155.885 368.39 156.359 365.098C157.022 360.459 159.216 356.201 160.574 351.714C166.777 331.191 154.867 309.568 155.57 288.127C155.759 282.428 156.84 276.809 157.409 271.134C158.766 257.616 155.562 242.079 154.007 228.585C138.001 231.909 122.752 232.692 107.323 227.279C103.218 225.838 99.1775 224.089 94.8761 223.416C91.3323 222.854 87.7175 223.044 84.1264 222.839C80.8589 222.649 77.5914 222.134 74.3239 222.316C68.373 222.649 62.5956 225.403 58.5783 229.819L54.64 230.801V230.817Z" fill="#662D91"/>
<path d="M103.653 439.947C97.97 440.54 91.7191 441.292 87.023 444.854C85.8707 445.733 84.8526 446.746 84.0002 447.917C83.0373 449.223 82.2796 450.735 80.9537 451.732C78.4833 453.592 75.058 453.426 72.1456 453.062C67.931 452.539 63.7874 451.51 59.8017 450.038C59.1308 449.793 58.8467 450.861 59.5097 451.107C63.0771 452.421 66.7708 453.378 70.5276 453.948C73.6136 454.415 76.9995 454.803 79.9592 453.552C81.4272 452.927 82.548 451.898 83.4714 450.616C84.3869 449.342 85.1762 448.02 86.3048 446.912C88.3648 444.886 91.0245 443.627 93.7554 442.796C96.9676 441.823 100.314 441.403 103.645 441.055C104.347 440.984 104.355 439.876 103.645 439.947H103.653Z" fill="white"/>
<path d="M62.2958 442.06C66.6367 444.917 70.0699 449.12 71.9957 453.956C72.2562 454.613 73.3217 454.328 73.0612 453.663C71.0249 448.542 67.4496 444.134 62.8483 441.102C62.2563 440.707 61.696 441.672 62.2879 442.06H62.2958Z" fill="white"/>
<path d="M79.7856 439.686C77.0627 437.43 74.1977 435.348 71.2064 433.465C70.6066 433.085 70.0462 434.043 70.646 434.422C73.5584 436.259 76.3523 438.277 79.0042 440.477C79.5488 440.928 80.3302 440.153 79.7856 439.694V439.686Z" fill="white"/>
<path d="M83.0058 439.045C80.4565 436.322 77.3863 434.106 74.0004 432.555C73.3611 432.262 72.8007 433.212 73.44 433.512C76.747 435.032 79.7304 437.169 82.2244 439.828C82.7138 440.351 83.4951 439.567 83.0058 439.045Z" fill="white"/>
<path d="M150.471 444.403C145.191 443.485 139.643 444.64 135.144 447.561C133.865 448.392 132.681 449.365 131.608 450.45C131.111 450.956 131.892 451.74 132.389 451.233C135.933 447.616 140.858 445.448 145.909 445.21C147.338 445.147 148.766 445.226 150.171 445.471C150.866 445.59 151.166 444.522 150.463 444.403H150.471Z" fill="white"/>
<path d="M150.621 449.69C147.575 450.165 144.536 450.679 141.482 451.115C138.987 451.471 136.446 451.7 133.936 451.415C131.482 451.138 129.106 450.236 127.322 448.487C125.468 446.682 124.315 444.316 122.863 442.203C121.135 439.678 118.917 437.541 116.336 435.903C115.736 435.523 115.176 436.48 115.776 436.86C118.128 438.348 120.18 440.295 121.774 442.583C123.281 444.743 124.473 447.165 126.328 449.065C130.069 452.903 135.649 452.959 140.613 452.333C144.054 451.906 147.48 451.297 150.913 450.758C151.616 450.648 151.316 449.579 150.621 449.69Z" fill="white"/>
<path d="M143.684 436.401C139.95 435.831 136.099 436.615 132.902 438.649C132.302 439.029 132.855 439.986 133.463 439.607C136.391 437.739 139.95 436.947 143.391 437.47C144.086 437.573 144.386 436.512 143.684 436.401Z" fill="white"/>
<path d="M141.363 434.003C138.135 433.631 134.836 434.082 131.829 435.309C131.182 435.578 131.466 436.646 132.121 436.377C135.049 435.174 138.214 434.739 141.363 435.111C142.066 435.19 142.066 434.082 141.363 434.003Z" fill="white"/>
<path d="M252.924 197.195C258.867 201.675 269.577 207.373 276.436 204.492C293.665 197.258 260.611 132.128 260.746 130.15C260.848 128.614 261.227 127.102 261.424 125.575C262.229 119.457 260.209 113.362 258.22 107.521C257.715 106.033 257.068 104.387 255.631 103.762C254.195 103.129 252.087 104.633 252.845 106.002C251.969 105.028 251.653 103.667 250.888 102.606C250.004 101.38 247.92 100.675 247.194 102.369C247.084 102.63 247.028 102.915 247.013 103.2C246.886 105.282 247.115 107.379 247.691 109.381C246.097 104.086 244.945 95.2932 241.614 90.8768C240.912 89.9428 239.428 90.4098 239.365 91.5812C239.065 97.533 243.264 112.785 243.264 112.785C241.141 108.709 235.387 99.3692 232.538 95.2219C231.812 94.1614 230.178 94.7312 230.249 96.0134C230.62 102.314 236.547 111.677 235.174 117.256C234.661 119.346 234.456 122.749 234.937 124.839C235.687 128.108 240.201 128.432 242.798 130.545C244.416 131.859 245.253 133.877 246.026 135.809C250.035 145.821 251.827 156.854 255.836 166.874C240.691 148.638 234.535 133.949 218.678 122.48C215.632 120.28 211.978 118.262 208.308 119.061L217.723 157.289C217.723 157.289 245.892 191.884 252.916 197.187L252.924 197.195Z" fill="#FED5B7"/>
<path d="M250.414 153.276C250.304 152.311 249.586 151.543 248.946 150.815C242.167 143.185 239.396 132.587 232.475 125.084C227.621 119.821 220.833 116.402 213.738 115.586C208.039 114.027 201.741 114.035 195.837 114.835C186.145 116.156 176.674 119.275 166.896 119.544C165.278 119.591 163.596 119.568 162.136 120.272C160.4 121.111 159.287 122.836 158.332 124.514C150.653 138.009 147.535 154.052 149.595 169.454C150.187 173.894 151.213 178.318 153.123 182.379C155.333 187.08 158.679 191.18 160.818 195.913C165.199 205.616 163.044 214.837 166.225 224.991C166.461 225.743 166.73 226.511 167.259 227.097C167.89 227.809 168.813 228.173 169.705 228.49C183.036 233.286 199.089 235.273 212.341 230.263C220.383 227.223 227.676 222.498 234.89 217.805C229.949 202.569 225.75 187.088 222.309 171.433C223.872 174.67 225.245 178.01 226.405 181.413C236.879 175.722 245.324 166.375 249.957 155.374C250.241 154.701 250.517 153.989 250.43 153.26L250.414 153.276Z" fill="#662D91"/>
<mask id="mask0_223_144" style="mask-type:luminance" maskUnits="userSpaceOnUse" x="148" y="114" width="103" height="120">
<path d="M250.414 153.276C250.304 152.311 249.586 151.543 248.946 150.815C242.167 143.185 239.396 132.587 232.475 125.084C227.621 119.821 201.741 114.035 195.829 114.842C186.137 116.164 176.666 119.283 166.888 119.552C165.27 119.599 163.589 119.575 162.128 120.28C160.392 121.119 159.279 122.844 158.324 124.522C150.645 138.017 147.527 154.06 149.587 169.462C150.179 173.902 151.205 178.326 153.115 182.387C155.325 187.088 158.671 191.188 160.81 195.921C165.191 205.624 163.036 214.845 166.217 224.999C166.453 225.751 166.722 226.519 167.251 227.105C167.882 227.817 168.805 228.181 169.697 228.498C183.028 233.294 199.081 235.281 212.333 230.271C220.375 227.231 227.668 222.506 234.882 217.813C229.941 202.577 225.742 187.096 222.301 171.441C223.864 174.678 225.237 178.018 226.397 181.421C236.871 175.73 245.316 166.383 249.949 155.382C250.233 154.709 250.509 153.997 250.422 153.268L250.414 153.276Z" fill="white"/>
</mask>
<g mask="url(#mask0_223_144)">
<g opacity="0.38">
<path d="M134.497 128.108C148.979 128.812 163.478 129.081 177.969 128.915C199.949 128.662 222.877 127.15 241.898 116.093C242.987 119.987 244.076 123.889 245.166 127.783C207.526 137.874 168.111 141.254 129.311 137.708L134.489 128.108H134.497Z" fill="white"/>
</g>
<g opacity="0.38">
<path d="M123.944 154.226C170.092 150.174 216.003 143.328 261.33 133.727C262.174 139.093 263.026 144.459 263.871 149.818C219.499 159.26 174.638 168.75 129.288 167.61L123.936 154.226H123.944Z" fill="white"/>
</g>
<g opacity="0.38">
<path d="M141.118 183.083C178.845 177.725 216.745 173.554 254.731 170.586C255.702 175.802 256.681 181.017 257.652 186.233C216.271 193.325 174.243 196.554 132.271 195.881L141.118 183.083Z" fill="white"/>
</g>
<g opacity="0.38">
<path d="M140.337 213.388C175.475 209.059 210.81 206.392 246.2 205.387C247.636 207.722 246.097 210.951 243.737 212.336C241.377 213.721 238.504 213.784 235.774 213.919C209.065 215.248 183.959 225.846 159.429 223.788C150.818 223.068 142.034 220.907 133.676 223.1L140.337 213.381V213.388Z" fill="white"/>
</g>
</g>
<path d="M32.9829 67.9241C29.0524 62.9378 25.2403 57.8645 21.5387 52.7041C24.1748 50.6938 26.4242 48.1927 28.1448 45.3593C29.0445 43.8792 29.818 42.1934 29.5733 40.4759C29.3287 38.7663 27.6633 37.1755 25.9901 37.6028C25.1851 37.8086 24.5537 38.4181 23.867 38.8929C21.0099 40.8716 17.5056 35.1097 14.0329 35.0068C10.5602 34.9039 6.31403 40.7925 4.25408 43.6022C2.13099 46.5069 3.03863 50.5513 4.05676 54.0021C6.42452 62.0514 8.90278 70.069 11.4836 78.047C19.6524 77.675 27.6002 73.7493 32.8724 67.4809L32.975 67.932L32.9829 67.9241Z" fill="#F6A472"/>
<path d="M15.6746 42.2408C13.4647 44.7894 12.2808 48.1215 12.4228 51.4931C12.4544 52.2054 13.5594 52.2054 13.5278 51.4931C13.3936 48.4143 14.4354 45.3513 16.4559 43.0165C16.9216 42.4783 16.1402 41.6947 15.6746 42.2329V42.2408Z" fill="#A36340"/>
<path d="M63.5902 56.5031C60.3306 51.4614 54.1271 49.2928 49.6441 45.3117C49.21 44.9318 48.7601 44.3382 49.0443 43.8316C49.1469 43.6417 49.3363 43.523 49.5257 43.428C51.562 42.3753 53.9771 43.4992 56.0686 44.449C61.1198 46.7363 66.6367 47.9789 72.1852 48.0897C72.0352 52.4903 67.8601 56.3448 63.4718 56.1153L63.5981 56.5031H63.5902Z" fill="#B7734E"/>
<path d="M157.543 113.41C142.508 95.0873 118.846 84.4183 95.184 84.5291C80.2197 84.5924 64.3242 88.526 50.8753 81.9252C42.1225 77.6275 35.9584 69.5149 30.1337 61.6873L9.20272 70.2272C8.30297 70.5913 7.3164 71.0504 6.95335 71.9526C6.64554 72.7362 6.90599 73.6226 7.19012 74.422C15.8324 98.9893 37.6869 118.42 63.0456 124.071C52.6038 159.561 46.9764 195.359 52.9352 231.877C58.681 233.745 68.302 233.903 74.2135 235.138C78.6096 236.056 82.4375 238.644 86.3601 240.837C101.293 249.195 119.09 252.305 135.965 249.495C144.26 248.118 153.533 244.09 155.42 235.874C156.264 232.186 155.396 228.316 154.11 224.754C149.721 212.629 140.416 202.023 139.65 189.146C138.727 173.657 150.25 160.605 156.193 146.288C159.421 138.499 161.039 130.039 160.905 121.602C160.85 117.985 160.297 114.003 157.598 111.597L157.551 113.402L157.543 113.41Z" fill="url(#paint0_linear_223_144)"/>
<path d="M11.3889 37.7531C12.0361 38.7583 13.1174 39.3915 14.3092 39.4786L52.5169 42.2487C53.8902 42.3516 55.3267 42.4387 56.6132 41.94C58.831 41.0852 60.0464 38.7346 61.0093 36.558C62.9351 32.1812 64.632 27.7015 66.0763 23.1426C66.8577 20.689 67.5048 17.816 66.0289 15.7107C64.0716 12.9247 59.5729 13.1859 57.3708 10.5899C56.7236 9.82215 56.3211 8.84864 55.5713 8.17589C53.8508 6.63252 51.1121 7.25778 48.9653 6.41091C45.5241 5.04958 43.922 0.0791435 40.2283 -3.5722e-06C38.3419 -0.0395771 36.6687 1.31384 34.7903 1.41673C33.709 1.48005 32.6356 1.11597 31.5465 1.16346C27.6555 1.32175 25.9191 6.05475 25.2324 9.89338C23.283 11.041 20.6863 9.60845 18.5711 10.4078C16.5112 11.1835 15.7614 13.6687 15.2879 15.8294C14.1355 21.0531 12.9911 26.2768 11.8388 31.5005L10.9233 34.6031C10.6076 35.6716 10.7733 36.8271 11.3811 37.7611L11.3889 37.7531Z" fill="#606060"/>
<path d="M27.9632 9.98053C28.7288 7.34493 29.8574 4.32151 32.4856 3.53795C33.5275 3.22928 34.6403 3.34009 35.7295 3.45881C37.0002 3.59336 38.4524 3.85454 39.0838 4.9626C39.4469 5.60369 39.439 6.37142 39.4153 7.10749C39.3916 7.9781 39.36 8.89621 38.9023 9.64019C38.4445 10.3842 37.4185 10.8511 36.6766 10.3921C35.4217 9.61645 36.2819 7.4399 35.3191 6.33185C34.8455 5.31876 33.2275 5.65118 32.5409 6.52971C31.8542 7.40825 31.6411 8.58754 30.9308 9.45024C30.2284 10.3129 28.5788 10.5741 28.1684 9.5373L27.9553 9.97261L27.9632 9.98053Z" fill="black"/>
<path d="M21.7044 14.2544C26.0138 13.9141 30.3468 13.7954 34.664 13.8825C37.2054 13.9379 39.1233 16.2094 38.7444 18.7342C38.4761 20.5625 37.9157 22.3829 37.4185 24.1003C36.9291 25.8099 36.4003 27.5116 35.8005 29.1895C35.5953 29.7673 35.3348 30.3371 34.8929 30.7487C34.072 31.5085 32.8329 31.5402 31.7201 31.4927C27.1266 31.3186 22.7147 32.8857 18.2791 31.6589C17.8134 31.5323 17.3241 31.3819 17.0084 31.0099C16.4954 30.4084 16.6611 29.5061 16.8584 28.7384C17.6871 25.5092 18.4685 20.0322 19.4945 16.8584C19.8813 15.6554 20.8284 14.1674 22.0122 14.6106L21.6965 14.2544H21.7044Z" fill="black"/>
<path d="M13.7646 33.6137C15.0432 35.0067 17.0479 35.0226 18.8001 34.9751C21.2468 34.9038 23.7013 34.8405 26.148 34.7693C27.3398 34.7376 28.5395 34.706 29.7312 34.6664C30.852 34.6347 31.9885 34.6506 33.1092 34.5318C35.035 34.3261 36.6372 33.5188 37.7106 31.8646C38.7603 30.2421 39.147 28.2555 39.4469 26.3718C39.5574 25.6753 38.4919 25.3745 38.3815 26.0789C38.1368 27.6302 37.8448 29.2448 37.1265 30.6616C36.3373 32.2049 35.0903 33.1468 33.3618 33.3921C32.32 33.5425 31.2466 33.5188 30.1969 33.5504C29.0919 33.5821 27.9949 33.6137 26.8899 33.6454C24.6563 33.7087 22.4228 33.772 20.1892 33.8354C18.4133 33.8828 15.9035 34.3023 14.5618 32.8381C14.0803 32.3157 13.299 33.0993 13.7804 33.6217L13.7646 33.6137Z" fill="black"/>
<path d="M60.5515 16.8663C62.4852 17.0642 64.3005 18.4651 64.9871 20.3013C65.0897 20.5783 65.3581 20.7762 65.6659 20.6891C65.9342 20.6179 66.1552 20.2934 66.0526 20.0084C65.1765 17.6736 63.0298 16.0115 60.5515 15.7582C60.2516 15.7266 59.999 16.0352 59.999 16.3123C59.999 16.6368 60.2516 16.8346 60.5515 16.8663Z" fill="black"/>
<path d="M61.5538 20.0955C59.5176 25.2005 57.7812 30.4163 56.3527 35.727C56.1632 36.4156 57.2287 36.7085 57.4182 36.0199C58.8467 30.717 60.5909 25.4933 62.6193 20.3883C62.8798 19.7235 61.8143 19.4386 61.5538 20.0955Z" fill="black"/>
<path d="M53.8507 36.2415C53.9297 36.2415 54.0165 36.2415 54.0954 36.2573C54.3874 36.3127 54.5374 36.3602 54.6873 36.4156C54.8847 36.5106 54.9557 36.5423 55.0188 36.5818C55.0899 36.6214 55.1609 36.6689 55.224 36.7164C55.4608 36.9063 55.5792 37.0171 55.6818 37.1359C55.816 37.2862 55.8633 37.3654 55.9028 37.4366C55.9501 37.5079 55.9896 37.5791 56.0291 37.6503C56.179 37.9036 56.2027 38.1094 56.2343 38.2518C56.2974 38.5368 56.6447 38.7267 56.913 38.6397C57.2129 38.5447 57.3629 38.2597 57.2998 37.959C56.9683 36.376 55.4529 35.173 53.8507 35.1414C53.5587 35.1414 53.2825 35.4025 53.2983 35.6954C53.314 35.9961 53.5429 36.2415 53.8507 36.2494V36.2415Z" fill="black"/>
<path d="M48.6259 35.3867C39.7231 36.1782 30.7651 36.1861 21.8623 35.4105C19.3288 35.1888 16.7953 34.9039 14.2697 34.5557C13.9698 34.5161 13.6778 34.6269 13.591 34.9435C13.5199 35.2047 13.6778 35.5846 13.9777 35.6241C22.9357 36.8668 31.9964 37.3337 41.0412 36.9776C43.5747 36.8826 46.1082 36.7164 48.6338 36.4948C49.3362 36.4314 49.3441 35.3234 48.6338 35.3867H48.6259Z" fill="black"/>
<path d="M26.0059 11.88C29.7785 11.6505 33.5748 11.785 37.3238 12.3232C38.9102 12.5527 40.6228 12.988 42.154 12.3074C43.4799 11.7217 44.2139 10.3841 44.5139 9.01485C44.9243 7.0995 44.4823 5.10499 45.0427 3.21337C45.2479 2.5248 44.1824 2.23987 43.9772 2.92053C43.4957 4.53513 43.7167 6.21305 43.5746 7.86722C43.472 9.094 43.0695 10.5345 41.933 11.1835C40.5676 11.975 38.7128 11.4051 37.2606 11.2072C35.5243 10.9698 33.7721 10.8036 32.02 10.7244C30.0153 10.6374 28.0106 10.6532 26.0059 10.7719C25.3034 10.8115 25.2955 11.9196 26.0059 11.88Z" fill="black"/>
<path d="M45.5952 7.42408C46.1319 8.6746 47.4736 9.29987 48.7364 9.56105C50.1887 9.85389 51.7908 9.6956 53.0931 10.5029C53.7008 10.8828 54.2533 9.92513 53.6535 9.54522C52.3749 8.74584 50.8753 8.76958 49.431 8.5638C48.3023 8.39759 47.0395 8.00185 46.5502 6.87005C46.4318 6.59304 46.0293 6.53763 45.7925 6.67218C45.5084 6.83839 45.4768 7.15498 45.5952 7.43199V7.42408Z" fill="black"/>
<path d="M42.7618 16.8504C41.791 16.7871 40.9938 17.8081 41.0096 18.7816C41.0333 19.763 41.6568 20.6337 42.3908 21.2668C42.9828 21.7813 43.7089 22.2087 44.4902 22.2324C46.2897 22.3037 47.5604 19.9688 46.7554 18.3542C45.9504 16.7396 43.6615 16.2331 42.083 17.0958L42.7618 16.8425V16.8504Z" fill="black"/>
<path d="M42.3829 18.6946C42.3513 18.9004 42.3434 19.0745 42.3829 19.2803C42.4145 19.4306 42.4776 19.5731 42.5486 19.7077C42.6986 19.9688 42.9354 20.2063 43.2116 20.3408C43.5352 20.4991 43.8825 20.5624 44.2376 20.4833C44.506 20.42 44.7664 20.2538 44.9401 20.048C45.2873 19.6206 45.4531 19.0032 45.2558 18.473C45.1374 18.1643 44.9559 17.911 44.6717 17.7369C44.4349 17.5944 44.1429 17.5232 43.8667 17.5311C43.2116 17.5549 42.5723 17.9664 42.3908 18.6233C42.3119 18.9004 42.4855 19.2407 42.7775 19.304C43.0695 19.3673 43.3773 19.2169 43.4563 18.9162C43.4642 18.8766 43.5036 18.8133 43.5431 18.7579C43.5036 18.8054 43.5589 18.7579 43.622 18.7025C43.5826 18.7341 43.6615 18.6867 43.7483 18.6471C43.7088 18.6629 43.8035 18.6392 43.9061 18.6233C43.8509 18.6313 43.9456 18.6233 44.0324 18.6392C43.9693 18.6313 44.0482 18.655 44.1271 18.6867C44.0561 18.655 44.1114 18.6867 44.1666 18.7341C44.1114 18.6867 44.1587 18.7341 44.1982 18.7896C44.1587 18.7341 44.1982 18.7975 44.2218 18.8687C44.1982 18.8133 44.2218 18.9004 44.2297 18.9795C44.2218 18.9241 44.2218 19.0191 44.2061 19.1061C44.2061 19.0666 44.1824 19.1615 44.1429 19.2644C44.1666 19.209 44.1192 19.2882 44.0719 19.3515C44.1114 19.304 44.0561 19.3515 43.993 19.4069C44.0482 19.3673 43.9851 19.4069 43.914 19.4306C43.9851 19.399 43.914 19.4148 43.8509 19.4306C43.9219 19.4227 43.8509 19.4227 43.7641 19.4069C43.8272 19.4069 43.7483 19.3911 43.6694 19.3594C43.7167 19.3752 43.6378 19.3278 43.5589 19.2723C43.5983 19.304 43.5352 19.2328 43.4721 19.1615C43.5036 19.2011 43.4563 19.122 43.4168 19.0349C43.4405 19.0982 43.4168 19.0191 43.4168 18.9478C43.4247 19.027 43.4247 18.9478 43.4326 18.8845C43.4405 18.837 43.4405 18.7025 43.3616 18.56C43.2984 18.4413 43.1642 18.3384 43.0301 18.3068C42.888 18.2751 42.7302 18.283 42.6039 18.3622C42.4934 18.4334 42.375 18.5521 42.3513 18.6946H42.3829Z" fill="black"/>
<path d="M58.1601 17.4678C56.6368 22.6202 54.79 27.6777 52.6116 32.5849C52.3275 33.2339 53.2746 33.7958 53.5666 33.1468C55.7765 28.1447 57.6707 23.0081 59.2256 17.7606C59.4308 17.072 58.3653 16.7871 58.1601 17.4678Z" fill="black"/>
<path d="M102.382 80.9359C102.327 80.9042 87.0704 67.7104 86.3838 65.985C85.997 65.0115 84.6001 47.7416 82.5322 44.6074C81.5851 43.1748 80.2434 42.0588 79.0358 40.84C73.077 34.7694 70.7171 26.0395 65.7606 19.1141C65.6343 18.94 65.4844 18.7817 65.2949 18.6788C64.0163 17.9506 63.1087 19.9135 63.1955 21.2986C63.3849 24.5278 64.4899 27.7016 66.3525 30.353C64.3794 29.3478 62.1379 28.8729 59.9201 29.0075C59.7228 29.0233 59.5176 29.0471 59.3282 29.1025C56.7947 29.799 57.8523 33.1231 59.8017 34.1125C61.5539 35.0068 63.6691 34.9039 65.4607 35.7271C67.7022 36.756 69.1386 39.3124 68.8703 41.7739C63.969 40.0722 58.8625 38.9484 53.7008 38.4497C52.8168 38.3627 51.7908 38.4181 50.9305 38.6951C49.6361 39.1146 49.4152 40.8875 50.5675 41.6077C56.0843 45.0585 63.819 45.1456 67.9153 50.2426C63.0456 50.1635 58.1601 50.8283 53.4798 52.2055C51.996 52.6408 50.1807 54.01 51.0568 55.3318C51.2778 55.6642 51.6172 55.9017 52.0039 56.0283C54.3085 56.7723 56.7394 57.1205 59.1545 57.0414C60.0938 57.0097 61.1987 56.9939 61.7512 57.7458C62.0906 58.2048 62.1064 58.8222 62.1064 59.392C62.13 62.6054 62.2247 65.8742 63.235 68.9214C64.2452 71.9685 66.321 74.8178 69.2886 76.0129C70.5514 76.5195 71.9247 76.7173 73.1638 77.2872C75.4132 78.324 83.3215 89.6579 85.8076 93.2432L102.382 80.9438V80.9359Z" fill="#F6A472"/>
<path d="M76.6839 78.4585C78.1913 77.2713 79.6988 76.0841 81.2142 74.889C81.451 74.7069 81.4036 74.3033 81.2142 74.1054C80.9853 73.8759 80.6696 73.9234 80.4328 74.1054C78.9253 75.2926 77.4179 76.4798 75.9025 77.6749C75.6657 77.857 75.7131 78.2606 75.9025 78.4585C76.1314 78.688 76.4471 78.6405 76.6839 78.4585Z" fill="#A36340"/>
<path d="M65.0818 29.4586C69.8015 31.184 73.6057 35.1334 75.1842 39.906C75.4052 40.5787 76.4707 40.2938 76.2497 39.6132C74.5449 34.4448 70.4724 30.2501 65.3738 28.3901C64.703 28.1447 64.4188 29.2132 65.0818 29.4586Z" fill="#A36340"/>
<path d="M4.22249 52.1342C1.94944 47.0213 -0.347284 36.1069 0.465647 30.5666C0.702423 28.952 1.10494 27.282 2.17043 26.0473C3.23593 24.8126 5.13803 24.1715 6.55079 24.9788C6.99277 23.2455 8.09772 21.6309 9.69202 20.8236C11.2863 20.0163 13.3699 20.135 14.7196 21.3143C16.1876 22.6044 16.5033 24.7651 16.4559 26.7201C16.4086 28.675 16.0929 30.6853 16.669 32.5532C16.9926 33.59 17.5688 34.524 17.916 35.5529C18.2633 36.5818 18.3501 37.7927 17.7187 38.6713C17.0557 39.5973 15.7456 39.898 14.6564 39.5894C13.5673 39.2807 12.6675 38.4734 11.9887 37.5553C12.3123 39.0195 12.6438 40.555 12.265 42.0034C11.8861 43.4517 10.5681 44.7814 9.0764 44.6152C8.71334 44.5756 8.36607 44.4569 8.00302 44.4727C6.74021 44.544 6.23509 46.1427 5.20117 46.8709C4.4277 47.417 3.29907 47.4012 2.54138 46.8392L4.23038 52.1104L4.22249 52.1342Z" fill="#F6A472"/>
<path d="M125.365 31.8171C122.397 40.27 109.951 64.5128 110.322 69.1983C110.701 74.0262 122.247 81.1732 122.247 81.1732C122.247 81.1732 117.551 90.7263 117.125 94.3512C116.715 97.8179 118.199 100.699 121.253 102.361C131.15 107.751 139.729 112.072 140.195 111.194C143.281 105.353 144.591 89.8082 147.677 83.9592C147.496 85.8587 158.103 88.5418 161 76.923C161.836 73.5514 157.93 69.1191 154.741 70.4805C156.477 62.5104 158.672 54.6352 161.308 46.9184L125.357 31.8092L125.365 31.8171Z" fill="#F6A472"/>
<path d="M6.18774 26.3165C6.55079 28.7463 6.89807 31.2157 7.72678 33.5426C8.5555 35.8537 9.89723 37.872 11.6415 39.5895C12.1466 40.0881 12.928 39.3045 12.4228 38.8059C10.7575 37.1675 9.47103 35.2364 8.71335 33.0123C7.93988 30.7566 7.6005 28.3743 7.25323 26.0236C7.15063 25.3192 6.08513 25.62 6.18774 26.3165Z" fill="#A36340"/>
<path d="M0.0394192 33.685C1.16805 36.7005 2.8097 39.4944 4.90911 41.9242C5.84832 43.0085 6.96906 44.0928 8.4055 44.449C9.70777 44.7656 11.0416 44.2116 11.5309 42.9215C12.0755 41.4968 11.4599 39.9139 11.3573 38.4655C11.31 37.7611 10.205 37.7532 10.2524 38.4655C10.3313 39.6131 10.7101 40.7608 10.6233 41.9163C10.5444 43.0798 9.59727 43.6654 8.50811 43.333C7.29266 42.961 6.38501 41.9638 5.58787 41.0299C4.68812 39.9693 3.87519 38.8375 3.15697 37.6424C2.34404 36.2889 1.65739 34.8722 1.10491 33.4001C0.860242 32.7352 -0.213142 33.0281 0.0394192 33.6929V33.685Z" fill="#A36340"/>
<path d="M183.856 52.4824C175.806 62.5262 168.292 73.0053 161.355 83.8642C159.382 86.951 157.464 91.0587 159.611 94.0267C160.447 95.1823 161.765 95.8867 163.068 96.4565C166.027 97.7466 174.954 100.738 175.001 101.387C175.522 108.629 176.824 126.849 176.438 128.661C176.051 130.474 175.167 132.128 174.338 133.79C172.081 138.294 170.147 142.971 168.569 147.76C167.187 151.939 166.453 157.384 169.989 159.988C172.081 161.523 175.041 161.381 177.385 160.281C179.729 159.181 181.591 157.273 183.343 155.366C190.889 147.142 197.566 138.104 203.201 128.464C201.473 119.702 200.147 110.861 199.215 101.981C202.317 104.165 207.368 102.155 208.142 98.4352C208.915 94.7153 205.072 90.8608 201.362 91.6206C202.862 89.0167 204.353 86.4128 205.853 83.8088C206.216 83.1757 206.587 82.5187 206.626 81.7906C206.674 80.9516 206.279 80.1522 205.892 79.4083C204.219 76.187 202.546 72.9657 200.873 69.7444C198.963 66.0641 197.021 62.3362 194.259 59.2416C191.496 56.1469 188.063 52.981 183.935 52.6011L183.849 52.4903L183.856 52.4824Z" fill="#FED5B7"/>
<path opacity="0.57" d="M122.247 81.1732L138.372 87.4971L118.83 87.7978L122.247 81.1732Z" fill="#A36340"/>
<path opacity="0.3" d="M64.4267 123.683C67.9626 116.038 72.1456 108.708 76.9443 101.791C78.286 99.8519 79.6751 97.9524 81.1116 96.0845C81.2931 95.8471 81.1431 95.4672 80.9142 95.3247C80.6301 95.1585 80.3381 95.2852 80.1566 95.5226C75.0343 102.203 70.4882 109.318 66.5893 116.781C65.5001 118.871 64.4583 120.984 63.4718 123.129C63.1718 123.77 64.1268 124.332 64.4267 123.691V123.683Z" fill="black"/>
<path opacity="0.3" d="M10.4497 72.9103C11.5468 74.7782 12.6517 76.6539 13.7488 78.5218C14.1118 79.1312 15.0668 78.5772 14.7038 77.9599C13.6067 76.092 12.5018 74.2162 11.4047 72.3483C11.0416 71.731 10.0867 72.2929 10.4497 72.9103Z" fill="black"/>
<path opacity="0.3" d="M13.4094 71.3511C14.9406 72.5066 16.1244 74.0737 16.8663 75.8387C16.9847 76.1157 17.3872 76.1711 17.624 76.0366C17.9081 75.8704 17.9397 75.5538 17.8213 75.2768C17.0005 73.3298 15.6509 71.6597 13.9698 70.3934C13.733 70.2114 13.3542 70.3538 13.2121 70.5913C13.0463 70.8762 13.1726 71.169 13.4094 71.3511Z" fill="black"/>
<path opacity="0.3" d="M17.0637 69.594C18.1608 71.2798 19.2578 72.9657 20.3549 74.6594C20.7416 75.253 21.6966 74.699 21.3099 74.0975C20.2128 72.4116 19.1158 70.7258 18.0187 69.0321C17.632 68.4385 16.677 68.9925 17.0637 69.594Z" fill="black"/>
<path opacity="0.3" d="M21.4125 67.9874C22.3753 69.4595 23.3303 70.9238 24.2932 72.3959C24.459 72.6492 24.7826 72.7521 25.0509 72.5938C25.2956 72.4513 25.414 72.0872 25.2482 71.834C24.2853 70.3618 23.3303 68.8976 22.3674 67.4255C22.2017 67.1722 21.8781 67.0693 21.6098 67.2276C21.3651 67.3701 21.2467 67.7341 21.4125 67.9874Z" fill="black"/>
<path opacity="0.3" d="M26.0927 65.3755C27.4739 66.2699 28.5551 67.552 29.2339 69.0875C29.3523 69.3645 29.7548 69.4278 29.9916 69.2854C30.2757 69.1192 30.3152 68.8026 30.1889 68.5256C29.4391 66.8476 28.1921 65.4151 26.653 64.4178C26.4005 64.2595 26.0453 64.3703 25.8954 64.6157C25.7375 64.8848 25.8401 65.2093 26.0927 65.3755Z" fill="black"/>
<path opacity="0.3" d="M29.9442 64.1171L32.2173 66.8714C32.3988 67.093 32.8092 67.0772 32.9986 66.8714C33.2196 66.634 33.1959 66.3253 32.9986 66.0879C32.2409 65.1698 31.4833 64.2517 30.7256 63.3335C30.5441 63.1119 30.1336 63.1278 29.9442 63.3335C29.7232 63.571 29.7469 63.8797 29.9442 64.1171Z" fill="black"/>
<path opacity="0.3" d="M80.7485 127.007C88.7515 130.276 95.9416 135.46 101.64 141.966C103.258 143.818 104.75 145.773 106.107 147.823C106.502 148.417 107.457 147.863 107.062 147.261C102.153 139.845 95.4997 133.616 87.7887 129.208C85.6182 127.965 83.3609 126.881 81.0484 125.931C80.3933 125.662 80.1013 126.73 80.7564 126.999L80.7485 127.007Z" fill="black"/>
<path opacity="0.3" d="M85.5314 136.837C90.6221 140.803 95.3576 145.219 99.6827 150.023C100.156 150.554 100.938 149.77 100.464 149.24C96.1469 144.435 91.4035 140.027 86.3128 136.054C85.7603 135.619 84.9711 136.402 85.5314 136.837Z" fill="black"/>
<path opacity="0.3" d="M35.4296 102.171C36.9529 103.817 38.4682 105.456 39.9915 107.102C40.4729 107.624 41.2543 106.841 40.7728 106.318C39.2496 104.672 37.7342 103.034 36.211 101.387C35.7295 100.865 34.9482 101.649 35.4296 102.171Z" fill="black"/>
<path opacity="0.3" d="M40.1336 101.775C41.0649 102.147 41.9962 102.511 42.9196 102.883C43.188 102.986 43.5353 102.765 43.5984 102.495C43.6694 102.179 43.5037 101.926 43.2117 101.815C42.2803 101.443 41.349 101.079 40.4256 100.707C40.1573 100.604 39.81 100.825 39.7468 101.095C39.6758 101.411 39.8416 101.664 40.1336 101.775Z" fill="black"/>
<path opacity="0.3" d="M46.0687 112.167C46.4397 112.539 46.8106 112.911 47.1816 113.291C47.2842 113.394 47.4341 113.449 47.5683 113.449C47.7025 113.449 47.8682 113.386 47.955 113.291C48.0498 113.188 48.1208 113.046 48.1129 112.903C48.1129 112.753 48.0576 112.618 47.955 112.515C47.5841 112.143 47.2131 111.771 46.8422 111.392C46.7396 111.289 46.5896 111.233 46.4555 111.233C46.3213 111.233 46.1555 111.297 46.0687 111.392C45.974 111.494 45.903 111.637 45.9109 111.779C45.9109 111.93 45.9661 112.064 46.0687 112.167Z" fill="black"/>
<path opacity="0.3" d="M62.5089 230.516C71.6563 230.888 80.7564 232.012 89.7144 233.903C91.8612 234.354 94.0316 234.806 96.1389 235.439C98.191 236.064 100.03 237.006 101.798 238.217C103.487 239.38 105.129 240.583 106.991 241.462C108.759 242.293 110.63 242.902 112.54 243.314C116.959 244.28 121.513 244.335 126.012 244.351C126.723 244.351 126.723 243.251 126.012 243.243C121.995 243.227 117.938 243.195 113.976 242.475C112.05 242.127 110.14 241.612 108.325 240.852C106.415 240.053 104.718 238.913 103.029 237.734C101.301 236.523 99.5485 235.455 97.5517 234.742C95.5075 234.014 93.3608 233.563 91.2377 233.104C86.81 232.138 82.3507 231.355 77.8598 230.753C72.7692 230.073 67.6469 229.621 62.5168 229.416C61.8064 229.384 61.8064 230.492 62.5168 230.524L62.5089 230.516Z" fill="black"/>
<path d="M158.735 50.3139C152.949 51.5802 148.861 49.3404 142.942 49.1504C139.437 49.0396 135.72 48.5885 132.966 46.404C132.429 45.9766 131.916 45.4622 131.734 44.7973C131.292 43.2223 132.887 41.7502 134.481 41.4019C136.075 41.0537 137.756 41.3623 139.351 41.0062C133.81 41.6156 127.409 41.9401 123.542 37.9115C124.41 36.6293 126.044 35.917 127.567 36.1465C125.925 36.8035 124.221 37.4683 122.461 37.3654C120.701 37.2625 118.862 36.1624 118.499 34.4291C118.009 32.0784 120.377 30.0522 122.705 29.5061C125.034 28.96 127.52 29.2845 129.801 28.5643C131.079 28.1606 132.255 27.4404 133.565 27.195C135.278 26.8784 137.014 27.4087 138.664 27.9627C146.959 30.7645 154.938 34.4845 162.413 39.0512C164.386 40.2543 166.398 41.5919 167.566 43.5864C169.761 47.3459 168.332 52.1105 166.675 56.1312C164.449 61.5211 161.884 66.7606 158.987 71.8181C158.024 70.2114 155.578 70.1402 154.023 71.1691C152.468 72.198 151.584 73.9709 150.779 75.6568C149.871 74.8969 148.853 74.2717 147.772 73.7889C150.968 65.3914 158.735 50.2901 158.735 50.2901V50.3139Z" fill="black"/>
<path d="M148.427 30.5192C159.106 38.8613 170.005 43.7526 165.057 66.0483C167.503 63.3652 169.958 60.6346 171.726 57.4608C173.494 54.287 174.543 50.5829 173.975 46.9897C173.281 42.6287 170.321 38.98 167.148 35.917C163.991 32.8698 159.887 29.9889 155.57 30.7962L148.427 30.5271V30.5192Z" fill="#B77115"/>
<path d="M151.41 79.899C153.407 78.4586 155.609 77.3347 157.953 76.5828C158.624 76.3691 158.34 75.3006 157.661 75.5143C155.23 76.2899 152.926 77.4455 150.85 78.9414C150.605 79.1155 150.495 79.4242 150.653 79.7012C150.795 79.9386 151.166 80.0732 151.41 79.899Z" fill="#A36340"/>
<path d="M154.283 77.8887C154.102 78.8226 153.92 79.7486 153.739 80.6826C153.683 80.9675 153.818 81.292 154.125 81.3632C154.402 81.4265 154.741 81.2841 154.804 80.9754C154.986 80.0415 155.167 79.1154 155.349 78.1815C155.404 77.8966 155.27 77.5721 154.962 77.5008C154.686 77.4375 154.346 77.58 154.283 77.8887Z" fill="#A36340"/>
<path d="M119.477 63.6263C122.981 65.7871 126.675 67.6312 130.511 69.1192L128.861 69.4437C120.748 72.7283 118.925 68.7234 119.477 63.6263Z" fill="white"/>
<path d="M119.201 64.1013C122.745 66.2857 126.486 68.1378 130.361 69.6495V68.581L129.193 68.8105C128.656 68.9134 128.183 69.1192 127.662 69.3012C126.344 69.7603 124.939 70.1402 123.526 70.0689C122.666 70.0294 121.805 69.7682 121.174 69.1588C120.574 68.5731 120.259 67.7816 120.093 66.9743C119.982 66.4282 119.943 65.8742 119.935 65.3201C119.935 65.0115 119.935 64.7028 119.959 64.3862C119.974 64.1092 120.077 63.7372 120.006 63.4681C119.817 62.7795 118.751 63.0723 118.94 63.7609C118.901 63.6105 118.901 63.8242 118.893 63.8559C118.877 63.9351 118.877 64.0221 118.869 64.0933C118.862 64.22 118.854 64.3466 118.846 64.4733C118.83 64.7819 118.822 65.0906 118.83 65.3993C118.838 65.9533 118.893 66.5073 118.988 67.0534C119.161 68.027 119.54 68.9767 120.195 69.7286C121.877 71.6519 124.781 71.3116 126.975 70.6705C127.725 70.4489 128.459 70.0689 129.224 69.9186C129.698 69.8236 130.172 69.7286 130.645 69.6336C131.237 69.5149 131.103 68.7472 130.645 68.5652C126.857 67.0851 123.21 65.2647 119.746 63.1278C119.138 62.7558 118.585 63.7134 119.185 64.0854L119.201 64.1013Z" fill="#A36340"/>
<path d="M132.16 50.306C128.782 53.2819 125.27 56.0995 121.632 58.743C121.292 58.9884 121.261 59.4633 121.632 59.7007L126.091 62.55C126.691 62.9378 127.243 61.9802 126.652 61.5923C125.168 60.6426 123.684 59.6928 122.192 58.743V59.7007C125.902 56.9939 129.493 54.1209 132.942 51.0895C133.479 50.6146 132.697 49.839 132.16 50.306Z" fill="#A36340"/>
<path d="M137.377 59.3682C138.388 58.6084 139.793 58.4976 140.866 59.1941C141.845 59.8352 142.358 61.1253 142.129 62.265C142.066 62.5578 142.216 62.8665 142.515 62.9457C142.792 63.0248 143.131 62.8507 143.194 62.5578C143.526 60.9353 142.863 59.2258 141.489 58.2839C140.124 57.3421 138.135 57.4133 136.825 58.4105C136.588 58.5926 136.462 58.8854 136.628 59.1703C136.762 59.4078 137.141 59.5503 137.385 59.3682H137.377Z" fill="black"/>
<path d="M119.927 50.6225C120.937 49.8627 122.342 49.7519 123.415 50.4484C124.394 51.0895 124.907 52.3796 124.678 53.5193C124.615 53.8121 124.765 54.1208 125.065 54.1999C125.341 54.2791 125.681 54.105 125.744 53.8121C126.075 52.1896 125.412 50.48 124.039 49.5382C122.674 48.5963 120.685 48.6676 119.374 49.6648C119.138 49.8468 119.011 50.1397 119.177 50.4246C119.311 50.6621 119.69 50.8045 119.935 50.6225H119.927Z" fill="black"/>
<path d="M139.911 51.6909C139.453 52.15 139.003 52.6091 138.545 53.0681C138.246 53.3768 137.914 53.8042 138.111 54.192C138.238 54.4453 138.546 54.5402 138.814 54.6194C141.774 55.5058 144.449 57.3341 146.359 59.7719C147.456 57.9198 147.322 55.4109 146.036 53.6855C144.749 51.9601 142.389 51.1211 140.313 51.6514L139.919 51.683L139.911 51.6909Z" fill="black"/>
<path d="M130.929 46.0716C130.724 46.681 130.511 47.2984 130.306 47.9078C130.164 48.3114 129.927 48.8022 129.493 48.7942C129.209 48.7942 128.988 48.5568 128.798 48.351C126.691 46.0795 123.873 44.4886 120.843 43.8555C122.011 42.0509 124.315 41.0616 126.423 41.4494C128.53 41.8372 130.329 43.5864 130.779 45.6917L130.921 46.0637L130.929 46.0716Z" fill="black"/>
<path d="M134.899 27.1316C133.494 27.5115 132.05 27.749 130.598 27.8123C129.122 27.8756 127.685 27.7094 126.217 27.5669C123.897 27.3532 120.85 27.6302 119.809 30.1154C119.327 31.2631 119.446 32.6007 120.306 33.5346C120.787 34.057 121.569 33.2734 121.087 32.751C120.258 31.8488 120.637 30.4241 121.458 29.6564C122.508 28.675 124.063 28.5404 125.428 28.6117C127.078 28.6987 128.688 28.9757 130.345 28.9203C131.987 28.8728 133.621 28.6196 135.199 28.1922C135.886 28.0101 135.594 26.9417 134.907 27.1237L134.899 27.1316Z" fill="black"/>
<path d="M163.075 59.1466C162.594 61.0936 162.689 63.1673 163.391 65.0431C163.494 65.3201 163.762 65.518 164.07 65.4309C164.338 65.3597 164.559 65.0352 164.457 64.7502C163.825 63.0486 163.707 61.2044 164.141 59.4395C164.315 58.7509 163.249 58.4501 163.075 59.1466Z" fill="black"/>
<path d="M160.581 63.7768C160.534 65.2489 160.976 66.7369 161.844 67.932C162.018 68.1774 162.326 68.2961 162.602 68.1299C162.839 67.9874 162.973 67.6154 162.799 67.3701C162.026 66.3016 161.647 65.0748 161.694 63.7689C161.702 63.4681 161.434 63.2148 161.142 63.2148C160.834 63.2148 160.597 63.4681 160.589 63.7689L160.581 63.7768Z" fill="black"/>
<path d="M183.525 52.6724C181.583 56.2341 182.452 61.1016 185.514 63.753C188.387 66.2541 192.854 66.9506 194.748 70.2589C196.129 72.665 195.648 75.6567 195.356 78.419C195.056 81.1812 195.135 84.3629 197.195 86.215C198 86.9352 199.065 87.4101 199.61 88.3519C200.431 89.7766 199.981 92.1193 201.52 92.705C202.191 92.9583 202.925 92.6971 203.643 92.6338C205.94 92.4517 209.468 95.0953 208.915 97.343C210.052 95.214 209.752 92.9029 210.888 90.7738C212.128 88.4548 213.406 85.9459 213.114 83.3261C212.743 80.0415 210.036 77.5563 208.805 74.4933C207.597 71.4778 207.866 68.0032 206.524 65.0431C205.316 62.3838 202.956 60.4605 200.636 58.6955C198.142 56.8039 195.601 54.9677 193.067 53.1394C191.607 52.0867 190.092 51.0103 188.324 50.6542C186.564 50.298 184.48 50.8758 183.628 52.4667L183.533 52.6724H183.525Z" fill="#663B14"/>
<path d="M199.673 85.55C199.61 88.1223 198.284 90.6392 196.201 92.143C194.504 93.3619 191.923 93.8051 190.463 92.3171C192.412 94.0663 195.23 94.7786 197.771 94.1613C200.313 93.5439 202.499 91.6206 203.438 89.175L199.673 85.55Z" fill="#663B14"/>
<path opacity="0.35" d="M175.096 101.356L189.089 101.902L175.096 106.825V101.356Z" fill="#7F4924"/>
<path d="M200.683 99.1396C202.246 98.3403 203.888 97.7229 205.577 97.2718C206.263 97.0897 205.971 96.0212 205.285 96.2033C203.501 96.6782 201.773 97.343 200.123 98.182C199.855 98.3165 199.784 98.6885 199.926 98.9418C200.084 99.2109 200.415 99.2742 200.683 99.1396Z" fill="#7F4924"/>
<path d="M202.104 98.3086C202.278 98.459 202.333 98.5223 202.388 98.5777C202.53 98.7597 202.578 98.8389 202.625 98.9101C202.664 98.9814 202.704 99.0526 202.735 99.1238C202.846 99.4246 202.885 99.5908 202.909 99.7649C202.893 99.6779 202.909 99.7412 202.909 99.7966C202.925 100.081 203.154 100.366 203.462 100.351C203.746 100.335 204.03 100.105 204.014 99.7966C203.982 99.3059 203.856 98.8389 203.619 98.4115C203.383 97.9841 203.059 97.6359 202.664 97.343C202.554 97.2639 202.365 97.2559 202.238 97.2876C202.112 97.3193 201.97 97.4222 201.907 97.5409C201.836 97.6675 201.804 97.8258 201.851 97.9683C201.899 98.1107 201.986 98.2057 202.104 98.3007V98.3086Z" fill="#7F4924"/>
<path d="M182.104 74.6436C179.026 77.9203 175.767 81.007 172.325 83.9038C172.073 84.1175 172.128 84.6399 172.436 84.7744C173.896 85.4076 175.506 85.5105 177.022 84.996C177.692 84.7665 177.4 83.698 176.73 83.9276C175.514 84.347 174.188 84.3391 172.996 83.8247C173.036 84.1175 173.067 84.4024 173.107 84.6953C176.54 81.7985 179.808 78.7118 182.886 75.4351C183.375 74.9127 182.594 74.1291 182.104 74.6515V74.6436Z" fill="#7F4924"/>
<path d="M188.947 45.6125C184.338 45.5096 179.831 48.0107 177.361 51.8968C176.706 52.9257 176.248 54.0338 175.869 55.1893C175.443 56.4873 175.064 57.8249 174.251 58.9409C172.712 61.0462 170.187 62.1305 168.3 63.8638C167.259 64.8136 166.382 65.9929 166.035 67.378C165.704 68.6839 165.83 70.1244 166.627 71.2403C167.038 71.8102 168 71.2641 167.582 70.6784C166.09 68.5968 167.503 66.072 169.137 64.592C170.952 62.9457 173.265 61.8852 174.843 59.9619C176.438 58.0149 176.674 55.4901 177.811 53.3215C178.805 51.4219 180.321 49.8152 182.128 48.6676C184.164 47.3696 186.532 46.6573 188.947 46.7127C189.657 46.7285 189.657 45.6204 188.947 45.6046V45.6125Z" fill="#663B14"/>
<path d="M187.684 83.5952C186.935 84.6874 185.727 85.1544 184.977 84.6399C184.227 84.1255 184.227 82.8195 184.977 81.7273C185.727 80.6351 186.935 80.1681 187.684 80.6826C188.434 81.197 188.434 82.5029 187.684 83.5952Z" fill="black"/>
<path d="M174.086 75.3718C173.336 76.464 172.128 76.931 171.379 76.4165C170.629 75.9021 170.629 74.5961 171.379 73.5039C172.128 72.4117 173.336 71.9447 174.086 72.4592C174.835 72.9736 174.835 74.2796 174.086 75.3718Z" fill="black"/>
<path d="M175.356 89.4837C177.101 89.5866 178.853 89.1433 180.344 88.2331C180.952 87.8612 180.4 86.9035 179.784 87.2755C178.45 88.0907 176.911 88.4706 175.356 88.3756C175.056 88.3598 174.804 88.6447 174.804 88.9296C174.804 89.2462 175.056 89.4678 175.356 89.4837Z" fill="#7F4924"/>
<path d="M188.726 75.7833C188.15 76.3453 187.7 77.0417 187.416 77.7936C189.61 78.6009 191.283 80.6825 191.591 83.0015C191.82 81.5927 192.017 80.1364 191.631 78.7592C191.244 77.39 190.131 76.1236 188.71 76.0049V75.7754L188.726 75.7833Z" fill="#663B14"/>
<path d="M180.976 67.4729C180.621 68.1931 180.108 68.8421 179.484 69.3487C178.04 67.5124 175.538 66.5706 173.241 66.998C174.504 66.3411 175.822 65.6921 177.243 65.6367C178.663 65.5733 180.21 66.2461 180.763 67.5599L180.976 67.4808V67.4729Z" fill="#663B14"/>
<path d="M236.223 116.663C236.223 115.903 236.776 115.317 237.447 115.017C238.299 114.629 239.278 114.803 240.146 115.072C241.93 115.626 243.698 116.457 245.355 117.304C246.957 118.119 248.599 119.101 249.83 120.43C250.296 120.929 250.73 121.76 249.925 122.156C249.254 122.488 248.41 122.393 247.691 122.353C245.41 122.227 243.161 121.784 240.991 121.063C240.359 120.858 240.091 121.728 240.564 122.076C242.419 123.422 244.637 124.063 246.681 125.044C248.852 126.081 250.612 127.617 251.211 130.039C251.385 130.727 252.451 130.434 252.277 129.746C251.653 127.229 249.87 125.424 247.605 124.269C245.458 123.177 243.082 122.551 241.117 121.119L240.691 122.132C243.011 122.9 245.426 123.351 247.857 123.469C248.757 123.517 249.767 123.541 250.572 123.058C251.385 122.567 251.693 121.617 251.338 120.739C250.943 119.757 250.02 119.045 249.207 118.412C248.346 117.739 247.423 117.161 246.46 116.639C245.489 116.117 244.479 115.65 243.469 115.214C242.419 114.763 241.362 114.273 240.264 113.948C239.088 113.608 237.81 113.536 236.713 114.146C235.789 114.66 235.119 115.578 235.119 116.655C235.119 117.367 236.223 117.367 236.223 116.655V116.663Z" fill="#7F4924"/>
<path d="M246.973 104.078C246.776 107.268 247.218 110.505 248.26 113.529C248.52 114.28 248.82 115.017 249.152 115.737C249.42 116.322 249.799 116.971 250.556 116.679C251.18 116.441 251.448 115.484 251.677 114.914C251.969 114.201 252.198 113.457 252.364 112.705C252.735 110.988 252.751 109.223 252.451 107.49C252.332 106.841 251.409 107.054 251.369 107.64C251.243 109.342 251.298 111.043 251.535 112.737C251.646 113.568 251.803 114.383 252.001 115.199C252.182 115.935 252.324 116.805 252.798 117.415C253.2 117.929 253.855 118.269 254.518 118.159C255.158 118.048 255.584 117.549 255.939 117.043C256.76 115.848 257.233 114.431 257.486 113.006C257.778 111.336 257.81 109.642 257.81 107.949C257.81 107.236 256.705 107.236 256.705 107.949C256.705 109.563 256.697 111.194 256.405 112.785C256.263 113.56 256.065 114.336 255.758 115.056C255.497 115.673 255.142 116.473 254.621 116.908C253.919 117.494 253.485 116.425 253.335 115.903C253.074 115.017 252.869 114.114 252.719 113.196C252.411 111.36 252.348 109.492 252.482 107.632C252.119 107.68 251.756 107.727 251.401 107.782C251.693 109.413 251.638 111.107 251.243 112.721C251.046 113.552 250.762 114.368 250.391 115.143C250.335 115.262 250.193 115.436 250.178 115.571C250.035 115.745 250.099 115.784 250.367 115.697C250.32 115.594 250.272 115.499 250.225 115.396C250.035 114.993 249.854 114.581 249.688 114.162C248.425 110.956 247.881 107.513 248.094 104.07C248.133 103.358 247.036 103.358 246.989 104.07L246.973 104.078Z" fill="#7F4924"/>
<path d="M254.1 118.839C253.106 121.301 253.066 124.111 253.982 126.604C254.226 127.269 255.292 126.984 255.047 126.311C254.195 123.976 254.234 121.435 255.166 119.132C255.276 118.855 255.039 118.531 254.779 118.452C254.463 118.364 254.211 118.562 254.1 118.839Z" fill="#7F4924"/>
<path d="M252.143 135.049C253.587 134.7 255.031 134.352 256.476 134.004C256.768 133.933 256.941 133.608 256.863 133.323C256.784 133.023 256.476 132.864 256.184 132.936C254.739 133.284 253.295 133.632 251.851 133.98C251.559 134.051 251.385 134.384 251.464 134.661C251.543 134.962 251.851 135.12 252.143 135.049Z" fill="#7F4924"/>
<path d="M258.07 172.533C260.919 177.994 263.768 183.455 266.618 188.916C266.949 189.549 267.904 188.987 267.573 188.354C264.723 182.893 261.874 177.432 259.025 171.971C258.694 171.338 257.739 171.9 258.07 172.533Z" fill="#7F4924"/>
<path d="M238.954 93.4648C238.923 100.264 241.148 106.762 243.358 113.109C243.595 113.774 244.661 113.489 244.424 112.816C242.245 106.572 240.028 100.169 240.059 93.4727C240.059 92.7604 238.954 92.7604 238.954 93.4727V93.4648Z" fill="#7F4924"/>
<path d="M18.0345 39.7397C17.3636 55.3396 17.8056 71.6598 20.1892 87.0934C20.8285 91.2566 20.8995 97.7071 20.8995 97.7071C20.3549 99.3771 17.3636 106.271 17.3321 106.192C17.261 106.01 21.452 130.173 23.9855 138.484C25.8797 144.697 28.1369 150.862 28.7605 157.329C29.384 163.739 28.3816 170.23 29.1235 176.625C29.8654 183.02 32.9514 189.779 38.9024 192.185C43.8036 194.164 49.6283 192.636 53.7798 189.351C57.9313 186.067 60.6384 181.278 62.6115 176.356C65.3423 169.549 66.8577 162.244 66.9366 154.915C66.9919 150.023 68.01 145.219 67.4339 140.359C65.9895 128.234 65.3187 115.183 63.8664 103.057C63.7402 102.028 59.9833 99.3296 59.6203 98.5064C59.0125 97.1293 58.8705 95.6017 58.7442 94.1059C57.4419 78.6405 57.6471 44.8368 57.6471 44.8368L52.9195 43.0164C52.9195 43.0164 52.7143 75.1501 54.3559 92.0085C54.5375 93.8843 54.7348 95.7759 54.4506 97.6358C54.1349 99.7095 50.6701 100.833 50.0624 102.836C48.6575 107.458 51.3647 113.204 51.5225 118.032C52.075 135.167 52.6354 152.303 53.1878 169.438C53.3141 173.34 53.4246 177.361 52.0671 181.025C50.7096 184.69 47.5131 187.943 43.6221 188.14C40.3072 188.307 37.166 186.186 35.4454 183.344C33.717 180.503 33.2276 177.068 33.3144 173.744C33.5591 164.191 38.1999 155.176 38.5551 145.623C38.6893 141.934 38.1841 138.254 37.6474 134.598C36.3846 126.034 34.9561 117.494 33.346 108.993C32.904 106.667 31.7517 104.569 31.1598 102.266C31.1361 102.171 24.4511 96.5832 24.4827 96.6465L21.4046 73.9629C19.8814 62.732 19.7077 51.3506 20.8916 40.0801L18.0187 39.7397H18.0345Z" fill="#9AB9DC"/>
<path d="M63.3296 51.1765C64.8608 50.8679 66.4472 50.7412 68.002 50.6067C69.5569 50.4721 71.159 50.298 72.7218 50.393C73.4321 50.4325 73.4321 49.3245 72.7218 49.2849C71.1196 49.1899 69.4779 49.3641 67.8757 49.5065C66.2578 49.649 64.624 49.7835 63.0297 50.1001C62.3352 50.2426 62.6272 51.3032 63.3218 51.1686L63.3296 51.1765Z" fill="#A36340"/>
<path d="M62.0589 58.0624C63.9768 58.2127 65.8947 58.3552 67.8126 58.5056C67.6389 58.371 67.4574 58.2365 67.2838 58.1019C67.5048 59.5187 67.0707 60.9196 66.6603 62.2572C66.2578 63.571 65.8473 64.8848 65.8079 66.2699C65.729 68.6364 66.5577 70.9871 68.0099 72.847C68.8386 73.9155 69.8883 74.802 71.0801 75.4431C71.7115 75.7755 72.264 74.8178 71.6405 74.4854C69.6436 73.4248 68.1283 71.5886 67.4022 69.4516C67.0391 68.3831 66.8655 67.2672 66.9207 66.1354C66.9839 64.8215 67.4259 63.571 67.8047 62.3205C68.2546 60.8404 68.5939 59.3604 68.3572 57.8091C68.3177 57.5558 68.0494 57.4213 67.8284 57.4054C65.9105 57.2551 63.9926 57.1126 62.0747 56.9622C61.3644 56.9068 61.3723 58.0149 62.0747 58.0703L62.0589 58.0624Z" fill="#A36340"/>
<path d="M68.7361 42.7633C68.8861 42.8028 69.0281 42.8424 69.1702 42.8899C69.2491 42.9136 69.328 42.9453 69.407 42.9769C69.8174 43.159 70.0857 43.3094 70.3462 43.4756C70.4093 43.5151 70.4725 43.5626 70.5356 43.6022C70.7645 43.7763 70.875 43.8792 70.9934 43.9821C71.1118 44.0929 71.2222 44.2037 71.3327 44.3224C71.3801 44.3779 71.4353 44.4333 71.4827 44.4966C71.6484 44.7024 71.4827 44.4966 71.5853 44.6232C71.7589 44.8527 72.0668 44.9952 72.343 44.8211C72.5719 44.6707 72.7297 44.3066 72.5403 44.0613C71.6642 42.9057 70.4488 42.0509 69.036 41.6948C68.7598 41.6235 68.4204 41.7897 68.3573 42.0826C68.2941 42.3675 68.4441 42.6841 68.744 42.7633H68.7361Z" fill="#A36340"/>
<path d="M77.4731 91.6128C83.9529 86.4762 91.9006 79.8753 98.3883 74.7386C104.931 81.664 111.774 87.8691 119.319 93.5677C126.865 99.2663 135.46 104.197 144.938 105.123C148.166 105.44 151.481 105.289 154.575 106.223C160.968 108.162 165.199 114.589 165.909 121.103C166.619 127.617 164.37 134.139 161.189 139.908C158.648 144.523 155.207 149.05 150.203 150.934C146.714 152.247 142.807 152.121 139.161 151.321C129.043 149.097 120.787 142.109 113.424 134.954C99.7458 121.665 87.4887 106.967 76.9364 91.1775L77.4731 91.6207V91.6128Z" fill="url(#paint1_linear_223_144)"/>
<path opacity="0.3" d="M81.9718 89.3096C83.9528 90.0219 85.7444 91.1854 87.2124 92.6892C87.7097 93.1957 88.491 92.4122 87.9938 91.9056C86.3837 90.2594 84.4264 89.0168 82.2638 88.2411C81.9797 88.1382 81.6561 88.3519 81.5851 88.629C81.4983 88.9376 81.6877 89.2067 81.9718 89.3096Z" fill="black"/>
<path opacity="0.3" d="M85.7839 87.5604C87.4256 88.534 89.0751 89.5075 90.7168 90.481C91.3324 90.8451 91.8848 89.8874 91.2771 89.5233C89.6355 88.5498 87.9859 87.5763 86.3443 86.6028C85.7287 86.2387 85.1762 87.1964 85.7839 87.5604Z" fill="black"/>
<path opacity="0.3" d="M88.4753 84.9169C90.1564 86.0091 91.8454 87.1093 93.5265 88.2015C94.1264 88.5893 94.6788 87.6316 94.0869 87.2438C92.4058 86.1516 90.7168 85.0515 89.0357 83.9592C88.4358 83.5714 87.8834 84.5291 88.4753 84.9169Z" fill="black"/>
<path opacity="0.3" d="M93.0214 82.5109C95.0182 83.5239 96.7703 84.9407 98.1989 86.6661C98.3883 86.8956 98.7829 86.8639 98.9802 86.6661C99.2091 86.4365 99.1697 86.112 98.9802 85.8825C97.5043 84.0859 95.6496 82.6058 93.5818 81.5532C93.3134 81.4186 92.9819 81.4819 92.8241 81.751C92.682 81.9964 92.753 82.3763 93.0214 82.5109Z" fill="black"/>
<path opacity="0.3" d="M95.0893 80.3106C96.7546 81.6244 98.4199 82.9383 100.077 84.2442C100.314 84.4262 100.63 84.4737 100.859 84.2442C101.048 84.0543 101.095 83.6506 100.859 83.4606C99.1934 82.1468 97.5281 80.833 95.8706 79.527C95.6339 79.345 95.3182 79.2975 95.0893 79.527C94.8998 79.717 94.8525 80.1206 95.0893 80.3106Z" fill="black"/>
<path opacity="0.3" d="M80.1171 90.7422C83.8424 96.4408 87.5677 102.147 91.293 107.846C94.7341 113.109 98.1121 118.428 101.743 123.557C105.2 128.448 108.941 133.173 113.266 137.32C117.433 141.317 122.176 144.736 127.449 147.119C132.618 149.453 138.285 150.799 143.976 150.506C144.694 150.467 145.404 150.403 146.114 150.316C146.809 150.229 146.817 149.121 146.114 149.208C140.511 149.897 134.876 148.931 129.651 146.857C124.339 144.744 119.501 141.523 115.278 137.692C110.906 133.727 107.133 129.152 103.676 124.38C100.085 119.417 96.7862 114.249 93.4397 109.12C89.7618 103.493 86.0918 97.8733 82.4139 92.246C81.964 91.5574 81.5141 90.8688 81.0642 90.1723C80.6775 89.5787 79.7225 90.1327 80.1092 90.7343L80.1171 90.7422Z" fill="black"/>
<path opacity="0.3" d="M104.355 81.8777C108.633 86.1833 113.195 90.204 118.112 93.7656C123.621 97.7546 129.58 101.15 135.957 103.532C139.714 104.933 143.605 105.962 147.567 106.548C148.261 106.651 148.561 105.582 147.859 105.479C140.969 104.466 134.347 102.092 128.214 98.8152C122.484 95.7522 117.173 91.9611 112.248 87.7346C109.785 85.6214 107.417 83.4053 105.129 81.1021C104.623 80.5955 103.842 81.3791 104.347 81.8856L104.355 81.8777Z" fill="black"/>
<path opacity="0.3" d="M130.803 139.655C132.476 140.589 134.141 141.515 135.815 142.449C136.438 142.797 136.991 141.839 136.375 141.491L131.363 138.697C130.74 138.349 130.187 139.307 130.803 139.655Z" fill="black"/>
<path opacity="0.3" d="M134.149 137.407C135.262 137.969 136.375 138.531 137.488 139.085C137.748 139.212 138.096 139.164 138.246 138.887C138.38 138.634 138.324 138.27 138.048 138.127C136.935 137.566 135.823 137.004 134.71 136.45C134.449 136.323 134.102 136.37 133.952 136.647C133.818 136.901 133.873 137.265 134.149 137.407Z" fill="black"/>
<path opacity="0.3" d="M140.992 136.798C141.734 136.988 142.476 137.17 143.218 137.36C143.494 137.431 143.833 137.273 143.897 136.972C143.96 136.687 143.81 136.362 143.51 136.291C142.768 136.101 142.026 135.919 141.284 135.729C141.008 135.658 140.669 135.816 140.605 136.117C140.542 136.402 140.692 136.727 140.992 136.798Z" fill="black"/>
<path d="M8.11347 57.6666C9.95243 58.276 11.9098 58.5451 13.8435 58.458C14.5538 58.4264 14.5538 57.3183 13.8435 57.35C11.9966 57.437 10.1655 57.1758 8.4055 56.5981C7.72674 56.3765 7.44261 57.4449 8.11347 57.6666Z" fill="#A36340"/>
<path opacity="0.3" d="M163.849 187.183C171.749 186.114 179.871 186.763 187.519 189.019C189.681 189.66 191.804 190.42 193.88 191.314C194.527 191.591 195.088 190.642 194.44 190.357C186.903 187.104 178.711 185.449 170.502 185.576C168.174 185.608 165.862 185.798 163.557 186.106C163.257 186.146 163.099 186.526 163.17 186.787C163.257 187.112 163.557 187.214 163.849 187.175V187.183Z" fill="black"/>
<path opacity="0.3" d="M169.113 192.858C173.509 192.232 178.016 192.715 182.199 194.195C182.87 194.433 183.162 193.364 182.491 193.127C178.111 191.575 173.415 191.14 168.821 191.789C168.119 191.892 168.419 192.953 169.113 192.858Z" fill="black"/>
<path d="M216.248 140.953C217.716 150.253 219.176 159.545 220.644 168.845C221.062 171.48 221.472 174.116 221.891 176.751C222.001 177.456 223.067 177.155 222.956 176.458L218.56 148.567C218.142 145.931 217.731 143.296 217.313 140.66C217.203 139.956 216.137 140.257 216.248 140.953Z" fill="#32664E"/>
<path d="M219.673 141.602C219.602 146.058 219.207 150.514 218.465 154.907C218.347 155.603 219.412 155.904 219.531 155.2C220.288 150.704 220.715 146.161 220.778 141.602C220.786 140.89 219.681 140.89 219.673 141.602Z" fill="#32664E"/>
<path opacity="0.3" d="M224.44 176.379C230.012 170.364 235.576 164.349 241.148 158.326C242.727 156.616 244.305 154.915 245.884 153.205C246.365 152.683 245.584 151.899 245.103 152.421C239.53 158.437 233.966 164.452 228.394 170.475C226.816 172.184 225.237 173.886 223.659 175.596C223.177 176.118 223.959 176.902 224.44 176.379Z" fill="black"/>
<path opacity="0.3" d="M169.145 136.117C166.335 140.921 163.399 146.003 163.004 151.693C162.705 155.92 164.173 160.629 167.464 163.431C169.255 164.958 171.489 165.782 173.841 165.821C176.469 165.861 179.05 164.982 181.323 163.716C186.074 161.064 189.65 156.703 192.862 152.406C196.571 147.443 200.17 142.401 203.817 137.391C204.282 136.75 204.756 136.109 205.222 135.46C205.64 134.883 204.685 134.328 204.267 134.898C200.683 139.821 197.1 144.744 193.509 149.659C190.439 153.87 187.258 158.175 183.02 161.286C179.231 164.072 173.865 166.106 169.453 163.502C165.901 161.405 164.165 157.06 164.07 153.07C163.928 147.111 167.187 141.642 170.092 136.671C170.455 136.054 169.5 135.5 169.137 136.109L169.145 136.117Z" fill="black"/>
<path d="M180.636 236.871C190.21 239.847 200.604 240.045 210.297 237.512C213.059 236.792 215.75 235.842 218.363 234.687C219.01 234.402 218.449 233.444 217.802 233.729C208.813 237.695 198.671 239.04 188.955 237.623C186.232 237.228 183.549 236.618 180.921 235.795C180.242 235.581 179.95 236.65 180.628 236.863L180.636 236.871Z" fill="#0B4E4A"/>
<path d="M187.984 239.966C189.413 246.116 190.841 252.266 192.27 258.415C192.941 261.304 193.525 264.225 194.346 267.074C195.064 269.567 196.106 272.076 197.976 273.928C199.902 275.835 202.609 277.015 205.324 276.429C205.616 276.366 205.782 276.025 205.711 275.748C203.304 266.282 201.189 256.745 199.373 247.145C198.86 244.422 198.363 241.691 197.897 238.953C197.779 238.249 196.713 238.549 196.832 239.246C198.481 248.87 200.423 258.447 202.664 267.952C203.304 270.651 203.959 273.342 204.645 276.033C204.772 275.804 204.906 275.582 205.032 275.353C202.735 275.843 200.439 274.767 198.813 273.184C196.99 271.403 196.027 268.95 195.348 266.544C194.582 263.821 194.022 261.043 193.383 258.289C192.704 255.36 192.025 252.44 191.347 249.511C190.581 246.227 189.823 242.942 189.058 239.657C188.9 238.961 187.834 239.254 187.992 239.95L187.984 239.966Z" fill="#0B4E4A"/>
<path d="M203.84 273.604C205.908 282.159 208.26 290.652 210.888 299.057C211.638 301.455 212.42 303.854 213.217 306.236C213.438 306.909 214.511 306.624 214.282 305.943C211.488 297.593 208.971 289.148 206.745 280.632C206.106 278.194 205.498 275.756 204.906 273.311C204.74 272.622 203.675 272.915 203.84 273.604Z" fill="#0B4E4A"/>
<path d="M196.935 273.421C196.524 280.347 196.279 287.272 196.193 294.205C196.106 301.107 196.177 308.001 196.414 314.902C196.643 321.836 197.037 328.753 197.59 335.671C198.142 342.549 198.852 349.411 199.721 356.257C200.589 363.119 201.615 369.957 202.799 376.764C202.949 377.611 203.099 378.465 203.249 379.312C203.375 380.009 204.44 379.716 204.314 379.019C201.867 365.422 200.06 351.706 198.884 337.942C197.716 324.194 197.171 310.391 197.274 296.596C197.329 288.871 197.59 281.146 198.039 273.429C198.079 272.717 196.974 272.717 196.935 273.429V273.421Z" fill="#0B4E4A"/>
<path d="M239.736 316.256C242.443 314.736 245.142 313.209 247.849 311.689C248.473 311.341 247.912 310.383 247.289 310.731C244.582 312.251 241.882 313.779 239.175 315.298C238.552 315.646 239.112 316.604 239.736 316.256Z" fill="#0B4E4A"/>
<path d="M242.096 318.773C244.542 317.72 246.997 316.66 249.444 315.607C249.72 315.488 249.775 315.085 249.641 314.847C249.475 314.562 249.159 314.53 248.883 314.649C246.436 315.702 243.982 316.762 241.535 317.815C241.259 317.934 241.204 318.337 241.338 318.575C241.504 318.86 241.819 318.892 242.096 318.773Z" fill="#0B4E4A"/>
<path d="M193.462 331.302H203.114C203.825 331.302 203.825 330.194 203.114 330.194H193.462C192.751 330.194 192.751 331.302 193.462 331.302Z" fill="#0B4E4A"/>
<path d="M198.837 334.388C201.449 333.724 204.132 333.431 206.824 333.518C207.534 333.542 207.534 332.434 206.824 332.41C204.038 332.323 201.244 332.631 198.537 333.32C197.85 333.494 198.142 334.563 198.829 334.388H198.837Z" fill="#0B4E4A"/>
<path d="M19.7156 108.985C23.725 107.656 27.7423 106.318 31.7517 104.989C32.4225 104.767 32.1384 103.698 31.4596 103.92C27.4502 105.25 23.4329 106.587 19.4235 107.917C18.7527 108.139 19.0368 109.207 19.7156 108.985Z" fill="#32485E"/>
<path d="M51.7198 106.841C56.1791 106.12 60.6384 105.4 65.0977 104.68C65.8001 104.569 65.5002 103.501 64.8056 103.611C60.3464 104.332 55.8871 105.052 51.4278 105.772C50.7254 105.883 51.0253 106.951 51.7198 106.841Z" fill="#32485E"/>
<path d="M39.6205 187.183C44.1509 189.399 49.4941 189.494 54.1033 187.452C54.7505 187.167 54.1901 186.209 53.543 186.494C49.3283 188.362 44.3166 188.251 40.173 186.225C39.5337 185.917 38.9733 186.866 39.6126 187.183H39.6205Z" fill="#32485E"/>
<path d="M55.4846 98.2216C56.7237 97.9683 57.9628 97.723 59.1941 97.4697C59.4861 97.4143 59.6518 97.066 59.5808 96.789C59.494 96.4804 59.194 96.3458 58.902 96.4012C57.6629 96.6545 56.4238 96.8998 55.1925 97.1531C54.9005 97.2085 54.7348 97.5568 54.8058 97.8338C54.8926 98.1424 55.1925 98.277 55.4846 98.2216Z" fill="#32485E"/>
<path d="M21.2704 97.2797C22.0123 97.0344 22.7542 96.7811 23.4961 96.5358C23.7724 96.4408 23.9776 96.1479 23.8828 95.8551C23.796 95.586 23.4961 95.3723 23.2041 95.4673C22.4622 95.7126 21.7203 95.9659 20.9784 96.2113C20.7022 96.3062 20.497 96.5991 20.5917 96.8919C20.6785 97.161 20.9784 97.3747 21.2704 97.2797Z" fill="#32485E"/>
<path opacity="0.3" d="M92.1454 247.651C93.203 252.788 93.7554 258.019 93.7633 263.267C93.7712 267.723 93.4003 272.646 96.4389 276.295C97.828 277.949 99.8248 279.12 102.027 279.073C102.343 279.073 102.556 278.827 102.579 278.519C103.203 270.825 103.826 263.132 104.45 255.431C104.631 253.231 104.805 251.031 104.987 248.838C105.042 248.126 103.937 248.134 103.882 248.838C103.258 256.532 102.635 264.225 102.011 271.926C101.83 274.126 101.656 276.326 101.474 278.519C101.656 278.337 101.845 278.147 102.027 277.965C100.172 278.004 98.5462 277.039 97.3544 275.669C95.989 274.102 95.3261 272.108 95.0498 270.074C94.742 267.762 94.8762 265.42 94.8604 263.093C94.8446 260.623 94.7183 258.162 94.4737 255.708C94.1974 252.907 93.7712 250.121 93.1951 247.366C93.053 246.67 91.9875 246.963 92.1296 247.659L92.1454 247.651Z" fill="black"/>
<path opacity="0.3" d="M89.5882 281.178C96.5652 279.231 103.795 278.313 111.032 278.455C111.743 278.471 111.743 277.363 111.032 277.347C103.7 277.205 96.36 278.139 89.2961 280.109C88.6095 280.299 88.9015 281.368 89.5882 281.178Z" fill="black"/>
<path opacity="0.3" d="M138.159 250.508C141.608 255.241 145.515 259.61 149.848 263.536C150.376 264.011 151.158 263.235 150.629 262.752C146.367 258.89 142.5 254.6 139.114 249.946C138.695 249.377 137.74 249.931 138.159 250.508Z" fill="black"/>
<path opacity="0.3" d="M148.601 247.406C149.54 258.162 150.479 268.997 149.642 279.793C149.216 285.214 148.119 290.462 147.022 295.773C146.501 298.305 146.043 300.862 145.846 303.442C145.633 306.117 145.72 308.808 145.941 311.483C146.383 316.881 147.314 322.223 147.511 327.637C147.717 333.201 147.338 338.765 146.698 344.29C145.42 355.37 143.455 366.388 141.742 377.405C140.037 388.406 138.332 399.416 136.62 410.417C136.407 411.794 136.194 413.171 135.98 414.541C135.87 415.237 136.935 415.538 137.046 414.833C138.759 403.777 140.479 392.712 142.192 381.655C143.905 370.622 145.767 359.605 147.259 348.54C147.993 343.134 148.561 337.705 148.648 332.251C148.743 326.727 148.119 321.297 147.48 315.821C146.848 310.415 146.533 305.057 147.417 299.651C148.277 294.395 149.674 289.259 150.329 283.964C151.671 273.16 150.968 262.246 150.061 251.442C149.95 250.097 149.832 248.743 149.713 247.398C149.65 246.693 148.545 246.686 148.608 247.398L148.601 247.406Z" fill="black"/>
<path opacity="0.3" d="M119.832 411.391C126.186 415.483 133.849 417.461 141.379 417.018C143.518 416.891 145.641 416.575 147.717 416.06C148.403 415.894 148.111 414.826 147.425 414.992C140.29 416.741 132.666 416.1 125.878 413.314C123.96 412.53 122.129 411.557 120.385 410.433C119.785 410.045 119.232 411.003 119.824 411.391H119.832Z" fill="black"/>
<path opacity="0.3" d="M94.7577 279.326C89.1619 284.937 86.7468 292.797 86.2338 300.553C85.6339 309.718 87.7965 318.749 89.5486 327.677C90.4878 332.449 91.2929 337.246 91.6007 342.105C91.8927 346.688 91.8296 351.294 91.6007 355.877C91.1429 365.185 89.9985 374.445 89.6512 383.752C89.3119 392.775 89.7381 401.956 92.4136 410.639C92.7451 411.707 93.1082 412.76 93.4949 413.805C93.7396 414.469 94.813 414.177 94.5604 413.512C91.3955 405.075 90.5352 396.068 90.6615 387.116C90.7957 377.935 91.8769 368.802 92.4847 359.652C92.7846 355.093 92.974 350.527 92.8635 345.96C92.753 341.33 92.2716 336.731 91.4981 332.172C89.9196 322.928 87.315 313.755 87.2282 304.321C87.1572 296.612 88.7515 288.412 93.6291 282.246C94.221 281.502 94.8603 280.79 95.5312 280.117C96.0363 279.611 95.2549 278.827 94.7498 279.334L94.7577 279.326Z" fill="black"/>
<path opacity="0.3" d="M71.5853 413.567C79.1069 418.087 88.3175 419.511 96.8809 417.699C99.296 417.184 101.64 416.409 103.889 415.38C104.537 415.087 103.976 414.129 103.329 414.422C95.6339 417.92 86.6522 418.261 78.6491 415.601C76.3761 414.849 74.1899 413.836 72.1378 412.602C71.5301 412.238 70.9697 413.195 71.5774 413.559L71.5853 413.567Z" fill="black"/>
<path opacity="0.3" d="M70.9854 238.217C69.3675 244.01 65.2318 248.949 59.928 251.719C58.4205 252.503 56.8341 253.097 55.1846 253.492C54.4979 253.659 54.7899 254.727 55.4766 254.561C61.5696 253.081 66.9129 248.926 69.991 243.464C70.8749 241.905 71.5616 240.235 72.043 238.51C72.2324 237.821 71.167 237.528 70.9775 238.217H70.9854Z" fill="black"/>
<path d="M210.005 68.6285C210.557 75.1898 211.473 82.6296 217.226 86.7769C218.765 87.8849 220.486 88.7318 222.041 89.8161C223.367 90.7422 224.527 91.8977 225.442 93.2353C227.21 95.8313 228.071 98.9418 228.457 102.036C228.915 105.717 228.773 109.445 228.52 113.141C228.473 113.853 229.578 113.845 229.625 113.141C229.846 109.848 229.981 106.54 229.688 103.247C229.412 100.082 228.749 96.8998 227.242 94.0822C226.516 92.7208 225.584 91.4545 224.472 90.386C223.153 89.1117 221.583 88.1857 220.012 87.2518C218.442 86.3178 216.926 85.3285 215.711 83.9513C214.645 82.7325 213.825 81.292 213.225 79.7961C211.812 76.2582 211.417 72.4038 211.102 68.6364C211.038 67.932 209.941 67.9241 209.997 68.6364L210.005 68.6285Z" fill="#351C08"/>
<path d="M216.295 93.7814C218.102 96.3458 218.15 99.5829 219.278 102.424C220.249 104.87 222.009 107.213 224.779 107.553C225.482 107.64 225.474 106.532 224.779 106.445C222.285 106.144 220.778 103.556 220.075 101.387C219.184 98.641 218.955 95.6414 217.25 93.2195C216.839 92.6417 215.884 93.1957 216.295 93.7814Z" fill="#351C08"/>
<path d="M218.505 75.6884C222.12 78.3002 224.614 82.2893 225.442 86.6661C225.577 87.3626 226.642 87.0697 226.508 86.3732C225.616 81.7036 222.901 77.5009 219.057 74.7307C218.481 74.3112 217.929 75.2768 218.497 75.6884H218.505Z" fill="#351C08"/>
<path d="M195.719 56.5111C193.659 59.2812 195.395 63.009 197.463 65.2014C199.665 67.5283 202.862 69.412 203.469 72.8074C203.722 74.24 203.438 75.91 202.175 76.7885C201.591 77.1922 202.144 78.1499 202.735 77.7462C205.237 76.005 205.016 72.3959 203.604 70.0215C201.788 66.9822 198.252 65.3835 196.642 62.1938C195.829 60.5871 195.537 58.6005 196.674 57.073C197.1 56.5032 196.137 55.9491 195.719 56.5111Z" fill="#351C08"/>
<path d="M189.381 49.926C187.984 53.3531 188.908 57.5321 191.575 60.0885C192.088 60.5792 192.87 59.7957 192.357 59.3049C189.942 56.9939 189.192 53.3056 190.447 50.2189C190.715 49.5619 189.65 49.2691 189.381 49.926Z" fill="#351C08"/>
<path d="M200.502 52.2451C200.289 55.7117 202.08 59.1467 205.016 60.975C205.624 61.3549 206.177 60.3972 205.577 60.0173C202.956 58.3869 201.417 55.3239 201.607 52.2451C201.654 51.5327 200.549 51.5327 200.502 52.2451Z" fill="#351C08"/>
<path d="M209.515 57.9278C211.749 58.9646 213.73 60.4526 215.34 62.3204C215.806 62.8586 216.587 62.0751 216.121 61.5369C214.456 59.6136 212.38 58.0465 210.076 56.978C209.807 56.8514 209.484 56.8988 209.318 57.1759C209.176 57.4133 209.247 57.809 209.515 57.9357V57.9278Z" fill="#351C08"/>
<path d="M212.143 99.5513C210.399 103.414 212.877 108.503 217.084 109.334C217.779 109.468 218.079 108.4 217.376 108.265C213.935 107.593 211.622 103.374 213.098 100.113C213.39 99.4721 212.435 98.9023 212.143 99.5513Z" fill="#351C08"/>
<path d="M192.317 44.2749C197.842 46.0557 203.391 47.9236 208.544 50.6384C213.525 53.266 218.157 56.7564 221.251 61.5448C224.132 66.0087 225.561 71.2324 228.347 75.7596C229.649 77.8808 231.283 79.8199 233.398 81.1575C236.105 82.8829 239.278 83.239 242.388 83.6348C244.013 83.8405 245.647 84.0859 247.21 84.6004C248.544 85.0436 249.791 85.7005 250.935 86.5157C253.185 88.1224 255.008 90.4177 256.026 92.9979C256.278 93.639 256.484 94.3038 256.641 94.9765C256.807 95.673 257.873 95.3723 257.707 94.6837C256.357 89.0089 251.732 84.4579 246.081 83.1361C242.83 82.3763 239.396 82.4634 236.223 81.3237C233.769 80.4372 231.756 78.7039 230.233 76.5986C227.108 72.2851 225.663 67.0218 223.067 62.4075C220.241 57.4054 215.884 53.5747 210.967 50.7096C205.877 47.7416 200.289 45.7233 194.717 43.8871C194.014 43.6576 193.312 43.4281 192.609 43.1985C191.931 42.9769 191.639 44.0454 192.317 44.267V44.2749Z" fill="#663B14"/>
<path d="M217.534 113.806C215.758 138.302 212.491 166.763 219.065 190.42C221.33 189.834 223.674 189.549 226.011 189.581C222.814 166.027 222.569 142.069 225.292 118.459C225.371 117.763 225.442 117.003 225.087 116.402C224.787 115.895 224.235 115.594 223.706 115.349C221.717 114.423 219.562 113.845 217.368 113.671L217.542 113.813L217.534 113.806Z" fill="#0B4E4A"/>
<path d="M220.509 189.241C227.045 187.745 233.58 186.241 240.115 184.745C243.193 191.354 252.774 199.261 259.562 201.88C261.511 202.632 268.038 203.994 269.696 205.268C272.466 207.389 278.772 243.472 288.693 257.719C290.556 260.394 292.6 263.489 291.826 266.654C291.234 269.076 289.135 270.786 287.13 272.25C274.834 281.202 260.935 287.937 246.294 292.029C243.792 292.725 241.117 293.351 238.631 292.607C233.919 291.198 231.914 285.753 230.596 281.004C222.451 251.664 215.34 222.039 209.271 192.201C212.554 190.768 216.105 189.937 219.681 189.763L220.509 189.249V189.241Z" fill="#0B4E4A"/>
<path d="M212.751 192.905C214.985 199.482 217.463 205.972 220.052 212.415C222.64 218.865 225.332 225.276 227.992 231.703C230.644 238.122 233.264 244.549 235.695 251.047C238.126 257.529 240.383 264.09 242.301 270.738C243.264 274.055 244.282 277.426 244.874 280.837C245.395 283.821 245.213 287.32 242.695 289.393C242.174 289.821 241.575 290.121 240.927 290.296C240.241 290.478 240.533 291.546 241.22 291.364C244.013 290.612 245.742 287.858 246.121 285.111C246.61 281.566 245.403 277.925 244.503 274.537C242.688 267.723 240.501 261.019 238.102 254.394C235.687 247.73 233.059 241.145 230.367 234.584C227.684 228.039 224.937 221.525 222.27 214.971C219.602 208.394 217.013 201.785 214.669 195.09C214.377 194.266 214.093 193.435 213.817 192.604C213.588 191.932 212.522 192.224 212.751 192.897V192.905Z" fill="#132330"/>
<path d="M219.996 191.94C222.041 191.227 224.101 190.57 226.176 189.977C226.855 189.779 226.571 188.71 225.884 188.908C223.808 189.502 221.741 190.159 219.704 190.871C219.041 191.109 219.326 192.177 219.996 191.94Z" fill="#132330"/>
<path d="M269.743 248.181L259.68 244.525L252.585 252.558L251.085 239.76L241.922 232.764L251.054 228.505L252.482 216.151L259.633 226.321L269.68 225.68L264.96 236.214L269.743 248.181Z" fill="#01A299"/>
<path d="M259.293 218.185C257.052 229.234 255.166 240.362 253.642 251.537C253.216 254.648 252.822 257.766 252.458 260.885C252.372 261.589 253.477 261.581 253.563 260.885C254.874 249.796 256.539 238.747 258.559 227.762C259.128 224.659 259.727 221.564 260.359 218.478C260.501 217.781 259.435 217.48 259.293 218.185Z" fill="#132330"/>
<path d="M263.366 222.419C261.811 229.74 260.974 237.22 260.88 244.699C260.856 246.82 260.888 248.941 260.982 251.062C261.014 251.775 262.119 251.775 262.087 251.062C261.764 243.654 262.15 236.214 263.295 228.877C263.618 226.812 263.997 224.754 264.431 222.712C264.581 222.015 263.516 221.723 263.366 222.419Z" fill="#132330"/>
<path d="M248.039 288.974C258.125 285.016 267.92 280.331 277.32 274.941C279.948 273.437 282.537 271.878 285.102 270.263C285.702 269.884 285.149 268.926 284.542 269.306C275.457 275.02 265.955 280.07 256.144 284.407C253.366 285.634 250.564 286.797 247.747 287.905C247.091 288.159 247.376 289.235 248.039 288.974Z" fill="#132330"/>
</g>
<defs>
<linearGradient id="paint0_linear_223_144" x1="83.8582" y1="250.508" x2="83.8582" y2="61.6793" gradientUnits="userSpaceOnUse">
<stop stopColor="#01A299"/>
<stop offset="1" stopColor="#0B4E4A"/>
</linearGradient>
<linearGradient id="paint1_linear_223_144" x1="121.482" y1="151.915" x2="121.482" y2="74.7386" gradientUnits="userSpaceOnUse">
<stop stopColor="#01A299"/>
<stop offset="1" stop-color="#0B4E4A"/>
</linearGradient>
<clipPath id="clip0_223_144">
<rect width="292" height="461" fill="white"/>
</clipPath>
</defs>
</svg>
