<svg width="206" height="491" viewBox="0 0 206 491" fill="none" xmlns="http://www.w3.org/2000/svg">
<g clip-path="url(#clip0_65_1033)" filter="url(#filter0_d_65_1033)">
<path d="M138.489 210.353C123.599 204.218 107.416 201.23 91.3208 201.637C90.0913 201.669 88.8139 201.733 87.7281 202.316C85.1414 203.706 84.814 207.213 84.806 210.145C84.7901 228.206 84.9976 246.268 85.4288 264.329C85.4687 265.951 85.5246 267.636 86.2272 269.098C87.4247 271.598 90.1871 272.876 92.7739 273.883C105.237 278.764 118.394 281.863 131.727 283.077C133.371 283.229 135.144 283.325 136.565 282.47C137.858 281.695 138.617 280.281 139.192 278.883C142.026 271.99 141.802 264.281 141.539 256.828C140.996 241.371 140.445 225.914 139.902 210.456L138.489 210.353Z" fill="#01A299"/>
<path d="M138.218 211.806C139.87 225.059 141.531 238.311 143.184 251.564C143.862 256.98 144.541 262.42 144.533 267.876C144.533 271.239 144.198 274.785 142.297 277.565C140.397 280.345 136.461 281.975 133.531 280.313C130.466 278.58 129.955 274.458 129.795 270.935C129.116 256.221 128.438 241.507 127.759 226.792C127.599 223.301 127.464 219.659 128.869 216.456C130.274 213.252 133.715 210.648 137.124 211.415L138.218 211.806Z" fill="#0B4E4A"/>
<path d="M88.1273 338.627C87.1533 333.076 80.1435 361.098 81.2453 413.173C81.3092 416.257 80.4709 419.356 79.1456 422.136C78.2673 423.973 76.9979 425.611 76.2395 427.504C75.473 429.389 75.2974 431.714 76.5349 433.336C78.7623 436.259 83.2891 434.909 86.9617 434.941C93.3407 435.005 99.4962 440.15 105.532 438.089C104.877 433.759 100.47 431.043 98.6579 427.057C97.1889 423.838 97.5482 420.115 97.9953 416.6C99.1769 407.358 112.749 323.122 114.785 314.032L88.1353 338.619L88.1273 338.627Z" fill="#FED5B7"/>
<path d="M99.8797 427.36C98.3947 432.553 95.7281 434.031 90.4029 434.949C86.1396 435.684 78.8903 433.423 74.7387 432.233C74.0441 434.206 75.5371 441.699 75.5371 441.699C75.5371 441.699 86.0118 444.112 87.2413 443.672C88.5986 443.185 91.2332 439.582 91.7841 440.245C95.6003 444.855 101.844 446.604 107.76 447.499C114.274 448.473 120.893 448.705 127.456 448.186C128.102 448.138 128.693 447.746 128.949 447.147C129.324 446.269 128.693 445.637 128.11 445.142C124.582 442.107 120.358 440.158 115.975 438.496C109.788 436.155 104.279 432.313 99.8797 427.368V427.36Z" fill="#685434"/>
<path d="M70.7706 325.551C67.7048 340.073 37.3345 413.94 29.2789 449.224C24.5924 449.552 19.834 448.793 15.4829 447.019C14.7244 446.708 13.9021 446.3 13.5907 445.542C13.3432 444.942 13.4709 444.264 13.6067 443.632C17.6385 424.908 33.4065 340.944 51.5696 315.861L70.7706 325.551Z" fill="#FED5B7"/>
<path d="M32.1131 443.497C26.9317 439.846 20.4329 438.121 14.1257 438.728C13.3592 441.955 12.5848 445.182 11.8184 448.409C11.1717 451.133 10.517 453.913 10.7645 456.701C11.1477 461.087 13.7185 464.985 16.6326 468.276C17.6066 469.378 18.7084 470.481 20.1295 470.864C22.0137 471.36 23.9936 470.449 25.5824 469.323C27.9057 467.685 31.0673 461.246 30.9315 458.411C30.4286 447.786 32.1052 443.505 32.1052 443.505L32.1131 443.497Z" fill="#685434"/>
<path d="M125.994 203.882C130.002 213.907 134.785 233.103 135.096 243.895C135.352 252.538 136.461 302.289 129.308 336.215C129.052 337.413 117.739 340.976 116.965 341.918C116.166 342.901 96.1112 344.587 89.0455 341.934C88.2072 341.615 87.345 341.184 86.8819 340.417C86.4029 339.618 86.4428 338.619 86.4987 337.685C88.0795 311.515 84.5906 332.756 86.1714 306.587C79.1376 323.346 79.0658 322.531 76.519 332.237C76.024 334.106 75.5609 336.047 74.4192 337.605C73.4851 338.867 72.1678 339.794 70.7706 340.513C61.8128 345.13 36.8236 334.433 33.4065 324.951C38.7077 265.751 56.7192 242.537 63.4016 217.366C63.7289 216.128 64.0722 214.866 64.8227 213.835C65.8845 212.39 67.2977 198.602 68.9344 197.883C78.3073 193.745 87.2971 193.122 97.4764 191.964C107.656 190.805 119.416 188.257 126.601 195.558L126.002 203.882H125.994Z" fill="url(#paint0_linear_65_1033)"/>
<path d="M123.911 445.062C116.813 444.919 109.731 444.08 102.794 442.554C100.838 442.123 98.8895 441.635 96.9574 441.1C96.2628 440.908 95.9674 441.987 96.662 442.179C103.568 444.096 110.666 445.342 117.819 445.885C119.847 446.037 121.883 446.133 123.911 446.181C124.629 446.197 124.629 445.078 123.911 445.062Z" fill="#C2B38C"/>
<path d="M86.5706 441.22C83.2573 440.669 79.952 440.118 76.6387 439.558C75.9361 439.439 75.6328 440.517 76.3433 440.637C79.6566 441.188 82.9619 441.739 86.2751 442.298C86.9777 442.418 87.2811 441.34 86.5706 441.22Z" fill="#C2B38C"/>
<path d="M28.1292 459.154C26.9715 461.526 25.6462 464.274 23.0036 465.256C21.7821 465.712 20.4807 465.704 19.355 465.009C18.2213 464.314 17.4309 463.164 16.6565 462.109C15.5547 460.615 14.453 459.122 13.3512 457.636C12.9281 457.061 11.962 457.62 12.3852 458.203C13.471 459.673 14.5488 461.135 15.6346 462.604C16.5048 463.787 17.375 465.025 18.6125 465.864C21.2072 467.613 24.4806 466.351 26.3807 464.194C27.5464 462.876 28.3288 461.294 29.0952 459.729C29.4066 459.082 28.4485 458.514 28.1292 459.162V459.154Z" fill="#C2B38C"/>
<path d="M88.2391 418.022C89.5404 419.444 89.4845 421.865 88.1433 423.239C87.6403 423.75 88.4307 424.541 88.9337 424.029C90.714 422.208 90.746 419.109 89.0295 417.231C88.5425 416.704 87.7521 417.495 88.2391 418.022Z" fill="#89563D"/>
<path d="M20.4886 424.9C19.0276 425.547 18.0456 427.033 17.9179 428.607C17.8939 428.902 18.1893 429.182 18.4767 429.166C18.8041 429.15 19.0116 428.918 19.0356 428.607C19.0675 428.375 19.0835 428.295 19.0995 428.223C19.1394 428.063 19.1873 427.904 19.2432 427.752C19.331 427.544 19.3709 427.464 19.4108 427.392C19.4907 427.249 19.5785 427.105 19.6743 426.969C19.81 426.793 19.8579 426.737 19.9138 426.681C20.0256 426.562 20.1453 426.45 20.2731 426.338C20.4647 426.194 20.5286 426.146 20.6004 426.106C20.7441 426.018 20.9038 425.938 21.0555 425.867C21.3269 425.747 21.4068 425.339 21.2551 425.1C21.0794 424.82 20.7761 424.772 20.4886 424.9Z" fill="#89563D"/>
<path d="M77.2137 128.122C66.0923 141.75 56.0327 156.232 47.1308 171.41C46.5719 172.361 46.013 173.351 45.8853 174.446C45.7416 175.716 46.2126 176.962 46.6757 178.152C51.6336 190.957 56.5836 203.77 61.5415 216.575C69.3976 218.197 76.8145 221.888 82.8422 227.184C80.519 229.141 68.8626 224.923 68.8626 224.923C66.5873 225.338 63.3219 233.239 60.7192 239.19C47.2665 225.818 36.201 210.041 28.2172 192.826C25.7981 187.61 23.6185 182.042 23.9219 176.299C24.1534 171.849 25.8699 167.624 27.6663 163.55C37.1111 142.117 49.5818 122.019 64.5753 104.037L77.2217 128.122H77.2137Z" fill="#FED5B7"/>
<path d="M67.633 101.657C69.9962 99.7876 84.6704 95.5458 87.5845 95.5698C95.3607 95.6257 102.969 97.6547 110.482 99.6757L108.414 98.9728C117.021 98.5015 125.412 102.36 132.07 107.84C138.729 113.32 143.886 120.357 148.956 127.331C157.02 138.443 165.043 149.666 171.319 161.888C173.314 165.778 175.151 169.852 175.542 174.206C175.933 178.559 174.648 183.272 171.287 186.06C164.844 191.404 155.048 187.362 148.437 182.218C141.204 176.586 140.341 172.408 135.256 164.78C133.132 180.101 128.35 197.332 127.2 197.483C94.4985 201.765 84.1036 205.304 66.5632 200.096C67.7528 182.969 60.9267 171.913 58.284 154.882C54.8749 159.611 49.8212 167.927 46.971 173.016C46.3562 174.102 19.0357 171.498 19.5068 169.7C24.9357 141.574 43.0829 116.275 67.633 101.649V101.657Z" fill="#92278F"/>
<mask id="mask0_65_1033" style="mask-type:luminance" maskUnits="userSpaceOnUse" x="19" y="95" width="157" height="108">
<path d="M67.633 101.657C69.9962 99.7876 84.6704 95.5458 87.5845 95.5698C95.3607 95.6257 102.969 97.6547 110.482 99.6757L108.414 98.9728C117.021 98.5015 125.412 102.36 132.07 107.84C138.729 113.32 143.886 120.357 148.956 127.331C157.02 138.443 165.043 149.666 171.319 161.888C173.314 165.778 175.151 169.852 175.542 174.206C175.933 178.559 174.648 183.272 171.287 186.06C164.844 191.404 155.048 187.362 148.437 182.218C141.204 176.586 140.341 172.408 135.256 164.78C133.132 180.101 128.358 197.34 127.2 197.483C98.0672 201.174 84.1036 205.304 66.5632 200.096C67.7528 182.969 60.9267 171.913 58.284 154.882C54.8749 159.611 49.8212 167.927 46.971 173.016C46.3562 174.102 19.0357 171.498 19.5068 169.7C24.9357 141.574 43.0829 116.275 67.633 101.649V101.657Z" fill="white"/>
</mask>
<g mask="url(#mask0_65_1033)">
<g opacity="0.23">
<path d="M156.094 104.748C118.713 114.997 79.0579 109.605 40.6878 104.149C40.105 107.209 39.5142 110.268 38.9314 113.328C57.0945 118.704 76.4552 117.649 95.3688 116.555C118.777 115.197 142.194 113.839 165.602 112.481L156.094 104.748Z" fill="white"/>
</g>
<g opacity="0.23">
<path d="M178.105 127.003C126.186 142.796 70.6988 140.176 16.4968 137.404C16.6964 140.839 16.904 144.282 17.1036 147.717C17.1675 148.787 17.2633 149.954 17.9898 150.752C18.8441 151.695 20.2572 151.799 21.5266 151.839C77.2295 153.413 132.573 140.831 188.292 141.798L178.105 127.011V127.003Z" fill="white"/>
</g>
<g opacity="0.23">
<path d="M198.408 150.169C186.799 152.294 175.191 154.419 163.59 156.544C148.876 159.236 134.146 161.936 119.272 163.494C99.3367 165.587 79.2494 165.619 59.2021 165.65C42.2925 165.682 25.0315 165.65 9.00806 160.25C10.9721 166.833 13.5668 173.231 16.7364 179.318C17.5028 180.788 18.373 182.314 19.8181 183.121C21.1913 183.88 22.844 183.864 24.4088 183.824C84.4469 182.234 144.341 175.388 203.19 163.39C204.643 163.094 206.902 164.508 205.633 165.267L198.415 150.161L198.408 150.169Z" fill="white"/>
</g>
<g opacity="0.23">
<path d="M148.349 195.814C191.054 186.46 1.61496 194.224 40.6557 199.792C41.6856 205.783 42.7235 211.774 43.7534 217.766C44.1127 219.843 44.5518 222.071 46.1086 223.493C47.9529 225.179 50.7392 225.155 53.2381 225.027C88.8458 223.174 124.326 218.828 159.327 212.03L148.349 195.814Z" fill="white"/>
</g>
</g>
<path opacity="0.3" d="M86.6343 309.335C88.4626 303.743 90.0035 298.063 91.5045 292.376C93.1651 286.049 94.7539 279.706 96.3746 273.372C97.9075 267.396 99.4643 261.429 101.229 255.518C101.628 254.184 102.035 252.858 102.458 251.54C102.658 250.917 102.817 250.238 103.145 249.671C103.6 248.888 104.302 248.952 105.109 248.904C105.851 248.864 106.538 248.648 107.057 248.097C107.536 247.602 107.823 246.947 108.015 246.291C108.246 245.517 108.374 244.702 108.526 243.903C108.71 242.928 108.893 241.954 109.069 240.971C110.458 233.255 111.544 225.49 112.334 217.694C112.438 216.703 112.526 215.721 112.622 214.73C112.685 214.011 111.568 214.019 111.504 214.73C110.785 222.559 109.771 230.355 108.446 238.112C108.119 240.037 107.767 241.962 107.4 243.879C107.177 245.045 107.049 247.186 105.716 247.681C104.973 247.953 104.143 247.697 103.392 248.001C102.706 248.273 102.267 248.872 101.979 249.527C101.444 250.757 101.109 252.099 100.71 253.385C98.9294 259.184 97.3805 265.048 95.8556 270.919C94.2189 277.238 92.6461 283.573 91.0015 289.883C89.4925 295.683 87.9437 301.474 86.1553 307.186C85.9637 307.809 85.7641 308.424 85.5645 309.039C85.341 309.726 86.4188 310.021 86.6423 309.335H86.6343Z" fill="black"/>
<path opacity="0.3" d="M67.4573 224.907C64.5752 231.433 61.693 237.968 58.8029 244.494C58.5155 245.149 59.4735 245.716 59.7689 245.061L68.4234 225.474C68.7108 224.819 67.7527 224.252 67.4573 224.907Z" fill="black"/>
<path opacity="0.3" d="M104.191 224.739C104.295 232.472 103.68 240.204 102.339 247.817C102.211 248.52 103.289 248.824 103.416 248.113C104.478 242.106 105.101 236.027 105.277 229.932C105.325 228.198 105.333 226.465 105.309 224.739C105.301 224.02 104.183 224.02 104.191 224.739Z" fill="black"/>
<path d="M26.4447 175.859C24.9756 177.185 25.3589 179.973 27.1712 180.812C27.4426 180.94 27.77 180.892 27.9376 180.612C28.0813 180.373 28.0095 179.973 27.738 179.846C27.6502 179.806 27.5704 179.766 27.4905 179.71C27.275 179.542 27.2031 179.47 27.1472 179.406C26.9876 179.182 26.9396 179.103 26.8917 179.015C26.756 178.687 26.7161 178.503 26.6762 178.32C26.6602 178.064 26.6602 177.968 26.6602 177.872C26.7001 177.601 26.7161 177.505 26.7401 177.417C26.8359 177.161 26.8758 177.074 26.9317 176.994C27.0913 176.786 27.1632 176.706 27.235 176.642C27.4586 176.443 27.4426 176.059 27.235 175.851C27.0115 175.628 26.6682 175.652 26.4447 175.851V175.859Z" fill="#9B643E"/>
<path d="M139.367 138.586C139.719 147.597 136.749 156.224 134.729 164.892C134.154 167.352 133.651 169.836 133.316 172.345C133.276 172.648 133.387 172.944 133.707 173.032C133.97 173.103 134.354 172.944 134.393 172.64C135.607 163.677 138.896 155.138 140.094 146.175C140.429 143.659 140.589 141.127 140.493 138.586C140.469 137.867 139.351 137.867 139.375 138.586H139.367Z" fill="#662D91"/>
<path d="M124.422 158.373C118.498 159.164 112.574 159.955 106.65 160.738C101.077 161.481 95.4645 162.12 89.9717 163.334C86.866 164.013 83.8082 164.892 80.8622 166.082C80.2075 166.345 80.4949 167.432 81.1576 167.16C86.3231 165.083 91.792 163.973 97.2769 163.142C103.009 162.271 108.774 161.576 114.53 160.81C117.827 160.37 121.124 159.931 124.422 159.492C124.725 159.452 124.981 159.26 124.981 158.932C124.981 158.661 124.725 158.333 124.422 158.373Z" fill="#662D91"/>
<path d="M115.28 162.527C108.893 162.759 102.562 163.941 96.5265 166.058C95.8558 166.297 96.1432 167.376 96.8219 167.136C102.762 165.059 108.989 163.869 115.28 163.645C115.999 163.621 115.999 162.503 115.28 162.527Z" fill="#662D91"/>
<path d="M113.739 97.8145C117.604 102.04 116.861 109.581 112.255 112.984C109.596 114.949 106.131 115.508 102.834 115.381C98.3148 115.205 93.7082 113.735 90.4428 110.604C87.1774 107.472 85.5008 102.512 86.9379 98.2219C87.2732 97.2314 87.7842 96.2568 88.6464 95.6657C89.4289 95.1305 90.3949 94.9707 91.337 94.8429C99.3687 93.8124 106.123 94.9308 113.62 98.0063L113.739 97.8225V97.8145Z" fill="#662D91"/>
<path d="M97.4844 78.3792C94.9376 80.5679 90.6902 80.3922 88.335 77.9877C89.1014 81.3667 92.4386 83.9789 95.9036 83.907C93.8278 83.8271 91.752 83.891 89.6922 84.0827C91.5205 87.4458 96.3667 88.7159 99.6001 86.6629C100.119 86.3354 100.526 85.4248 99.9434 85.249L97.4844 78.3792Z" fill="#F59F18"/>
<path d="M140.653 76.5818C149.044 70.9102 151.846 58.3767 146.664 49.6695C143.766 44.7967 138.968 41.3937 134.186 38.3582C129.898 35.6422 125.435 33.07 120.533 31.7919C115.623 30.5138 110.17 30.6336 105.747 33.1099C102.354 35.0111 99.8235 38.1106 97.3804 41.1381C92.7019 46.9375 87.8159 53.2163 87.1772 60.6453C86.4905 68.6176 91.0094 76.3182 97.109 81.5026C98.4024 82.5969 99.8554 83.6514 101.54 83.8351C103.145 84.0109 104.71 83.3798 106.218 82.8126C115.456 79.3537 125.459 77.9478 135.287 78.7386L140.669 76.5818H140.653Z" fill="#F59F18"/>
<path d="M145.339 57.9852C142.976 68.7294 138.968 85.952 131.655 94.1719C126.441 100.035 116.055 89.986 115.376 92.8538C114.697 95.7216 110.626 113.463 96.0472 106.53C88.0474 102.727 96.4543 85.2171 100.087 76.9972C96.8136 78.9303 94.3626 79.2898 92.207 76.1504C90.0593 73.0111 90.7779 68.2661 93.7558 65.9016C96.7338 63.545 101.524 63.9365 104.079 66.7483L113.372 47.5606L145.339 57.9852Z" fill="#FED5B7"/>
<path opacity="0.39" d="M115.376 92.8538L102.65 86.9745L113.516 97.9663L115.376 92.8538Z" fill="#9B643E"/>
<path d="M101.764 72.3081C100.111 71.2217 98.4584 70.1273 96.8058 69.0409C96.207 68.6415 95.6401 69.6081 96.2389 70.0075C97.8916 71.0939 99.5442 72.1883 101.197 73.2747C101.796 73.6741 102.362 72.7075 101.764 72.3081Z" fill="#9B643E"/>
<path d="M99.0572 71.2377C98.0752 71.9487 97.3567 73.0351 97.189 74.2493C97.1651 74.401 97.165 74.5368 97.2449 74.6806C97.3088 74.8005 97.4445 74.9043 97.5802 74.9363C97.8437 75.0002 98.2269 74.8564 98.2668 74.5448C98.2987 74.2892 98.3626 74.0416 98.4425 73.7939C98.4664 73.738 98.4824 73.6741 98.5063 73.6182C98.5941 73.4185 98.658 73.3067 98.7299 73.1948C98.7937 73.091 98.8656 72.9791 98.9375 72.8833C99.0333 72.7635 99.0732 72.7155 99.1131 72.6756C99.2009 72.5797 99.2967 72.4839 99.3925 72.396C99.4404 72.3561 99.4883 72.3161 99.5362 72.2762C99.8556 72.0365 99.9993 71.717 99.8237 71.4454C99.672 71.2137 99.3127 71.062 99.0572 71.2457V71.2377Z" fill="#9B643E"/>
<path d="M111.703 31.4564C112.973 23.1407 107.161 14.3377 99.0172 12.2527C96.7817 11.6776 94.0672 11.7015 92.5583 13.451C91.704 14.4415 91.4166 15.7835 90.9216 16.9897C90.4187 18.196 89.5005 19.4262 88.1992 19.53C87.4886 19.5859 86.802 19.2983 86.1074 19.1466C82.7861 18.4116 79.3531 21.0557 78.427 24.3309C77.5009 27.6061 78.6346 31.1848 80.5826 33.9807C82.7862 37.136 86.4826 39.6683 90.2829 39.0612C91.0254 38.9414 91.7919 38.7097 92.5024 38.9494C93.0613 39.1411 93.4844 39.5964 93.9076 40.0038C95.9275 41.9849 98.6978 43.4068 101.508 43.0872C104.318 42.7677 106.937 40.2754 106.722 37.4556L111.687 31.4484L111.703 31.4564Z" fill="#F59F18"/>
<path d="M142.026 76.2543C138.569 69.8477 137.371 62.2509 138.681 55.0935C136.214 57.466 133.499 59.9663 130.106 60.4057C127.551 60.7332 125.004 59.8385 122.442 59.5829C118.37 59.1835 114.154 60.5255 111.049 63.2015C109.851 64.232 108.813 65.4542 107.48 66.301C106.147 67.1477 104.39 67.5631 103.001 66.8202C101.133 65.8217 100.782 63.3453 100.646 61.2285C100.414 57.5219 100.183 53.7515 101.013 50.1248C101.843 46.5062 103.887 42.9834 107.177 41.2579C109.524 40.0277 112.262 39.812 114.913 39.7002C118.027 39.5724 121.148 39.5644 124.262 39.6603C126.992 39.7481 129.819 39.9558 132.23 41.2579C135.998 43.2949 137.986 47.6006 141.411 50.1807C142.896 51.3071 144.645 52.0899 145.978 53.4C147.311 54.7101 148.133 56.8269 147.215 58.4565L142.034 76.2623L142.026 76.2543Z" fill="#F59F18"/>
<path d="M108.238 31.5602C108.159 28.1173 106.69 24.7862 104.294 22.3179C103.105 21.0957 101.684 20.0812 100.119 19.4022C98.586 18.7312 96.7178 18.2998 95.145 19.0906C93.5722 19.8895 93.1251 21.6948 93.3726 23.3244C93.636 25.0898 94.65 26.7354 95.8715 28.0055C96.5102 28.6765 97.2447 29.2596 98.0431 29.7309C98.8415 30.2102 99.8235 30.6975 100.774 30.4179C102.298 29.9706 102.458 27.8457 101.412 26.8392C99.9831 25.4652 97.6439 26.1442 96.3824 27.3744C95.0731 28.6445 94.4983 30.6096 95.0012 32.375C95.3446 32.2313 95.6799 32.0875 96.0232 31.9437C94.7538 29.4034 92.7418 26.6075 89.708 26.2161C88.231 26.0244 86.4586 26.5596 86.0834 28.1812C85.7241 29.707 86.6662 31.2167 87.6801 32.2632C88.9895 33.6132 90.6501 34.5958 92.4544 35.115C93.149 35.3147 93.4444 34.2363 92.7498 34.0366C91.4245 33.6532 90.1711 32.9981 89.1252 32.0955C88.215 31.3046 87.2091 30.2342 87.1292 28.9641C87.0414 27.5422 88.5424 27.1507 89.692 27.3345C90.8577 27.5182 91.8636 28.1812 92.678 29.004C93.6759 30.0105 94.4264 31.2407 95.0571 32.5028C95.3446 33.078 96.2467 32.6706 96.0791 32.0715C95.7278 30.8493 96.0391 29.5073 96.8375 28.5247C97.604 27.5821 99.049 26.8073 100.255 27.3744C100.734 27.5981 101.029 28.0694 100.973 28.6126C100.901 29.3076 100.334 29.4753 99.7197 29.2996C98.3225 28.8922 97.0291 27.7099 96.1349 26.6075C95.2647 25.5291 94.5302 24.1791 94.4344 22.7732C94.3386 21.3992 94.9374 20.1211 96.3904 19.8335C97.7397 19.5699 99.1848 20.1211 100.358 20.7362C101.572 21.3673 102.666 22.206 103.616 23.1966C105.747 25.4413 107.065 28.4448 107.145 31.5523C107.161 32.2712 108.278 32.2712 108.262 31.5523L108.238 31.5602Z" fill="#B7772F"/>
<path d="M136.238 43.0233C137.946 45.5556 137.196 49.3739 134.593 51.0115C133.986 51.3949 134.545 52.3615 135.16 51.9781C138.25 50.037 139.255 45.5076 137.204 42.4641C136.804 41.873 135.838 42.4322 136.238 43.0313V43.0233Z" fill="#B7772F"/>
<path d="M131.064 50.5163C131.695 51.2432 131.527 52.3216 131.072 53.0965C130.481 54.095 129.387 54.5663 128.27 54.7181C126.96 54.8938 125.595 54.7021 124.31 54.4784C122.929 54.2388 121.563 53.8873 120.238 53.44C117.971 52.6731 115.336 51.3071 112.949 52.4015C110.841 53.3681 110.434 56.164 108.238 56.9468C107.536 57.1944 106.785 57.2903 106.043 57.3941C105.197 57.514 104.35 57.6338 103.504 57.7456L98.4263 58.4566C97.7158 58.5524 98.0191 59.6308 98.7217 59.535C100.326 59.3113 101.923 59.0876 103.528 58.864C105.013 58.6563 106.554 58.5445 108.007 58.185C109.3 57.8575 110.242 57.1305 111.025 56.0681C111.703 55.1415 112.254 54.0151 113.316 53.4639C114.458 52.8648 115.847 53.1444 117.021 53.4959C118.402 53.9033 119.727 54.4864 121.108 54.8858C122.561 55.3092 124.046 55.6048 125.547 55.7885C126.857 55.9483 128.238 55.9962 129.507 55.5968C130.777 55.1974 131.799 54.3586 132.31 53.1125C132.773 51.9701 132.669 50.692 131.854 49.7414C131.383 49.1982 130.593 49.9891 131.064 50.5323V50.5163Z" fill="#B7772F"/>
<path d="M114.721 40.7067C111.967 41.194 108.765 41.7771 106.841 44.0138C105.221 45.8991 104.606 48.8148 106.282 50.8597C106.738 51.4189 107.52 50.6201 107.073 50.0689C105.692 48.3754 106.57 45.7952 107.983 44.4292C109.827 42.6479 112.598 42.2005 115.025 41.7771C115.735 41.6493 115.432 40.5789 114.729 40.6987L114.721 40.7067Z" fill="#B7772F"/>
<path d="M100.893 43.1192C98.7379 44.3174 97.3327 46.658 97.2609 49.1263C97.2369 49.8453 98.3547 49.8453 98.3786 49.1263C98.4345 47.0494 99.64 45.0923 101.46 44.0858C102.091 43.7343 101.524 42.7677 100.893 43.1192Z" fill="#B7772F"/>
<path d="M114.378 70.2232C113.867 71.5892 114.226 72.9871 115.184 73.3466C116.142 73.706 117.332 72.8833 117.843 71.5173C118.354 70.1513 117.995 68.7533 117.037 68.3939C116.078 68.0344 114.889 68.8572 114.378 70.2232Z" fill="black"/>
<path d="M130.577 77.2289C130.066 78.5948 130.425 79.9928 131.383 80.3522C132.342 80.7117 133.531 79.8889 134.042 78.5229C134.553 77.157 134.194 75.759 133.236 75.3996C132.278 75.0401 131.088 75.8629 130.577 77.2289Z" fill="black"/>
<path d="M121.779 84.9774C120.813 82.3014 118.578 80.1845 115.831 79.4097C115.137 79.2179 114.841 80.2884 115.536 80.4881C117.883 81.1511 119.871 82.9724 120.701 85.273C120.805 85.5606 121.085 85.7443 121.388 85.6644C121.659 85.5925 121.883 85.265 121.779 84.9774Z" fill="#9B643E"/>
<path d="M124.446 81.1111C126.378 80.3363 128.014 78.9942 129.132 77.2368C129.324 76.9333 129.132 76.5019 128.797 76.414C127.048 75.9827 125.292 75.5513 123.543 75.1279C122.849 74.9602 122.545 76.0306 123.248 76.2064C124.996 76.6377 126.753 77.0691 128.501 77.4925C128.39 77.2209 128.278 76.9413 128.166 76.6697C127.216 78.1635 125.795 79.3697 124.15 80.0327C123.871 80.1445 123.671 80.4082 123.759 80.7197C123.831 80.9833 124.166 81.223 124.446 81.1111Z" fill="#9B643E"/>
<path d="M131 65.8376C129.731 67.5391 131.831 69.688 133.659 70.7664C135.655 71.9327 137.643 73.0989 139.639 74.2732C138.29 70.3989 135.232 67.1477 131.439 65.574L131 65.8456V65.8376Z" fill="#B78053"/>
<path d="M122.474 63.7048C122.122 65.7179 119.224 65.6779 117.26 65.1108C115.121 64.4877 112.981 63.8646 110.841 63.2415C114.45 61.6199 118.753 61.6119 122.37 63.2175L122.474 63.7048Z" fill="#B78053"/>
<path d="M111.831 31.009C115.879 30.8333 119.959 30.9371 123.966 31.5762C127.799 32.1913 131.807 33.1818 135.144 35.2348C138.218 37.12 140.549 39.9718 142.673 42.8236C144.868 45.7713 147.279 48.7988 148.469 52.3216C149.586 55.6367 149.427 59.7506 146.72 62.2749C146.193 62.7702 146.984 63.553 147.511 63.0658C149.994 60.7412 150.624 57.1145 150.034 53.8793C149.339 50.0529 146.952 46.7858 144.708 43.7183C142.497 40.6987 140.245 37.6313 137.252 35.3386C134.026 32.8703 130.01 31.6161 126.074 30.8253C121.388 29.8827 116.589 29.683 111.831 29.8907C111.113 29.9226 111.113 31.041 111.831 31.009Z" fill="#F59F18"/>
<path d="M113.284 31.9996C113.324 25.8327 111.24 19.4022 107.129 14.745C105.213 12.5802 102.722 10.8388 99.8555 10.2397C97.0851 9.65654 94.0433 10.1039 91.8238 11.9651C89.6123 13.8264 88.4227 16.9977 89.3329 19.8016C89.5644 19.5699 89.7879 19.3462 90.0195 19.1146C86.6743 17.9803 83.2253 19.3782 80.6066 21.5031C79.2813 22.5815 77.94 23.9475 77.1177 25.4572C76.6626 26.288 76.5109 27.1827 76.7344 28.1013C76.958 29.012 77.4849 29.8428 78.0198 30.6096C79.2254 32.3431 80.7263 33.8209 82.4588 35.0271C83.0496 35.4345 83.6085 34.4679 83.0257 34.0605C81.6764 33.1179 80.4629 31.9756 79.4489 30.6735C78.5148 29.4753 77.2374 27.7978 77.9799 26.2241C78.6186 24.8661 79.8322 23.6519 80.9499 22.6693C82.0995 21.6628 83.4328 20.8001 84.8779 20.2889C86.4587 19.7377 88.1193 19.6498 89.7161 20.193C90.1153 20.3288 90.5304 19.8974 90.4027 19.506C89.6762 17.2693 90.4985 14.8329 92.1192 13.2033C93.9794 11.3341 96.7897 10.7989 99.3206 11.2702C104.789 12.3006 108.454 17.445 110.362 22.3258C111.568 25.4093 112.174 28.6925 112.151 31.9996C112.151 32.7185 113.26 32.7185 113.268 31.9996H113.284Z" fill="#F59F18"/>
<path d="M48.4319 171.442C42.963 170.379 37.5021 169.309 32.0332 168.247C29.7738 167.807 27.5224 167.368 25.263 166.929C23.4267 166.569 21.4787 166.218 19.7222 166.865C17.9658 167.512 16.5846 169.565 17.351 171.274L41.6457 173.471C44.2404 173.703 47.2663 173.774 48.9589 171.793L48.424 171.442H48.4319Z" fill="#662D91"/>
<path d="M152.245 169.932C148.565 172.361 147.679 177.106 149.579 180.724C151.479 184.343 155.67 186.835 160.165 187.882C165.937 189.224 173.41 187.61 175.239 182.761C176.205 180.205 175.342 177.401 174.081 174.933C171.079 169.085 165.53 164.021 158.449 161.944L152.245 169.932Z" fill="#662D91"/>
<path d="M157.299 104.812L145.371 95.5139C144.078 94.5074 142.17 94.9068 141.108 96.4086L122.498 122.858C121.444 124.359 121.635 126.396 122.929 127.411L134.857 136.709C136.15 137.716 138.058 137.316 139.12 135.814L157.73 109.365C158.784 107.864 158.592 105.827 157.299 104.812Z" fill="#662D91"/>
<path d="M141.755 100.283C141.268 101.537 141.81 102.935 142.968 103.406C144.126 103.878 145.467 103.231 145.954 101.976C146.441 100.722 145.898 99.3243 144.741 98.853C143.583 98.3817 142.242 99.0287 141.755 100.283Z" fill="#92278F"/>
<path d="M176.596 182.034C172.261 189.559 161.203 189.168 157.523 181.307C157.499 181.251 157.475 181.196 157.443 181.14C154.928 175.668 154.169 169.581 153.443 163.605C152.74 157.838 152.038 152.062 151.335 146.295C151.144 144.697 150.92 143.028 149.986 141.718C149.164 140.567 147.942 139.769 146.92 138.786C142.984 134.952 132.15 118.8 134.082 117.202C135.056 116.395 141.092 122.075 142.098 123.001C139.599 121.388 135.431 116.531 134.242 113.807C133.954 113.136 134.585 112.433 135.28 112.633C138.393 113.551 143.439 117.801 145.659 120.174C142.625 118.248 136.996 113.775 135.423 110.54C135.096 109.861 135.751 109.11 136.469 109.342C140.286 110.588 146.872 114.694 149.307 117.889C146.553 116.291 141.683 112.744 140.19 109.933C139.807 109.206 140.565 108.407 141.316 108.742C146.289 110.979 153.299 115.572 156.684 119.854C158.513 122.171 160.077 124.823 160.469 127.746C160.772 130.023 160.357 132.348 160.668 134.616C160.964 136.749 161.882 138.746 162.792 140.695L177.211 171.634C178.712 174.853 178.552 178.591 176.779 181.667L176.58 182.018L176.596 182.034Z" fill="#FED5B7"/>
<path d="M151.135 119.143C147.83 116.411 144.533 113.679 141.228 110.947C140.677 110.492 139.886 111.275 140.437 111.738C143.742 114.47 147.04 117.202 150.345 119.934C150.896 120.389 151.686 119.606 151.135 119.143Z" fill="#9B643E"/>
<path d="M147.168 121.563C143.814 118.392 140.461 115.221 137.108 112.05C136.589 111.554 135.791 112.345 136.318 112.84L146.377 122.354C146.896 122.85 147.694 122.059 147.168 121.563Z" fill="#9B643E"/>
<path d="M145.914 125.861C142.816 122.913 139.711 119.966 136.613 117.026C136.094 116.531 135.304 117.322 135.823 117.817C138.92 120.765 142.026 123.712 145.124 126.66C145.643 127.155 146.433 126.364 145.914 125.869V125.861Z" fill="#9B643E"/>
<path d="M152.565 118.113C148.637 120.413 145.491 123.968 143.711 128.162C143.591 128.441 143.631 128.761 143.91 128.929C144.142 129.064 144.557 129.008 144.677 128.729C146.385 124.695 149.355 121.292 153.132 119.079C153.754 118.72 153.187 117.753 152.565 118.113Z" fill="#9B643E"/>
<path d="M129.212 199.632C128.062 199.121 126.745 199.369 125.508 199.616C105.78 203.571 85.4529 204.545 65.4376 202.5C65.0464 200.599 65.254 198.586 66.0044 196.805C69.1979 197.396 72.4074 197.859 75.6329 198.186C93.3968 199.992 111.312 197.779 128.965 195.031L129.204 199.64L129.212 199.632Z" fill="#662D91"/>
<path opacity="0.3" d="M121.14 202.109C120.59 204.353 120.047 206.59 119.496 208.835C119.328 209.53 120.398 209.833 120.574 209.13L122.218 202.404C122.386 201.709 121.316 201.406 121.14 202.109Z" fill="black"/>
<path opacity="0.3" d="M118.298 202.756C118.091 204.178 117.62 205.536 116.885 206.766C116.518 207.389 117.484 207.948 117.851 207.333C118.634 206.023 119.16 204.561 119.376 203.051C119.416 202.756 119.304 202.452 118.985 202.364C118.721 202.292 118.338 202.452 118.298 202.756Z" fill="black"/>
<path opacity="0.3" d="M86.5944 207.109C86.7541 208.707 86.5545 210.305 85.9957 211.814C85.8919 212.094 86.1154 212.429 86.3869 212.501C86.6982 212.589 86.9697 212.397 87.0735 212.11C87.6643 210.52 87.8798 208.795 87.7122 207.109C87.6802 206.806 87.4806 206.55 87.1533 206.55C86.8739 206.55 86.5625 206.806 86.5944 207.109Z" fill="black"/>
<path opacity="0.3" d="M83.0896 207.581C82.874 208.994 82.6664 210.408 82.4508 211.83C82.4029 212.126 82.5227 212.429 82.8421 212.517C83.1055 212.589 83.4808 212.429 83.5287 212.126C83.7442 210.712 83.9518 209.298 84.1674 207.876C84.2153 207.581 84.0955 207.277 83.7762 207.189C83.5127 207.117 83.1375 207.277 83.0896 207.581Z" fill="black"/>
<path opacity="0.3" d="M117.332 212.581C111.68 214.243 105.772 214.866 99.9036 214.426C99.1851 214.371 99.193 215.489 99.9036 215.545C105.867 215.992 111.895 215.345 117.628 213.66C118.314 213.46 118.027 212.382 117.332 212.581Z" fill="black"/>
<path d="M60.5912 217.55C59.3857 218.564 58.1721 219.587 56.9666 220.601C56.7351 220.793 56.767 221.193 56.9666 221.392C57.1981 221.624 57.5254 221.584 57.757 221.392C58.9625 220.378 60.1761 219.355 61.3816 218.341C61.6131 218.149 61.5812 217.75 61.3816 217.55C61.1501 217.318 60.8228 217.358 60.5912 217.55Z" fill="#9B643E"/>
<path d="M66.4674 121.883C63.689 130.287 61.1741 138.77 58.9227 147.325C58.292 149.73 57.6772 152.134 57.0944 154.547C56.9268 155.242 57.9966 155.545 58.1722 154.842C60.272 146.247 62.6432 137.724 65.2698 129.272C66.0123 126.9 66.7708 124.535 67.5452 122.179C67.7688 121.492 66.6909 121.204 66.4674 121.883Z" fill="#662D91"/>
<path d="M62.6113 123.952C62.6113 126.676 62.6113 129.408 62.6033 132.132C62.6033 132.851 63.721 132.851 63.721 132.132V123.952C63.729 123.233 62.6113 123.233 62.6113 123.952Z" fill="#662D91"/>
<path d="M143.128 139.082C141.826 140.671 140.525 142.261 139.232 143.851C139.04 144.082 139 144.41 139.232 144.641C139.431 144.841 139.83 144.873 140.022 144.641C141.323 143.052 142.625 141.462 143.918 139.872C144.11 139.641 144.15 139.313 143.918 139.082C143.718 138.882 143.319 138.85 143.128 139.082Z" fill="#662D91"/>
<path d="M76.9741 184.119C76.9741 185.885 76.9741 187.65 76.9741 189.415C76.9741 190.134 78.0919 190.134 78.0919 189.415C78.0919 187.65 78.0919 185.885 78.0919 184.119C78.0919 183.4 76.9741 183.4 76.9741 184.119Z" fill="#662D91"/>
<path d="M74.0918 184.119C74.0918 185.078 74.0918 186.044 74.0918 187.003C74.0918 187.299 74.3473 187.578 74.6507 187.562C74.954 187.546 75.2095 187.315 75.2095 187.003C75.2095 186.044 75.2095 185.078 75.2095 184.119C75.2095 183.824 74.954 183.544 74.6507 183.56C74.3473 183.576 74.0918 183.808 74.0918 184.119Z" fill="#662D91"/>
<path d="M68.8147 172.56C68.8147 173.519 68.8147 174.485 68.8147 175.444C68.8147 175.74 69.0702 176.019 69.3736 176.003C69.677 175.987 69.9324 175.756 69.9324 175.444C69.9324 174.485 69.9324 173.519 69.9324 172.56C69.9324 172.265 69.677 171.985 69.3736 172.001C69.0702 172.017 68.8147 172.249 68.8147 172.56Z" fill="#662D91"/>
<path d="M44.2965 151.847C44.2965 153.468 43.8814 155.05 43.067 156.448C42.7078 157.071 43.6658 157.63 44.0331 157.015C44.9432 155.449 45.4302 153.66 45.4222 151.847C45.4222 151.128 44.3045 151.128 44.3045 151.847H44.2965Z" fill="#662D91"/>
<path d="M39.9773 152.326C39.9773 153.125 39.9773 153.932 39.9773 154.731C39.9773 155.026 40.2328 155.306 40.5362 155.29C40.8395 155.274 41.095 155.042 41.095 154.731C41.095 153.932 41.095 153.125 41.095 152.326C41.095 152.03 40.8395 151.751 40.5362 151.767C40.2328 151.783 39.9773 152.015 39.9773 152.326Z" fill="#662D91"/>
<path d="M36.6079 150.872C36.6319 151.112 36.6479 151.344 36.6399 151.583C36.6399 151.703 36.6319 151.823 36.6159 151.943C36.5441 152.43 36.4802 152.662 36.4083 152.893C36.3684 153.005 36.3285 153.117 36.2886 153.229C36.2327 153.349 36.2088 153.405 36.1768 153.468C36.0491 153.732 36.097 154.084 36.3764 154.235C36.6319 154.371 36.9991 154.315 37.1429 154.036C37.6219 153.061 37.8454 151.967 37.7257 150.88C37.6937 150.593 37.4941 150.305 37.1668 150.321C36.8954 150.337 36.576 150.569 36.6079 150.88V150.872Z" fill="#662D91"/>
<path d="M42.3643 134.041C42.508 135.83 42.0929 137.596 41.1588 139.13C40.7835 139.745 41.7496 140.304 42.1248 139.697C43.1547 138.011 43.6417 136.014 43.49 134.049C43.4661 133.745 43.2505 133.49 42.9312 133.49C42.6437 133.49 42.3483 133.745 42.3723 134.049L42.3643 134.041Z" fill="#662D91"/>
<path d="M127.919 173.687C126.897 175.045 126.593 176.898 127.096 178.519C127.304 179.206 128.382 178.911 128.174 178.224C127.759 176.866 128.022 175.404 128.885 174.254C129.068 174.014 128.924 173.631 128.685 173.487C128.398 173.319 128.102 173.447 127.919 173.687Z" fill="#662D91"/>
<path d="M122.641 175.867C122.713 175.963 122.769 176.059 122.825 176.155C122.857 176.211 122.881 176.267 122.913 176.331C122.977 176.506 123.009 176.618 123.033 176.73C123.049 176.786 123.057 176.842 123.065 176.898C123.081 177.098 123.081 177.217 123.065 177.329C123.065 177.345 123.065 177.497 123.049 177.505C123.009 177.689 122.977 177.809 122.937 177.92C122.881 178.04 122.857 178.104 122.825 178.16C122.681 178.416 122.753 178.783 123.025 178.927C123.288 179.063 123.639 178.999 123.791 178.727C124.366 177.673 124.318 176.291 123.6 175.308C123.424 175.077 123.105 174.933 122.833 175.108C122.602 175.26 122.45 175.62 122.633 175.875L122.641 175.867Z" fill="#662D91"/>
<path d="M120.805 169.868C120.981 170.987 121.156 172.113 121.332 173.231C121.38 173.519 121.755 173.711 122.018 173.623C122.33 173.519 122.458 173.247 122.41 172.936C122.234 171.817 122.058 170.691 121.883 169.573C121.835 169.285 121.46 169.093 121.196 169.181C120.885 169.285 120.757 169.557 120.805 169.868Z" fill="#662D91"/>
<path d="M117.452 187.73C116.917 188.936 116.741 190.222 116.925 191.524C116.965 191.812 117.348 191.996 117.611 191.916C117.931 191.812 118.043 191.54 118.003 191.229C117.979 191.021 117.979 190.957 117.971 190.893C117.963 190.749 117.955 190.614 117.963 190.47C117.963 190.35 117.963 190.23 117.979 190.11C117.979 190.03 117.995 189.951 118.003 189.871C118.083 189.28 118.25 188.68 118.426 188.297C118.546 188.033 118.514 187.682 118.226 187.53C117.987 187.402 117.588 187.442 117.46 187.73H117.452Z" fill="#662D91"/>
<path opacity="0.3" d="M102.921 210.305C102.921 211.95 104.255 213.292 105.907 213.292C107.56 213.292 108.893 211.958 108.893 210.305C108.893 208.651 107.56 207.317 105.907 207.317C104.255 207.317 102.921 208.651 102.921 210.305Z" fill="black"/>
<path d="M30.5243 43.7422H62.8746C68.615 43.7422 73.2695 48.3994 73.2695 54.1429V67.9386C73.2695 73.6821 68.615 78.3392 62.8746 78.3392H60.7908L61.0783 90.9047L53.8449 78.3392H30.5243C24.7839 78.3392 20.1294 73.6821 20.1294 67.9386V54.1429C20.1294 48.3994 24.7839 43.7422 30.5243 43.7422Z" fill="#E5DAC1"/>
<path d="M31.7217 39.5565V53.9912C31.7217 54.7101 32.8394 54.7101 32.8394 53.9912V39.5565C32.8394 38.8375 31.7217 38.8375 31.7217 39.5565Z" fill="#1F2D44"/>
<path d="M29.4543 38.9414C29.4543 40.4991 30.7158 41.7692 32.2806 41.7692C33.8454 41.7692 35.1069 40.507 35.1069 38.9414C35.1069 37.3757 33.8454 36.1135 32.2806 36.1135C30.7158 36.1135 29.4543 37.3757 29.4543 38.9414Z" fill="#92278F"/>
<path d="M67.0581 72.2922C66.1719 70.9022 64.7508 69.8797 63.138 69.5123C62.8506 69.4484 62.5233 69.6001 62.4514 69.9037C62.3875 70.1833 62.5392 70.5268 62.8426 70.5907C63.0183 70.6306 63.1939 70.6786 63.3696 70.7345C63.4574 70.7664 63.5452 70.7904 63.625 70.8223C63.8885 70.9262 63.633 70.8224 63.7927 70.8942C64.12 71.046 64.4314 71.2138 64.7188 71.4215C64.7827 71.4694 64.8545 71.5173 64.9184 71.5653C65.1978 71.8049 65.3336 71.9247 65.4613 72.0605C65.5891 72.1883 65.7088 72.3321 65.8206 72.4759C65.9723 72.6836 66.0282 72.7715 66.084 72.8514C66.2437 73.107 66.579 73.2108 66.8505 73.0511C67.106 72.8993 67.2098 72.5398 67.0501 72.2842L67.0581 72.2922Z" fill="#1F2D44"/>
<path d="M58.9625 69.5282C57.8129 69.3285 56.6153 69.5442 55.6493 70.1992C55.4097 70.367 55.274 70.6945 55.4497 70.9661C55.6013 71.2058 55.9526 71.3415 56.2161 71.1658C56.4157 71.03 56.6233 70.9102 56.8468 70.8143C56.7271 70.8702 56.9187 70.7904 56.9346 70.7824C56.9985 70.7584 57.0544 70.7424 57.1183 70.7185C57.2221 70.6865 57.3338 70.6546 57.4456 70.6306C57.5095 70.6146 57.5733 70.6066 57.6372 70.5907C57.8049 70.5667 57.9326 70.5587 58.0604 70.5587C58.1721 70.5587 58.2839 70.5587 58.3957 70.5587C58.4595 70.5587 58.5234 70.5667 58.5873 70.5747C58.4516 70.5587 58.6512 70.5827 58.6751 70.5907C58.9625 70.6386 59.2899 70.5108 59.3617 70.1992C59.4256 69.9276 59.2819 69.5682 58.9705 69.5122L58.9625 69.5282Z" fill="#1F2D44"/>
<path d="M50.835 71.4694C50.7471 71.5253 50.6513 71.5732 50.5555 71.6212C50.4997 71.6451 50.4438 71.6771 50.3959 71.701C50.1643 71.8049 49.9488 71.8688 49.7412 71.9247C49.6374 71.9487 49.5336 71.9726 49.4298 71.9966C48.7911 72.0765 48.6793 72.0765 48.5676 72.0765C48.2722 72.0765 47.9927 72.3321 48.0087 72.6357C48.0247 72.9392 48.2562 73.1948 48.5676 73.1948C49.5576 73.1948 50.5396 72.9312 51.4018 72.436C51.6573 72.2922 51.7691 71.9247 51.6014 71.6691C51.4338 71.4135 51.1064 71.3096 50.835 71.4694Z" fill="#1F2D44"/>
<path d="M43.1067 71.4614C42.9869 71.4454 42.931 71.4374 42.8751 71.4214C42.7633 71.3975 42.6596 71.3655 42.5558 71.3176C42.452 71.2697 42.4041 71.2457 42.3562 71.2137C42.2524 71.1578 42.1646 71.0859 42.0608 71.022C41.9809 70.9501 41.933 70.9102 41.8931 70.8702C41.8532 70.8303 41.8133 70.7824 41.7734 70.7424C41.6696 70.6066 41.6057 70.5188 41.5498 70.4149C41.5259 70.367 41.5019 70.3191 41.478 70.2711C41.3502 69.9276 41.0628 69.712 40.7594 69.8078C40.488 69.8957 40.2644 70.1992 40.3682 70.4948C40.7993 71.6611 41.8692 72.4759 43.1067 72.5717C43.4021 72.5957 43.6815 72.3001 43.6655 72.0126C43.6495 71.693 43.418 71.4773 43.1067 71.4534V71.4614Z" fill="#1F2D44"/>
<path d="M39.8096 67.8028C39.8096 67.7069 39.8175 67.6031 39.8335 67.5072C39.8335 67.4992 39.8734 67.3474 39.9213 67.1957C39.9852 67.0359 40.0171 66.964 40.0571 66.8921C40.097 66.8202 40.1369 66.7563 40.1848 66.6924C40.1369 66.7643 40.2167 66.6525 40.2407 66.6205C40.2886 66.5566 40.3445 66.5007 40.4004 66.4448C40.5201 66.3409 40.6319 66.2451 40.4882 66.3569C40.6079 66.261 40.7037 66.1732 40.7437 66.0214C40.7836 65.8856 40.7676 65.7098 40.6878 65.59C40.6079 65.4702 40.4962 65.3664 40.3524 65.3344C40.2167 65.3024 40.0411 65.3024 39.9213 65.3903C39.5461 65.6779 39.2267 66.0214 39.0192 66.4448C38.8036 66.8681 38.6838 67.3235 38.6838 67.8028C38.6838 68.0983 38.9473 68.3779 39.2427 68.3619C39.5461 68.346 39.7936 68.1143 39.8016 67.8028H39.8096Z" fill="#1F2D44"/>
<path d="M43.6017 61.9953C44.3042 60.6773 44.5278 59.1835 44.2723 57.7137C44.2244 57.4181 43.8571 57.2503 43.5857 57.3222C43.2743 57.4101 43.1466 57.7137 43.1945 58.0092C43.2424 58.2648 43.2663 58.5444 43.2663 58.848C43.2663 58.9998 43.2663 59.1595 43.2504 59.3113C43.2424 59.4711 43.2264 59.6069 43.2025 59.7187C43.0987 60.3338 42.915 60.901 42.6356 61.4282C42.4919 61.6918 42.5717 62.0353 42.8352 62.195C43.0907 62.3468 43.4579 62.259 43.6017 61.9953Z" fill="#1F2D44"/>
<path d="M41.3424 55.3492C40.8075 55.2373 40.2725 55.1255 39.7376 55.0137C39.5939 54.9817 39.4422 54.9897 39.3065 55.0696C39.1868 55.1335 39.083 55.2693 39.051 55.4051C38.9872 55.6847 39.1389 56.0282 39.4422 56.0921C39.9772 56.2039 40.5121 56.3157 41.047 56.4276C41.1907 56.4595 41.3424 56.4515 41.4781 56.3717C41.5979 56.3077 41.7016 56.172 41.7336 56.0362C41.7975 55.7566 41.6458 55.4131 41.3424 55.3492Z" fill="#1F2D44"/>
<path d="M36.7756 57.4501C36.0172 57.8575 35.2587 58.2728 34.5002 58.6802C34.2448 58.816 34.141 59.1995 34.3006 59.4471C34.4683 59.7107 34.7877 59.7986 35.0671 59.6468C35.8255 59.2394 36.584 58.824 37.3425 58.4166C37.5979 58.2808 37.7017 57.8974 37.5421 57.6498C37.3744 57.3862 37.0551 57.2983 36.7756 57.4501Z" fill="#1F2D44"/>
<path d="M31.8976 58.9598C31.203 58.7122 31.1471 58.6563 31.0913 58.5924C30.9475 58.3847 30.9076 58.3128 30.8757 58.2409C30.5963 57.3302 30.9076 56.4915 31.1631 55.7566C31.2589 55.469 31.0513 55.1495 30.7719 55.0696C30.4685 54.9817 30.1811 55.1734 30.0853 55.461C29.758 56.4276 29.4147 57.5459 29.8059 58.5445C30.1332 59.3992 30.9316 60.1661 31.9056 60.0862C32.209 60.0622 32.4645 59.8465 32.4645 59.527C32.4645 59.2474 32.209 58.9439 31.9056 58.9678L31.8976 58.9598Z" fill="#1F2D44"/>
<path d="M60.4954 66.5806C58.204 67.9386 54.9706 69.5841 52.6793 70.9421C52.4876 70.8143 61.5971 72.388 61.5971 72.388C60.2239 71.2457 59.3617 67.9705 60.5832 66.6684L60.5034 66.5726L60.4954 66.5806Z" fill="#92278F"/>
<path opacity="0.3" d="M105.061 253.729C104.853 258.681 104.598 263.634 104.295 268.579C103.959 274.043 103.56 279.499 103.105 284.946C102.634 290.578 102.091 296.21 101.46 301.826C100.846 307.298 100.143 312.761 99.3207 318.201C98.5622 323.194 97.692 328.179 96.6302 333.123C96.5104 333.683 96.3907 334.234 96.2629 334.793C96.1032 335.496 97.181 335.791 97.3407 335.089C98.4265 330.232 99.3207 325.335 100.095 320.422C100.957 314.998 101.676 309.558 102.315 304.11C102.977 298.471 103.536 292.823 104.031 287.167C104.51 281.647 104.933 276.127 105.285 270.6C105.612 265.567 105.883 260.534 106.107 255.494C106.131 254.903 106.155 254.312 106.187 253.721C106.219 253.002 105.101 253.002 105.069 253.721L105.061 253.729Z" fill="black"/>
<path opacity="0.3" d="M62.8189 253.545C60.4557 262.979 58.0925 272.421 55.7293 281.855C53.3821 291.233 51.0348 300.611 48.6876 309.982C47.3623 315.27 46.037 320.558 44.7117 325.846C44.536 326.541 45.6138 326.845 45.7895 326.142C48.1527 316.708 50.5159 307.266 52.8791 297.831C55.2263 288.453 57.5735 279.075 59.9208 269.705C61.2461 264.417 62.5714 259.129 63.8967 253.84C64.0723 253.145 62.9945 252.842 62.8189 253.545Z" fill="black"/>
<path d="M74.6107 97.8065C66.5631 98.0621 68.7347 101.106 65.0222 103.846C86.8259 140.767 109.963 176.842 134.353 211.982C135.727 213.963 138.569 213.955 139.942 211.974C129.284 195.478 118.625 178.983 107.967 162.487C94.7938 142.093 74.6107 97.8065 74.6107 97.8065Z" fill="#01A299"/>
<path d="M93.5803 133.698C92.1432 134.281 90.7061 134.864 89.269 135.439C87.8878 135.998 86.5146 136.661 85.0935 137.117C84.7901 137.212 84.4548 137.3 84.2233 137.021C84.0317 136.789 83.9279 136.445 83.8081 136.174C83.5047 135.463 83.2014 134.752 82.89 134.041C82.2673 132.587 81.6445 131.141 81.0218 129.687C80.415 128.266 79.7923 126.852 79.1935 125.422C78.9699 124.887 78.6187 124.136 79.1296 123.656C79.5767 123.233 80.2873 122.993 80.8302 122.722C81.5088 122.386 82.1874 122.043 82.8581 121.707C83.2093 121.531 83.5606 121.356 83.9119 121.18C84.2392 121.012 84.5825 120.797 84.9498 120.717C85.6364 120.565 85.8839 121.492 86.1234 121.971C86.4667 122.666 86.802 123.361 87.1453 124.056C88.7182 127.259 90.283 130.454 91.8558 133.658C92.1751 134.305 93.1332 133.737 92.8218 133.09C91.249 129.887 89.6842 126.692 88.1114 123.489C87.7282 122.706 87.3449 121.931 86.9617 121.148C86.6663 120.541 86.331 119.87 85.6444 119.638C84.87 119.383 84.1035 119.83 83.4329 120.173L81.1575 121.316C80.415 121.683 79.6486 122.027 78.93 122.442C78.3392 122.778 77.8682 123.273 77.7644 123.968C77.6606 124.687 77.948 125.358 78.2195 126.005C78.5708 126.828 78.93 127.65 79.2813 128.481C79.9759 130.103 80.6705 131.724 81.3651 133.346C81.7164 134.169 82.0756 134.992 82.4269 135.822C82.7143 136.501 82.9459 137.34 83.4648 137.883C84.0716 138.514 84.9338 138.403 85.6683 138.115C86.5705 137.764 87.4647 137.388 88.3589 137.029C90.1952 136.286 92.0234 135.543 93.8597 134.808C94.5144 134.544 94.227 133.458 93.5643 133.729L93.5803 133.698Z" fill="black"/>
<path d="M87.4489 124.767C84.8461 125.414 82.2434 126.061 79.6407 126.708C79.0579 126.852 78.7066 127.515 78.8583 128.082C79.018 128.681 79.6487 129.008 80.2315 128.865C82.8342 128.218 85.4369 127.571 88.0397 126.924C88.6225 126.78 88.9738 126.117 88.8221 125.55C88.6624 124.95 88.0317 124.623 87.4489 124.767Z" fill="black"/>
<path d="M74.5149 343.684C58.0523 344.666 41.2864 338.428 29.4704 326.917C29.0392 326.501 28.6001 326.046 28.4644 325.463C28.2968 324.768 28.6001 324.049 28.8955 323.394C30.1809 320.534 31.4743 317.666 32.7597 314.806C33.0311 314.215 33.3824 313.544 34.0291 313.416C34.6199 313.305 35.1788 313.712 35.6418 314.095C41.7095 319.096 48.1365 323.769 55.266 327.084C62.4035 330.399 70.3154 332.317 78.1475 331.63L74.5149 343.676V343.684Z" fill="#0B4E4A"/>
<path d="M131.647 339.394C125.028 344.003 116.757 345.905 108.694 345.641C100.63 345.385 91.9596 345.841 84.5507 342.645C84.2872 342.534 84.0158 342.406 83.8321 342.182C83.4649 341.735 83.6006 341.08 83.7603 340.52C84.5347 337.733 85.3091 334.937 86.0915 332.149C86.2273 331.646 86.4109 331.094 86.874 330.847C87.2891 330.623 87.7921 330.727 88.2552 330.831C102.53 334.098 117.612 333.738 131.719 329.8L131.655 339.386L131.647 339.394Z" fill="#0B4E4A"/>
</g>
<defs>
<filter id="filter0_d_65_1033" x="-1" y="0" width="227" height="491" filterUnits="userSpaceOnUse" color-interpolation-filters="sRGB">
<feFlood flood-opacity="0" result="BackgroundImageFix"/>
<feColorMatrix in="SourceAlpha" type="matrix" values="0 0 0 0 0 0 0 0 0 0 0 0 0 0 0 0 0 0 127 0" result="hardAlpha"/>
<feOffset dx="5" dy="5"/>
<feGaussianBlur stdDeviation="7.5"/>
<feComposite in2="hardAlpha" operator="out"/>
<feColorMatrix type="matrix" values="0 0 0 0 0 0 0 0 0 0 0 0 0 0 0 0 0 0 0.25 0"/>
<feBlend mode="normal" in2="BackgroundImageFix" result="effect1_dropShadow_65_1033"/>
<feBlend mode="normal" in="SourceGraphic" in2="effect1_dropShadow_65_1033" result="shape"/>
</filter>
<linearGradient id="paint0_linear_65_1033" x1="84.359" y1="343.356" x2="84.359" y2="190.574" gradientUnits="userSpaceOnUse">
<stop stop-color="#01A299"/>
<stop offset="1" stop-color="#0B4E4A"/>
</linearGradient>
<clipPath id="clip0_65_1033">
<rect width="197" height="461" fill="white" transform="translate(9 10)"/>
</clipPath>
</defs>
</svg>
