<svg width="294" height="454" viewBox="0 0 294 454" fill="none" xmlns="http://www.w3.org/2000/svg">
<g clip-path="url(#clip0_65_1284)" filter="url(#filter0_d_65_1284)">
<path d="M138.475 60.0242C135.148 58.962 133.179 54.8495 134.43 51.5912C132.296 50.2921 131.426 47.2634 132.554 45.0385C130.291 43.9476 128.818 41.4141 128.997 38.9164C129.177 36.4188 130.988 34.1078 133.381 33.347C131.656 31.8757 130.528 29.4714 131.218 27.3183C131.907 25.1652 134.868 23.8661 136.629 25.2944C135.917 22.7537 136.183 19.9546 137.347 17.5862C137.951 16.3661 138.899 15.1819 140.236 14.902C141.565 14.622 143.175 15.7201 142.938 17.0623C144.238 14.1555 146.272 11.2991 149.297 10.2943C152.322 9.28948 156.339 11.055 156.641 14.2345C157.791 12.0168 160.263 10.3517 162.735 10.7536C165.199 11.1555 167.089 14.1125 165.932 16.3302C170.395 14.2847 176.388 17.1986 177.516 21.9714C180.649 21.4044 183.588 25.2369 182.23 28.1149C185.176 29.4858 186.189 33.8279 184.148 36.3542C185.808 36.4547 187.332 37.7394 187.705 39.3614C188.086 40.9834 187.289 42.8064 185.844 43.6318C187.655 44.6079 188.675 46.8615 188.208 48.8639C187.741 50.8663 185.837 52.438 183.782 52.517C185.291 53.8663 185.578 56.3711 184.407 58.0218C183.236 59.6725 180.778 60.2395 179.003 59.2706C175.245 63.986 167.722 65.1271 162.735 61.7467C160.665 65.5075 154.852 66.4621 151.69 63.5553C152.423 62.5577 154.385 63.6702 153.896 64.8113C149.534 65.7874 144.662 63.9142 142.097 60.2539C141.177 58.9477 140.789 56.7084 142.262 56.0984L138.497 60.0457L138.475 60.0242Z" fill="black"/>
<path d="M160.457 81.3186C160.119 78.8999 160.198 76.4166 160.687 74.0195C160.989 72.5482 161.463 71.0625 162.44 69.9214C163.324 68.8879 164.546 68.2204 165.767 67.6319C172.004 64.6104 178.845 63.0816 185.636 61.6749C188.668 61.0434 191.959 60.462 194.762 61.7898C196.472 62.6008 197.794 64.0434 198.937 65.5506C199.986 66.9357 200.949 68.5219 200.963 70.2587C200.978 71.9956 199.691 73.8473 197.952 73.8544C196.242 73.8616 195.013 72.2396 194.223 70.718C193.433 69.1965 192.642 67.4597 191.04 66.8496C189.998 66.4549 188.834 66.6343 187.741 66.8209C183.545 67.5386 179.348 68.2491 175.152 68.9668C173.822 69.1965 172.313 69.5482 171.695 70.7468C171.48 71.1702 171.408 71.6511 171.336 72.1248C171.034 74.2205 170.725 76.3233 170.424 78.419L160.457 81.3258V81.3186Z" fill="#3F3523"/>
<path d="M137.017 92.4143C136.435 89.687 135.903 86.6296 137.419 84.2899C138.382 82.8042 140.013 81.8999 141.594 81.0961C158.28 72.6343 177.013 68.9955 195.639 67.2156C198.003 66.986 200.417 66.7994 202.709 67.4094C208.602 68.9884 211.8 75.1894 214.142 80.8162C217.886 89.8234 221.242 98.9885 224.202 108.276C224.655 109.697 225.072 111.326 224.296 112.596C223.721 113.529 222.643 114.003 221.623 114.405C201.114 122.529 178.766 124.517 156.778 126.419C154.32 126.635 151.805 126.843 149.412 126.247C142.6 124.553 138.907 116.874 138.713 109.869L137.017 92.4215V92.4143Z" fill="#3F3523"/>
<path d="M130.542 324.176C123.902 336.995 102.697 387.959 102.115 396.471C101.533 404.983 105.306 414.399 113.138 417.794C106.915 420.73 98.6731 418.282 95.0658 412.426C93.5568 409.978 92.6945 406.95 90.3159 405.32C87.8081 403.605 83.8703 403.634 82.5984 400.878C81.6427 398.811 82.9074 396.371 84.5385 394.777C86.1697 393.184 88.2249 391.978 89.4536 390.062C90.7974 387.981 91.2285 385.39 91.1998 382.914C90.9411 360.155 102.977 329.028 102.661 327.478C100.182 315.356 97.1569 303.341 93.5927 291.492L121.438 315.284L130.542 324.184V324.176Z" fill="#FED5B7"/>
<path d="M73.2784 322.109C72.0784 349.949 71.0005 388.548 80.6583 414.686C81.6499 417.364 82.7493 420.342 81.6499 422.983C79.6666 427.734 72.064 427.01 68.8088 423.026C65.5537 419.036 65.1009 408.407 64.138 403.354C62.5931 395.258 56.3558 382.21 53.7545 374.387C47.7759 356.416 48.8897 337.741 51.4335 318.966C58.0157 321.356 65.0291 322.576 72.0353 322.554L73.2712 322.117L73.2784 322.109Z" fill="#FED5B7"/>
<path d="M83.1229 415.354C77.7407 413.588 71.5609 414.435 66.847 417.579C66.3512 417.909 65.841 418.304 65.6901 418.878C65.5536 419.373 65.7117 419.89 65.8841 420.371C67.853 425.868 72.1142 430.505 77.4246 432.938C80.2558 434.237 84.1002 434.696 86.0547 432.27C88.0524 429.787 86.7087 426.163 85.5733 423.184C84.5026 420.385 83.7481 418.182 83.1948 415.239L83.1157 415.354H83.1229Z" fill="#8E292E"/>
<path d="M78.0785 404.416L85.4008 412.619C85.4008 412.619 88.1889 410.653 89.6548 411.471C91.1207 412.289 92.0046 413.832 92.9603 415.218C97.703 422.072 106.082 426.249 114.41 425.911C116.056 425.847 117.759 425.588 119.102 424.648C120.446 423.708 121.316 421.914 120.748 420.378C119.993 418.325 117.406 417.816 115.473 416.789C112.772 415.361 111.083 412.598 109.531 409.971C108.92 408.938 108.28 407.868 107.26 407.237C104.242 405.363 100.584 408.363 97.0562 408.794C90.9986 409.533 81.1684 399.406 81.1684 399.406L78.0713 404.402L78.0785 404.416Z" fill="#8E292E"/>
<path d="M85.214 425.294C81.0031 424.103 76.2892 425.754 73.6951 429.256C73.3071 429.773 74.1837 430.275 74.5646 429.766C76.8928 426.629 81.2043 425.208 84.9481 426.263C85.5733 426.443 85.8391 425.474 85.214 425.294Z" fill="#DC4345"/>
<path d="M118.096 421.806C112.455 422.675 106.527 421.476 101.641 418.533C99.0108 416.954 96.8622 414.808 94.6202 412.749C92.4717 410.782 90.1291 409.146 87.6931 407.56C85.0703 405.859 82.4403 404.108 80.457 401.653C80.0474 401.151 79.3432 401.861 79.7456 402.363C81.5492 404.596 83.899 406.275 86.2775 407.84C88.7207 409.447 91.1638 410.998 93.3483 412.957C95.6909 415.06 97.8826 417.335 100.549 419.043C102.999 420.615 105.744 421.749 108.582 422.409C111.794 423.155 115.114 423.277 118.369 422.775C119.009 422.675 118.736 421.706 118.104 421.806H118.096Z" fill="#DC4345"/>
<path d="M68.2699 339.04C66.8974 340.691 64.677 341.581 62.5428 341.229C62.2769 341.186 62.0038 341.301 61.9248 341.581C61.8601 341.818 62.0038 342.155 62.2769 342.198C64.756 342.607 67.3716 341.696 68.9813 339.751C69.3909 339.255 68.6866 338.545 68.2699 339.04Z" fill="#89563D"/>
<path d="M95.0587 391.964C95.2455 392.107 95.2958 392.165 95.3461 392.222C95.4898 392.524 95.5185 392.595 95.5401 392.674C95.5617 392.954 95.576 393.112 95.5617 393.27C95.5617 393.241 95.576 393.134 95.5617 393.27C95.5114 393.478 95.497 393.543 95.4682 393.607C95.3676 393.816 95.3245 393.88 95.2814 393.952C95.0443 394.189 94.9796 394.232 94.9077 394.268C94.5053 394.404 94.3401 394.67 94.4191 394.942C94.491 395.201 94.7784 395.373 95.0371 395.294C96.8048 394.749 97.1497 392.05 95.5688 391.088C95.3389 390.945 95.0155 391.038 94.879 391.268C94.7425 391.505 94.8287 391.813 95.0587 391.957V391.964Z" fill="#89563D"/>
<path d="M226.595 367.016C222.291 369.22 222.319 375.614 224.691 379.827C227.062 384.033 231.007 387.227 233.149 391.562C235.987 397.304 235.391 404.517 239.192 409.67C240.845 411.909 243.187 413.531 245.587 414.945C248.562 416.696 251.875 418.232 255.317 417.995C258.759 417.758 262.258 415.196 262.424 411.751C262.553 409.038 260.692 406.519 260.864 403.813C260.95 402.478 255.403 391.138 254.11 389.825C249.324 384.952 247.075 378.213 244.869 371.753C243.985 369.162 242.972 366.406 240.758 364.784C236.684 361.791 230.978 364.067 226.494 366.399L226.595 367.016Z" fill="black"/>
<path d="M187.059 376.985C190.113 386.38 191.959 397.131 195.013 406.526C195.215 407.151 196.63 406.44 197.105 406.892C197.622 407.395 198.362 407.588 199.059 407.761C201.531 408.371 204.003 408.974 206.475 409.584C207.668 409.878 209.292 409.964 209.752 408.823C209.924 408.392 209.852 407.904 209.773 407.445C207.876 396.033 205.972 384.615 204.075 373.203C203.953 372.478 203.766 371.66 203.126 371.301C202.674 371.05 202.12 371.114 201.603 371.179C197.715 371.696 193.821 372.213 189.933 372.736L187.059 376.992V376.985Z" fill="#6DA8C6"/>
<path d="M227.436 367.325C227.723 369.571 228.226 371.789 228.931 373.935C229.16 374.646 229.455 375.399 230.08 375.808C230.54 376.11 231.108 376.181 231.654 376.246C235.383 376.655 239.745 376.583 242.124 373.684C243.661 371.803 243.927 369.126 243.381 366.751C242.835 364.375 241.599 362.236 240.378 360.134C235.283 362.545 230.008 364.598 224.619 366.256L227.436 367.332V367.325Z" fill="#6DA8C6"/>
<path d="M156.325 212.149C183.667 216.147 211.792 214.712 238.588 207.951C245.012 221.53 246.263 237.025 245.3 252.011C244.703 261.284 243.345 270.908 246.586 279.621C247.678 282.549 249.274 285.32 249.82 288.399C251.063 295.411 246.672 302.078 245.329 309.069C244.552 313.109 244.797 317.272 245.048 321.384C245.544 329.459 246.033 337.533 246.529 345.607C246.73 348.944 249.927 360.406 249.927 360.406C247.276 367.418 234.471 371.509 224.296 367.921C218.827 361.598 219.208 358.712 216.334 350.868C213.668 343.59 213.517 335.66 211.972 328.059C210.312 319.899 207.042 312.169 204.606 304.21C200.202 289.827 198.513 274.777 196.846 259.834C198.944 279.757 201.035 299.681 203.133 319.605C204.147 329.236 205.16 338.889 205.03 348.571C204.894 358.533 203.622 368.94 207.553 378.105C195.409 379.555 183.085 379.533 170.941 378.048C164.912 354.184 159.767 329.868 159.666 305.258C159.63 296.444 160.241 287.595 159.178 278.853C158.215 270.923 155.908 263.222 154.521 255.363C152.028 241.209 152.588 226.525 156.16 212.602L156.339 212.157L156.325 212.149Z" fill="#662D91"/>
<path d="M193.303 398.301C196.846 399.5 200.245 401.151 203.378 403.196C204.786 404.115 206.69 405.112 207.998 404.05C208.386 403.734 208.652 403.261 209.105 403.038C210.391 402.399 211.519 404.143 211.886 405.521C213 409.691 213.876 413.926 214.516 418.196C214.667 419.222 214.796 420.335 214.293 421.246C213.646 422.431 212.188 422.861 210.894 423.234C206.662 424.454 202.587 426.191 198.772 428.388C196.343 429.787 194.007 431.388 191.399 432.399C187.123 434.057 182.381 434.043 177.825 433.533C175.41 433.268 172.709 432.672 171.458 430.591C170.452 428.919 170.747 426.701 171.739 425.021C172.73 423.342 174.318 422.1 175.935 421.002C180.771 417.715 186.541 414.931 188.891 409.584C190.486 405.952 190.285 401.481 192.886 398.481L193.31 398.28L193.303 398.301Z" fill="black"/>
<path d="M200.705 380.251C201.962 386.847 203.22 393.442 204.477 400.038C204.599 400.67 205.569 400.404 205.447 399.773C204.19 393.177 202.932 386.581 201.675 379.985C201.552 379.354 200.582 379.619 200.705 380.251Z" fill="#1B4B5E"/>
<path d="M197.112 382.016C198.93 388.095 200.144 394.347 200.726 400.663C200.784 401.301 201.79 401.308 201.732 400.663C201.143 394.253 199.928 387.916 198.082 381.751C197.895 381.134 196.925 381.399 197.112 382.016Z" fill="#1B4B5E"/>
<path d="M190.925 381.787C192.556 386.66 193.619 391.713 194.065 396.83C194.122 397.469 195.128 397.476 195.071 396.83C194.611 391.619 193.555 386.481 191.895 381.521C191.694 380.911 190.716 381.17 190.925 381.787Z" fill="#1B4B5E"/>
<path d="M213.704 417.873C210.52 418.354 207.466 419.402 204.563 420.794C201.775 422.129 199.138 423.737 196.458 425.258C193.871 426.73 191.226 428.179 188.388 429.127C185.88 429.966 183.229 430.455 180.57 430.361C177.681 430.261 174.807 429.414 172.565 427.548C172.069 427.139 171.358 427.842 171.853 428.258C176.086 431.768 181.942 431.933 187.051 430.577C193.03 428.99 198.11 425.244 203.536 422.423C206.827 420.715 210.29 419.402 213.97 418.842C214.609 418.742 214.336 417.78 213.704 417.873Z" fill="#E2D5B7"/>
<path d="M178.041 420.629C180.965 422.832 182.733 426.414 182.762 430.067C182.762 430.713 183.775 430.713 183.768 430.067C183.739 426.033 181.77 422.187 178.551 419.761C178.033 419.373 177.53 420.242 178.041 420.629Z" fill="#E2D5B7"/>
<path d="M212.942 410.883C210.147 412.612 208.178 415.584 207.732 418.842C207.696 419.115 207.797 419.38 208.084 419.459C208.322 419.524 208.666 419.38 208.702 419.108C209.112 416.093 210.851 413.352 213.452 411.744C213.998 411.407 213.495 410.538 212.942 410.875V410.883Z" fill="#E2D5B7"/>
<path d="M191.859 419.89C190.443 416.746 188.108 414.076 185.212 412.21C185.083 412.519 184.953 412.82 184.824 413.129C188.323 413.603 191.55 415.311 193.885 417.959C194.259 418.383 194.992 417.83 194.676 417.349C192.613 414.241 189.962 411.572 186.872 409.483C186.786 409.792 186.699 410.107 186.62 410.416C190.285 410.05 193.224 412.914 195.581 415.332C195.984 415.742 196.659 415.218 196.372 414.722C194.331 411.184 191.083 408.45 187.26 406.993V407.962C191.119 406.942 194.841 409.411 197.773 411.629C198.29 412.017 198.793 411.148 198.283 410.761C195.107 408.356 191.14 405.895 186.994 406.993C186.477 407.129 186.556 407.796 186.994 407.962C190.565 409.318 193.598 411.923 195.502 415.225C195.768 415.024 196.027 414.816 196.293 414.615C193.756 412.017 190.558 409.009 186.62 409.404C186.125 409.454 185.938 410.05 186.369 410.337C189.308 412.325 191.844 414.887 193.806 417.844C194.072 417.643 194.331 417.435 194.597 417.234C192.161 414.478 188.74 412.641 185.09 412.146C184.551 412.074 184.192 412.734 184.702 413.064C187.461 414.837 189.638 417.392 190.989 420.385C191.255 420.974 192.125 420.464 191.859 419.876V419.89Z" fill="#E2D5B7"/>
<path d="M223.584 374.983C225.582 378.866 228.449 382.182 231.022 385.684C232.301 387.421 233.515 389.222 234.507 391.146C235.556 393.184 236.368 395.323 237.165 397.469C238.624 401.402 240.069 405.399 242.663 408.758C244.897 411.665 247.987 414.005 251.717 414.421C255.317 414.823 259.348 413.402 261.073 410.043C261.367 409.469 260.498 408.959 260.203 409.533C258.744 412.375 255.489 413.61 252.428 413.466C248.821 413.301 245.788 411.091 243.611 408.349C241.067 405.148 239.645 401.273 238.243 397.483C237.489 395.445 236.727 393.406 235.786 391.447C234.859 389.524 233.723 387.722 232.487 385.985C229.771 382.182 226.609 378.658 224.454 374.473C224.159 373.899 223.29 374.409 223.584 374.983Z" fill="#E2D5B7"/>
<path d="M259.837 402.572C258.349 403.002 256.847 403.397 255.382 403.878C254.074 404.301 252.852 404.861 251.76 405.701C249.834 407.194 248.462 409.347 247.951 411.73C247.815 412.361 248.785 412.627 248.921 411.995C249.396 409.785 250.66 407.775 252.471 406.419C253.499 405.651 254.656 405.155 255.877 404.775C257.279 404.337 258.701 403.95 260.11 403.541C260.728 403.361 260.469 402.392 259.844 402.572H259.837Z" fill="#E2D5B7"/>
<path d="M254.361 390.148C250.323 390.622 246.521 392.337 243.518 395.086C243.784 395.287 244.042 395.495 244.308 395.696C246.047 391.691 248.893 388.21 252.5 385.748C252.981 385.418 252.672 384.737 252.112 384.83C248.361 385.483 244.847 387.22 242.037 389.782C242.275 390.019 242.512 390.256 242.749 390.493C245.264 387.607 247.779 384.729 250.294 381.844C250.603 381.485 250.316 380.847 249.805 381.004C246.22 382.103 242.433 383.315 239.81 386.143C240.076 386.344 240.334 386.552 240.6 386.753C242.72 383.825 245.221 381.184 248.016 378.894C248.397 378.586 247.987 377.868 247.527 378.055C243.532 379.655 239.853 381.93 236.655 384.808C236.174 385.239 236.885 385.949 237.367 385.519C240.428 382.77 243.97 380.559 247.793 379.024C247.628 378.744 247.47 378.464 247.305 378.184C244.437 380.531 241.901 383.244 239.738 386.244C239.4 386.71 240.14 387.263 240.528 386.854C243.036 384.155 246.658 383.021 250.078 381.973C249.913 381.693 249.755 381.414 249.59 381.134C247.075 384.019 244.56 386.897 242.045 389.782C241.621 390.27 242.275 390.93 242.756 390.493C245.444 388.045 248.806 386.423 252.392 385.799L252.004 384.88C248.253 387.442 245.257 391.024 243.453 395.186C243.23 395.689 243.798 396.205 244.243 395.796C247.032 393.248 250.617 391.591 254.375 391.153C255.008 391.081 255.015 390.076 254.375 390.148H254.361Z" fill="#E2D5B7"/>
<path d="M243.927 374.961C241.419 377.036 237.726 379.827 234.406 377.696C233.86 377.344 233.357 378.213 233.896 378.564C235.527 379.612 237.611 379.626 239.407 379.016C241.398 378.342 243.036 376.985 244.639 375.672C245.134 375.263 244.423 374.552 243.927 374.961Z" fill="#E2D5B7"/>
<path d="M209.522 405.119C208.875 406.117 207.696 406.591 206.539 406.648C205.167 406.72 203.881 406.21 202.709 405.543C200.137 404.079 197.916 401.868 194.827 401.595C194.18 401.538 194.187 402.543 194.827 402.6C197.349 402.823 199.354 404.61 201.394 405.916C203.277 407.122 205.454 408.048 207.718 407.481C208.81 407.208 209.773 406.576 210.391 405.622C210.743 405.076 209.874 404.574 209.522 405.112V405.119Z" fill="#E2D5B7"/>
<path d="M85.99 99.29C83.8055 100.324 81.2402 100.532 78.9192 99.8642C78.1359 99.6417 77.3239 99.2685 76.9431 98.5436C76.5622 97.8259 76.9072 96.7134 77.7192 96.613C74.5718 96.6847 71.4316 95.0268 69.707 92.3857C69.1537 91.5388 68.8519 90.1895 69.7285 89.6943C68.2339 88.2804 66.926 86.5722 66.4087 84.577C65.8913 82.5818 66.2937 80.2636 67.7883 78.8497C68.392 78.2755 69.1608 77.8593 69.6279 77.1703C70.21 76.3162 70.2243 75.2109 70.4112 74.1918C70.598 73.1726 71.1226 72.053 72.1286 71.8233C72.6028 71.7157 73.1346 71.8233 73.5729 71.6009C74.7083 71.0195 73.9538 69.3329 73.3933 68.1917C71.7837 64.919 73.5801 60.4333 77.0006 59.1917C76.5551 55.9261 80.0258 52.7826 83.2163 53.5577C84.5816 51.4548 86.8595 49.9692 89.3386 49.5816C90.4596 49.4093 91.595 49.4452 92.7303 49.4883C93.7076 49.5242 94.6777 49.5601 95.655 49.5959C97.6598 49.6677 99.715 49.7538 101.583 50.4859C102.237 50.7443 102.855 51.0744 103.48 51.4046C104.364 51.8783 105.248 52.3519 106.139 52.8256C107.612 53.6151 109.308 54.7993 109.128 56.4644C111.198 56.4931 112.937 58.7395 112.448 60.7563C112.901 60.0171 114.158 60.6415 114.338 61.4884C114.518 62.3424 114.144 63.2109 114.137 64.0793C114.137 64.9118 114.467 65.7085 114.712 66.5051C115.466 68.9597 115.193 72.0243 113.131 73.5458C114.496 75.6128 114.467 78.5124 113.059 80.5578C114.963 82.9119 113.878 86.7373 111.428 88.5244C108.977 90.3043 105.686 90.4335 102.711 89.888L85.99 99.29Z" fill="black"/>
<path d="M173.276 70.8616C184.242 69.8066 195.294 68.7587 206.245 69.9142C217.196 71.0698 228.183 74.6152 236.54 81.7779C252.155 95.1704 255.813 111.132 270.163 125.874C271.356 127.101 272.692 135.484 273.31 137.077C274.273 139.553 273.31 142.474 271.507 144.427C269.703 146.379 267.188 147.52 264.666 148.367C259.054 150.247 252.716 150.836 247.312 148.417C240.047 145.166 236.095 137.429 232.689 130.245C229.922 157.388 238.933 188.996 248.181 214.669C222.039 236.81 202.422 235.618 202.422 235.618L196.939 216.549L192.549 235.561C192.549 235.561 167.449 238.066 152.394 231.384C150.576 217.597 141.105 180.865 141.867 166.984C142.464 156.075 135.156 146.637 133.927 135.778C132.13 119.924 114.719 117.398 115.107 116.407C122.005 98.6512 147.062 78.4908 164.711 76.5459L173.284 70.876L173.276 70.8616Z" fill="url(#paint0_linear_65_1284)"/>
<path d="M61.0122 201.348C50.8945 211.36 46.4465 225.592 42.3578 239.214C38.7505 251.221 35.1432 263.236 31.5359 275.243C25.0615 296.789 18.5799 318.377 10 339.184C15.9714 345.736 22.8123 352.734 31.6509 353.473C39.3325 354.119 46.6046 349.784 54.3006 349.332C61.587 348.901 68.5645 351.937 75.6784 353.602C85.1709 355.82 95.2239 355.562 104.587 352.856C111.428 350.882 118.003 347.61 125.117 347.2C128.315 347.014 131.534 347.423 134.724 347.165C145.438 346.303 154.04 338.337 161.714 330.822C157.194 315.155 152.675 299.473 147.522 283.999C138.691 257.48 128.027 231.614 117.378 205.776C117.141 205.202 116.889 204.599 116.415 204.197C115.847 203.709 115.057 203.594 114.317 203.487C109.272 202.791 104.221 202.102 99.1258 201.958C86.3494 201.592 73.1921 204.642 60.9762 200.881L61.0193 201.355L61.0122 201.348Z" fill="url(#paint1_linear_65_1284)"/>
<path d="M39.9864 153.211C38.7936 161.565 37.6079 169.927 36.4151 178.281C35.5528 184.317 34.6977 190.396 35.0857 196.482C35.8115 207.872 46.4824 228.463 46.4824 228.463L56.636 215.795C56.636 215.795 52.0945 202.417 52.073 187.03C52.0586 177.613 55.3138 166.826 57.6995 159.692C57.9222 159.032 58.145 158.307 57.9007 157.661C57.7426 157.23 57.3905 156.9 57.0528 156.599C53.4455 153.405 48.7603 151.446 43.953 151.116C42.3003 151.001 40.2595 151.324 39.6774 152.874L39.9792 153.211H39.9864Z" fill="#FED5B7"/>
<path d="M140.653 85.3162C141.925 84.3186 143.75 85.4597 143.412 87.0387C140.042 102.943 139.165 119.371 140.832 135.541C141.35 140.537 142.133 145.611 144.425 150.089C143.211 151.238 141.084 150.728 139.984 149.479C138.885 148.23 138.526 146.501 138.217 144.864C135.256 129.333 132.288 113.702 132.087 97.8904C132.058 95.7804 132.13 93.5268 133.359 91.8114C133.999 90.9215 134.897 90.2612 135.781 89.6153C138.511 87.62 137.929 87.3186 140.66 85.3234L140.653 85.3162Z" fill="#87795B"/>
<path d="M136.183 37.8255C136.413 46.761 137.247 55.6821 138.677 64.5027C139.187 67.6463 139.783 70.8257 141.17 73.6965C142.557 76.5674 144.835 79.1368 147.839 80.2277C151.266 81.4765 156.095 79.8688 159.645 79.0435C159.386 79.2372 162.735 95.967 162.763 96.0388C162.965 96.5196 183.998 90.3258 184.141 89.9383C184.307 89.4861 178.709 71.9023 177.308 63.096C177.904 64.4381 179.83 64.7108 181.123 64.0003C182.41 63.2898 183.186 61.9333 183.825 60.6127C184.537 59.1486 185.19 57.6055 185.262 55.9835C185.341 54.3543 184.745 52.6175 183.401 51.6916C181.31 50.2562 176.208 52.4452 176.208 52.4452C176.208 52.4452 172.249 39.0959 171.997 32.1556L136.19 37.8183L136.183 37.8255Z" fill="#A85A4E"/>
<path d="M154.378 145.252C154.284 141.484 153.53 137.738 152.143 134.235C157.748 134.02 163.159 132.24 168.483 130.474C176.646 127.769 184.817 125.063 192.98 122.357C197.277 120.936 201.818 119.493 206.252 120.419C204.75 121.331 203.191 122.149 201.639 122.967C196.163 125.859 190.68 128.752 185.205 131.644C182.719 132.958 180.225 134.278 177.588 135.269C174.498 136.438 171.25 137.156 168.167 138.333C165.401 139.395 162.792 140.816 160.198 142.23C158.301 143.264 156.404 144.297 154.514 145.331L154.378 145.238V145.252Z" fill="#3E5177"/>
<path d="M59.6971 116.666C53.4958 119.594 48.8106 125.113 45.6417 131.192C42.4727 137.271 40.6619 143.953 38.8798 150.57C38.7073 151.223 38.5349 151.955 38.8798 152.537C39.2175 153.111 39.9361 153.326 40.59 153.491C47.0285 155.12 53.4742 156.75 59.9127 158.379C63.4913 188.745 63.211 194.724 59.9271 200.566C59.6684 201.025 60.1714 201.628 60.5522 201.987C60.8828 202.303 61.3499 202.417 61.8026 202.518C79.8246 206.659 98.6587 207.24 116.903 204.219C119.785 188.523 122.278 172.762 124.37 156.943C131.095 156.75 137.814 156.089 144.447 154.955C143.922 148.805 143.39 142.604 141.616 136.69C139.833 130.776 135.407 124.159 130.513 120.391C122.329 114.082 112.348 115.115 102.022 115.481C87.9518 115.991 73.8748 116.493 59.8049 117.003L59.7043 116.673L59.6971 116.666Z" fill="#662D91"/>
<path d="M143.153 150.455C139.826 164.515 140.265 179.149 139.28 193.568C138.296 207.987 135.587 222.908 127.086 234.599C127.021 234.614 119.957 221.494 120.029 221.257C125.332 198.614 125.8 174.857 121.395 152.02C128.013 150.513 134.811 149.788 141.601 149.86L143.161 150.455H143.153Z" fill="#FED5B7"/>
<path d="M101.734 155.436C99.7151 150.785 97.6958 146.142 95.6694 141.491C108.13 142.518 120.633 142.991 133.136 142.912C140.028 142.869 146.998 142.654 153.659 140.874C158.121 139.683 162.368 137.809 166.594 135.95C172.349 133.417 178.105 130.876 183.854 128.343C190.752 125.3 197.694 122.249 205.03 120.505C205.469 120.398 205.965 120.304 206.36 120.534C206.734 120.749 206.899 121.187 207.043 121.589C216.01 147.082 221.335 173.845 222.815 200.824C209.694 204.836 196.652 209.078 183.689 213.563C177.803 215.594 171.933 217.683 165.968 219.463C150.806 223.999 135.141 226.568 119.526 229.123C117.277 215.846 114.827 202.597 112.175 189.391C112.175 189.391 105.507 164.106 101.734 155.436Z" fill="#CEDDF4"/>
<path d="M155.987 149.573C157.863 157.833 159.731 166.094 161.606 174.355C162.533 178.446 163.446 182.53 164.387 186.621C165.293 190.539 166.256 194.458 167.564 198.262C168.282 200.365 169.166 202.403 169.978 204.47C170.768 206.494 171.473 208.575 171.681 210.75C171.738 211.389 172.744 211.396 172.687 210.75C172.313 206.817 170.488 203.286 169.123 199.64C167.714 195.872 166.687 191.968 165.76 188.056C163.813 179.831 162.009 171.57 160.141 163.331C159.084 158.659 158.021 153.979 156.964 149.307C156.821 148.675 155.851 148.941 155.994 149.573H155.987Z" fill="#8CA3C4"/>
<path d="M125.562 199.216C130.815 197.609 136.241 196.755 141.644 195.857C147.17 194.946 152.653 193.855 158.1 192.563C163.547 191.271 168.95 189.829 174.347 188.343C179.808 186.843 185.262 185.314 190.723 183.8C196.213 182.271 201.711 180.75 207.201 179.221C207.898 179.027 208.595 178.833 209.292 178.64C209.917 178.467 209.651 177.499 209.026 177.671C203.536 179.2 198.039 180.721 192.549 182.25C187.052 183.778 181.554 185.307 176.057 186.829C170.661 188.322 165.264 189.786 159.824 191.113C154.399 192.434 148.945 193.604 143.441 194.537C138.037 195.456 132.597 196.231 127.301 197.659C126.633 197.838 125.965 198.032 125.297 198.233C124.679 198.42 124.944 199.389 125.562 199.202V199.216Z" fill="#8CA3C4"/>
<path d="M108.884 161.687C116.156 161.573 123.428 161.465 130.707 161.35C137.951 161.242 145.194 161.128 152.43 161.02C154.263 160.991 156.102 160.963 157.935 160.934C158.33 160.934 158.775 160.984 159.163 160.905C159.53 160.833 159.925 160.482 160.234 160.281C160.924 159.843 161.614 159.405 162.311 158.982C165.12 157.252 167.973 155.594 170.876 154.022C176.668 150.886 182.625 148.065 188.733 145.589C191.794 144.348 194.884 143.192 198.003 142.13C199.576 141.592 201.157 141.075 202.753 140.58C203.536 140.336 204.319 140.099 205.102 139.869C205.627 139.711 206.331 139.41 206.18 138.721C206.058 138.154 205.354 137.917 204.944 138.326C204.484 138.785 205.196 139.496 205.656 139.037C205.677 139.015 205.181 138.785 205.167 138.785C205.095 138.785 204.987 138.85 204.923 138.872C204.757 138.922 204.585 138.972 204.42 139.022C204.024 139.137 203.636 139.259 203.248 139.374C202.494 139.604 201.739 139.84 200.992 140.077C199.49 140.558 197.995 141.061 196.508 141.584C193.533 142.625 190.58 143.752 187.662 144.951C181.842 147.34 176.143 150.039 170.61 153.025C167.837 154.525 165.099 156.097 162.411 157.74C161.736 158.149 161.068 158.565 160.399 158.989C160.076 159.19 159.76 159.398 159.436 159.599C159.3 159.685 159.142 159.829 158.991 159.886C158.797 159.958 158.531 159.922 158.323 159.922C156.584 159.951 154.845 159.972 153.106 160.001C146.186 160.109 139.266 160.216 132.346 160.317C125.397 160.424 118.441 160.532 111.493 160.64C110.623 160.654 109.754 160.668 108.884 160.683C108.237 160.69 108.237 161.695 108.884 161.687Z" fill="#8CA3C4"/>
<path d="M107.433 183.893C106.506 185.164 107.361 187.956 108.633 188.889C107.569 189.082 106.671 189.987 106.491 191.056C106.312 192.118 106.851 193.274 107.785 193.812C106.915 194.25 106.391 195.283 106.549 196.245C106.707 197.207 107.54 198.018 108.503 198.154C107.785 198.657 107.677 199.747 108.072 200.537C108.467 201.326 109.229 201.858 110.005 202.274C111.449 203.049 113.045 203.537 114.676 203.702C115.423 203.774 116.242 203.759 116.832 203.3C117.421 202.841 117.55 201.779 116.911 201.391C118.125 201.305 119.397 200.759 119.95 199.683C120.504 198.606 119.965 196.991 118.772 196.776C120.41 196.719 121.61 194.68 120.87 193.223C120.072 191.666 117.981 191.422 116.235 191.379C117.162 191.322 117.744 190.216 117.55 189.312C117.356 188.408 116.602 187.719 115.811 187.238C114.647 186.534 110.019 181.338 109.38 179.731L107.454 183.9L107.433 183.893Z" fill="#A85A4E"/>
<path d="M236.504 146.824C232.071 149.494 226.602 150.893 221.644 149.386C220.013 148.891 218.475 148.094 216.815 147.714C213.495 146.939 210.046 147.857 206.762 148.762L195.725 151.238C193.979 152.795 198.046 154.022 199.526 154.274C203.227 154.905 207.057 154.819 210.722 154.001C206.044 154.396 201.38 154.919 196.738 155.58C195.746 155.723 192.47 155.989 192.671 157.539C193.44 158.896 196.86 158.903 198.089 158.881C200.568 158.845 206.173 159.341 208.652 159.298C205.375 159.283 198.707 158.838 195.919 160.41C194.898 160.984 194.97 162.455 196.063 162.893C197.04 163.288 198.269 163.36 199.346 163.338C202.494 163.274 206.123 164.164 209.277 164.106C206.195 163.862 202.58 163.338 199.663 164.386C199.073 164.594 198.599 165.075 198.484 165.692C198.233 167.02 199.785 167.644 201.014 167.874C206.266 168.843 211.562 169.568 216.88 170.042C219.143 170.243 221.457 170.4 223.671 169.862C225.726 169.367 227.587 168.29 229.534 167.472C233.35 165.865 237.489 165.211 241.549 164.372C252.795 162.032 264.249 157.762 271.657 148.991C272.613 147.864 280.755 127.474 259.686 131.206C259.312 131.271 240.334 144.52 236.504 146.824Z" fill="#A85A4E"/>
<path d="M113.541 63.7706C116.551 73.0434 118.463 82.6679 119.225 92.3785C119.347 93.9 119.426 95.4861 118.851 96.9072C117.895 99.2756 115.33 100.596 112.844 101.192C110.357 101.788 107.742 101.859 105.342 102.735C105.543 106.324 105.744 109.912 105.945 113.501C115.725 111.534 127.553 116.644 134.502 123.793C126.741 126.046 117.809 126.505 109.826 127.718C100.197 129.182 90.3376 129.104 80.7301 127.482C77.942 127.015 75.1683 126.412 72.5167 125.415C67.5513 123.556 64.059 119.795 59.7834 116.666C68.4855 113.02 76.9504 111.441 86.3638 110.852C86.2416 104.292 85.8536 97.7469 85.1997 91.2158C84.323 92.9957 82.0092 93.821 80.1121 93.2469C78.2079 92.6727 76.8067 90.9 76.3899 88.955C75.9444 86.8736 76.6126 84.5411 78.2438 83.1703C79.875 81.8066 82.4475 81.5985 84.1578 82.8688C83.1877 77.6942 82.62 72.4405 82.4763 67.1797L113.541 63.7563V63.7706Z" fill="#FED5B7"/>
<path d="M158.416 194.91C164.553 194.695 170.668 193.869 176.639 192.448C178.357 192.039 180.06 191.58 181.748 191.07C182.366 190.884 182.1 189.915 181.482 190.102C175.662 191.846 169.669 193.023 163.618 193.575C161.887 193.733 160.155 193.841 158.416 193.905C157.769 193.927 157.769 194.932 158.416 194.91Z" fill="#8CA3C4"/>
<path d="M217.512 186.814C216.966 190.152 216.844 193.525 217.16 196.891C217.282 196.733 217.404 196.568 217.527 196.41C211.62 198.743 205.677 200.996 199.706 203.164C193.734 205.331 187.727 207.413 181.698 209.408C175.669 211.403 169.604 213.312 163.518 215.135C157.432 216.958 151.316 218.695 145.187 220.346C139.05 221.996 132.892 223.561 126.712 225.04C125.929 225.226 125.153 225.413 124.37 225.592C124.556 225.671 124.75 225.743 124.937 225.822C123.069 221.996 122.106 217.783 122.099 213.535C122.099 212.889 121.093 212.889 121.093 213.535C121.1 217.97 122.128 222.348 124.068 226.331C124.168 226.532 124.427 226.611 124.636 226.561C130.822 225.104 136.988 223.568 143.125 221.939C149.269 220.31 155.384 218.594 161.477 216.793C167.571 214.992 173.636 213.104 179.679 211.13C185.715 209.157 191.73 207.097 197.708 204.951C203.687 202.805 209.637 200.58 215.558 198.262C216.305 197.968 217.052 197.673 217.8 197.379C217.994 197.3 218.188 197.128 218.166 196.898C217.857 193.625 217.958 190.331 218.482 187.087C218.583 186.456 217.62 186.183 217.512 186.822V186.814Z" fill="#8CA3C4"/>
<path d="M103.789 150.728C103.804 148.453 103.214 146.221 102.065 144.262C101.921 144.513 101.777 144.764 101.634 145.015C108.611 145.252 115.581 145.496 122.559 145.733C129.536 145.97 136.506 146.214 143.484 146.451C145.208 146.508 146.933 146.573 148.658 146.63C150.282 146.687 151.927 146.716 153.522 146.379C155.053 146.056 156.497 145.388 157.891 144.692C159.364 143.953 160.838 143.206 162.318 142.474C168.368 139.482 174.483 136.625 180.656 133.905C186.85 131.171 193.109 128.572 199.418 126.118C200.194 125.816 200.978 125.515 201.754 125.214C201.567 125.135 201.373 125.063 201.186 124.984C202.515 126.807 203.838 128.637 205.167 130.46C205.541 130.977 206.417 130.474 206.036 129.95C204.707 128.127 203.385 126.297 202.055 124.474C201.933 124.309 201.703 124.159 201.488 124.245C195.243 126.642 189.042 129.168 182.905 131.831C176.747 134.501 170.639 137.307 164.603 140.242C163.101 140.974 161.599 141.714 160.105 142.453C158.667 143.171 157.252 143.939 155.779 144.577C154.227 145.252 152.631 145.611 150.936 145.654C149.247 145.697 147.551 145.589 145.87 145.532C138.928 145.295 131.987 145.058 125.045 144.814C118.103 144.577 111.162 144.34 104.22 144.096C103.358 144.068 102.496 144.039 101.634 144.01C101.246 143.996 101.016 144.448 101.202 144.764C102.259 146.58 102.805 148.625 102.791 150.728C102.791 151.374 103.789 151.374 103.797 150.728H103.789Z" fill="#8CA3C4"/>
<path opacity="0.39" d="M105.342 102.742L93.2909 103.718L105.557 107.946L105.342 102.742Z" fill="#9B643E"/>
<path d="M105.643 79.6894C106.613 83.1559 107.418 86.6655 108.051 90.211C108.259 90.0029 108.46 89.8019 108.669 89.5938C107.526 89.2995 106.391 89.0052 105.248 88.7038C104.623 88.5387 104.357 89.5076 104.982 89.6727C106.125 89.967 107.26 90.2612 108.403 90.5627C108.798 90.6632 109.085 90.3187 109.021 89.9454C108.388 86.4 107.584 82.8904 106.613 79.4239C106.441 78.7994 105.471 79.065 105.643 79.6894Z" fill="#9B643E"/>
<path d="M79.9253 86.8521C81.1971 87.9215 82.4619 88.9837 83.7337 90.0531C83.9421 90.2253 84.2439 90.254 84.4451 90.0531C84.6248 89.8736 84.6535 89.522 84.4451 89.3425C83.1732 88.2732 81.9085 87.2109 80.6367 86.1416C80.4283 85.9693 80.1265 85.9406 79.9253 86.1416C79.7456 86.321 79.7169 86.6727 79.9253 86.8521Z" fill="#9B643E"/>
<path d="M80.1983 89.644C80.881 89.4574 81.5637 89.2708 82.2463 89.0841C82.4978 89.0124 82.6775 88.7253 82.5984 88.4669C82.5122 88.2085 82.2535 88.0435 81.9804 88.1152L79.9325 88.6751C79.681 88.7468 79.5013 89.0339 79.5804 89.2923C79.6666 89.5507 79.9253 89.7157 80.1983 89.644Z" fill="#9B643E"/>
<path d="M103.976 92.2134C102.949 91.955 102.022 92.7588 102.173 93.7636C102.381 95.1488 104.127 95.4789 104.795 94.3234C105.291 93.4693 104.874 92.4215 103.976 92.2062V92.2134Z" fill="white"/>
<path d="M104.106 91.7325C103.638 91.6177 103.179 91.6464 102.733 91.8473C102.367 92.0124 102.036 92.3282 101.856 92.6871C101.497 93.4119 101.612 94.3091 102.151 94.9191C102.611 95.4431 103.38 95.644 104.048 95.4789C104.759 95.2995 105.341 94.6608 105.471 93.943C105.643 92.967 105.083 91.9837 104.098 91.7325C103.847 91.6679 103.538 91.8186 103.48 92.0842C103.423 92.3426 103.559 92.6296 103.832 92.7014C104.019 92.7732 104.084 92.8019 104.149 92.8378C104.35 93.0531 104.386 93.1105 104.422 93.1751C104.479 93.7852 104.45 93.8569 104.429 93.9359C104.35 94.0722 104.321 94.1225 104.292 94.1727C104.192 94.2875 104.141 94.3306 104.091 94.3809C103.897 94.4813 103.84 94.5029 103.782 94.5172C103.66 94.5316 103.603 94.5387 103.545 94.5387C103.423 94.5244 103.365 94.5172 103.308 94.5029C102.97 94.3234 102.927 94.2875 102.891 94.2445C102.798 94.1225 102.769 94.0722 102.747 94.022C102.69 93.8641 102.676 93.7995 102.668 93.7421C102.668 93.6919 102.654 93.5052 102.654 93.4765C103.279 92.7086 103.437 92.6368 103.48 92.6655C103.732 92.6799 103.782 92.6942 103.832 92.7086C104.084 92.7732 104.386 92.6296 104.45 92.3569C104.508 92.0985 104.371 91.8043 104.098 91.7397L104.106 91.7325Z" fill="#9B643E"/>
<path d="M99.133 84.9214C99.133 85.9406 98.5581 86.7731 97.8467 86.7731C97.1353 86.7731 96.5604 85.9478 96.5604 84.9214C96.5604 83.8951 97.1353 83.0698 97.8467 83.0698C98.5581 83.0698 99.133 83.8951 99.133 84.9214Z" fill="black"/>
<path d="M113.964 84.3545C113.964 85.3736 113.39 86.2062 112.678 86.2062C111.967 86.2062 111.392 85.3808 111.392 84.3545C111.392 83.3282 111.967 82.5028 112.678 82.5028C113.39 82.5028 113.964 83.3282 113.964 84.3545Z" fill="black"/>
<path d="M89.2165 79.0865C89.2884 78.864 89.3962 78.6631 89.583 78.5123C89.7914 78.3545 90.0573 78.2899 90.316 78.2324C94.067 77.4501 97.9832 77.4789 101.72 78.3186C103.459 78.7061 105.262 79.2659 106.973 78.7779C107.655 78.5841 108.281 78.2324 108.92 77.931C111.909 76.5171 115.387 76.1511 118.607 76.9047C118.908 76.9765 119.153 77.1846 119.289 77.4645L119.555 78.0171C119.771 78.498 119.72 79.0865 119.426 79.5171C119.289 79.7181 119.102 79.8903 118.959 80.0913C118.456 80.7803 118.499 81.7133 118.513 82.5674C118.542 84.1392 118.377 85.7971 117.514 87.1105C116.523 88.6177 114.64 89.4717 112.844 89.2923C111.047 89.1129 109.394 87.9287 108.597 86.3067C107.907 84.9215 107.698 82.3162 106.441 81.3401C106.168 81.132 105.852 80.9813 105.507 80.9669C104.673 80.9382 104.4 82.4597 104.163 83.0698C103.495 84.7779 103.107 86.7157 101.756 87.9646C100.491 89.1272 98.9246 89.8593 97.2144 90.0316C96.0143 90.1536 94.4694 89.7732 93.4274 89.1703C92.3855 88.5674 91.8106 87.4191 91.3723 86.2995C90.7615 84.7564 90.2944 83.1631 89.9854 81.5339C89.9567 81.3688 89.9136 81.1822 89.7842 81.0746C89.6836 80.9956 89.5543 80.9669 89.4465 80.9023C89.7411 81.0674 82.3253 83.0554 81.7577 82.4884C80.9097 81.6416 82.6128 80.2133 89.2309 79.0722L89.2165 79.0865ZM114.899 87.4909C115.445 87.3186 116.034 87.1607 116.415 86.687C116.731 86.2995 116.882 85.7755 116.997 85.2588C117.342 83.7373 117.435 82.1439 117.284 80.5722C117.213 79.8401 117.026 79.0076 116.451 78.6631C116.142 78.4765 115.775 78.5411 115.438 78.4836C113.102 78.0674 111.536 78.7564 109.624 79.187C108.92 79.3449 108.769 79.6176 108.273 80.199C107.778 80.7803 110.257 88.9622 114.899 87.4909ZM91.825 81.8497C91.8969 83.4286 92.2633 84.9932 92.8885 86.443C93.0969 86.9311 93.3556 87.4263 93.7724 87.7636C94.2825 88.1727 94.9652 88.2875 95.6119 88.3234C96.7545 88.388 99.2048 88.2803 100.656 86.7516C100.951 86.443 103.653 82.0794 102.661 80.6655C101.799 79.4382 95.8059 79.2372 93.5927 79.5028C93.2047 79.553 92.7951 79.6104 92.4717 79.8401C91.8753 80.2707 91.7891 81.1176 91.825 81.8569V81.8497Z" fill="#01A299"/>
<g opacity="0.46">
<path d="M100.858 86.6225C99.3557 88.2086 96.812 88.3234 95.6263 88.2588C94.9508 88.223 94.2394 88.1009 93.7149 87.6775C93.2837 87.333 93.0178 86.8162 92.7951 86.3067C92.1484 84.7995 91.7675 83.1775 91.6885 81.5411C91.6525 80.7803 91.7388 79.8975 92.3568 79.4454C92.6873 79.2086 93.1113 79.144 93.5209 79.0937C95.8203 78.8138 102.043 79.0219 102.934 80.2995C103.962 81.7636 101.159 86.2923 100.858 86.6153V86.6225Z" fill="#F59F18"/>
</g>
<g opacity="0.46">
<path d="M115.071 87.6344C115.639 87.455 116.242 87.2899 116.645 86.8019C116.975 86.4 117.133 85.8545 117.248 85.3234C117.608 83.7444 117.708 82.0865 117.55 80.4573C117.478 79.6966 117.284 78.8353 116.688 78.4765C116.372 78.2827 115.991 78.3473 115.639 78.2899C113.217 77.8521 111.586 78.5698 109.603 79.0219C108.87 79.187 108.719 79.4669 108.201 80.0698C107.684 80.6727 110.264 89.1631 115.078 87.6344H115.071Z" fill="#F59F18"/>
</g>
<path d="M101.008 73.9549C100.771 74.6654 100.534 75.376 100.297 76.0865C100.247 76.2372 100.189 76.3951 100.06 76.4741C99.909 76.5745 99.7078 76.5315 99.5281 76.4956C97.3149 76.0147 94.9939 76.0291 92.7878 76.5458C94.4262 74.2061 97.5736 73.0291 100.347 73.7252L101.008 73.9549Z" fill="black"/>
<path d="M108.259 72.1391C108.496 72.8496 108.733 73.5602 108.97 74.2707C109.021 74.4214 109.078 74.5793 109.207 74.6583C109.358 74.7587 109.56 74.7157 109.739 74.6798C111.952 74.1989 114.273 74.2133 116.479 74.73C114.841 72.3903 111.694 71.2133 108.92 71.9094L108.259 72.1391Z" fill="black"/>
<path d="M83.8056 67.3089C82.0667 70.9334 81.2187 75.4262 83.3098 78.864C84.8619 81.4262 88.0021 83.6009 87.3985 86.5291C87.1542 87.6918 86.3279 88.6536 85.947 89.7804C85.5662 90.9072 85.947 92.5005 87.1255 92.6799C84.3374 90.4478 86.4356 84.8067 83.2954 83.1057C82.0523 82.431 80.3133 82.6679 79.4223 81.577C78.7899 80.8018 78.8833 79.6894 78.8761 78.6846C78.8618 76.0004 77.9276 73.4023 77.7552 70.7252C77.5755 68.0482 78.4522 64.9764 80.881 63.8352C81.9158 63.3544 83.0942 63.2826 84.1434 62.8305C85.6811 62.1702 86.7734 60.7491 88.2537 59.9596C91.0489 58.4596 94.4622 59.4931 97.6383 59.4213C101.109 59.3496 104.429 57.907 107.893 57.7347C111.428 57.5625 115.006 58.7682 117.716 61.0434C118.506 61.7108 119.246 62.5075 119.512 63.4979C120.08 65.608 118.125 67.7755 115.955 68.0625C113.792 68.3496 111.658 67.23 110.034 65.7659C110.961 66.6271 110.249 68.3424 109.064 68.7659C107.878 69.1893 106.563 68.73 105.435 68.163C104.307 67.596 103.179 66.907 101.914 66.8568C99.3198 69.4477 94.6275 69.498 91.9831 66.9644C92.3927 67.6247 91.6166 68.4645 90.8405 68.5649C90.0645 68.6582 89.2884 68.3568 88.5123 68.407C87.5854 68.4645 86.7518 69.0027 85.8392 69.1176C84.9266 69.2324 83.7625 68.5362 84.014 67.6463L83.82 67.3018L83.8056 67.3089Z" fill="black"/>
<path d="M81.5421 57.3974C81.0534 55.5529 80.2127 53.8017 79.0773 52.2658C78.2797 51.1821 77.1731 50.1414 75.8294 50.1342C74.4856 50.127 73.2353 51.785 74.0616 52.8472C72.5742 50.773 70.2819 49.2945 67.7812 48.7706C66.998 48.6055 66.0207 48.6127 65.5896 49.2873C65.3955 49.5888 65.3596 49.962 65.1584 50.2562C64.8063 50.7802 64.0877 50.8735 63.4625 50.9668C60.4661 51.4261 57.5271 53.3639 56.6791 56.2706C55.8312 59.1773 57.8217 62.8089 60.8469 63.0099C58.8349 64.1869 58.49 67.309 59.9918 69.0889C61.4936 70.876 64.332 71.1918 66.3728 70.0578C65.5824 70.4956 65.4961 71.687 66.0207 72.4262C66.5453 73.1655 67.4651 73.5028 68.3561 73.632C69.6064 73.8186 70.8999 73.675 72.0784 73.2157C72.567 73.0291 73.0125 72.254 72.5023 72.1248C71.8412 72.1678 71.6903 73.2013 72.179 73.6463C72.6676 74.0913 73.4221 74.0554 74.0616 73.8975C76.2318 73.3736 78.0857 71.7085 78.8474 69.6128L81.5421 57.4046V57.3974Z" fill="black"/>
<path d="M42.9973 184.116C45.2537 183.685 47.51 183.247 49.7736 182.817C50.4059 182.695 50.14 181.726 49.5077 181.848C47.2513 182.278 44.995 182.716 42.7315 183.147C42.0991 183.269 42.365 184.238 42.9973 184.116Z" fill="#9B643E"/>
<path d="M83.9494 111.685C85.1278 113.386 86.3207 115.108 87.7866 116.58C89.2166 118.008 90.9052 119.12 92.8167 119.795C94.6994 120.455 96.7401 120.678 98.7162 120.426C100.649 120.182 102.417 119.379 104.012 118.273C105.787 117.039 107.375 115.481 108.546 113.658C108.899 113.113 108.029 112.611 107.677 113.149C106.7 114.67 105.392 116.005 103.948 117.082C102.553 118.123 100.98 118.998 99.2552 119.328C95.5401 120.046 91.6382 118.812 88.8932 116.257C87.298 114.764 86.0476 112.962 84.8117 111.175C84.4452 110.644 83.5757 111.147 83.9422 111.685H83.9494Z" fill="white"/>
<path d="M97.3653 120.182C96.8192 120.548 96.2587 120.929 95.8994 121.481C95.0227 122.824 95.9569 124.941 97.5377 125.192C99.1258 125.443 100.671 123.706 100.218 122.163C99.7654 120.627 97.509 120.003 96.3377 121.101L97.3653 120.182Z" fill="white"/>
<path d="M117.96 62.3352C117.665 57.828 113.39 54.0385 108.855 54.3902C109.013 54.5122 109.179 54.6342 109.337 54.7562C108.69 52.2514 107.009 50.0696 104.781 48.7562C102.489 47.4141 99.7006 47.1342 97.164 47.8949C95.7125 48.3327 94.3831 49.0935 93.2837 50.127C93.5711 50.2418 93.8586 50.3638 94.1388 50.4787C93.916 48.2538 91.4944 47.2562 89.4968 47.3854C87.147 47.5361 84.9122 48.8997 83.4894 50.7227C82.663 51.7777 82.0738 53.005 81.8079 54.3256C81.6858 54.9572 82.6487 55.2299 82.778 54.5911C83.166 52.6246 84.3445 50.8591 85.9973 49.7107C87.535 48.6413 89.5327 48.0098 91.3651 48.627C92.2058 48.9141 93.0394 49.5313 93.1328 50.4715C93.1759 50.8949 93.6573 51.139 93.9879 50.8232C95.7484 49.1724 98.1629 48.3399 100.563 48.4763C102.913 48.6126 105.076 49.7897 106.585 51.5696C107.425 52.5672 108.029 53.7442 108.352 55.0074C108.403 55.2084 108.625 55.395 108.834 55.3734C112.8 55.0648 116.674 58.3232 116.932 62.3137C116.975 62.9524 117.981 62.9596 117.938 62.3137L117.96 62.3352Z" fill="black"/>
<path d="M82.505 97.223C82.8643 97.0938 83.0727 98.1273 83.123 98.3785C83.2236 98.8593 83.238 99.3545 83.1948 99.8354C83.1086 100.776 82.7134 101.701 82.0092 102.347C81.6283 102.692 81.075 103.029 80.5433 102.965C80.2774 102.936 79.7241 102.512 80.0331 102.189C80.1552 102.06 80.378 102.139 80.5002 102.218C80.7373 102.369 80.802 102.663 80.802 102.929C80.802 103.46 80.5864 103.977 80.299 104.414C79.6594 105.39 78.5384 105.993 77.3743 105.993C76.7276 105.993 76.7276 106.998 77.3743 106.998C79.0199 106.998 80.6223 106.036 81.3696 104.558C81.7433 103.819 81.9733 102.893 81.6355 102.103C81.3337 101.407 80.5361 100.941 79.7816 101.192C79.0127 101.443 78.7971 102.333 79.0989 103.022C79.4654 103.847 80.3636 104.099 81.1972 103.905C82.7421 103.546 83.7841 102.003 84.0859 100.532C84.2655 99.6632 84.2512 98.7517 84.0284 97.8904C83.8272 97.0938 83.2451 95.8952 82.2248 96.2541C81.6211 96.4694 81.8798 97.4383 82.4906 97.223H82.505Z" fill="black"/>
<path d="M75.2545 64.5242C75.6856 60.9429 76.3898 56.1988 80.263 54.6916C80.0474 54.5338 79.839 54.3687 79.6235 54.2108C79.8821 56.6869 78.2438 58.6965 76.6845 60.4261C75.1108 62.1702 73.6377 63.9788 72.4017 65.9884C71.7909 66.986 71.2304 68.0123 70.7346 69.0673C70.3106 69.9645 69.6423 71.0984 69.937 72.1248C70.21 73.0865 71.2735 73.474 72.1789 73.2013C73.1993 72.8927 73.7311 71.9166 74.1191 71.0051C75.1826 68.486 75.6281 65.73 75.4269 63.0099C75.3838 62.3711 74.3778 62.3639 74.4209 63.0099C74.579 65.2204 74.3131 67.431 73.6017 69.5338C73.3143 70.3807 72.9838 71.5793 72.1861 72.1032C71.9059 72.2898 71.4891 72.3688 71.1801 72.2109C70.7346 71.974 70.8568 71.4071 70.9861 71.0123C71.2879 70.0649 71.7909 69.1463 72.2508 68.2778C72.7538 67.3305 73.2999 66.4118 73.8964 65.5219C75.082 63.7419 76.4904 62.1917 77.8917 60.584C79.4366 58.8185 80.881 56.6797 80.6223 54.218C80.5935 53.9309 80.3205 53.6007 79.9827 53.7371C78.1216 54.462 76.7132 55.962 75.8437 57.7347C74.8018 59.852 74.5143 62.2204 74.2341 64.5386C74.155 65.1774 75.1611 65.1702 75.2401 64.5386L75.2545 64.5242Z" fill="#F59F18"/>
<path d="M74.6652 63.096L78.9624 70.4238C79.2857 70.9836 80.1552 70.474 79.8319 69.9142L75.5347 62.5864C75.2114 62.0266 74.3419 62.5362 74.6652 63.096Z" fill="#F59F18"/>
<path d="M75.8509 63.3902C77.518 64.5673 79.1852 65.7443 80.8523 66.9142C81.075 67.0721 81.4128 66.9572 81.5421 66.7348C81.6858 66.4836 81.5852 66.2037 81.3625 66.0458C79.6953 64.8687 78.0282 63.6917 76.3611 62.5218C76.1384 62.3639 75.8006 62.4788 75.6713 62.7012C75.5276 62.9524 75.6282 63.2323 75.8509 63.3902Z" fill="#F59F18"/>
<path d="M195.948 153.132C200.748 154.833 205.943 155.242 210.959 154.36C211.598 154.245 211.325 153.283 210.693 153.391C205.857 154.238 200.841 153.8 196.213 152.163C195.603 151.948 195.337 152.917 195.948 153.132Z" fill="#461F1D"/>
<path d="M194.633 158.931C198.987 159.089 203.342 159.262 207.696 159.427C208.781 159.47 209.859 159.506 210.944 159.549C211.591 159.57 211.591 158.565 210.944 158.544C206.59 158.386 202.235 158.214 197.88 158.049C196.795 158.006 195.718 157.97 194.633 157.927C193.986 157.905 193.986 158.91 194.633 158.931Z" fill="#461F1D"/>
<path d="M197.586 164.422C199.842 164.422 202.106 164.609 204.362 164.68C206.575 164.752 208.911 164.853 211.081 164.343C211.713 164.192 211.447 163.231 210.815 163.374C208.695 163.869 206.403 163.74 204.24 163.675C202.02 163.604 199.806 163.424 197.586 163.424C196.939 163.424 196.939 164.429 197.586 164.429V164.422Z" fill="#461F1D"/>
<path d="M232.387 153.9C231.92 157.18 231.453 160.453 230.986 163.733C230.95 164.006 231.05 164.271 231.338 164.35C231.575 164.415 231.92 164.264 231.956 163.998C232.423 160.719 232.89 157.446 233.357 154.166C233.393 153.893 233.292 153.628 233.005 153.549C232.768 153.484 232.423 153.635 232.387 153.9Z" fill="#461F1D"/>
<path d="M108.252 189.499C111.033 190.618 113.885 191.537 116.803 192.24C117.428 192.391 117.701 191.422 117.069 191.271C114.159 190.568 111.299 189.656 108.518 188.53C107.921 188.286 107.655 189.262 108.252 189.499Z" fill="#461F1D"/>
<path d="M107.088 193.984C110.695 196.001 114.784 197.056 118.916 197.042C119.562 197.042 119.562 196.037 118.916 196.037C114.956 196.051 111.047 195.046 107.598 193.116C107.03 192.8 106.527 193.668 107.088 193.984Z" fill="#461F1D"/>
<path d="M108 198.692C110.968 200.566 114.424 201.585 117.931 201.649C118.578 201.664 118.578 200.659 117.931 200.645C114.59 200.587 111.334 199.604 108.51 197.824C107.964 197.48 107.454 198.348 108 198.692Z" fill="#461F1D"/>
<path d="M198.434 68.9453C215.96 88.9837 228.018 113.745 232.976 139.891C234.37 139.905 234.751 137.996 234.65 136.611C233.026 113.996 225.762 91.8043 213.682 72.6056C212.978 71.486 212.238 70.352 211.21 69.5195C209.313 67.9836 206.741 67.6606 204.312 67.4022C201.969 67.151 198.951 67.2802 198.096 69.4764L198.434 68.9525V68.9453Z" fill="#87795B"/>
<path d="M221.903 107.292C222.794 108.778 224.562 109.489 226.229 108.979C227.989 108.441 229.067 106.991 229.297 105.19C229.563 103.144 228.701 101.17 228.018 99.29C227.637 98.2493 227.263 97.2015 226.883 96.1608C226.602 95.3857 226.3 94.5388 225.675 93.9718C224.95 93.3115 224.015 93.2612 223.103 93.4837C222.075 93.7278 221.062 94.1153 220.07 94.4813C219.301 94.7684 218.612 95.0914 218.08 95.7373C217.598 96.3187 217.311 97.022 217.232 97.7684C217.139 98.7015 217.455 99.5197 217.907 100.309C218.339 101.056 218.77 101.809 219.194 102.556C220.099 104.135 221.005 105.713 221.91 107.292C222.233 107.852 223.103 107.35 222.779 106.783C221.385 104.357 219.984 101.938 218.604 99.5053C218.116 98.6369 218.08 97.6034 218.59 96.7278C218.935 96.1392 219.474 95.7732 220.106 95.5292C221.019 95.1847 221.946 94.8617 222.88 94.5818C223.635 94.3522 224.49 94.1512 225.093 94.7971C225.618 95.3569 225.833 96.1895 226.092 96.8928C226.753 98.7086 227.515 100.517 228.032 102.383C228.485 104.012 228.614 106.094 227.227 107.335C225.877 108.541 223.735 108.369 222.787 106.783C222.456 106.23 221.587 106.733 221.917 107.292H221.903Z" fill="#3F3523"/>
<path d="M220.207 103.553C222.65 102.448 225.1 101.335 227.544 100.23C228.133 99.9647 227.623 99.0962 227.033 99.3618C224.59 100.467 222.14 101.579 219.697 102.685C219.108 102.95 219.618 103.819 220.207 103.553Z" fill="#3F3523"/>
<path d="M132.885 110.199C133.941 109.847 135.019 109.568 136.118 109.367C136.65 109.266 137.182 109.187 137.714 109.13C138.174 109.08 138.648 109.001 139.101 109.151C139.805 109.388 140.293 110.07 140.308 110.809C140.336 111.936 140.214 113.092 140.121 114.218C140.028 115.352 139.905 116.479 139.747 117.606C139.683 118.094 139.632 118.589 139.524 119.07C139.481 119.271 139.438 119.436 139.237 119.522C139 119.623 138.669 119.565 138.418 119.572C137.275 119.572 136.133 119.58 134.997 119.587C134.724 119.587 134.451 119.601 134.185 119.587C133.876 119.572 133.92 119.529 133.884 119.235C133.812 118.632 133.761 118.029 133.697 117.434L133.309 113.666C133.244 113.013 133.172 112.352 133.108 111.699C133.086 111.498 132.964 110.802 133.237 110.723C133.855 110.544 133.589 109.568 132.971 109.754C131.872 110.077 132.073 111.398 132.166 112.273C132.31 113.666 132.454 115.058 132.597 116.458C132.669 117.168 132.741 117.879 132.82 118.589C132.87 119.106 132.82 119.845 133.201 120.254C133.632 120.714 134.351 120.599 134.926 120.592C135.608 120.592 136.284 120.592 136.966 120.584C137.649 120.584 138.339 120.613 139.014 120.57C139.553 120.534 140.049 120.355 140.322 119.859C140.617 119.328 140.631 118.632 140.71 118.044C140.804 117.376 140.89 116.702 140.969 116.027C141.127 114.606 141.235 113.178 141.299 111.757C141.35 110.666 141.314 109.647 140.473 108.843C139.517 107.924 138.339 108.046 137.117 108.211C135.594 108.419 134.092 108.764 132.626 109.245C132.015 109.446 132.274 110.414 132.892 110.214L132.885 110.199Z" fill="#3F3523"/>
<path d="M133.381 115.568C135.824 115.288 138.217 114.692 140.653 114.412C140.926 114.383 141.156 114.204 141.156 113.91C141.156 113.666 140.926 113.379 140.653 113.407C138.209 113.687 135.817 114.283 133.381 114.563C133.108 114.592 132.878 114.771 132.878 115.065C132.878 115.309 133.108 115.596 133.381 115.568Z" fill="#3F3523"/>
<path d="M216.032 90.9718C216.255 90.8354 216.485 90.7134 216.722 90.5986C216.945 90.4981 217.074 90.4407 217.325 90.3546C217.555 90.2756 217.792 90.2038 218.03 90.1536C218.152 90.1249 218.267 90.1034 218.389 90.0818C218.461 90.0675 218.525 90.0603 218.597 90.0459C218.985 89.9957 219.237 89.8234 219.222 89.5292C219.208 89.2852 219 88.9909 218.719 89.0268C217.584 89.1632 216.499 89.5148 215.522 90.1105C215.299 90.2469 215.191 90.5699 215.342 90.7995C215.486 91.022 215.788 91.1225 216.032 90.979V90.9718Z" fill="#3F3523"/>
<path d="M215.852 87.821C215.96 87.6918 216.01 87.6488 216.068 87.5985C216.212 87.5124 216.276 87.4837 216.341 87.455C216.355 87.455 216.492 87.4119 216.628 87.3976C216.621 87.3976 216.743 87.3976 216.873 87.4119C216.808 87.4047 216.873 87.4119 216.945 87.4406C217.196 87.5124 217.505 87.3545 217.563 87.0889C217.62 86.8234 217.484 86.5507 217.21 86.4717C216.37 86.2349 215.457 86.6009 214.983 87.3186C214.839 87.5411 214.933 87.8856 215.163 88.0076C215.414 88.144 215.694 88.065 215.852 87.8282V87.821Z" fill="#3F3523"/>
<path d="M213.732 84.0889C214.394 83.7659 215.047 83.443 215.709 83.12C215.946 83.0052 216.032 82.6463 215.888 82.431C215.73 82.187 215.45 82.1296 215.198 82.2516C214.537 82.5746 213.883 82.8975 213.222 83.2205C212.985 83.3353 212.899 83.6942 213.043 83.9095C213.201 84.1535 213.474 84.2109 213.732 84.0889Z" fill="#3F3523"/>
<path d="M135.263 106.051L137.599 105.182C137.843 105.089 138.037 104.838 137.951 104.565C137.872 104.328 137.599 104.113 137.333 104.213C136.557 104.501 135.774 104.795 134.997 105.082C134.753 105.175 134.559 105.426 134.645 105.699C134.724 105.936 134.997 106.151 135.263 106.051Z" fill="#3F3523"/>
<path d="M135.709 102.742C135.824 102.656 135.946 102.591 136.075 102.534C136.118 102.52 136.291 102.469 136.47 102.448C136.506 102.448 136.672 102.448 136.844 102.469C136.801 102.469 136.887 102.484 136.973 102.505C137.225 102.577 137.534 102.419 137.591 102.154C137.649 101.888 137.512 101.608 137.239 101.536C136.557 101.35 135.781 101.465 135.206 101.881C135.098 101.96 135.012 102.046 134.976 102.182C134.94 102.304 134.954 102.462 135.026 102.57C135.163 102.778 135.486 102.914 135.716 102.749L135.709 102.742Z" fill="#3F3523"/>
<path d="M136.241 97.467C137.232 97.2876 138.224 97.101 139.208 96.9215C139.467 96.8713 139.639 96.5483 139.56 96.3043C139.474 96.0244 139.223 95.9024 138.942 95.9526C137.951 96.1321 136.959 96.3187 135.975 96.4981C135.716 96.5483 135.544 96.8713 135.623 97.1153C135.716 97.3952 135.96 97.5172 136.241 97.467Z" fill="#3F3523"/>
<path d="M211.081 151.74C210.765 157.087 210.916 162.455 211.527 167.774C211.598 168.405 212.604 168.412 212.533 167.774C211.922 162.455 211.771 157.087 212.087 151.74C212.123 151.094 211.117 151.094 211.081 151.74Z" fill="#461F1D"/>
<path d="M162.318 84.5124C160.579 88.1296 156.627 94.0794 158.797 97.4598C161.204 101.213 166.213 102.405 170.675 102.161C175.712 101.888 180.864 100.065 184.163 96.2541C187.461 92.4431 188.41 86.4287 185.557 82.2732C183.329 79.0219 179.197 77.4071 175.252 77.5004C171.307 77.5937 167.535 79.187 164.179 81.2684C163.029 81.9789 161.757 83.199 162.246 84.4622L162.311 84.5196L162.318 84.5124Z" fill="#A85A4E"/>
<path d="M178.565 59.3137C179.621 58.4022 180.671 57.4907 181.727 56.5721C181.928 56.3998 181.914 56.0338 181.727 55.8615C181.511 55.6677 181.231 55.6749 181.015 55.8615C179.959 56.773 178.91 57.6845 177.854 58.6032C177.652 58.7754 177.667 59.1415 177.854 59.3137C178.069 59.5075 178.35 59.5003 178.565 59.3137Z" fill="#461F1D"/>
<path d="M179.621 58.1869C179.743 58.2587 179.858 58.3304 179.973 58.4094C180.031 58.4453 180.081 58.4883 180.132 58.5242C180.433 58.7754 180.627 58.9692 180.8 59.1773C181.066 59.529 181.138 59.651 181.209 59.7658C181.274 59.8807 181.339 59.9955 181.389 60.1175C181.468 60.2969 181.497 60.3687 181.518 60.4333C181.605 60.6773 181.863 60.8711 182.136 60.785C182.381 60.706 182.582 60.4333 182.488 60.1678C182.064 58.9764 181.231 57.9572 180.132 57.3256C179.902 57.1964 179.571 57.261 179.442 57.5051C179.312 57.7419 179.377 58.0505 179.621 58.1941V58.1869Z" fill="#461F1D"/>
<path opacity="0.46" d="M159.645 79.0506L173.7 74.9884L160.608 82.2875L159.645 79.0506Z" fill="#461F1D"/>
<path d="M151.762 53.5218C150.346 55.7251 149.304 58.1725 148.722 60.7275C148.442 61.9548 148.205 63.2539 148.198 64.5098C148.198 65.5003 148.629 66.6271 149.771 66.6773C150.303 66.6989 150.799 66.4548 151.266 66.218C151.668 66.0099 152.164 65.6797 152.646 65.773C153.278 65.895 153.551 64.9261 152.912 64.8041C152.33 64.6893 151.805 64.84 151.28 65.084C150.864 65.2778 150.425 65.6079 149.958 65.6654C148.715 65.8161 149.319 63.0816 149.412 62.4859C149.879 59.4644 150.979 56.5792 152.639 54.017C152.991 53.4715 152.121 52.9691 151.769 53.5074L151.762 53.5218Z" fill="#461F1D"/>
<path d="M162.886 59.0266C162.886 60.0314 162.138 60.8496 161.211 60.8496C160.284 60.8496 159.537 60.0314 159.537 59.0266C159.537 58.0218 160.284 57.2036 161.211 57.2036C162.138 57.2036 162.886 58.0218 162.886 59.0266Z" fill="black"/>
<path d="M145.69 60.6988C145.69 61.7036 144.943 62.5218 144.016 62.5218C143.089 62.5218 142.341 61.7036 142.341 60.6988C142.341 59.694 143.089 58.8759 144.016 58.8759C144.943 58.8759 145.69 59.694 145.69 60.6988Z" fill="black"/>
<path d="M156.972 51.017C156.497 51.4978 156.849 52.3878 157.453 52.6964C158.057 53.005 158.775 52.9404 159.451 52.9261C161.276 52.8758 163.116 53.2634 164.768 54.0385C164.035 51.749 161.98 49.9332 159.616 49.4811C158.488 49.2658 157.187 49.4021 156.426 50.2634L156.972 51.017Z" fill="black"/>
<path d="M145.949 52.6677C146.423 53.127 146.071 53.9739 145.467 54.2754C144.864 54.5768 144.145 54.5122 143.469 54.4907C141.644 54.4476 139.805 54.8136 138.152 55.5529C138.885 53.3639 140.94 51.627 143.304 51.1964C144.432 50.9883 145.733 51.1174 146.495 51.9428L145.949 52.6677Z" fill="black"/>
<path d="M152.445 68.6439C153.407 67.3018 155.369 66.1822 156.612 67.2731C157.676 68.2133 157.036 70.2372 155.671 70.6391C154.306 71.041 152.804 70.0362 152.344 68.687L152.445 68.6439Z" fill="white"/>
<path d="M152.876 68.8951C153.328 68.2707 154.047 67.6822 154.773 67.4453C154.945 67.3879 155.154 67.3448 155.269 67.3377C155.362 67.3377 155.448 67.3377 155.542 67.3377C155.657 67.352 155.714 67.3664 155.779 67.3807C155.951 67.4238 156.052 67.474 156.224 67.596C156.332 67.675 156.418 67.7826 156.483 67.8903C156.576 68.0984 156.598 68.1702 156.62 68.242C156.648 68.486 156.648 68.5793 156.641 68.6726C156.598 68.9382 156.569 69.0243 156.541 69.1104C156.447 69.3472 156.548 69.1248 156.483 69.2611C156.44 69.3472 156.39 69.4334 156.339 69.5195C156.188 69.7563 155.987 69.9429 155.7 70.0865C155.563 70.1583 155.786 70.0578 155.642 70.1152C155.463 70.1726 155.326 70.2013 155.269 70.2085C155.118 70.2228 154.873 70.2157 154.744 70.1941C153.882 70.0291 153.127 69.3688 152.84 68.5506C152.746 68.2922 152.495 68.1271 152.222 68.1989C151.97 68.2635 151.783 68.5578 151.87 68.8161C152.243 69.8712 153.091 70.7324 154.162 71.0841C155.146 71.3999 156.275 71.1774 156.957 70.3736C157.547 69.6774 157.863 68.6439 157.532 67.7611C157.137 66.7061 156.066 66.2109 154.988 66.3759C153.781 66.5554 152.718 67.431 152.021 68.3927C151.863 68.6152 151.985 68.9525 152.2 69.0817C152.452 69.2324 152.725 69.1248 152.89 68.9023L152.876 68.8951Z" fill="#461F1D"/>
<path d="M135.22 50.5576C136.866 51.3686 138.734 49.4954 138.885 47.6653C139.036 45.8351 138.195 44.0839 137.936 42.2681C140.099 43.0648 142.478 40.0934 141.213 38.1628C143.441 40.4882 147.838 40.0791 149.599 37.3805C151.539 40.237 156.239 40.6174 158.61 38.1126C160.989 39.4044 164.186 38.9666 166.126 37.0791C165.264 38.0336 166.09 39.6915 167.305 40.1006C168.519 40.5097 169.841 40.1006 171.056 39.6772C169.82 41.2274 170.934 43.9547 172.903 44.2059C171.53 45.6413 172.306 48.4547 174.218 48.9858C172.924 49.115 172.694 51.2323 173.794 51.9284C174.893 52.6246 176.438 52.0433 177.228 51.0098C178.019 49.9763 178.242 48.6342 178.443 47.3495C179.233 42.3255 179.672 36.3111 175.763 33.0599C175.511 33.3111 176.093 33.6628 176.33 33.4044C176.567 33.146 176.474 32.7369 176.359 32.3996C175.676 30.3613 174.943 28.2297 173.363 26.7656C171.782 25.3015 169.087 24.8063 167.52 26.2776C163.31 21.5909 154.809 21.8924 150.936 26.8661C147.874 23.8158 137.577 27.3972 135.033 30.8924L135.22 50.5576Z" fill="black"/>
<path d="M175.526 23.0551C176.639 21.8852 178.012 20.902 179.535 20.3422C180.124 20.1269 180.886 19.9187 181.483 20.2202C182.115 20.536 182.201 21.3972 182.266 22.0216C182.539 24.7489 181.633 27.5408 179.902 29.658C178.91 30.8638 177.681 31.8255 176.266 32.4786C176.51 32.6652 176.761 32.859 177.006 33.0456C177.66 31.0719 179.629 29.3781 181.777 29.3566C182.287 29.3566 182.841 29.4714 183.157 29.902C183.437 30.2824 183.473 30.7992 183.387 31.2513C183.157 32.4212 182.057 33.1748 181.145 33.8135C180.706 34.1222 180.951 34.9045 181.533 34.7322C182.798 34.359 184.17 34.4451 185.384 34.9762C185.952 35.2274 186.477 35.5648 186.929 35.9882C187.396 36.4332 187.95 37.0361 187.799 37.7322C187.655 38.3997 187.052 38.9882 186.585 39.4475C186.117 39.9141 185.6 40.3232 185.047 40.682C183.861 41.4356 182.517 41.9308 181.123 42.0887C180.491 42.1605 180.484 43.1653 181.123 43.0935C183.703 42.7992 186.146 41.5648 187.828 39.5839C188.252 39.0815 188.668 38.5289 188.791 37.8758C188.913 37.2155 188.69 36.5767 188.309 36.0456C187.591 35.048 186.52 34.3231 185.37 33.8997C184.062 33.4188 182.604 33.3686 181.267 33.7705C181.396 34.0791 181.526 34.3805 181.655 34.6891C182.589 34.0289 183.61 33.3111 184.105 32.2489C184.537 31.3375 184.587 30.1604 183.962 29.3207C182.553 27.4331 179.521 28.6317 178.069 29.8159C177.121 30.591 176.424 31.6317 176.043 32.7872C175.892 33.2394 176.417 33.5193 176.783 33.3542C179.672 32.0336 181.835 29.4068 182.798 26.3996C183.286 24.8853 183.451 23.2561 183.243 21.6771C183.135 20.8661 182.934 20.0336 182.244 19.524C181.612 19.0503 180.786 19.0288 180.038 19.1723C179.09 19.3589 178.17 19.8326 177.351 20.3278C176.424 20.8876 175.576 21.5766 174.828 22.3589C174.383 22.8254 175.094 23.536 175.54 23.0695L175.526 23.0551Z" fill="black"/>
</g>
<defs>
<filter id="filter0_d_65_1284" x="0" y="0" width="294" height="454" filterUnits="userSpaceOnUse" color-interpolation-filters="sRGB">
<feFlood flood-opacity="0" result="BackgroundImageFix"/>
<feColorMatrix in="SourceAlpha" type="matrix" values="0 0 0 0 0 0 0 0 0 0 0 0 0 0 0 0 0 0 127 0" result="hardAlpha"/>
<feOffset dx="5" dy="5"/>
<feGaussianBlur stdDeviation="7.5"/>
<feComposite in2="hardAlpha" operator="out"/>
<feColorMatrix type="matrix" values="0 0 0 0 0 0 0 0 0 0 0 0 0 0 0 0 0 0 0.25 0"/>
<feBlend mode="normal" in2="BackgroundImageFix" result="effect1_dropShadow_65_1284"/>
<feBlend mode="normal" in="SourceGraphic" in2="effect1_dropShadow_65_1284" result="shape"/>
</filter>
<linearGradient id="paint0_linear_65_1284" x1="194.395" y1="236.006" x2="194.395" y2="69.4047" gradientUnits="userSpaceOnUse">
<stop stop-color="#01A299"/>
<stop offset="1" stop-color="#0B4E4A"/>
</linearGradient>
<linearGradient id="paint1_linear_65_1284" x1="85.8536" y1="355.081" x2="85.8536" y2="200.874" gradientUnits="userSpaceOnUse">
<stop stop-color="#92278F"/>
<stop offset="1" stop-color="#662D91"/>
</linearGradient>
<clipPath id="clip0_65_1284">
<rect width="264" height="424" fill="white" transform="translate(10 10)"/>
</clipPath>
</defs>
</svg>
