<svg width="377" height="560" viewBox="0 0 377 560" fill="none" xmlns="http://www.w3.org/2000/svg">
<g clip-path="url(#clip0_65_2021)" filter="url(#filter0_d_65_2021)">
<path d="M350.916 483.401C352.898 482.787 355.121 483.978 356.154 485.82C357.186 487.652 357.186 489.94 356.628 491.977C356.154 493.726 355.242 495.4 353.819 496.47C351.363 498.302 347.633 497.846 345.503 495.633C343.372 493.419 342.935 489.782 344.256 486.982C345.577 484.183 348.479 482.322 351.512 482.053L350.926 483.401H350.916Z" fill="#87C3A9"/>
<path d="M315.615 522.076C315.429 519.974 317.019 517.984 318.982 517.314C320.945 516.654 323.14 517.119 324.973 518.086C326.545 518.914 327.968 520.17 328.703 521.816C329.959 524.643 328.768 528.299 326.219 529.982C323.67 531.666 320.098 531.378 317.689 529.48C315.28 527.583 314.089 524.299 314.443 521.211L315.615 522.076Z" fill="#87C3A9"/>
<path d="M270.899 516.793C270.713 514.691 272.303 512.701 274.266 512.031C276.229 511.361 278.424 511.836 280.257 512.803C281.829 513.631 283.252 514.886 283.987 516.533C285.243 519.36 284.052 523.016 281.503 524.699C278.954 526.383 275.382 526.094 272.973 524.197C270.564 522.3 269.373 519.016 269.727 515.928L270.899 516.793Z" fill="#87C3A9"/>
<path d="M168.044 321.521C165.663 320.237 162.826 320.349 160.221 319.66C157.617 318.972 154.91 316.823 155.254 314.089C155.561 311.708 158.165 310.229 160.51 310.368C162.854 310.508 164.956 311.81 166.947 313.075L168.044 321.521Z" fill="#EFBF85"/>
<path d="M350.368 473.263C352.907 477.272 354.07 482.183 353.605 486.936C353.502 488.015 353.288 489.14 352.6 489.968C351.912 490.796 350.619 491.168 349.772 490.517C349.009 489.931 348.916 488.833 348.712 487.875C348.014 484.518 345.158 481.746 341.837 481.206C344.619 477.914 347.4 474.621 350.191 471.319L350.368 473.263Z" fill="black"/>
<path d="M319.466 510.738C316.991 513.826 317.968 519.119 321.373 521.072C321.81 521.323 322.294 521.537 322.61 521.946C323.456 523.062 322.405 524.699 321.187 525.369C317.791 527.239 313.54 525.695 310.377 523.444C306.684 520.821 303.643 517.249 301.605 513.147C306.768 510.822 312.21 509.147 317.773 508.18L319.466 510.738Z" fill="black"/>
<path d="M274.759 505.464C272.285 508.552 273.261 513.845 276.666 515.798C277.103 516.049 277.587 516.263 277.903 516.672C278.75 517.788 277.699 519.425 276.48 520.095C273.085 521.965 268.834 520.421 265.671 518.17C261.978 515.547 258.936 511.975 256.899 507.873C262.062 505.548 267.503 503.874 273.066 502.906L274.759 505.464Z" fill="black"/>
<path d="M180.398 405.456C179.17 403.186 178.426 400.647 178.184 398.071C177.756 393.541 179.551 389.076 182.686 385.839L209.755 357.898C211.3 356.298 213.16 355.052 215.206 354.243C217.513 353.322 219.997 352.978 222.453 353.229L266.22 357.684C268.778 357.945 271.224 358.838 273.364 360.298L278.517 363.814C280.238 364.986 281.717 366.502 282.871 368.269L350.935 472.658L342.498 482.053L341.4 494.451L323.419 512.877L317.912 510.626L315.773 513.073C313.205 516.012 309.391 517.491 305.568 517.016L308.135 521.528L256.601 510.654L180.416 405.456H180.398Z" fill="#01A299"/>
<path d="M339.186 496.33C316.898 462.222 296.154 426.57 273.866 392.462C267.448 382.64 258.145 368.502 246.611 368.985L203.421 363.777L195.579 371.264L231.327 376.659C241.681 377.282 251.504 381.579 259.104 388.816C261.783 391.364 264.155 394.248 266.145 397.382L332.982 502.599L339.186 496.33Z" fill="#0B4E4A"/>
<path d="M232.909 381.765C229.253 385.412 222.993 385.895 218.844 382.854C218.127 382.333 217.476 381.719 216.704 381.291C215.421 380.575 213.923 380.417 212.472 380.268C209.737 379.989 206.956 379.719 204.249 380.249C202.304 380.631 200.388 381.431 198.407 381.282C196.425 381.133 194.332 379.524 194.574 377.515C194.732 376.166 195.914 375.124 197.188 374.734C198.463 374.343 199.83 374.464 201.151 374.585C211.923 375.608 222.9 376.678 232.862 381.003L232.909 381.775V381.765Z" fill="black"/>
<path d="M274.452 435.481C273.68 432.867 271.745 430.923 270.871 428.347C269.997 425.77 271.187 421.91 273.848 422.115C275.224 422.217 276.285 423.361 277.196 424.421C284.982 433.5 292.824 442.661 298.601 453.191C301.215 457.953 303.382 462.948 305.54 467.942C306.424 469.97 307.066 472.854 305.205 473.998C303.364 475.123 301.215 473.235 299.866 471.533C298.145 469.347 296.424 467.161 294.703 464.975C294.322 464.482 293.913 463.915 294.006 463.292C294.127 462.52 294.945 462.111 295.392 461.478C296.192 460.362 295.745 458.799 295.224 457.525C291.968 449.544 286.945 442.317 280.638 436.56C278.927 434.997 276.378 433.49 274.508 434.858L274.452 435.481Z" fill="black"/>
<path opacity="0.8" d="M222.76 388.537C221.662 392.174 220.053 399.829 220.853 403.549C221.048 404.442 221.29 405.4 220.946 406.256C220.407 407.623 218.723 407.995 217.29 408.107C209.625 408.712 201.811 407.298 194.807 404.042C193.17 403.28 191.532 402.377 190.444 400.917C188.286 397.996 188.974 393.885 189.765 390.313C190.481 387.086 191.579 383.393 194.584 382.175C195.923 381.635 197.411 381.71 198.844 381.831C204.435 382.296 209.979 383.365 215.355 384.993C218.537 385.96 223.132 387.3 222.76 388.546V388.537Z" fill="#0B4E4A"/>
<path d="M267.95 423.873C263.764 417.427 259.569 410.99 255.383 404.545C251.671 398.843 248.071 392.629 242.369 388.676C239.411 386.63 235.913 385.272 232.285 385.3C231.448 385.3 231.448 386.612 232.285 386.602C238.853 386.556 244.211 391.123 248.034 396.024C250.127 398.713 251.941 401.624 253.801 404.479C255.839 407.614 257.876 410.739 259.913 413.874C262.22 417.427 264.536 420.98 266.843 424.533C267.299 425.231 268.424 424.58 267.969 423.873H267.95Z" fill="black"/>
<path d="M305.373 483.392C309.894 490.098 314.405 496.795 318.926 503.502C319.391 504.19 320.517 503.539 320.052 502.841C315.531 496.135 311.019 489.438 306.498 482.732C306.033 482.043 304.908 482.694 305.373 483.392Z" fill="black"/>
<path d="M247.225 426.738C254.359 437.071 261.364 447.489 268.248 457.99C275.113 468.473 281.847 479.03 288.452 489.68C292.173 495.679 295.847 501.697 299.494 507.743C299.922 508.459 301.047 507.808 300.619 507.083C294.136 496.321 287.531 485.624 280.787 475.021C274.071 464.454 267.224 453.963 260.248 443.564C256.322 437.713 252.359 431.881 248.35 426.086C247.876 425.398 246.75 426.049 247.225 426.747V426.738Z" fill="black"/>
<path d="M240.192 393.55C236.499 399.112 236.118 406.591 239.132 412.525C239.513 413.269 240.639 412.618 240.257 411.865C237.448 406.33 237.885 399.364 241.318 394.201C241.783 393.504 240.657 392.853 240.192 393.541V393.55Z" fill="black"/>
<path d="M237.364 391.002C233.662 394.043 231.969 399.103 232.853 403.782C233.011 404.6 234.267 404.256 234.109 403.438C233.309 399.196 234.964 394.666 238.285 391.923C238.936 391.392 238.006 390.472 237.364 391.002Z" fill="black"/>
<path d="M233.048 390.965C229.597 393.494 227.895 397.913 228.676 402.108C228.825 402.926 230.081 402.582 229.932 401.763C229.262 398.192 230.76 394.248 233.709 392.09C234.378 391.597 233.727 390.472 233.048 390.965Z" fill="black"/>
<path d="M227.69 388.63C224.658 392.36 223.467 397.345 224.462 402.052C224.639 402.87 225.895 402.526 225.718 401.708C224.825 397.494 225.885 392.909 228.611 389.56C229.132 388.918 228.22 387.988 227.69 388.639V388.63Z" fill="black"/>
<path d="M186.035 388.853C184.165 391.727 183.728 395.448 184.863 398.675C185.142 399.457 186.398 399.122 186.119 398.331C185.086 395.401 185.458 392.118 187.151 389.514C187.607 388.807 186.481 388.156 186.026 388.853H186.035Z" fill="black"/>
<path d="M183.263 390.034C181.691 392.323 180.9 395.122 181.03 397.894C181.067 398.731 182.37 398.731 182.333 397.894C182.212 395.327 182.928 392.806 184.388 390.685C184.863 389.997 183.737 389.346 183.263 390.025V390.034Z" fill="black"/>
<path d="M274.638 366.158C271.262 367.748 269.001 371.143 268.592 374.817C268.555 375.171 268.918 375.468 269.243 375.468C269.625 375.468 269.857 375.171 269.894 374.817C270.257 371.59 272.369 368.66 275.299 367.283C276.052 366.93 275.392 365.804 274.638 366.158Z" fill="black"/>
<path d="M272.341 363.749C268.806 365.516 266.471 369.171 266.145 373.078C266.071 373.915 267.373 373.906 267.448 373.078C267.745 369.618 269.894 366.428 273.001 364.874C273.755 364.502 273.094 363.377 272.341 363.749Z" fill="black"/>
<path d="M268.48 362.195C265.327 363.563 263.011 366.651 262.499 370.037C262.443 370.381 262.583 370.734 262.955 370.836C263.262 370.92 263.699 370.734 263.755 370.381C264.22 367.283 266.248 364.558 269.141 363.312C269.466 363.172 269.541 362.698 269.373 362.419C269.178 362.084 268.806 362.047 268.48 362.186V362.195Z" fill="black"/>
<path d="M264.211 360.093C260.322 361.33 257.56 365.023 257.29 369.069C257.234 369.906 258.536 369.906 258.592 369.069C258.825 365.628 261.253 362.4 264.555 361.349C265.346 361.098 265.011 359.842 264.211 360.093Z" fill="black"/>
<path d="M273.308 414.246L266.806 404.489C265.792 402.973 263.811 402.498 262.248 403.4L262.071 403.503C260.294 404.535 259.773 406.916 260.955 408.628L267.634 418.283C268.638 419.743 270.545 420.199 272.09 419.352C273.903 418.357 274.471 415.976 273.308 414.246Z" fill="black"/>
<path d="M150.742 308.313C155.282 305.625 161.44 306.211 165.421 309.699C167.44 311.466 168.854 313.828 170.249 316.145C185.365 341.398 200.481 366.651 215.597 391.904C217.467 395.02 217.495 399.085 215.42 402.07C215.42 402.07 160.435 295.133 153.235 315.326C146.249 320.219 202.137 402.508 202.137 402.508L193.97 401.187L143.989 318.851C141.979 315.642 143.328 311.364 146.779 309.95L150.751 308.322L150.742 308.313Z" fill="#0B4E4A"/>
<path d="M217.337 389.076C216.221 391.309 215.542 393.718 215.346 396.21C215.244 397.494 215.374 398.75 215.374 400.033C215.374 401.084 215.123 402.089 214.202 402.694C213.421 403.214 212.435 403.41 211.514 403.493C210.332 403.596 209.132 403.568 207.951 403.512C205.393 403.4 202.844 403.038 200.351 402.424C197.532 401.735 194.798 400.74 192.193 399.447C191.449 399.075 190.788 400.201 191.533 400.573C196.407 402.982 201.728 404.424 207.16 404.768C209.393 404.907 211.96 405.103 214.072 404.219C215.039 403.81 215.858 403.14 216.286 402.173C216.797 401.019 216.658 399.754 216.602 398.527C216.462 395.494 217.095 392.453 218.453 389.737C218.825 388.993 217.709 388.332 217.328 389.076H217.337Z" fill="#01A299"/>
<path d="M61.0597 100.577C52.204 105.311 44.9669 113.124 40.8274 122.425C36.6879 131.727 35.674 142.451 37.9902 152.394C43.0041 132.396 54.4923 114.157 70.213 101.228L61.069 100.577H61.0597Z" fill="#577293"/>
<path d="M111.05 491.531C111.134 495.279 108.222 499.093 109.766 502.488C110.482 504.078 112.017 505.083 113.217 506.329C117.245 510.496 117.134 518.067 112.994 522.114C114.594 524.774 113.134 534.512 113.134 534.512H97.0966C97.0966 534.512 96.7803 531.517 95.8873 530.252C93.385 529.638 92.399 533.415 90.5944 535.294C89.1711 536.782 86.9665 537.079 84.9479 537.293C76.7248 538.177 68.5295 540.381 60.2692 539.954C40.9578 538.949 39.9625 533.898 40.4555 529.536C40.8648 525.908 43.8601 523.09 47.1066 521.565C50.353 520.039 53.9437 519.481 57.3111 518.281C67.2551 514.765 74.9574 505.343 76.6038 494.712C77.1248 491.363 77.0876 487.903 78.1666 484.703C79.2457 481.504 81.841 478.49 85.1433 478.369C89.2734 478.211 92.3525 482.406 96.3803 483.327C99.357 484.006 102.399 482.815 105.441 482.508C108.473 482.192 112.213 483.346 112.882 486.396L111.022 491.54L111.05 491.531Z" fill="#577293"/>
<path d="M112.287 484.862C108.12 486.368 103.962 487.885 99.7943 489.391C98.9571 489.698 98.1013 490.015 97.4594 490.638C96.092 491.977 96.1571 494.2 96.3339 496.126C96.399 496.888 96.5292 497.763 97.1711 498.163C97.5711 498.414 98.0641 498.414 98.5292 498.395C99.6641 498.358 100.799 498.302 101.934 498.218C105.562 497.958 109.431 497.316 112.092 494.777C114.743 492.228 115.32 487.168 112.343 485.02L112.296 484.843L112.287 484.862Z" fill="black"/>
<path d="M78.1944 531.433C80.027 527.685 77.5154 523.927 75.5154 520.849C74.4922 519.277 73.4503 517.556 73.2922 515.64C73.1433 513.789 73.7666 512.003 74.7619 510.45C76.9386 507.045 80.6409 505.194 83.8967 503.009C87.0594 500.879 89.692 498.2 91.5524 494.851C93.5617 491.214 94.6128 487.047 94.4919 482.89C94.464 482.053 93.1617 482.053 93.1896 482.89C93.2919 486.536 92.4733 490.182 90.8268 493.447C89.1338 496.795 86.6501 499.558 83.5618 501.678C80.3246 503.901 76.7247 505.706 74.2875 508.887C73.1898 510.319 72.3434 512.003 72.0736 513.798C71.7945 515.677 72.1945 517.491 73.0317 519.184C73.9805 521.128 75.4038 522.802 76.3991 524.727C77.3386 526.55 78.0363 528.838 77.0782 530.792C76.7154 531.545 77.8316 532.205 78.2037 531.452L78.1944 531.433Z" fill="#9AB9DC"/>
<path d="M110.176 520.225C104.92 522.699 99.5989 525.034 94.2222 527.229C89.6177 529.099 84.9759 531.08 80.0271 531.796C77.7201 532.131 75.0783 532.354 72.6225 532.457C68.5947 532.633 64.5575 532.55 60.539 532.224C54.5112 531.74 48.5391 530.708 42.6881 529.183C41.8788 528.969 41.5346 530.224 42.3439 530.438C51.7949 532.903 61.6087 534.103 71.376 533.796C74.176 533.712 76.976 533.498 79.748 533.126C84.2782 532.512 88.4921 530.913 92.7153 529.22C98.8361 526.773 104.873 524.141 110.836 521.332C111.589 520.979 110.929 519.853 110.176 520.207V520.225Z" fill="#9AB9DC"/>
<path d="M63.5528 513.119C66.8179 514.793 70.0829 516.477 73.348 518.151C73.8689 518.421 74.6689 517.816 74.241 517.258C71.748 514.003 69.255 510.757 66.7621 507.501C66.5202 507.817 66.269 508.143 66.0272 508.459C69.4225 509.492 72.8178 510.524 76.2038 511.556C76.7061 511.705 77.2921 511.064 76.9387 510.598C74.2596 507.073 71.5806 503.557 68.9016 500.032C68.6039 500.33 68.3062 500.627 68.0086 500.925C72.0271 502.86 76.0922 504.701 80.1944 506.441C80.8828 506.738 81.4502 506.022 80.9851 505.418C77.8689 501.399 74.7526 497.391 71.6364 493.372C71.376 493.716 71.1062 494.051 70.8457 494.396C75.6178 497.242 80.3991 500.088 85.1711 502.934C85.8967 503.362 86.5478 502.237 85.8316 501.809C81.0595 498.962 76.2782 496.116 71.5062 493.27C70.8271 492.861 70.2876 493.744 70.7155 494.293C73.8317 498.311 76.948 502.32 80.0642 506.338C80.3247 505.994 80.5944 505.659 80.8549 505.315C76.7526 503.576 72.6876 501.734 68.669 499.8C68.1481 499.548 67.3481 500.116 67.776 500.692C70.455 504.218 73.1341 507.734 75.8131 511.259C76.055 510.943 76.3061 510.617 76.548 510.301C73.1527 509.268 69.7574 508.236 66.3714 507.203C65.869 507.055 65.283 507.696 65.6365 508.161C68.1295 511.417 70.6225 514.663 73.1155 517.919C73.4131 517.621 73.7108 517.323 74.0085 517.026C70.7434 515.351 67.4783 513.668 64.2133 511.994C63.4691 511.612 62.8086 512.738 63.5528 513.119Z" fill="#9AB9DC"/>
<path d="M108.194 506.125C103.534 508.887 100.52 513.938 99.9152 519.277C99.7385 520.811 99.8036 522.346 100.045 523.871C100.176 524.699 101.432 524.346 101.301 523.527C100.287 517.258 103.366 510.496 108.845 507.25C109.562 506.822 108.91 505.697 108.185 506.125H108.194Z" fill="#9AB9DC"/>
<path d="M136.529 428.161C139.84 429.77 141.849 434.141 145.514 434.262C147.226 434.318 148.789 433.369 150.417 432.839C155.868 431.035 162.426 434.541 164.091 440.15C167.133 439.88 174.975 445.601 174.975 445.601L167.756 460.26C167.756 460.26 165.003 459.199 163.496 459.441C161.831 461.45 164.686 464.054 165.514 466.547C166.165 468.519 165.44 470.658 164.714 472.612C161.784 480.527 160.017 489.001 155.924 496.358C146.352 513.566 141.505 512.189 137.915 509.771C134.938 507.762 133.822 503.753 133.952 500.106C134.082 496.451 135.208 492.926 135.682 489.298C137.087 478.63 132.343 467.347 123.812 461.05C121.124 459.069 118.092 457.544 115.785 455.116C113.478 452.688 112.017 448.958 113.394 445.88C115.115 442.038 120.157 441.108 122.78 437.834C124.715 435.416 125.05 432.104 126.138 429.184C127.226 426.272 129.915 423.37 132.873 424.133L136.519 428.151L136.529 428.161Z" fill="#577293"/>
<path d="M131.273 424.031C130.715 428.514 130.156 433.007 129.608 437.49C129.496 438.392 129.384 439.322 129.645 440.187C130.194 442.038 132.166 442.978 133.924 443.685C134.622 443.964 135.44 444.243 136.082 443.843C136.482 443.592 136.705 443.145 136.901 442.708C137.384 441.657 137.84 440.587 138.287 439.518C139.691 436.085 140.882 432.253 139.849 428.682C138.826 425.11 134.659 422.31 131.449 424.068L131.273 424.031Z" fill="black"/>
<path d="M156.584 476.193C154.324 473.077 150.24 473.319 146.845 473.765C144.761 474.044 142.491 474.36 140.491 473.514C138.891 472.835 137.673 471.505 136.808 470.026C134.677 466.371 134.789 462.027 134.315 457.953C133.868 454.139 132.687 450.53 130.538 447.321C128.305 443.973 125.217 441.201 121.571 439.462C120.817 439.099 120.157 440.224 120.91 440.587C127.561 443.768 132.017 450.298 132.956 457.553C133.487 461.664 133.366 465.943 135.198 469.766C135.942 471.328 137.003 472.751 138.389 473.793C139.97 474.984 141.914 475.402 143.868 475.356C146.1 475.3 148.296 474.714 150.538 474.779C152.342 474.835 154.333 475.309 155.458 476.853C155.942 477.523 157.077 476.872 156.584 476.193Z" fill="#9AB9DC"/>
<path d="M161.152 441.824C160.938 447.805 160.584 453.777 160.063 459.729C159.626 464.743 159.254 469.821 157.663 474.63C155.58 480.927 152.64 486.964 149.263 492.665C146.147 497.93 142.575 502.916 138.612 507.566C138.073 508.199 138.984 509.129 139.533 508.487C145.952 500.944 151.394 492.545 155.514 483.532C156.696 480.946 157.784 478.304 158.705 475.607C160.203 471.254 160.714 466.743 161.142 462.176C161.775 455.404 162.212 448.605 162.454 441.806C162.482 440.969 161.179 440.969 161.152 441.806V441.824Z" fill="#9AB9DC"/>
<path d="M133.97 481.309C136.901 479.076 139.84 476.853 142.77 474.621C143.347 474.184 143.031 473.272 142.268 473.43C138.305 474.249 134.352 475.058 130.389 475.877C130.603 476.239 130.808 476.602 131.022 476.965C133.45 474.323 135.877 471.691 138.305 469.049C138.761 468.556 138.305 467.831 137.673 467.961C133.394 468.826 129.115 469.691 124.836 470.547C125.05 470.91 125.254 471.272 125.468 471.635C128.966 468.835 132.398 465.943 135.766 462.985C136.287 462.529 135.719 461.776 135.133 461.897C130.231 462.938 125.319 463.98 120.417 465.022C120.585 465.422 120.752 465.812 120.919 466.212C125.552 463.124 130.184 460.046 134.817 456.958C135.515 456.493 134.863 455.367 134.157 455.832C129.524 458.92 124.892 461.999 120.259 465.087C119.645 465.496 120.026 466.436 120.761 466.278C125.664 465.236 130.575 464.194 135.477 463.152C135.263 462.79 135.059 462.427 134.845 462.064C131.477 465.031 128.045 467.915 124.547 470.714C123.999 471.161 124.612 471.914 125.18 471.803C129.459 470.937 133.738 470.072 138.017 469.217C137.803 468.854 137.598 468.491 137.384 468.129C134.957 470.77 132.529 473.402 130.101 476.044C129.645 476.537 130.101 477.262 130.733 477.132C134.696 476.314 138.649 475.504 142.612 474.686L142.11 473.495L133.31 480.183C132.65 480.685 133.301 481.811 133.97 481.309Z" fill="#9AB9DC"/>
<path d="M147.961 437.481C148.082 439.731 148.575 442.029 149.896 443.908C151.096 445.61 152.798 446.81 154.668 447.693C155.942 448.298 157.272 448.772 158.612 449.191C159.412 449.442 159.756 448.186 158.956 447.935C156.482 447.154 153.877 446.205 151.989 444.364C150.11 442.54 149.403 440.029 149.263 437.471C149.217 436.634 147.914 436.634 147.961 437.471V437.481Z" fill="#9AB9DC"/>
<path d="M67.9898 104.455C59.6737 112.966 51.6273 121.951 45.8413 132.434C40.0553 142.916 36.6321 155.11 38.167 167.053C38.7344 171.471 39.9623 175.787 40.5856 180.196C41.6274 187.535 40.9949 194.995 40.7716 202.398C40.353 216.071 41.3204 229.791 43.6553 243.259C46.2692 258.327 50.604 273.461 48.8459 288.659C43.2925 292.194 37.0786 294.64 30.6415 295.812C31.9438 273.219 31.6833 250.533 29.8415 227.977C29.3113 221.448 28.6508 214.881 29.209 208.351C29.6462 203.282 30.8182 198.315 31.3113 193.255C32.0182 185.972 31.2927 178.643 31.2089 171.332C31.0136 153.231 35.1345 134.424 46.3808 120.454C52.8179 112.454 61.376 106.278 66.8457 97.5536C68.3154 98.6698 69.7945 99.7859 71.2642 100.902L67.9805 104.455H67.9898Z" fill="#01A299"/>
<path d="M41.6648 270.531C31.9161 302.462 22.1674 334.394 12.428 366.325C11.1071 370.65 9.77685 375.087 10.0466 379.608C10.5861 388.676 17.3023 395.95 23.8511 402.08C49.9903 426.542 80.0271 446.633 112.399 461.32C113.524 461.831 114.771 462.343 115.943 461.962C117.013 461.618 117.729 460.613 118.371 459.674C126.836 447.256 135.301 434.839 143.766 422.422C116.454 402.852 89.7386 382.426 63.6645 361.163C73.0318 343.704 83.3666 326.804 94.6315 310.564C86.3898 305.364 78.9387 298.853 72.6132 291.347L41.6741 270.521L41.6648 270.531Z" fill="#662D91"/>
<path d="M120.929 254.57C130.929 268.001 134.37 285.655 133.282 302.499C132.184 319.344 126.901 335.603 120.873 351.322C118.296 358.038 115.543 364.781 114.501 371.925C112.771 383.756 115.812 395.69 117.943 407.446C122.854 434.513 122.994 462.473 118.343 489.587C103.003 493.577 86.6035 493.251 71.4316 488.647C61.0411 441.341 54.4644 393.15 51.7854 344.737C51.3761 337.314 51.0598 329.883 50.9017 322.442C50.7808 316.507 50.7622 310.545 50.018 304.657C48.1389 289.868 42.5483 281.571 39.6367 266.959C65.8131 261.174 91.8128 252.774 118.594 252.83L120.938 254.56L120.929 254.57Z" fill="#92278F"/>
<path d="M80.2688 86.8849C80.0455 89.201 82.6873 90.8101 84.9571 90.745C87.8129 90.6706 90.5477 88.8382 91.7756 86.1966C90.0175 86.0664 88.4082 84.6898 87.9896 82.9411C87.571 81.1925 88.3617 79.202 89.8593 78.2533L75.2549 74.5978L80.2781 86.8849H80.2688Z" fill="#663B14"/>
<path d="M48.5577 28.8445C46.6694 37.7459 39.516 77.6022 38.9207 84.355C38.7253 86.6338 38.5672 89.0987 39.7486 91.0333C42.6229 95.7305 58.9018 95.8049 58.9018 95.8049C58.9018 95.8049 62.7343 116.519 65.6645 123.83C73.4783 118.51 82.0643 114.38 91.0595 111.617C88.5944 100.79 85.7572 90.0567 82.5573 79.4346C85.6177 81.8715 90.6037 80.7461 92.6967 77.4069C94.7897 74.0677 93.9525 69.2682 91.1246 66.5615C88.2967 63.8548 87.7944 63.2316 84.1759 64.6361L86.8921 34.6207L48.5577 28.8445Z" fill="#FED5B7"/>
<path d="M83.1246 75.063C84.5107 73.2678 86.1851 71.7145 88.092 70.4774C88.3897 70.2914 88.5106 69.9007 88.3246 69.5845C88.1571 69.2868 87.7292 69.1566 87.4316 69.3519C85.4316 70.6448 83.6549 72.2633 82.2037 74.1421C81.9898 74.4212 81.934 74.7932 82.2037 75.063C82.427 75.2862 82.9107 75.342 83.1246 75.063Z" fill="#7F4924"/>
<path d="M83.9526 74.3282C84.6224 74.7374 85.2828 75.156 85.9526 75.5652C86.2409 75.742 86.6781 75.6396 86.8456 75.3327C87.013 75.0164 86.92 74.6351 86.613 74.4398C85.9433 74.0305 85.2828 73.6119 84.6131 73.2027C84.3247 73.026 83.8875 73.1283 83.72 73.4352C83.5526 73.7515 83.6456 74.1328 83.9526 74.3282Z" fill="#7F4924"/>
<path opacity="0.61" d="M58.9016 95.7956L73.8689 90.8473L60.2411 102.065L58.9016 95.7956Z" fill="#7F4924"/>
<path d="M54.6693 76.0582C57.06 77.1557 59.9157 76.393 61.4971 74.3095C61.7111 74.0305 61.5436 73.584 61.2646 73.4166C60.9297 73.2213 60.5855 73.3701 60.3715 73.6491C59.2367 75.1466 56.9948 75.7047 55.3205 74.9327C55.0042 74.7839 54.6228 74.8397 54.4274 75.1652C54.26 75.4443 54.3437 75.9093 54.66 76.0582H54.6693Z" fill="#7F4924"/>
<path d="M71.5805 60.2087C71.4596 61.7806 70.5759 62.9991 69.5992 62.9154C68.6318 62.841 67.9434 61.4923 68.0643 59.9204C68.1852 58.3484 69.069 57.13 70.0457 57.2137C71.0224 57.2974 71.7015 58.6368 71.5805 60.2087Z" fill="black"/>
<path d="M68.79 47.7728C67.6366 48.5541 68.2226 50.7958 69.5993 50.8888C70.1482 50.926 70.6691 50.6934 71.19 50.4981C73.9434 49.4936 77.1248 49.8191 79.6178 51.3631C78.5201 48.5913 76.2132 46.3497 73.4411 45.3824C71.5621 44.7313 68.8365 45.1498 68.5203 47.1589L68.7807 47.7728H68.79Z" fill="black"/>
<path d="M47.3949 57.4369C47.274 59.0088 47.9623 60.3482 48.9297 60.4319C49.8972 60.5156 50.7902 59.2972 50.9111 57.7252C51.032 56.1533 50.3437 54.8139 49.3763 54.7302C48.4088 54.6465 47.5158 55.865 47.3949 57.4369Z" fill="black"/>
<path d="M53.5158 44.9638C54.6692 45.7451 54.0832 47.9867 52.7065 48.0797C52.1577 48.1169 51.6367 47.8844 51.1158 47.6891C48.3624 46.6845 45.181 47.0101 42.6787 48.5541C43.7764 45.7823 46.0833 43.5407 48.8554 42.5733C50.7344 41.9223 53.46 42.3408 53.7762 44.3499L53.5158 44.9638Z" fill="black"/>
<path d="M80.7525 54.6186C80.6781 54.2837 80.5386 53.9861 80.2781 53.7535C79.9991 53.5024 79.6177 53.3815 79.2549 53.2885C73.9991 51.8189 68.4457 51.5026 63.0691 52.3769C60.5668 52.7862 57.9528 53.4373 55.5715 52.5723C54.6227 52.2281 53.7668 51.6607 52.8831 51.1585C48.7623 48.8238 43.86 47.9867 39.2275 48.7866C38.7996 48.861 38.4275 49.1401 38.2136 49.5307L37.7857 50.312C37.4415 50.991 37.4601 51.8468 37.8415 52.5072C38.0182 52.8141 38.2694 53.0745 38.4554 53.3815C39.1066 54.4325 38.967 55.7812 38.8647 57.0276C38.6787 59.3157 38.7717 61.7341 39.888 63.7246C41.1624 66.0034 43.7577 67.4172 46.3251 67.3149C48.8925 67.2126 51.339 65.6406 52.6227 63.3618C53.7203 61.4085 54.2599 57.6322 56.1203 56.33C56.5203 56.051 56.9947 55.8649 57.4784 55.8742C58.6691 55.9021 58.911 58.1531 59.1993 59.0553C59.9993 61.6039 60.3714 64.4594 62.1853 66.3941C63.8783 68.1985 66.0365 69.4077 68.4457 69.817C70.1387 70.096 72.362 69.696 73.8968 68.9147C75.4224 68.1334 76.3433 66.5057 77.0689 64.9244C78.0735 62.7386 78.8735 60.4598 79.4595 58.1252C79.5153 57.8833 79.5898 57.6229 79.7851 57.4741C79.9339 57.3625 80.12 57.3439 80.2781 57.2601C83.7199 59.4274 87.1525 61.5853 90.5943 63.7525C92.0454 64.664 86.2687 57.7624 80.7525 54.6186ZM43.553 64.5152C42.7903 64.2175 41.9717 63.9292 41.4693 63.2037C41.06 62.6084 40.8833 61.8364 40.7624 61.0737C40.4089 58.8321 40.4089 56.4974 40.7624 54.2279C40.9298 53.1675 41.2647 51.977 42.1112 51.5305C42.567 51.2887 43.0786 51.4189 43.5716 51.3538C46.9297 50.9538 49.0878 52.0979 51.7669 52.9071C52.7529 53.2048 52.939 53.614 53.5994 54.4976C54.2599 55.3906 50.0088 67.0638 43.553 64.5059V64.5152ZM76.7991 58.4042C76.5572 60.6923 75.8968 62.934 74.8828 64.9803C74.5387 65.6779 74.1294 66.3662 73.5061 66.8219C72.7433 67.3707 71.7666 67.473 70.8364 67.4637C69.2085 67.4637 65.7388 67.0731 63.8132 64.7198C63.4225 64.2455 59.9714 57.6508 61.5063 55.6789C62.8365 53.9768 71.3573 54.2186 74.4829 54.8139C75.0317 54.9162 75.6084 55.0464 76.0456 55.4092C76.8549 56.0882 76.9014 57.3345 76.7805 58.4042H76.7991Z" fill="#662D91"/>
<path d="M54.8366 58.8693C53.5529 63.0177 53.0692 67.4079 53.432 71.733C53.4599 72.1051 53.832 72.533 54.2599 72.3562C55.2459 71.9563 56.232 71.547 57.218 71.147C57.9808 70.8308 57.6459 69.5751 56.8738 69.8914C55.8878 70.2913 54.9018 70.7006 53.9157 71.1005C54.1948 71.3052 54.4646 71.5191 54.7436 71.7237C54.3901 67.4916 54.8366 63.2595 56.1017 59.2041C56.3529 58.4042 55.0971 58.0601 54.8459 58.86L54.8366 58.8693Z" fill="#7F4924"/>
<path d="M81.7758 68.4776C83.2177 58.1066 84.5386 47.7263 85.7293 37.3181C80.9107 38.5365 75.7852 38.4435 71.0039 37.0576C71.162 35.8205 72.1201 34.7416 73.3015 34.4439C68.883 37.039 63.4226 37.6994 58.5389 36.2298C59.1808 35.4764 59.8133 34.723 60.4552 33.9789C55.2832 36.2949 49.1251 36.174 44.0368 33.6626C44.3438 32.4349 45.2926 31.4024 46.4647 31.021C43.4229 32.8255 39.0601 31.7093 37.209 28.6492C39.9624 27.0587 42.9484 25.8774 46.0275 25.1426C44.2694 25.4681 42.3345 25.4774 40.8275 24.4822C39.3206 23.487 38.5485 21.2174 39.5996 19.7385C40.6136 18.334 42.6136 18.2875 44.3252 18.3712C46.9391 18.5107 49.5437 18.6503 52.1576 18.7805C48.7809 17.3295 46.3437 13.8136 46.1205 10.0651C53.4413 9.20009 59.3575 16.2133 66.5481 17.8503C71.0411 18.8735 75.7108 17.7387 80.3154 17.9061C84.92 18.0736 90.1292 20.3152 91.1711 24.9008C94.3989 23.2079 98.8547 24.7519 100.427 28.1004C101.748 30.9187 101.106 34.2486 100.427 37.2902C97.9617 48.4425 95.4966 59.6041 93.0408 70.7564C91.9617 68.6915 90.4083 66.6917 88.2036 66.0592C85.999 65.4267 83.1898 66.8498 83.0781 69.1845C82.3805 69.4728 81.5061 68.7845 81.5991 68.0218L81.7758 68.4683V68.4776Z" fill="#663B14"/>
<path d="M75.627 111.013C71.2177 113.515 63.4969 115.84 61.7574 110.994C51.925 120.742 43.1251 126.304 38.8461 139.614C36.1019 148.134 36.0089 157.278 35.981 166.253C35.888 196.306 36.3252 226.359 37.2833 256.402C37.4042 260.113 37.5903 264.02 39.5437 267.145C43.2832 273.116 51.5157 273.628 58.4179 273.014C74.5758 271.582 90.5198 267.582 105.496 261.192C101.059 238.981 97.822 216.518 95.8035 193.934C93.6081 169.332 92.8919 144.284 97.9802 120.137C91.357 118.23 84.7338 116.324 78.1107 114.417L75.6177 111.013H75.627Z" fill="#9AB9DC"/>
<path d="M171.012 93.0703L183.607 92.0007C191.988 91.2845 200.732 90.6148 208.565 93.554C216.397 96.4932 222.937 104.204 221.281 112.045C220.174 117.3 215.616 121.477 210.379 123.467C205.142 125.458 199.318 125.56 193.709 125.02C187.458 124.416 181.281 123.049 175.393 120.956C172.24 119.83 168.984 118.361 167.17 115.663C165.812 113.636 165.44 111.171 165.142 108.79C164.733 105.571 164.407 102.269 165.235 99.1255C166.063 95.9817 168.258 92.9773 171.496 91.9635L171.003 93.089L171.012 93.0703Z" fill="#87C3A9"/>
<path d="M118.519 95.7026C120.278 95.684 122.026 95.6561 123.784 95.6375C124.091 89.8986 131.152 87.4523 136.761 87.629C149.812 88.0569 162.5 95.0422 170.035 105.962C172.733 109.859 174.891 114.333 178.667 117.142C184.425 121.43 192.742 120.946 198.193 125.644C203.997 130.648 204.416 139.484 204.286 147.241C203.821 174.587 202.072 201.915 199.058 229.084C198.118 237.52 196.974 246.226 192.677 253.491C187.579 262.113 178.379 267.74 168.695 269.582C159.012 271.424 148.91 269.731 139.719 266.122C134.147 263.927 128.687 260.913 124.938 256.16C118.64 248.17 118.324 237.018 118.501 226.759C119.208 184.763 123.208 142.284 115.208 101.088C114.845 99.1999 114.51 97.042 115.664 95.5352C116.826 94.0283 119.971 94.6608 119.664 96.5583L118.501 95.6933L118.519 95.7026Z" fill="#577293"/>
<path d="M199.095 91.8984C192.509 88.1499 185.737 84.7363 178.826 81.6576C172.937 79.0439 166.835 76.6534 160.435 76.1698C151.245 75.4629 142.175 78.7369 133.952 83.0063C131.561 84.2433 129.124 85.6664 127.682 87.9825C126.24 90.2985 126.212 93.7493 128.296 95.4608C142.426 91.5542 158.417 95.684 169.04 105.99C170.519 99.5999 176.351 95.0329 182.528 93.2749C188.705 91.517 195.263 92.0565 201.653 92.6052L199.086 91.8984H199.095Z" fill="#577293"/>
<path d="M219.597 109.831C218.797 106.129 216.946 102.548 214.044 100.065C211.141 97.5815 207.272 96.3816 203.486 97.0327C199.988 97.6373 197.123 99.9719 195.718 103.209C194.425 106.195 194.314 109.683 195.718 112.65C197.188 115.784 200.416 118.007 203.858 118.305C207.188 118.603 210.267 116.742 211.755 113.784C213.169 110.975 213.086 107.311 210.667 105.06C208.565 103.106 205.225 102.502 202.639 103.813C201.151 104.567 199.979 106.064 199.728 107.729C199.439 109.627 200.518 111.32 202.165 112.213C203.588 112.985 205.56 113.254 206.946 112.268C208.286 111.32 208.397 109.413 207.104 108.343C206.5 107.85 205.755 107.748 205.067 108.12C204.332 108.529 204.993 109.645 205.728 109.245C206.137 109.022 206.518 109.534 206.658 109.869C206.9 110.464 206.602 110.985 206.062 111.292C204.862 111.98 203.179 111.468 202.174 110.668C200.872 109.627 200.667 108.018 201.504 106.604C202.128 105.543 203.16 104.846 204.351 104.567C206.565 104.037 209.225 104.939 210.509 106.864C211.988 109.078 211.504 112.008 210.062 114.101C208.481 116.407 205.737 117.458 203.002 116.872C200.221 116.277 197.756 114.277 196.686 111.627C195.681 109.143 195.83 106.25 196.881 103.804C198.035 101.135 200.258 99.1534 203.104 98.4465C206.23 97.6745 209.607 98.4465 212.22 100.279C214.834 102.102 216.686 104.92 217.718 107.906C217.979 108.65 218.183 109.413 218.351 110.185C218.527 111.003 219.783 110.659 219.606 109.841L219.597 109.831Z" fill="#32664E"/>
<path d="M132.482 115.003C142.863 126.127 149.161 140.74 152.463 155.752C155.765 170.764 156.24 186.261 156.24 201.645C156.24 217.346 155.682 233.428 150.026 248.021C149.514 249.333 148.873 250.737 147.635 251.37C144.817 252.802 142.082 249.305 140.854 246.329C134.631 231.279 131.068 215.253 127.524 199.32C122.129 175.015 116.724 150.701 111.329 126.397L132.491 115.003H132.482Z" fill="#32485E"/>
<path d="M145.942 200.213C157.979 222.322 161.84 247.463 165.523 272.075C167.672 286.436 169.886 304.974 172.035 319.335C170.63 317.13 164.305 310.313 160.361 307.624C159.384 306.964 158.082 307.578 157.933 308.769C157.151 315.056 157.365 324.172 153.961 323.716C150.658 322.349 149.124 318.674 148.854 315.289C148.575 311.894 149.217 308.462 148.714 305.095C147.7 298.323 142.147 291.803 144.482 285.329C145.626 282.139 148.566 279.665 149.347 276.381C150.268 272.531 148.017 268.698 145.859 265.313C134.724 247.863 123.487 229.763 120.343 209.616C120.091 208.016 119.915 206.296 120.724 204.882C121.664 203.226 123.673 202.408 125.57 201.831C132.389 199.747 139.691 199.087 146.798 199.915L145.942 200.222V200.213Z" fill="#FED5B7"/>
<path d="M128.547 110.947C127.543 109.934 126.501 108.948 125.357 108.101C120.259 104.325 114.203 102.037 108.641 98.9581C101.041 94.7445 97.664 93.4051 92.2874 86.4756C81.9898 91.8611 70.5016 97.0327 66.818 108.25C64.9296 113.998 64.1761 120.063 62.5389 125.885C60.3343 133.754 56.5669 141.093 54.3902 148.971C52.2228 156.822 51.674 165.044 51.553 173.201C50.8926 215.597 61.1064 257.388 73.5806 297.83C83.2921 296.481 91.9897 291.161 101.348 288.203C115.264 283.813 131.012 284.529 143.226 276.409C137.226 264.076 133.691 250.496 132.91 236.748C132.603 231.363 132.761 225.745 135.068 220.889C137.375 216.034 146.156 209.681 151.403 210.202C150.147 203.868 147.924 202.017 146.677 195.683C146.305 193.813 143.068 189.879 143.403 188.009C143.943 184.958 146.287 182.363 146.315 179.257C146.342 174.987 142.045 171.862 141.412 167.648C141.087 165.472 141.784 163.295 142.277 161.156C146.101 144.637 138.166 127.904 130.464 112.864L128.547 110.947Z" fill="#01A299"/>
<path d="M126.194 106.892C118.64 101.209 107.896 97.5629 100.12 102.92C93.2453 107.664 91.7198 117.403 92.4081 125.858C94.1197 147.037 105.478 166.43 107.329 187.591C89.6361 176.978 77.8874 156.654 77.3293 135.67C77.1153 127.764 78.4362 119.7 82.0362 112.696C85.6361 105.692 91.6546 99.8417 99.0034 97.3862C105.943 95.0794 113.58 92.7076 123.468 95.7863C125.505 98.7907 124.51 103.293 126.073 106.585L126.203 106.883L126.194 106.892Z" fill="#577293"/>
<path d="M72.3714 481.718C83.6084 484.583 95.3664 485.401 106.892 484.09C110.138 483.718 113.366 483.187 116.557 482.49C117.375 482.313 117.031 481.057 116.213 481.234C105.059 483.662 93.4501 484.062 82.148 482.369C78.9759 481.895 75.8225 481.253 72.7062 480.462C71.8969 480.257 71.5435 481.513 72.3621 481.718H72.3714Z" fill="#663B14"/>
<path d="M98.9755 374.52C102.668 373.757 106.417 373.394 110.185 373.432C111.022 373.432 111.022 372.139 110.185 372.129C106.306 372.092 102.427 372.473 98.6313 373.264C97.8127 373.432 98.1569 374.687 98.9755 374.52Z" fill="#662D91"/>
<path d="M102.278 377.971H108.427C109.264 377.971 109.264 376.668 108.427 376.668H102.278C101.441 376.668 101.441 377.971 102.278 377.971Z" fill="#662D91"/>
<path d="M54.4738 288.845C50.5576 293.124 48.2693 298.723 48.0181 304.509C47.9809 305.346 49.2832 305.346 49.3204 304.509C49.553 299.077 51.7111 293.775 55.3948 289.757C55.9622 289.143 55.0413 288.222 54.4738 288.836V288.845Z" fill="#662D91"/>
<path d="M113.682 401.605C104.808 402.042 95.9338 402.48 87.0595 402.917C84.5386 403.038 82.0084 403.168 79.4875 403.289C79.162 403.307 78.7992 403.577 78.8364 403.94C80.0457 415.474 81.2457 427.007 82.4549 438.55C82.7526 441.424 83.0596 444.298 83.3573 447.173C83.5154 448.642 83.6642 450.121 83.8224 451.591C83.9433 452.772 83.934 454.083 84.3433 455.209C84.734 456.297 85.5712 456.93 86.7247 457.023C88.0735 457.125 89.506 456.902 90.8548 456.818C93.7385 456.641 96.6222 456.474 99.4966 456.297C105.98 455.907 112.464 455.516 118.947 455.135C119.775 455.088 119.785 453.786 118.947 453.832C113.329 454.167 107.71 454.502 102.092 454.846C99.2826 455.014 96.4734 455.181 93.6641 455.348C92.2595 455.432 90.8548 455.516 89.4502 455.6C88.7804 455.637 88.1107 455.693 87.4409 455.721C86.9014 455.748 86.2595 455.786 85.8688 455.33C85.2084 454.576 85.2828 453.163 85.1898 452.232C85.041 450.791 84.8921 449.358 84.7433 447.917L83.8689 439.508C83.2828 433.937 82.7061 428.365 82.1201 422.794C81.4596 416.506 80.8085 410.218 80.148 403.931C79.934 404.145 79.7108 404.368 79.4968 404.582C88.3711 404.145 97.2454 403.707 106.12 403.27C108.641 403.149 111.171 403.019 113.692 402.898C114.529 402.861 114.529 401.559 113.692 401.596L113.682 401.605Z" fill="#662D91"/>
<path d="M80.8457 407.084C90.4456 412.2 100.901 417.594 112.129 415.715C115.022 415.232 117.822 414.227 120.306 412.674C121.013 412.237 120.361 411.102 119.645 411.548C115.357 414.218 110.269 415.074 105.283 414.72C99.9152 414.339 94.7525 412.506 89.906 410.246C87.0503 408.916 84.2689 407.437 81.4968 405.958C80.762 405.568 80.1015 406.684 80.8364 407.084H80.8457Z" fill="#662D91"/>
<path d="M87.3942 455.125C91.9244 446.484 96.4546 437.834 100.994 429.193C102.278 426.737 103.571 424.282 104.854 421.826H103.729C107.934 428.03 112.157 434.206 115.831 440.745C117.003 442.829 118.129 444.94 119.245 447.061C119.636 447.805 120.761 447.145 120.371 446.401C116.892 439.741 113.059 433.341 108.873 427.1C107.543 425.119 106.194 423.147 104.854 421.166C104.594 420.785 103.971 420.71 103.729 421.166C99.1987 429.807 94.6686 438.457 90.1291 447.098C88.8454 449.554 87.5524 452.009 86.2687 454.465C85.878 455.209 87.0036 455.86 87.3942 455.125Z" fill="#662D91"/>
<path d="M131.412 287.664C125.775 286.548 119.952 286.669 114.371 288.036C114.11 288.101 113.868 288.389 113.896 288.659C114.519 296.435 114.854 304.239 114.892 312.043C114.901 314.266 114.892 316.479 114.854 318.702C114.854 319.019 115.068 319.223 115.329 319.326C119.459 321.037 123.598 322.748 127.729 324.469C128.501 324.785 128.836 323.53 128.073 323.214C123.943 321.502 119.803 319.791 115.673 318.07C115.831 318.274 115.989 318.488 116.147 318.693C116.278 310.889 116.11 303.085 115.654 295.291C115.524 293.077 115.366 290.863 115.189 288.65C115.031 288.854 114.873 289.068 114.715 289.273C120.064 287.961 125.654 287.822 131.059 288.901C131.877 289.059 132.231 287.813 131.403 287.645L131.412 287.664Z" fill="#662D91"/>
<path d="M118.24 295.189C123.04 294.221 128.017 294.324 132.78 295.486C133.589 295.682 133.943 294.426 133.124 294.231C128.129 293.021 122.929 292.919 117.887 293.933C117.068 294.1 117.413 295.356 118.231 295.189H118.24Z" fill="#662D91"/>
<path d="M105.58 189.488C109.701 201.757 114.789 213.7 120.798 225.159C122.51 228.424 124.296 231.642 126.156 234.823C126.575 235.548 127.701 234.888 127.282 234.162C120.789 223.038 115.171 211.393 110.529 199.375C109.226 195.99 107.989 192.576 106.836 189.144C106.566 188.353 105.31 188.697 105.58 189.488Z" fill="#0B4E4A"/>
<path d="M121.022 227.847C123.757 221.838 126.696 215.783 131.226 211.039C135.756 206.296 143.691 199.227 150.119 200.073C151.012 204.221 153.524 210.453 154.417 214.592C149.728 214.276 142.742 219.987 140.231 224.052C136.175 230.591 133.682 238.143 133.031 245.864C127.952 240.227 123.887 233.642 121.087 226.526L121.022 227.838V227.847Z" fill="#0B4E4A"/>
<path d="M140.556 165.463C136.156 167.546 131.766 169.63 127.366 171.713C126.612 172.076 127.273 173.192 128.026 172.839C132.426 170.755 136.817 168.672 141.217 166.588C141.97 166.225 141.31 165.109 140.556 165.463Z" fill="#0B4E4A"/>
<path d="M141.133 167.109C136.798 167.862 133.542 171.239 130.175 173.797C129.514 174.299 130.166 175.424 130.835 174.922C134.1 172.448 137.282 169.1 141.486 168.374C142.314 168.235 141.961 166.979 141.142 167.118L141.133 167.109Z" fill="#0B4E4A"/>
<path d="M138.994 187.972C135.459 189.404 131.915 190.837 128.38 192.269C127.617 192.576 127.952 193.841 128.724 193.525C132.259 192.092 135.803 190.66 139.338 189.228C140.101 188.921 139.766 187.656 138.994 187.972Z" fill="#0B4E4A"/>
<path d="M134.473 194.371C133.301 194.967 132.119 195.553 130.947 196.148C130.64 196.297 130.529 196.752 130.715 197.041C130.919 197.348 131.282 197.441 131.608 197.273C132.78 196.678 133.961 196.092 135.133 195.497C135.44 195.348 135.552 194.892 135.366 194.604C135.161 194.297 134.798 194.204 134.473 194.371Z" fill="#0B4E4A"/>
<path d="M100.752 129.243C100.213 137.159 101.171 145.167 103.58 152.729C103.831 153.52 105.087 153.185 104.836 152.385C102.455 144.925 101.515 137.066 102.055 129.253C102.11 128.415 100.808 128.425 100.752 129.253V129.243Z" fill="#0B4E4A"/>
<path d="M108.696 154.059C107.72 156.199 107.422 158.552 107.831 160.868C107.896 161.212 108.315 161.407 108.631 161.324C108.994 161.221 109.152 160.868 109.087 160.524C108.743 158.58 108.994 156.515 109.822 154.72C109.971 154.403 109.915 154.022 109.589 153.827C109.31 153.659 108.845 153.743 108.696 154.059Z" fill="#0B4E4A"/>
<path d="M121.738 131.95C122.11 134.936 122.482 137.921 122.854 140.907C122.901 141.261 123.124 141.558 123.505 141.558C123.822 141.558 124.203 141.261 124.157 140.907C123.784 137.921 123.412 134.936 123.04 131.95C122.994 131.596 122.771 131.299 122.389 131.299C122.073 131.299 121.691 131.596 121.738 131.95Z" fill="#0B4E4A"/>
<path d="M129.766 146.153C128.891 148.804 128.575 151.632 128.863 154.403C128.901 154.757 129.133 155.054 129.514 155.054C129.84 155.054 130.203 154.757 130.166 154.403C129.887 151.725 130.175 149.046 131.021 146.497C131.282 145.697 130.026 145.362 129.766 146.153Z" fill="#0B4E4A"/>
<path d="M76.9012 293.049C82.65 288.12 89.329 284.38 96.3335 281.562C103.394 278.725 110.78 276.744 118.203 275.098C122.417 274.158 126.649 273.33 130.882 272.521C131.7 272.363 131.356 271.107 130.538 271.266C122.929 272.735 115.319 274.233 107.859 276.325C100.492 278.39 93.2359 281.041 86.5383 284.79C82.7895 286.892 79.2361 289.338 75.9803 292.138C75.3478 292.686 76.2687 293.598 76.9012 293.059V293.049Z" fill="#0B4E4A"/>
<path d="M66.6969 118.882C73.7573 111.301 81.7944 104.65 90.5943 99.172C93.0873 97.6187 95.6454 96.1677 98.2407 94.8097C98.9849 94.419 98.3244 93.3028 97.5802 93.6842C88.3152 98.5209 79.7107 104.604 72.0457 111.701C69.8783 113.71 67.7853 115.793 65.776 117.961C65.2086 118.575 66.1202 119.495 66.6969 118.882Z" fill="#0B4E4A"/>
<path d="M74.9292 145.883C71.4223 146.274 67.934 146.851 64.4829 147.623C64.2317 147.679 63.9712 147.985 64.0084 148.246C65.1061 156.654 66.2038 165.063 67.3014 173.48C67.8503 177.666 68.3898 181.852 68.9386 186.047C69.1433 187.618 69.1898 189.572 70.5758 190.623C71.2177 191.107 71.999 191.265 72.7897 191.33C73.7758 191.404 74.7711 191.376 75.7664 191.386C80.5106 191.451 85.2454 191.516 89.9895 191.581C90.8267 191.59 90.8267 190.288 89.9895 190.279C85.9337 190.223 81.8687 190.167 77.8129 190.111C76.8083 190.102 75.8036 190.083 74.799 190.074C73.9618 190.065 73.0688 190.13 72.2409 189.953C70.4456 189.562 70.4363 187.544 70.2409 186.047C69.1898 177.992 68.1386 169.937 67.0875 161.891L65.3108 148.255C65.1526 148.46 64.9945 148.674 64.8363 148.878C68.1665 148.134 71.5432 147.567 74.9385 147.186C75.7571 147.093 75.7664 145.79 74.9385 145.883H74.9292Z" fill="#0B4E4A"/>
<path d="M65.8131 149.827C71.6921 153.213 77.3478 156.998 82.7245 161.138C83.0036 161.352 83.4501 161.175 83.6175 160.905C83.8129 160.57 83.664 160.226 83.385 160.012C78.0083 155.873 72.3526 152.087 66.4736 148.702C65.748 148.283 65.0875 149.409 65.8131 149.827Z" fill="#0B4E4A"/>
<path d="M61.4875 225.912C62.8457 224.852 64.5573 224.256 66.2689 224.219C67.1061 224.201 67.1061 222.898 66.2689 222.917C64.1852 222.964 62.2038 223.708 60.5666 224.991C60.2876 225.205 60.3434 225.68 60.5666 225.912C60.8364 226.182 61.2085 226.126 61.4875 225.912Z" fill="#0B4E4A"/>
<path d="M59.3387 204.231C60.827 203.7 62.3154 203.17 63.8037 202.64C64.1386 202.519 64.3526 202.194 64.2595 201.84C64.1758 201.524 63.7944 201.264 63.4595 201.384C61.9712 201.915 60.4828 202.445 58.9945 202.975C58.6596 203.096 58.4457 203.421 58.5387 203.775C58.6224 204.091 59.0038 204.352 59.3387 204.231Z" fill="#0B4E4A"/>
<path d="M54.1481 182.884C55.897 182.549 57.6458 182.214 59.3946 181.88C59.7388 181.814 59.9341 181.396 59.8504 181.08C59.7481 180.717 59.3946 180.559 59.0504 180.624C57.3016 180.959 55.5528 181.294 53.804 181.628C53.4598 181.694 53.2644 182.112 53.3482 182.428C53.4505 182.791 53.804 182.949 54.1481 182.884Z" fill="#0B4E4A"/>
<path d="M68.3341 260.076C70.0922 259.174 71.8504 258.281 73.5992 257.379C73.9154 257.22 73.9992 256.783 73.8317 256.486C73.6457 256.169 73.255 256.095 72.9387 256.253C71.1806 257.155 69.4225 258.048 67.6737 258.951C67.3574 259.109 67.2737 259.546 67.4411 259.843C67.6272 260.16 68.0178 260.234 68.3341 260.076Z" fill="#0B4E4A"/>
<path d="M71.3852 274.512C73.041 274.995 74.9015 274.688 76.2968 273.675C76.5759 273.47 76.7247 273.107 76.5294 272.782C76.3619 272.503 75.9247 272.344 75.6363 272.549C75.0131 272.996 74.455 273.247 73.7108 273.377C73.6829 273.377 73.4782 273.414 73.5713 273.405C73.4782 273.414 73.3852 273.423 73.2922 273.433C73.1061 273.442 72.9201 273.442 72.7341 273.433C72.3806 273.414 72.1201 273.368 71.7294 273.256C71.3945 273.154 71.0225 273.377 70.9294 273.712C70.8364 274.056 71.0411 274.409 71.3852 274.512Z" fill="#0B4E4A"/>
<path d="M95.6173 197.05C90.6592 202.919 85.7011 208.779 80.743 214.648C79.3198 216.332 77.9059 218.006 76.4826 219.69C75.9431 220.322 76.864 221.252 77.4035 220.61C82.3616 214.741 87.3197 208.881 92.2778 203.012C93.701 201.329 95.1149 199.654 96.5382 197.971C97.0777 197.338 96.1568 196.408 95.6173 197.05Z" fill="#0B4E4A"/>
<path d="M92.2406 212.444C87.5802 218.164 82.9291 223.884 78.2687 229.614C76.9292 231.26 75.5897 232.907 74.2502 234.553C73.7293 235.195 74.6409 236.125 75.1711 235.474C79.8222 229.754 84.4826 224.033 89.143 218.304C90.4825 216.657 91.822 215.011 93.1616 213.365C93.6825 212.723 92.7709 211.793 92.2406 212.444Z" fill="#0B4E4A"/>
<path d="M106.036 211.551C99.1336 220.954 91.9151 230.126 84.3989 239.046C82.2966 241.538 80.1757 244.003 78.0362 246.459C77.4874 247.091 78.399 248.012 78.9571 247.38C86.6593 238.571 94.0732 229.512 101.171 220.21C103.189 217.559 105.189 214.899 107.161 212.211C107.654 211.532 106.529 210.881 106.036 211.551Z" fill="#0B4E4A"/>
<path d="M115.84 231.233L98.2499 253.072C96.5848 255.146 94.9104 257.22 93.2453 259.285C92.7244 259.927 93.636 260.857 94.1662 260.206C100.027 252.923 105.896 245.65 111.757 238.367C113.422 236.292 115.096 234.218 116.761 232.153C117.282 231.512 116.371 230.581 115.84 231.233Z" fill="#0B4E4A"/>
<path d="M120.873 246.57C116.92 253.844 112.278 260.746 107.003 267.136C106.473 267.778 107.394 268.698 107.924 268.057C113.273 261.583 117.989 254.607 121.999 247.231C122.398 246.496 121.273 245.836 120.873 246.57Z" fill="#0B4E4A"/>
<path d="M125.673 262.634C124.017 263.387 122.649 264.773 121.877 266.41C121.738 266.717 121.784 267.126 122.11 267.303C122.398 267.452 122.845 267.396 123.003 267.071C123.18 266.68 123.394 266.317 123.636 265.964C123.729 265.834 123.831 265.703 123.784 265.759C124.082 265.406 124.222 265.248 124.37 265.099C124.51 264.959 124.659 264.82 124.817 264.689C125.049 264.503 125.142 264.438 125.235 264.373C125.58 264.131 125.952 263.927 126.333 263.75C126.64 263.61 126.742 263.136 126.566 262.857C126.361 262.532 126.008 262.476 125.673 262.625V262.634Z" fill="#0B4E4A"/>
<path d="M75.2178 224.945C81.4781 235.214 88.0734 245.278 95.0035 255.109C96.9663 257.89 98.957 260.653 100.966 263.397C101.459 264.066 102.585 263.415 102.092 262.736C94.9756 253.044 88.185 243.12 81.7386 232.963C79.9154 230.088 78.1107 227.196 76.334 224.284C75.8968 223.568 74.7712 224.219 75.2084 224.945H75.2178Z" fill="#0B4E4A"/>
<path d="M77.3571 213.885C82.7617 221.401 88.1756 228.916 93.5801 236.423C95.115 238.553 96.6499 240.692 98.1847 242.822C98.6685 243.492 99.8033 242.85 99.3103 242.162C93.9057 234.646 88.4918 227.131 83.0873 219.624C81.5524 217.494 80.0175 215.355 78.4827 213.225C77.999 212.555 76.8641 213.197 77.3571 213.885Z" fill="#0B4E4A"/>
<path d="M87.5523 204.268C94.2312 213.234 100.566 222.452 106.538 231.912C108.231 234.6 109.896 237.306 111.543 240.032C111.971 240.748 113.096 240.097 112.668 239.371C106.901 229.782 100.771 220.415 94.287 211.3C92.4452 208.714 90.5755 206.147 88.6871 203.608C88.1941 202.947 87.0592 203.589 87.5616 204.268H87.5523Z" fill="#0B4E4A"/>
<path d="M114.129 244.543C117.691 250.877 121.682 256.969 126.082 262.764C126.584 263.424 127.71 262.773 127.208 262.104C122.808 256.309 118.817 250.217 115.254 243.882C114.845 243.157 113.719 243.808 114.129 244.543Z" fill="#0B4E4A"/>
<path d="M90.5292 262.429C93.4036 266.652 96.5756 270.67 100.045 274.428C100.613 275.042 101.534 274.121 100.966 273.507C97.5802 269.833 94.464 265.908 91.6547 261.769C91.1896 261.081 90.0548 261.732 90.5292 262.429Z" fill="#0B4E4A"/>
<path d="M96.5475 201.403C100.027 206.221 103.506 211.039 106.985 215.857C107.468 216.527 108.603 215.885 108.11 215.197C104.631 210.379 101.152 205.561 97.6731 200.743C97.1894 200.073 96.0545 200.715 96.5475 201.403Z" fill="#0B4E4A"/>
<path d="M115.887 198.566C116.408 200.38 116.929 202.203 117.459 204.017C117.691 204.817 118.947 204.482 118.715 203.673C118.194 201.859 117.673 200.036 117.143 198.222C116.91 197.422 115.654 197.757 115.887 198.566Z" fill="#0B4E4A"/>
<path d="M120.175 199.887C121.04 200.798 121.896 201.719 122.761 202.631C122.994 202.882 123.45 202.882 123.682 202.631C123.924 202.361 123.933 201.98 123.682 201.71C122.817 200.798 121.961 199.878 121.096 198.966C120.863 198.715 120.408 198.715 120.175 198.966C119.933 199.236 119.924 199.617 120.175 199.887Z" fill="#0B4E4A"/>
<path d="M75.1526 141.465C75.4224 142.712 75.9898 143.819 77.2549 144.265C78.3991 144.674 79.8502 144.525 81.0409 144.479C83.6083 144.377 86.1757 144.005 88.6594 143.353C91.0408 142.73 93.4966 141.893 95.6547 140.693C96.7709 140.07 97.636 139.121 97.7477 137.801C97.85 136.563 97.3942 135.187 97.1151 133.987C96.5291 131.448 95.7942 128.955 94.9105 126.499C94.4826 125.318 94.1291 123.886 92.9384 123.244C91.7943 122.63 90.3152 122.9 89.0873 123.011C86.3525 123.244 83.6362 123.681 80.9758 124.323C78.8735 124.834 77.1247 125.951 75.8689 127.718C75.2456 128.601 74.7898 129.653 74.5759 130.713C74.3061 132.006 74.4084 133.28 74.4922 134.592C74.6224 136.87 74.6968 139.224 75.1526 141.465C75.2921 142.154 76.1107 142.554 76.7526 142.377C77.4689 142.181 77.8037 141.465 77.6642 140.777C77.5061 140.014 77.4968 139.754 77.413 138.907C77.32 137.912 77.2456 136.926 77.1805 135.931C77.1154 134.889 77.041 133.847 76.9944 132.806C76.9665 131.95 77.041 131.364 77.32 130.545C77.7851 129.178 78.8177 128.006 80.1758 127.318C80.8735 126.964 81.9153 126.76 82.799 126.564C83.9246 126.313 85.0688 126.109 86.2036 125.941C87.3385 125.774 88.4734 125.653 89.6082 125.569C90.1385 125.532 90.678 125.476 91.2082 125.476C91.5989 125.476 91.7012 125.476 91.8594 125.765C92.2966 126.592 92.5942 127.709 92.9105 128.648C93.2826 129.755 93.6175 130.862 93.9245 131.987C94.2221 133.075 94.5012 134.173 94.743 135.28C94.864 135.819 94.9756 136.35 95.0779 136.889C95.143 137.252 95.2268 137.652 95.05 137.912C94.9291 138.089 94.6221 138.284 94.3338 138.442C93.8779 138.693 93.4035 138.907 92.9291 139.112C91.9524 139.549 90.9477 139.921 89.9338 140.256C87.6548 141 85.2827 141.521 82.892 141.744C81.6549 141.865 80.4084 141.912 79.1712 141.893C78.8084 141.893 78.2409 141.958 77.9526 141.735C78.0642 141.819 77.8316 141.465 77.8503 141.53C77.7572 141.289 77.7107 141.028 77.6549 140.777C77.5061 140.089 76.7061 139.689 76.0549 139.865C75.348 140.061 74.9945 140.777 75.1433 141.465H75.1526Z" fill="#32485E"/>
<path d="M75.8038 134.824C81.9712 133.42 88.1385 132.015 94.3059 130.62C94.9943 130.462 95.3942 129.671 95.2175 129.02C95.0222 128.313 94.3059 127.95 93.6175 128.108C87.4502 129.513 81.2828 130.917 75.1155 132.313C74.4271 132.471 74.0271 133.261 74.2038 133.913C74.3992 134.619 75.1155 134.982 75.8038 134.824Z" fill="#32485E"/>
<path d="M118.873 95.5166C121.227 89.8334 124.519 83.7318 130.305 81.9831C133.924 80.8855 138.063 81.8622 140.854 84.4666C143.747 87.1733 145.012 91.2379 145.756 95.1817C146.417 98.6697 146.752 102.279 146.073 105.757C145.077 105.646 144.082 105.525 143.077 105.413C142.798 105.376 142.501 105.339 142.268 105.171C141.877 104.892 141.784 104.344 141.719 103.86C141.208 100.018 140.156 96.2514 138.612 92.7076C137.561 90.3078 135.998 87.7778 133.487 87.2012C131.273 86.6896 128.957 87.936 127.505 89.7218C126.054 91.5077 125.301 93.7679 124.575 95.963C122.836 95.9816 121.106 95.9909 119.366 96.0095L118.882 95.5073L118.873 95.5166Z" fill="#32485E"/>
<path d="M166.872 207.319C177.263 206.407 187.653 205.496 198.044 204.584C198.639 204.528 199.263 204.482 199.802 204.742C200.807 205.226 201.104 206.528 201.253 207.654C202.704 218.741 201.635 229.986 200.565 241.12C200.37 243.175 200.109 245.389 198.751 246.933C197.886 247.919 196.677 248.505 195.477 249.026C187.663 252.458 179.235 254.411 170.742 254.756C169.83 254.793 168.863 254.793 168.091 254.3C166.844 253.5 166.621 251.77 166.519 250.263C165.626 236.311 165.291 222.322 165.533 208.342L166.872 207.319Z" fill="#32485E"/>
<path d="M165.97 207.347C167.57 209.263 169.179 211.179 170.779 213.095C172.547 215.206 174.454 217.411 177.086 218.294C179.049 218.955 181.188 218.787 183.253 218.611C188.267 218.183 193.281 217.755 198.286 217.336C199.783 217.206 201.43 217.011 202.435 215.904C203.104 215.16 203.356 214.146 203.514 213.16C204.044 209.998 203.942 206.733 203.225 203.608C191.151 205.226 178.863 204.919 166.751 206.268L165.961 207.356L165.97 207.347Z" fill="#87C3A9"/>
<path d="M185.877 217.355C185.97 218.118 186.119 218.871 186.407 219.587C186.677 220.276 187.039 220.955 187.635 221.429C188.258 221.922 189.095 222.136 189.867 221.875C190.76 221.578 191.365 220.824 191.691 219.969C192.128 218.806 191.877 217.513 191.635 216.332C191.57 215.988 191.151 215.792 190.835 215.876C190.472 215.978 190.314 216.332 190.379 216.676C190.546 217.513 190.742 218.406 190.537 219.252C190.453 219.597 190.37 219.792 190.156 220.099C190.016 220.266 189.96 220.322 189.895 220.378C189.719 220.508 189.644 220.555 189.56 220.592C189.412 220.648 189.179 220.685 189.3 220.666C189.235 220.666 189.17 220.666 189.105 220.666C188.807 220.62 188.658 220.555 188.723 220.592C188.798 220.629 188.639 220.545 188.621 220.536C188.528 220.489 188.407 220.387 188.379 220.359C188.332 220.313 188.286 220.276 188.249 220.229C188.202 220.183 188.165 220.136 188.119 220.08C187.97 219.866 187.895 219.736 187.83 219.606C187.793 219.541 187.765 219.476 187.737 219.42C187.719 219.383 187.635 219.197 187.681 219.29C187.542 218.955 187.439 218.611 187.356 218.266C187.319 218.099 187.281 217.941 187.253 217.773C187.235 217.68 187.226 217.587 187.207 217.504C187.16 217.215 187.207 217.541 187.188 217.346C187.142 216.992 186.919 216.695 186.537 216.695C186.221 216.695 185.839 216.992 185.886 217.346L185.877 217.355Z" fill="#87C3A9"/>
<path d="M120.761 95.6747C126.929 97.3024 132.408 100.632 138.054 103.479C143.542 106.25 149.421 108.566 155.663 108.585C158.677 108.594 161.663 108.018 164.389 106.725C167.142 105.422 169.375 103.311 171.533 101.218C173.523 99.2929 175.263 97.6373 177.672 96.3537C179.849 95.191 182.202 94.419 184.677 93.8609C190.081 92.6518 196.025 92.568 201.346 93.9632C202.965 94.3818 203.663 91.8797 202.035 91.4519C196.984 90.1404 191.616 90.0939 186.481 90.8845C181.384 91.6658 176.314 93.4517 172.379 96.8653C170.11 98.8371 168.128 101.162 165.682 102.93C163.44 104.539 160.826 105.562 158.091 105.86C152.184 106.501 146.342 104.604 141.087 102.074C134.612 98.9674 128.464 94.9957 121.45 93.154C119.831 92.7262 119.133 95.2375 120.761 95.6654V95.6747Z" fill="#32485E"/>
<path d="M167.514 153.092C168.221 159.78 168.928 166.458 169.644 173.146L170.696 183.061C170.872 184.735 171.03 186.419 171.226 188.093C171.319 188.883 171.477 189.628 172.091 190.195C172.696 190.762 173.561 190.893 174.342 191.06C180.454 192.316 186.807 192.26 192.891 190.893C194.351 190.567 195.858 190.195 197.253 189.655C198.091 189.33 198.732 188.818 199.039 187.953C199.291 187.228 199.244 186.381 199.263 185.628C199.346 182.298 199.374 178.959 199.356 175.62C199.309 168.16 198.993 160.7 198.416 153.269C198.36 152.562 197.867 151.976 197.114 151.966C189.895 151.901 182.686 151.836 175.468 151.78C173.421 151.762 171.375 151.743 169.328 151.725C168.119 151.715 167.728 153.12 168.407 153.948C173.561 160.198 179.133 166.104 185.077 171.611C185.709 172.197 186.658 172.076 187.123 171.35C190.816 165.565 194.342 159.668 197.7 153.669C198.518 152.208 196.267 150.887 195.449 152.357C192.1 158.347 188.574 164.244 184.872 170.039C185.551 169.955 186.23 169.862 186.919 169.778C180.975 164.272 175.403 158.375 170.249 152.115C169.942 152.859 169.635 153.594 169.328 154.338C176.547 154.403 183.756 154.468 190.974 154.524C193.021 154.543 195.067 154.561 197.114 154.58C196.677 154.143 196.249 153.715 195.812 153.278C196.295 159.575 196.602 165.881 196.705 172.188C196.76 175.341 196.77 178.503 196.723 181.656C196.705 183.238 196.677 184.809 196.63 186.391C196.63 186.623 196.649 187.005 196.574 187.125C196.537 187.191 196.612 187.172 196.407 187.219C195.709 187.377 195.021 187.665 194.333 187.86C188.798 189.414 182.891 189.823 177.198 188.958C176.472 188.846 175.747 188.716 175.03 188.567C174.714 188.502 174.398 188.446 174.091 188.363C174.035 188.344 173.803 188.27 173.793 188.27C173.793 188.158 173.793 187.86 173.775 187.609C173.728 187.181 173.682 186.744 173.635 186.316C173.551 185.526 173.468 184.735 173.384 183.944C173.049 180.782 172.714 177.62 172.379 174.457C171.626 167.342 170.872 160.226 170.119 153.11C170.044 152.413 169.57 151.808 168.817 151.808C168.175 151.808 167.44 152.404 167.514 153.11V153.092Z" fill="#32485E"/>
<path d="M164.063 107.618C169.114 111.236 173.226 116.063 176.444 121.346C179.998 127.188 182.454 133.587 184.268 140.163C185.356 144.098 186.212 148.088 186.947 152.097C187.077 152.785 187.914 153.176 188.547 153.008C189.272 152.813 189.579 152.097 189.458 151.408C188.137 144.2 186.416 137.019 183.7 130.201C181.198 123.904 177.877 117.951 173.458 112.789C171.077 109.999 168.37 107.506 165.384 105.367C164.817 104.957 163.933 105.264 163.607 105.832C163.226 106.483 163.505 107.199 164.072 107.608L164.063 107.618Z" fill="#32485E"/>
<path d="M166.063 301.021C168.128 303.132 169.226 305.997 169.933 308.815C170.64 311.615 170.965 314.489 171.179 317.354C171.244 318.182 172.547 318.191 172.482 317.354C172.249 314.321 171.905 311.271 171.151 308.313C170.389 305.327 169.179 302.323 166.993 300.1C166.407 299.504 165.486 300.425 166.072 301.021H166.063Z" fill="#7F4924"/>
<path d="M161.356 303.346C163.44 301.913 165.812 301.03 168.314 300.695C169.03 300.602 168.872 299.318 168.137 299.421C165.477 299.783 162.919 300.704 160.696 302.23C160.407 302.425 160.277 302.797 160.463 303.123C160.631 303.411 161.058 303.56 161.356 303.355V303.346Z" fill="#7F4924"/>
<path d="M157.244 308.22C157.319 310.945 157.226 313.68 156.938 316.396C156.798 317.707 156.621 319.019 156.379 320.321C156.212 321.251 155.979 322.358 155.086 322.86C154.352 323.269 155.012 324.395 155.747 323.986C156.733 323.437 157.226 322.414 157.496 321.353C157.831 320.014 157.979 318.609 158.147 317.233C158.51 314.247 158.631 311.233 158.547 308.229C158.519 307.392 157.217 307.392 157.244 308.229V308.22Z" fill="#7F4924"/>
<path d="M152.928 274.986C154.398 274.679 155.868 274.363 157.338 274.056C157.682 273.982 157.877 273.582 157.793 273.256C157.691 272.903 157.338 272.726 156.993 272.8C155.524 273.107 154.054 273.423 152.584 273.73C152.24 273.805 152.045 274.205 152.128 274.53C152.231 274.884 152.584 275.06 152.928 274.986Z" fill="#7F4924"/>
<path d="M150.91 220.341C150.993 220.462 151.068 220.592 151.133 220.722C151.161 220.778 151.189 220.834 151.217 220.899C151.347 221.243 151.431 221.503 151.477 221.782C151.477 221.81 151.514 222.052 151.496 221.885C151.524 222.201 151.533 222.35 151.533 222.499C151.533 222.629 151.524 222.759 151.505 222.889C151.477 223.066 151.458 223.14 151.449 223.215C151.375 223.55 151.551 223.931 151.905 224.015C152.231 224.089 152.631 223.912 152.705 223.559C152.993 222.238 152.77 220.824 152.026 219.68C151.84 219.392 151.44 219.252 151.133 219.448C150.845 219.634 150.705 220.034 150.9 220.341H150.91Z" fill="#7F4924"/>
</g>
<defs>
<filter id="filter0_d_65_2021" x="0" y="0" width="377" height="560" filterUnits="userSpaceOnUse" color-interpolation-filters="sRGB">
<feFlood flood-opacity="0" result="BackgroundImageFix"/>
<feColorMatrix in="SourceAlpha" type="matrix" values="0 0 0 0 0 0 0 0 0 0 0 0 0 0 0 0 0 0 127 0" result="hardAlpha"/>
<feOffset dx="5" dy="5"/>
<feGaussianBlur stdDeviation="7.5"/>
<feComposite in2="hardAlpha" operator="out"/>
<feColorMatrix type="matrix" values="0 0 0 0 0 0 0 0 0 0 0 0 0 0 0 0 0 0 0.25 0"/>
<feBlend mode="normal" in2="BackgroundImageFix" result="effect1_dropShadow_65_2021"/>
<feBlend mode="normal" in="SourceGraphic" in2="effect1_dropShadow_65_2021" result="shape"/>
</filter>
<clipPath id="clip0_65_2021">
<rect width="347" height="530" fill="white" transform="translate(10 10)"/>
</clipPath>
</defs>
</svg>
